<svg width="164" height="149" viewBox="0 0 164 149" fill="none" xmlns="http://www.w3.org/2000/svg">
<g id="sota">
<path d="M49.8663 146.428L114.004 146.428C119.67 146.428 124.892 143.36 127.649 138.41L159.705 80.8569C162.37 76.0717 162.334 70.24 159.61 65.4881L127.684 9.80272C124.9 4.94713 119.731 1.95229 114.134 1.95229L49.996 1.9523C44.3298 1.9523 39.1079 5.02102 36.3508 9.97122L4.29505 67.5239C1.62978 72.3091 1.6659 78.1408 4.39027 82.8926L36.3163 138.578C39.1001 143.434 44.2693 146.428 49.8663 146.428Z" fill="#FEFEFE"/>
<path d="M49.8663 147.405L114.004 147.405C120.024 147.405 125.573 144.144 128.502 138.885L160.558 81.3319C163.39 76.2476 163.351 70.0514 160.457 65.0026L128.531 9.31719C125.573 4.15811 120.081 0.976093 114.134 0.976094L49.996 0.976099C43.9756 0.9761 38.4274 4.23663 35.4979 9.49621L3.44222 67.0489C0.610375 72.1332 0.648752 78.3293 3.54339 83.3782L35.4694 139.064C38.4272 144.223 43.9195 147.405 49.8663 147.405Z" stroke="url(#paint0_radial_3094_4891)" stroke-opacity="0.6" stroke-width="1.95238"/>
<path d="M49.8663 147.405L114.004 147.405C120.024 147.405 125.573 144.144 128.502 138.885L160.558 81.3319C163.39 76.2476 163.351 70.0514 160.457 65.0026L128.531 9.31719C125.573 4.15811 120.081 0.976093 114.134 0.976094L49.996 0.976099C43.9756 0.9761 38.4274 4.23663 35.4979 9.49621L3.44222 67.0489C0.610375 72.1332 0.648752 78.3293 3.54339 83.3782L35.4694 139.064C38.4272 144.223 43.9195 147.405 49.8663 147.405Z" stroke="url(#paint1_radial_3094_4891)" stroke-opacity="0.8" stroke-width="1.95238"/>
</g>
<defs>
<radialGradient id="paint0_radial_3094_4891" cx="0" cy="0" r="1" gradientUnits="userSpaceOnUse" gradientTransform="translate(173.111 199.704) rotate(-124.526) scale(301.407 345.043)">
<stop offset="0.0991917" stop-color="#FFC896"/>
<stop offset="0.81433" stop-color="#FFC896" stop-opacity="0.1"/>
</radialGradient>
<radialGradient id="paint1_radial_3094_4891" cx="0" cy="0" r="1" gradientUnits="userSpaceOnUse" gradientTransform="translate(22.7778 164.037) rotate(-56.1419) scale(207.688 234.453)">
<stop stop-color="#FFC896"/>
<stop offset="0.555881" stop-color="#FFC896" stop-opacity="0.5"/>
<stop offset="1" stop-color="#FFC896" stop-opacity="0.1"/>
</radialGradient>
</defs>
</svg>
