<svg width="36" height="36" viewBox="0 0 36 36" fill="none" xmlns="http://www.w3.org/2000/svg">
<g id="Calender" clip-path="url(#clip0_2548_7763)">
<path id="Vector" d="M24 8.5498H12C8.68629 8.5498 6 11.2361 6 14.5498V25.4998C6 28.8135 8.68629 31.4998 12 31.4998H24C27.3137 31.4998 30 28.8135 30 25.4998V14.5498C30 11.2361 27.3137 8.5498 24 8.5498Z" stroke="#171717" stroke-width="1.5" stroke-linejoin="round"/>
<path id="Vector_2" d="M12.6001 4.5V8.55" stroke="#171717" stroke-width="1.5" stroke-linecap="round" stroke-linejoin="round"/>
<path id="Vector_3" d="M23.3999 4.5V8.55" stroke="#171717" stroke-width="1.5" stroke-linecap="round" stroke-linejoin="round"/>
<path id="Vector_4" d="M30.15 15.2998H5.8501" stroke="#171717" stroke-width="1.5" stroke-linejoin="round"/>
<path id="Vector_5" d="M12.4349 20.7002H12.765" stroke="#171717" stroke-width="1.5" stroke-linecap="round" stroke-linejoin="round"/>
<path id="Vector_6" d="M16.98 20.7002H19.02" stroke="#171717" stroke-width="1.5" stroke-linecap="round" stroke-linejoin="round"/>
<path id="Vector_7" d="M23.235 20.7002H23.565" stroke="#171717" stroke-width="1.5" stroke-linecap="round" stroke-linejoin="round"/>
<path id="Vector_8" d="M12.4349 26.1001H14.8649" stroke="#171717" stroke-width="1.5" stroke-linecap="round" stroke-linejoin="round"/>
<path id="Vector_9" d="M19.3501 26.1001H19.02" stroke="#171717" stroke-width="1.5" stroke-linecap="round" stroke-linejoin="round"/>
<path id="Vector_10" d="M23.235 26.1001H23.565" stroke="#171717" stroke-width="1.5" stroke-linecap="round" stroke-linejoin="round"/>
</g>
<defs>
<clipPath id="clip0_2548_7763">
<rect width="36" height="36" fill="white"/>
</clipPath>
</defs>
</svg>
