<svg width="160" height="160" viewBox="0 0 160 160" fill="none" xmlns="http://www.w3.org/2000/svg">
<path d="M127.939 20.7797L116.76 14.3257C115.811 13.7528 115.197 13.2271 114.135 13.3521L78.5491 17.5364C77.6146 17.6462 76.6397 17.9944 75.6646 18.5572C74.6897 19.12 73.7148 19.8978 72.7801 20.867L37.1938 57.7743C34.8829 60.171 33.332 63.9668 33.332 67.226V93.9531C33.332 113.353 39.7175 127.773 50.4208 133.95L50.4195 133.952L50.5251 134.013L50.5738 134.042L59.9203 139.438L127.939 20.7797Z" fill="url(#paint0_linear_2836_24444)"/>
<path d="M66.6808 114.945L33.3535 95.7041C33.7269 114.22 40.0454 127.961 50.4242 133.951L50.4229 133.954L50.5286 134.015L50.5773 134.043L59.9237 139.439L65.9131 128.991L66.6808 114.945Z" fill="url(#paint1_linear_2836_24444)"/>
<path d="M126.008 20.3888L90.4219 24.5729C88.553 24.7927 86.522 25.9653 84.6531 27.9035L49.0668 64.8111C46.756 67.2077 45.2051 71.0035 45.2051 74.2627V100.99C45.2051 125.926 55.7522 142.641 72.4631 144.189L84.0279 145.259C86.2359 145.464 88.8388 143.961 91.0471 141.207L102.612 126.782C119.323 105.938 129.87 77.0446 129.87 52.1087V25.3813C129.87 22.1219 128.319 20.1172 126.008 20.3888Z" fill="url(#paint2_linear_2836_24444)"/>
<path d="M87.5311 33.3811C87.8656 33.1879 88.1957 33.0711 88.5119 33.034L124.025 28.8584V55.4817C124.025 66.2726 121.779 78.1273 117.531 89.7648C113.283 101.402 107.215 112.321 99.9837 121.341L88.4189 135.766C88.1447 136.108 87.8377 136.382 87.5308 136.559C87.2241 136.736 86.917 136.816 86.6428 136.791L75.078 135.72C67.8465 135.051 61.7785 131.138 57.5305 124.406C53.2825 117.674 51.0371 108.412 51.0371 97.621V70.9974L86.55 34.1666C86.8662 33.8386 87.1963 33.5742 87.5311 33.3811Z" fill="url(#paint3_linear_2836_24444)"/>
<path d="M84.9969 91.9531L67.1152 92.6863V101.112L67.1307 101.123C67.0423 103.451 67.6433 105.42 68.9475 106.406L80.5734 115.195C81.7949 116.118 83.396 116.008 84.9969 115.084C86.598 114.16 88.1989 112.421 89.4204 110.087L84.9969 91.9531Z" fill="url(#paint4_linear_2836_24444)"/>
<path d="M109.469 51.0973C107.026 49.372 103.065 51.537 100.622 56.205L85.4329 85.2253L83.6651 84.0089L77.494 80.4211L77.4927 80.4338C75.0355 78.9682 71.2908 81.2442 68.9436 85.7291C66.5006 90.3972 66.5006 95.6786 68.9436 97.5256L80.5695 106.314C80.7976 106.487 81.0426 106.612 81.2947 106.714L81.2895 106.724L87.4894 110.335L115.238 54.4444C115.238 54.4444 109.487 51.1105 109.469 51.0973Z" fill="url(#paint5_linear_2836_24444)"/>
<path d="M75.4947 101.305L68.9355 97.5181L68.943 97.5248L80.5689 106.314C80.797 106.486 81.042 106.611 81.2941 106.713L81.2889 106.723L87.4888 110.334L87.7914 109.725L75.4947 101.305Z" fill="url(#paint6_linear_2836_24444)"/>
<path d="M109.464 51.0973C107.021 49.372 103.06 51.537 100.616 56.205L85.4277 85.2253L91.5395 89.8457L115.233 54.4444C115.233 54.4444 109.482 51.1105 109.464 51.0973Z" fill="url(#paint7_linear_2836_24444)"/>
<path d="M91.5399 109.985C89.9388 110.91 88.3376 111.02 87.1164 110.096L75.4905 101.307C73.0474 99.4604 73.0474 94.179 75.4905 89.5109C77.9335 84.8431 81.8947 82.5557 84.3378 84.4029L91.5399 89.8475L107.168 59.9871C109.611 55.319 113.572 53.0322 116.015 54.8794C118.459 56.7264 118.459 62.0078 116.015 66.6759L95.9637 104.988C94.7421 107.323 93.141 109.061 91.5399 109.985Z" fill="url(#paint8_linear_2836_24444)"/>
<defs>
<linearGradient id="paint0_linear_2836_24444" x1="57.6198" y1="82.5453" x2="101.926" y2="5.80568" gradientUnits="userSpaceOnUse">
<stop offset="0.032" stop-color="#A996EB"/>
<stop offset="0.065" stop-color="#B3A3ED"/>
<stop offset="0.141" stop-color="#C7BBF0"/>
<stop offset="0.229" stop-color="#D6CEF3"/>
<stop offset="0.331" stop-color="#E1DBF5"/>
<stop offset="0.461" stop-color="#E7E3F6"/>
<stop offset="0.719" stop-color="#E9E5F6"/>
<stop offset="0.763" stop-color="#DFDAF0"/>
<stop offset="0.825" stop-color="#D9D3EC"/>
<stop offset="1" stop-color="#D7D1EB"/>
</linearGradient>
<linearGradient id="paint1_linear_2836_24444" x1="50.017" y1="87.9245" x2="50.017" y2="115.758" gradientUnits="userSpaceOnUse">
<stop offset="0.032" stop-color="#7662BD"/>
<stop offset="1" stop-color="#7662BD" stop-opacity="0"/>
</linearGradient>
<linearGradient id="paint2_linear_2836_24444" x1="87.5376" y1="150.762" x2="87.5376" y2="49.8263" gradientUnits="userSpaceOnUse">
<stop stop-color="#DFDAEF"/>
<stop offset="1" stop-color="white"/>
</linearGradient>
<linearGradient id="paint3_linear_2836_24444" x1="87.5311" y1="156.028" x2="87.5311" y2="56.2365" gradientUnits="userSpaceOnUse">
<stop stop-color="#2F878A"/>
<stop offset="1" stop-color="#06DAAE"/>
</linearGradient>
<linearGradient id="paint4_linear_2836_24444" x1="78.2677" y1="82.8082" x2="78.2677" y2="120.052" gradientUnits="userSpaceOnUse">
<stop offset="0.032" stop-color="#1A4C4E"/>
<stop offset="1" stop-color="#1A4C4E" stop-opacity="0"/>
</linearGradient>
<linearGradient id="paint5_linear_2836_24444" x1="76.7709" y1="100.499" x2="83.4656" y2="88.9983" gradientUnits="userSpaceOnUse">
<stop offset="0.032" stop-color="#A996EB"/>
<stop offset="0.682" stop-color="#D7CFF3"/>
<stop offset="1" stop-color="#E9E5F6"/>
</linearGradient>
<linearGradient id="paint6_linear_2836_24444" x1="82.5081" y1="107.036" x2="73.0862" y2="99.2741" gradientUnits="userSpaceOnUse">
<stop offset="0.032" stop-color="#7662BD"/>
<stop offset="1" stop-color="#7662BD" stop-opacity="0"/>
</linearGradient>
<linearGradient id="paint7_linear_2836_24444" x1="89.8381" y1="86.3803" x2="103.99" y2="62.0684" gradientUnits="userSpaceOnUse">
<stop offset="0.032" stop-color="#A996EB"/>
<stop offset="0.682" stop-color="#D7CFF3"/>
<stop offset="1" stop-color="#E9E5F6"/>
</linearGradient>
<linearGradient id="paint8_linear_2836_24444" x1="95.7531" y1="109.339" x2="95.7531" y2="66.7583" gradientUnits="userSpaceOnUse">
<stop stop-color="#DFDAEF"/>
<stop offset="1" stop-color="white"/>
</linearGradient>
</defs>
</svg>
