<svg width="94" height="114" viewBox="0 0 94 114" fill="none" xmlns="http://www.w3.org/2000/svg">
<g id="icon">
<path id="Vector" d="M79.704 10.6355L65.2751 2.98037C58.3969 -0.555323 49.4882 -0.165297 39.748 5.01948C17.9791 16.6078 0.332031 47.6965 0.332031 74.4583C0.332031 89.6057 5.98896 100.115 14.8439 104.287L28.6906 111.676L79.704 10.6355Z" fill="url(#paint0_linear_2507_14623)"/>
<path id="Vector_2" d="M28.6257 91.9313L0.386719 76.8989C0.965063 90.7331 6.47482 100.342 14.8453 104.286L28.692 111.675L34.0527 101.057L28.6257 91.9313Z" fill="url(#paint1_linear_2507_14623)"/>
<path id="Vector_3" d="M93.6662 40.1991C93.6662 13.4374 76.0189 1.13671 54.25 12.725C32.4811 24.3134 14.834 55.4017 14.834 82.1634C14.834 108.925 32.4813 121.226 54.2502 109.637C76.0192 98.0491 93.6662 66.9608 93.6662 40.1991Z" fill="url(#paint2_linear_2507_14623)"/>
<path id="Vector_4" d="M89.2298 42.5638C89.2298 18.8187 73.5717 7.90443 54.2564 18.1865C34.9412 28.4684 19.2832 56.0529 19.2832 79.7982C19.2832 103.544 34.9412 114.457 54.2564 104.176C73.5717 93.8936 89.2298 66.3092 89.2298 42.5638Z" fill="url(#paint3_linear_2507_14623)"/>
<path id="Vector_5" d="M37.8319 52.6595V58.5969C37.8223 58.8176 37.8237 59.0326 37.8319 59.2437V59.2736H37.8335C37.8964 60.7518 38.3934 61.9759 39.3331 62.6311L46.7735 67.8174C46.7735 67.8174 37.6787 85.1902 37.8638 86.9606V92.0581C37.8129 92.5987 37.8127 93.118 37.8638 93.6043V93.6169L37.865 93.6123C38.0009 94.8917 38.4885 95.9405 39.3331 96.5293C40.3419 97.2323 41.6633 97.1486 42.9856 96.4449C44.3075 95.7412 45.6296 94.4173 46.6381 92.6407L56.7727 74.787L66.9073 81.8511C67.9159 82.5541 69.2377 82.4704 70.5598 81.7665C71.8817 81.0628 73.2038 79.7391 74.2121 77.9623C75.9344 74.9275 37.7538 50.9638 37.8319 52.6595Z" fill="url(#paint4_linear_2507_14623)"/>
<path id="Vector_6" d="M46.7732 67.816L39.3327 80.924C38.1655 82.9803 37.6784 85.1888 37.8635 86.9592V92.0567C37.8126 92.5973 37.8123 93.1166 37.8635 93.6029V93.6155L37.8647 93.6109C38.0005 94.8903 38.4881 95.9391 39.3327 96.5279C40.3415 97.2309 41.6629 97.1472 42.9853 96.4435C44.3071 95.7398 45.6292 94.4159 46.6378 92.6393L56.7724 74.7856L66.907 81.8497C67.9155 82.5527 69.2374 82.469 70.5595 81.7651C71.8813 81.0614 73.2034 79.7377 74.2118 77.9609C75.9343 74.9264 66.7713 57.1709 66.7713 57.1709L46.7732 67.816Z" fill="url(#paint5_linear_2507_14623)"/>
<path id="Vector_7" d="M64.0823 55.353L79.2712 31.1888L73.983 28.3732L73.9835 28.3841C71.9551 27.2534 68.8538 28.9859 66.9116 32.4074L56.777 50.2612L51.7454 45.8918L46.3728 43.0315L46.3807 43.0455C44.3518 41.9475 41.2707 43.6805 39.338 47.0858C37.3209 50.6394 37.3209 54.6601 39.338 56.0662L49.4724 63.13L39.338 80.9836C37.3209 84.5372 37.3209 88.5578 39.338 89.9639C39.4713 90.0569 45.0631 93.031 45.0631 93.031L56.7774 68.2214L67.3831 75.548L72.4504 78.2487L64.0823 55.353Z" fill="url(#paint6_linear_2507_14623)"/>
<path id="Vector_8" d="M73.9678 28.3841C71.9394 27.2534 68.8381 28.9859 66.8959 32.4074L57.124 49.6223L62.1707 53.1401L79.2552 31.1888L73.9671 28.3732L73.9678 28.3841Z" fill="url(#paint7_linear_2507_14623)"/>
<path id="Vector_9" d="M46.3807 43.0466C44.3518 41.9487 41.2707 43.6817 39.338 47.087C37.3209 50.6406 37.3209 54.6613 39.338 56.0673L49.4724 63.1312L54.8818 66.0099L51.7457 45.8928L46.3728 43.0327L46.3807 43.0466Z" fill="url(#paint8_linear_2507_14623)"/>
<path id="Vector_10" d="M69.479 58.2322L79.6133 40.3786C81.6304 36.825 81.6304 32.8043 79.6133 31.3983C77.5962 29.9923 74.3256 31.7334 72.3085 35.2868L62.1739 53.1406L52.0393 46.0765C50.0222 44.6703 46.7516 46.4114 44.7345 49.965C42.7174 53.5187 42.7174 57.5393 44.7345 58.9454L54.8689 66.0092L44.7345 83.8628C42.7174 87.4166 42.7174 91.4373 44.7345 92.8431C45.7431 93.5461 47.0647 93.4625 48.387 92.7588C49.7089 92.0551 51.031 90.7312 52.0396 88.9546L62.1742 71.1008L72.3088 78.1649C73.3173 78.8679 74.6392 78.7842 75.9613 78.0803C77.2831 77.3766 78.6052 76.053 79.6136 74.2761C81.6307 70.7225 81.6307 66.7016 79.6136 65.2956L69.479 58.2322Z" fill="url(#paint9_linear_2507_14623)"/>
<path id="Vector_11" d="M46.7715 67.8184H53.8489L54.8748 66.0113L49.4654 63.1323L46.7715 67.8184Z" fill="url(#paint10_linear_2507_14623)"/>
<path id="Vector_12" d="M61.8369 71.7193L67.3832 75.5507L72.3074 78.1753L72.3215 78.1671L62.1869 71.103L61.8369 71.7193Z" fill="url(#paint11_linear_2507_14623)"/>
</g>
<defs>
<linearGradient id="paint0_linear_2507_14623" x1="26.8586" y1="62.28" x2="60.2078" y2="-0.368164" gradientUnits="userSpaceOnUse">
<stop stop-color="#A996EB"/>
<stop offset="0.246" stop-color="#BEB0EF"/>
<stop offset="0.674" stop-color="#E9E5F6"/>
<stop offset="1" stop-color="#D7D1EB"/>
</linearGradient>
<linearGradient id="paint1_linear_2507_14623" x1="17.2197" y1="70.713" x2="17.2197" y2="92.8451" gradientUnits="userSpaceOnUse">
<stop offset="0.032" stop-color="#7662BD"/>
<stop offset="1" stop-color="#7662BD" stop-opacity="0"/>
</linearGradient>
<linearGradient id="paint2_linear_2507_14623" x1="54.25" y1="113.957" x2="9.47257" y2="29.8424" gradientUnits="userSpaceOnUse">
<stop stop-color="#DFDAEF"/>
<stop offset="1" stop-color="white"/>
</linearGradient>
<linearGradient id="paint3_linear_2507_14623" x1="54.2564" y1="108.013" x2="14.5262" y2="33.3802" gradientUnits="userSpaceOnUse">
<stop stop-color="#AB2C37"/>
<stop offset="1" stop-color="#FF4757"/>
</linearGradient>
<linearGradient id="paint4_linear_2507_14623" x1="56.0467" y1="49.7111" x2="56.0467" y2="67.8694" gradientUnits="userSpaceOnUse">
<stop offset="0.032" stop-color="#5D3645"/>
<stop offset="1" stop-color="#5D3645" stop-opacity="0"/>
</linearGradient>
<linearGradient id="paint5_linear_2507_14623" x1="44.9438" y1="64.9389" x2="61.2393" y2="93.5093" gradientUnits="userSpaceOnUse">
<stop offset="0.032" stop-color="#5D3645"/>
<stop offset="1" stop-color="#5D3645" stop-opacity="0"/>
</linearGradient>
<linearGradient id="paint6_linear_2507_14623" x1="40.3007" y1="87.5587" x2="64.9556" y2="41.2435" gradientUnits="userSpaceOnUse">
<stop offset="0.032" stop-color="#A996EB"/>
<stop offset="0.682" stop-color="#D7CFF3"/>
<stop offset="1" stop-color="#E9E5F6"/>
</linearGradient>
<linearGradient id="paint7_linear_2507_14623" x1="67.6235" y1="40.4943" x2="73.6443" y2="29.1841" gradientUnits="userSpaceOnUse">
<stop offset="0.032" stop-color="#A996EB"/>
<stop offset="0.342" stop-color="#BBACEE"/>
<stop offset="0.983" stop-color="#E8E3F6"/>
<stop offset="1" stop-color="#E9E5F6"/>
</linearGradient>
<linearGradient id="paint8_linear_2507_14623" x1="46.5593" y1="57.4167" x2="50.137" y2="50.6958" gradientUnits="userSpaceOnUse">
<stop offset="0.032" stop-color="#A996EB"/>
<stop offset="0.682" stop-color="#D7CFF3"/>
<stop offset="1" stop-color="#E9E5F6"/>
</linearGradient>
<linearGradient id="paint9_linear_2507_14623" x1="62.1742" y1="92.5607" x2="62.1742" y2="19.3042" gradientUnits="userSpaceOnUse">
<stop stop-color="#DFDAEF"/>
<stop offset="1" stop-color="white"/>
</linearGradient>
<linearGradient id="paint10_linear_2507_14623" x1="51.8601" y1="62.8578" x2="50.9013" y2="67.2704" gradientUnits="userSpaceOnUse">
<stop offset="0.032" stop-color="#7662BD"/>
<stop offset="1" stop-color="#7662BD" stop-opacity="0"/>
</linearGradient>
<linearGradient id="paint11_linear_2507_14623" x1="61.5325" y1="71.0238" x2="71.6955" y2="79.471" gradientUnits="userSpaceOnUse">
<stop offset="0.032" stop-color="#7662BD"/>
<stop offset="1" stop-color="#7662BD" stop-opacity="0"/>
</linearGradient>
</defs>
</svg>
