<svg width="40" height="40" viewBox="0 0 40 40" fill="none" xmlns="http://www.w3.org/2000/svg">
<g filter="url(#filter0_d_1665_15534)">
<g clip-path="url(#clip0_1665_15534)">
<path d="M2 20C2 11.1634 9.16344 4 18 4V4C26.8366 4 34 11.1634 34 20V20C34 28.8366 26.8366 36 18 36V36C9.16344 36 2 28.8366 2 20V20Z" fill="#173C4B"/>
<path d="M11 19.4597C11 23.6241 14.4742 27 18.7598 27C22.0591 27 24.8774 24.9993 26 22.1783C25.1109 22.5841 24.1181 22.8109 23.0709 22.8109C19.2614 22.8109 16.1732 19.8101 16.1732 16.1084C16.1732 14.5603 16.7134 13.1347 17.6205 12C13.875 12.5355 11 15.6713 11 19.4597Z" stroke="#FEFEFE" stroke-width="1.5" stroke-linecap="round" stroke-linejoin="round"/>
</g>
</g>
<defs>
<filter id="filter0_d_1665_15534" x="0" y="0" width="40" height="40" filterUnits="userSpaceOnUse" color-interpolation-filters="sRGB">
<feFlood flood-opacity="0" result="BackgroundImageFix"/>
<feColorMatrix in="SourceAlpha" type="matrix" values="0 0 0 0 0 0 0 0 0 0 0 0 0 0 0 0 0 0 127 0" result="hardAlpha"/>
<feOffset dx="2"/>
<feGaussianBlur stdDeviation="2"/>
<feComposite in2="hardAlpha" operator="out"/>
<feColorMatrix type="matrix" values="0 0 0 0 0.0188561 0 0 0 0 0.119088 0 0 0 0 0.159722 0 0 0 0.4 0"/>
<feBlend mode="normal" in2="BackgroundImageFix" result="effect1_dropShadow_1665_15534"/>
<feBlend mode="normal" in="SourceGraphic" in2="effect1_dropShadow_1665_15534" result="shape"/>
</filter>
<clipPath id="clip0_1665_15534">
<path d="M2 20C2 11.1634 9.16344 4 18 4V4C26.8366 4 34 11.1634 34 20V20C34 28.8366 26.8366 36 18 36V36C9.16344 36 2 28.8366 2 20V20Z" fill="white"/>
</clipPath>
</defs>
</svg>
