<svg width="24" height="25" viewBox="0 0 24 25" fill="none" xmlns="http://www.w3.org/2000/svg">
<path d="M13.3203 4.60797L15.7803 6.58797C16.1403 6.10797 16.4403 5.68797 16.8003 5.14797L14.3403 3.16797C14.0403 3.70797 13.6803 4.18797 13.3203 4.60797ZM21.5403 8.80797C21.2403 9.34797 20.8803 9.82797 20.5803 10.248L23.0403 12.228C23.4003 11.748 23.7003 11.328 24.0003 10.788L21.5403 8.80797Z" fill="#B4241C"/>
<path d="M11.9404 6.22625L14.4004 8.20625C14.8204 7.78625 15.1804 7.42625 15.6004 6.88625L13.0804 4.90625C12.7804 5.44625 12.3604 5.86625 11.9404 6.22625ZM20.2804 10.5462C19.8604 11.0262 19.5004 11.4462 19.0804 11.8663L21.5404 13.8462C21.9604 13.4262 22.3204 13.0662 22.7404 12.5262L20.2804 10.5462Z" fill="#C23F31"/>
<path d="M11.1002 6.94734C10.8002 7.18734 10.5002 7.36734 10.2002 7.60734L12.7202 9.58734L12.7802 9.52734C13.2602 9.22734 13.6802 8.86734 14.1602 8.50734L11.7002 6.52734C11.4602 6.64734 11.2802 6.82734 11.1002 6.94734ZM18.8402 12.1073C18.6602 12.2873 18.4202 12.4073 18.2402 12.5873C17.9402 12.8273 17.6402 13.0073 17.3402 13.2473L19.8002 15.2273L19.8602 15.1673C20.3402 14.8673 20.7602 14.5073 21.2402 14.1473L18.8402 12.1073Z" fill="#DA8C97"/>
<path d="M8.21973 8.68766L10.7397 10.6677L12.3597 9.76766L9.89973 7.84766C9.35973 8.08766 8.81973 8.38766 8.21973 8.68766ZM17.0397 13.4277C16.5597 13.7277 16.0197 14.0277 15.3597 14.2677L17.8797 16.2477L19.4997 15.3477L17.0397 13.4277Z" fill="#EDCDCD"/>
<path d="M6 9.64719L8.4 11.5672C8.46 11.5672 8.52 11.5072 8.58 11.5072C9.18 11.3272 9.72 11.0872 10.32 10.7872L7.8 8.86719C7.26 9.10719 6.72 9.40719 6 9.64719ZM15 14.5072C14.4 14.8072 13.86 15.0472 13.2 15.2872L15.6 17.2072C15.66 17.2072 15.72 17.1472 15.78 17.1472C16.38 16.9672 16.92 16.7272 17.52 16.4272L15 14.5072Z" fill="#DA8D8D"/>
<path d="M4.79984 10.1867C4.43984 10.3067 4.07984 10.4867 3.83984 10.6667L6.29984 12.6467C6.83984 12.2867 7.37984 11.9867 8.03984 11.8067L5.63984 9.88672C5.33984 9.94672 5.09984 10.0667 4.79984 10.1867ZM12.7798 15.4667C12.4798 15.5867 12.2398 15.7067 11.9998 15.8267C11.6398 15.9467 11.2798 16.1267 11.0398 16.3067L13.4998 18.2867C14.0398 17.9267 14.5798 17.6267 15.2398 17.4467C15.2398 17.3867 12.7798 15.4667 12.7798 15.4667Z" fill="#C52E1A"/>
<path d="M2.16016 12.0477L4.62016 14.0277C5.04016 13.5477 5.46016 13.1877 5.94016 12.8277L3.48016 10.8477C3.00016 11.2077 2.52016 11.6277 2.16016 12.0477ZM10.6802 16.4877C10.2002 16.8477 9.78016 17.2677 9.36016 17.6877L11.8202 19.6677C12.2402 19.1877 12.6602 18.8277 13.1402 18.4677L10.6802 16.4877Z" fill="#A6201C"/>
<path d="M0.900391 13.7871L3.42039 15.7071C3.72039 15.1671 4.08039 14.6871 4.38039 14.2671L1.92039 12.2871C1.56039 12.8271 1.20039 13.3071 0.900391 13.7871ZM9.12039 17.9271C8.76039 18.4071 8.40039 18.8271 8.16039 19.3671L10.6204 21.2871C10.9204 20.7471 11.2804 20.2671 11.5804 19.8471L9.12039 17.9271Z" fill="#A01F1C"/>
<path d="M0 15.7665L2.46 17.7465C2.52 17.4465 2.64 17.0265 2.82 16.6665C2.94 16.4265 3.06 16.2465 3.18 16.0065L0.78 14.1465C0.48 14.6865 0.24 15.1665 0 15.7665H0ZM7.92 19.7265C7.62 20.2665 7.38 20.7465 7.14 21.4065L9.6 23.3865C9.66 23.0865 9.78 22.6665 9.96 22.3065C10.08 22.0665 10.2 21.8865 10.32 21.6465L7.92 19.7265Z" fill="#791D19"/>
<path d="M16.9199 7.42633C17.2799 6.94633 17.5799 6.52633 17.8799 5.98633L20.3399 7.96633C20.0399 8.50633 19.6799 8.98633 19.3799 9.40633C19.3799 9.34633 16.9199 7.42633 16.9199 7.42633Z" fill="#DFAF1F"/>
<path d="M15.54 8.98797C15.96 8.56797 16.32 8.20797 16.74 7.66797L19.2 9.64797C18.78 10.128 18.42 10.548 18 10.968L15.54 8.98797Z" fill="#F0D24F"/>
<path d="M13.7998 10.3666C14.1598 10.1266 14.4598 9.94656 14.6998 9.70656C14.8798 9.58656 15.1198 9.40656 15.2998 9.22656L17.7598 11.2066C17.2798 11.6266 16.8598 11.9266 16.3798 12.2266L16.3198 12.2866L13.7998 10.3666Z" fill="#F6DA82"/>
<path d="M11.7598 11.4474C12.4198 11.1474 12.8998 10.8474 13.4398 10.6074L15.8998 12.5874C15.3598 12.9474 14.8198 13.2474 14.2798 13.4874L11.7598 11.4474Z" fill="#FFF8BE"/>
<path d="M9.59961 12.4675C10.2596 12.1675 10.8596 11.9275 11.3996 11.6875L13.9196 13.6675C13.3196 13.9675 12.7796 14.2075 12.1796 14.3875C12.1196 14.3875 12.0596 14.4475 11.9996 14.4475C11.9996 14.3875 9.59961 12.4675 9.59961 12.4675Z" fill="#F6DE73"/>
<path d="M7.37988 13.4279C7.67988 13.2479 8.03988 13.0679 8.33988 12.9479C8.63988 12.8279 8.93988 12.7079 9.11988 12.5879L11.5199 14.5079C10.8599 14.7479 10.3199 15.0479 9.77988 15.3479C9.83988 15.3479 7.37988 13.4279 7.37988 13.4279Z" fill="#E4A922"/>
<path d="M5.7002 14.868C6.1202 14.388 6.5402 14.028 7.0202 13.668L9.4802 15.648C9.0002 16.008 8.5802 16.368 8.1602 16.848C8.2202 16.788 5.7002 14.868 5.7002 14.868Z" fill="#C6972C"/>
<path d="M4.5 16.5474C4.8 16.0674 5.16 15.5274 5.46 15.1074L7.92 17.0874C7.56 17.5074 7.2 17.9874 6.96 18.5274L4.5 16.5474Z" fill="#C48422"/>
<path d="M6.05961 20.5662L3.59961 18.5862C3.83961 17.9862 4.07961 17.4462 4.31961 16.9062L6.71961 18.8262C6.59961 19.0062 6.47961 19.2462 6.35961 19.4862C6.29961 19.8462 6.11961 20.2662 6.05961 20.5662Z" fill="#B86821"/>
<path d="M18.1201 5.74695C18.4201 5.26695 18.7801 4.72695 18.9601 4.12695L21.4201 6.10695C21.1801 6.64695 20.8201 7.18695 20.6401 7.66695C20.6401 7.60695 18.1201 5.74695 18.1201 5.74695Z" fill="#D9A41F"/>
<path d="M19.1396 3.76734C19.4396 3.22734 19.6196 2.62734 19.7996 2.02734L22.2596 4.00734C22.0796 4.60734 21.8396 5.20734 21.5396 5.68734L19.1396 3.76734Z" fill="#D5931F"/>
</svg>
