<svg width="28" height="28" viewBox="0 0 28 28" fill="none" xmlns="http://www.w3.org/2000/svg">
<path d="M24.7665 17.9532L15.3753 12.2958C15.1611 12.1668 14.918 12.0989 14.6706 12.0991C14.4231 12.0993 14.1801 12.1675 13.9661 12.2968L3.23289 18.7852C3.0768 18.8796 2.99932 19.0444 3.00015 19.2087L3 19.2088L3.00049 20.707H3.00103C2.99522 20.8766 3.07221 21.0488 3.23348 21.146L12.6247 26.8034C12.8388 26.9324 13.082 27.0003 13.3294 27.0001C13.5769 26.9999 13.8199 26.9316 14.0339 26.8023L24.7671 20.3139C24.9247 20.2186 25.0019 20.0516 24.9996 19.8857L25 19.8856V18.3966L24.9987 18.3967C25.006 18.2257 24.9292 18.0512 24.7665 17.9532Z" fill="url(#paint0_linear_2227_27173)"/>
<path d="M14.0339 25.2839L24.7671 18.7955C25.0779 18.6076 25.0775 18.1406 24.7665 17.9532L15.3753 12.2958C15.1612 12.1668 14.918 12.0989 14.6706 12.0991C14.4231 12.0993 14.1801 12.1675 13.9661 12.2969L3.23291 18.7852C2.92209 18.9731 2.92243 19.4401 3.23354 19.6275L12.6248 25.2849C12.8389 25.414 13.082 25.4818 13.3295 25.4816C13.5769 25.4814 13.82 25.4132 14.0339 25.2839Z" fill="#E9E5F6"/>
<path d="M21.8993 5.7135L15.0088 1.5625C14.8517 1.46786 14.6733 1.41808 14.4917 1.41821C14.3101 1.41835 14.1318 1.46839 13.9748 1.56326L6.0996 6.324C5.98505 6.39326 5.92822 6.51418 5.92881 6.63478L5.9291 18.7789C5.92485 18.9033 5.98173 19.0297 6.10004 19.1009L12.9906 23.2519C13.1477 23.3466 13.3261 23.3964 13.5077 23.3962C13.6893 23.3961 13.8676 23.3461 14.0246 23.2512L21.8998 18.4905C22.0155 18.4206 22.0721 18.2981 22.0704 18.1763L22.0707 6.03886L22.0697 6.03891C22.0751 5.91343 22.0187 5.78541 21.8993 5.7135Z" fill="url(#paint1_linear_2227_27173)"/>
<path d="M14.0272 12.6133C13.8582 12.7154 13.6663 12.7693 13.4708 12.7695C13.2753 12.7696 13.0833 12.716 12.9142 12.6142L5.92969 8.40659L5.92983 13.4581H5.93022C5.92598 13.5825 5.98247 13.7089 6.10077 13.7802L12.9913 17.9312C13.1485 18.0258 13.3269 18.0756 13.5084 18.0754C13.69 18.0753 13.8683 18.0252 14.0253 17.9303L21.9006 13.1697C22.0162 13.0998 22.0729 12.9772 22.0712 12.8555L22.0715 12.8554V7.75049L14.0272 12.6133Z" fill="url(#paint2_linear_2227_27173)"/>
<path d="M21.5284 14.7361L19.458 15.9684V19.9593L21.5284 18.7271V14.7361Z" fill="url(#paint3_linear_2227_27173)"/>
<path d="M16.7523 17.4465L15.3789 18.2565V21.3013L16.7523 20.4914V17.4465Z" fill="url(#paint4_linear_2227_27173)"/>
<path d="M18.8265 16.1873L17.4531 16.9972V20.042L18.8265 19.2321V16.1873Z" fill="url(#paint5_linear_2227_27173)"/>
<path d="M16.7523 12.7799L15.3789 13.5899V16.6347L16.7523 15.8248V12.7799Z" fill="url(#paint6_linear_2227_27173)"/>
<path d="M18.8265 11.5208L17.4531 12.3307V15.3755L18.8265 14.5656V11.5208Z" fill="url(#paint7_linear_2227_27173)"/>
<path d="M20.9027 10.2615L19.5293 11.0714V14.1163L20.9027 13.3063V10.2615Z" fill="url(#paint8_linear_2227_27173)"/>
<path d="M10.9375 13.1748L12.3108 13.9848V17.0296L10.9375 16.2197V13.1748Z" fill="url(#paint9_linear_2227_27173)"/>
<path d="M6.78711 10.6564L8.1605 11.4663V14.5112L6.78711 13.7012V10.6564Z" fill="url(#paint10_linear_2227_27173)"/>
<path d="M10.9375 17.8315L12.3108 18.6415V21.6863L10.9375 20.8764V17.8315Z" fill="url(#paint11_linear_2227_27173)"/>
<path d="M8.8623 16.5978L10.2357 17.4077V20.4526L8.8623 19.6426V16.5978Z" fill="url(#paint12_linear_2227_27173)"/>
<path d="M6.78711 15.3129L8.1605 16.1228V19.1677L6.78711 18.3577V15.3129Z" fill="url(#paint13_linear_2227_27173)"/>
<g opacity="0.25">
<path opacity="0.5" d="M19.457 19.062L21.5274 14.9475V14.7363L20.3989 15.408L19.457 17.2798V19.062ZM21.5274 17.1041V15.8288L19.457 19.9596L20.3645 19.4195L21.5274 17.1041Z" fill="white"/>
</g>
<g opacity="0.25">
<path opacity="0.5" d="M15.3779 16.3873L16.7513 13.658V12.7802L16.1167 13.1545L15.3779 14.6226V16.3873ZM16.7513 15.7934V14.5307L15.8251 16.3713L16.7286 15.8385L16.7513 15.7934ZM18.8264 11.6697V11.521L18.0292 11.9911L17.453 13.1362V14.399L18.8264 11.6697ZM19.5281 11.7253V13.49L20.9015 10.7607V10.2617L19.9958 10.7958L19.5281 11.7253ZM20.9015 12.8961V11.6334L19.7042 14.0126L20.6078 13.4798L20.9015 12.8961ZM18.8264 14.5658V13.1198L17.7917 15.176L18.8264 14.5658Z" fill="white"/>
</g>
<g opacity="0.25">
<path opacity="0.5" d="M15.3779 20.511L16.7513 17.7817V17.4465L15.7285 18.0497L15.3779 18.7464V20.511ZM16.7513 19.9172V18.6544L15.4369 21.2665L16.3404 20.7337L16.7513 19.9172ZM18.5446 16.3534L17.641 16.8863L17.453 17.2599V18.5227L18.5446 16.3534ZM18.8264 16.9994L17.453 19.7287V20.042L18.4915 19.4295L18.8264 18.7641V16.9994Z" fill="white"/>
</g>
<g opacity="0.25">
<path opacity="0.5" d="M6.78711 16.0198V17.1277L7.66737 18.8769L8.1605 19.1678V18.7491L6.78711 16.0198ZM7.94162 15.9938L6.82915 15.3377L8.1605 17.9835V16.4273L7.94162 15.9938ZM8.86221 17.8168V19.378L9.05155 19.7543L10.1752 20.417L8.86221 17.8168ZM12.0621 21.5397L10.9373 19.3044V20.4123L11.2694 21.0722L12.0621 21.5397ZM11.5389 18.1863L10.9373 17.8315V18.5389L12.3106 21.2681V19.72L11.5389 18.1863ZM10.2356 19.0178V17.91L9.87615 17.1958L9.08348 16.7282L10.2356 19.0178ZM10.9373 14.086V15.1938L11.6714 16.6527L12.3106 17.0297V16.8153L10.9373 14.086ZM11.941 13.7669L10.9373 13.1749V13.3204L12.3106 16.0497V14.5015L11.941 13.7669ZM8.04278 14.4417L6.78711 11.9464V13.0543L7.25006 13.9742L8.04278 14.4417ZM7.51963 11.0884L6.78711 10.6564V11.1808L8.1605 13.9102V12.362L7.51963 11.0884Z" fill="white"/>
</g>
<path d="M22.504 5.62386L15.0864 1.15532C14.9172 1.05343 14.7252 0.999849 14.5297 1C14.3343 1.00015 14.1423 1.05403 13.9733 1.15619L5.49569 6.28103C5.37241 6.35557 5.31118 6.48573 5.31187 6.61558L5.31177 6.61563L5.31216 7.79899H5.3126C5.30801 7.9329 5.36884 8.06895 5.49618 8.14568L12.9139 12.6142C13.083 12.7161 13.275 12.7697 13.4705 12.7695C13.666 12.7694 13.8579 12.7155 14.0269 12.6134L22.5046 7.48851C22.629 7.41326 22.6901 7.28138 22.6882 7.15031L22.6886 7.15026V5.97415L22.6875 5.9742C22.6932 5.83902 22.6326 5.70125 22.504 5.62386Z" fill="url(#paint14_linear_2227_27173)"/>
<path d="M14.0269 11.414L22.5046 6.2891C22.7501 6.14072 22.7498 5.77184 22.5041 5.62381L15.0864 1.15532C14.9172 1.05343 14.7252 0.999849 14.5297 1C14.3343 1.00015 14.1423 1.05403 13.9733 1.15619L5.49571 6.28103C5.25022 6.42941 5.25052 6.79829 5.4962 6.94632L12.9139 11.4149C13.083 11.5167 13.275 11.5703 13.4705 11.5702C13.666 11.57 13.8579 11.5161 14.0269 11.414Z" fill="#C5BAEB"/>
<path d="M14.5306 2.11475C14.5372 2.11475 14.5434 2.11647 14.5491 2.11988L20.9192 5.95735L13.4882 10.4496C13.4826 10.453 13.4762 10.4548 13.4697 10.4548C13.4632 10.4548 13.4568 10.453 13.4512 10.4496L7.08105 6.61208L14.5121 2.11993C14.5177 2.11647 14.5241 2.11468 14.5306 2.11475Z" fill="url(#paint15_linear_2227_27173)"/>
<path d="M14.5301 3.31445C14.5201 3.31445 14.5137 3.31836 14.5116 3.31963L8.07422 7.21109L13.4506 10.45C13.4562 10.4534 13.4626 10.4552 13.4691 10.4551C13.479 10.4551 13.4855 10.4512 13.4876 10.4499L19.9249 6.55849L14.5485 3.31963C14.5429 3.31621 14.5365 3.31442 14.5301 3.31445Z" fill="#49456C"/>
<path d="M22.5657 14.7234C22.5657 14.6908 22.5502 14.6582 22.5192 14.6396L21.4563 14.0021L19.0986 15.4178V15.879L20.1344 16.5004C20.1851 16.5308 20.2425 16.5468 20.301 16.5468C20.3594 16.5468 20.4168 16.5308 20.4675 16.5004L22.5192 15.2684C22.5334 15.2599 22.5452 15.2477 22.5533 15.233C22.5615 15.2183 22.5658 15.2016 22.5657 15.1846V14.7234Z" fill="url(#paint16_linear_2227_27173)"/>
<path d="M19.0986 15.4178L21.4563 14.0021L22.5192 14.6397C22.5812 14.6769 22.5812 14.7699 22.5192 14.8072L20.4675 16.0392C20.4169 16.0696 20.3595 16.0856 20.301 16.0856C20.2426 16.0856 20.1851 16.0696 20.1345 16.0392L19.0986 15.4178Z" fill="#F97E3A"/>
<defs>
<linearGradient id="paint0_linear_2227_27173" x1="11.9954" y1="19.5496" x2="17.7787" y2="19.5496" gradientUnits="userSpaceOnUse">
<stop stop-color="#C5BAEB"/>
<stop offset="1" stop-color="#D7D1EB"/>
</linearGradient>
<linearGradient id="paint1_linear_2227_27173" x1="13.2651" y1="12.4072" x2="16.3633" y2="12.4072" gradientUnits="userSpaceOnUse">
<stop stop-color="#594A8E"/>
<stop offset="1" stop-color="#A996EB"/>
</linearGradient>
<linearGradient id="paint2_linear_2227_27173" x1="12.7203" y1="12.913" x2="14.439" y2="12.913" gradientUnits="userSpaceOnUse">
<stop stop-color="#C5BAEB"/>
<stop offset="1" stop-color="#D7D1EB"/>
</linearGradient>
<linearGradient id="paint3_linear_2227_27173" x1="20.456" y1="19.2962" x2="20.5293" y2="15.7481" gradientUnits="userSpaceOnUse">
<stop stop-color="#252336"/>
<stop offset="1" stop-color="#49456C"/>
</linearGradient>
<linearGradient id="paint4_linear_2227_27173" x1="16.0381" y1="20.8108" x2="16.0922" y2="18.1944" gradientUnits="userSpaceOnUse">
<stop stop-color="#252336"/>
<stop offset="1" stop-color="#49456C"/>
</linearGradient>
<linearGradient id="paint5_linear_2227_27173" x1="18.1398" y1="19.8721" x2="18.1398" y2="17.4789" gradientUnits="userSpaceOnUse">
<stop stop-color="#252336"/>
<stop offset="1" stop-color="#49456C"/>
</linearGradient>
<linearGradient id="paint6_linear_2227_27173" x1="16.0381" y1="16.1441" x2="16.0922" y2="13.5278" gradientUnits="userSpaceOnUse">
<stop stop-color="#252336"/>
<stop offset="1" stop-color="#49456C"/>
</linearGradient>
<linearGradient id="paint7_linear_2227_27173" x1="18.1124" y1="14.885" x2="18.1664" y2="12.2686" gradientUnits="userSpaceOnUse">
<stop stop-color="#252336"/>
<stop offset="1" stop-color="#49456C"/>
</linearGradient>
<linearGradient id="paint8_linear_2227_27173" x1="20.1886" y1="13.6257" x2="20.2426" y2="11.0093" gradientUnits="userSpaceOnUse">
<stop stop-color="#252336"/>
<stop offset="1" stop-color="#49456C"/>
</linearGradient>
<linearGradient id="paint9_linear_2227_27173" x1="11.6516" y1="16.539" x2="11.5975" y2="13.9226" gradientUnits="userSpaceOnUse">
<stop stop-color="#252336"/>
<stop offset="1" stop-color="#49456C"/>
</linearGradient>
<linearGradient id="paint10_linear_2227_27173" x1="7.50127" y1="14.0206" x2="7.44718" y2="11.4042" gradientUnits="userSpaceOnUse">
<stop stop-color="#252336"/>
<stop offset="1" stop-color="#49456C"/>
</linearGradient>
<linearGradient id="paint11_linear_2227_27173" x1="11.6516" y1="21.1958" x2="11.5975" y2="18.5794" gradientUnits="userSpaceOnUse">
<stop stop-color="#252336"/>
<stop offset="1" stop-color="#49456C"/>
</linearGradient>
<linearGradient id="paint12_linear_2227_27173" x1="9.57641" y1="19.962" x2="9.52238" y2="17.3456" gradientUnits="userSpaceOnUse">
<stop stop-color="#252336"/>
<stop offset="1" stop-color="#49456C"/>
</linearGradient>
<linearGradient id="paint13_linear_2227_27173" x1="7.50127" y1="18.6771" x2="7.44718" y2="16.0607" gradientUnits="userSpaceOnUse">
<stop stop-color="#252336"/>
<stop offset="1" stop-color="#49456C"/>
</linearGradient>
<linearGradient id="paint14_linear_2227_27173" x1="12.4167" y1="6.88477" x2="16.9847" y2="6.88477" gradientUnits="userSpaceOnUse">
<stop stop-color="#594A8E"/>
<stop offset="1" stop-color="#A996EB"/>
</linearGradient>
<linearGradient id="paint15_linear_2227_27173" x1="7.08105" y1="6.28474" x2="20.9192" y2="6.28474" gradientUnits="userSpaceOnUse">
<stop stop-color="#594A8E"/>
<stop offset="1" stop-color="#A996EB"/>
</linearGradient>
<linearGradient id="paint16_linear_2227_27173" x1="19.0986" y1="15.2744" x2="22.5657" y2="15.2744" gradientUnits="userSpaceOnUse">
<stop stop-color="#FD7C34"/>
<stop offset="1" stop-color="#FAB690"/>
</linearGradient>
</defs>
</svg>
