<svg width="40" height="40" viewBox="0 0 40 40" fill="none" xmlns="http://www.w3.org/2000/svg">
<g filter="url(#filter0_d_2117_15320)">
<path d="M2 20C2 11.1634 9.16344 4 18 4C26.8366 4 34 11.1634 34 20C34 28.8366 26.8366 36 18 36C9.16344 36 2 28.8366 2 20Z" fill="#173C4B"/>
<path d="M23 20C23 22.7614 20.7614 25 18 25C15.2386 25 13 22.7614 13 20C13 17.2386 15.2386 15 18 15C20.7614 15 23 17.2386 23 20Z" stroke="#FEFEFE" stroke-width="1.5"/>
<path d="M24.3117 13.6883L24.4286 13.5714M11.5714 26.4286L11.6883 26.3117M18 11.0739V11M18 29V28.9261M9.07394 20H9M27 20H26.9261M11.6883 13.6883L11.5714 13.5714M24.4286 26.4286L24.3117 26.3117" stroke="#FEFEFE" stroke-width="1.5" stroke-linecap="round" stroke-linejoin="round"/>
</g>
<defs>
<filter id="filter0_d_2117_15320" x="0" y="0" width="40" height="40" filterUnits="userSpaceOnUse" color-interpolation-filters="sRGB">
<feFlood flood-opacity="0" result="BackgroundImageFix"/>
<feColorMatrix in="SourceAlpha" type="matrix" values="0 0 0 0 0 0 0 0 0 0 0 0 0 0 0 0 0 0 127 0" result="hardAlpha"/>
<feOffset dx="2"/>
<feGaussianBlur stdDeviation="2"/>
<feComposite in2="hardAlpha" operator="out"/>
<feColorMatrix type="matrix" values="0 0 0 0 0.0188561 0 0 0 0 0.119088 0 0 0 0 0.159722 0 0 0 0.4 0"/>
<feBlend mode="normal" in2="BackgroundImageFix" result="effect1_dropShadow_2117_15320"/>
<feBlend mode="normal" in="SourceGraphic" in2="effect1_dropShadow_2117_15320" result="shape"/>
</filter>
</defs>
</svg>
