<svg width="24" height="24" viewBox="0 0 24 24" fill="none" xmlns="http://www.w3.org/2000/svg">
<path d="M23.9713 12.212L23.9718 12.2121L22.8689 9.59179L8.31562 6.75928L7.20996 8.96274L7.21037 8.96279C7.11554 9.12469 7.1884 9.32822 7.41897 9.47457L17.5456 15.913C17.8473 16.1044 18.3036 16.1252 18.5648 15.9594L23.8238 12.6219C23.9901 12.5163 24.0367 12.3607 23.9713 12.212Z" fill="url(#paint0_linear_2572_14298)"/>
<path d="M12.999 3.74164L8.43622 6.63736C8.20956 6.78119 8.23799 7.03246 8.4997 7.19857L17.2857 12.7846C17.5475 12.9507 17.9434 12.9688 18.17 12.8249L22.7328 9.92922C22.9595 9.78539 22.9311 9.53411 22.6693 9.36801L13.8834 3.78193C13.6216 3.61583 13.2257 3.59781 12.999 3.74164Z" fill="url(#paint1_linear_2572_14298)"/>
<path d="M16.0962 5.18886L13.8833 3.78193C13.6216 3.61583 13.2256 3.59781 12.999 3.74164L8.43622 6.63731C8.20956 6.78114 8.23799 7.03242 8.4997 7.19852L14.5632 11.0536L16.0962 5.18886Z" fill="url(#paint2_linear_2572_14298)"/>
<path d="M10.7294 6.30043L10.9505 6.44071L11.2205 6.26932C11.2565 6.24646 11.3194 6.24933 11.361 6.27574L11.3658 6.27875C11.4073 6.30512 11.4119 6.34507 11.3759 6.36788L11.1058 6.53926L11.3149 6.67194C11.3677 6.70541 11.3735 6.75612 11.3277 6.78511L11.3257 6.78644C11.2799 6.81547 11.2001 6.81182 11.1473 6.77829L10.5355 6.39C10.4643 6.34482 10.4565 6.27643 10.5182 6.23728L10.8887 6.00215C10.9247 5.97929 10.9876 5.98215 11.0291 6.00857L11.0339 6.01158C11.0755 6.03795 11.08 6.07789 11.044 6.1007L10.7294 6.30043ZM11.1504 5.83615L11.1525 5.83481C11.1982 5.80578 11.2781 5.80943 11.3309 5.84296L11.9761 6.25244C12.0288 6.28591 12.0346 6.33662 11.9889 6.36561L11.9868 6.36694C11.9411 6.39597 11.8612 6.39232 11.8084 6.35879L11.1632 5.94932C11.1105 5.91584 11.1047 5.86518 11.1504 5.83615ZM12.1669 5.31236L12.7997 5.71399C12.8594 5.75181 12.8658 5.80899 12.8142 5.84178C12.7862 5.8595 12.7453 5.86715 12.7026 5.86261L11.9011 5.77675L12.3133 6.03834C12.3661 6.07182 12.3718 6.12253 12.3261 6.15151C12.2804 6.18055 12.2005 6.17689 12.1477 6.14337L11.5149 5.74174C11.4553 5.70392 11.4488 5.64674 11.5004 5.61395L11.5013 5.61336C11.5294 5.59559 11.5704 5.58793 11.6132 5.59257L12.4135 5.67903L12.0013 5.41744C11.9485 5.38396 11.9428 5.33325 11.9885 5.30422C12.0342 5.27523 12.1141 5.27889 12.1669 5.31236ZM13.5601 5.26684L13.5649 5.26985C13.6065 5.29622 13.611 5.33616 13.575 5.35897L13.191 5.60265C13.1293 5.6418 13.0216 5.63686 12.9504 5.59168L12.3719 5.22457C12.3007 5.17939 12.2929 5.11101 12.3546 5.07185L12.7251 4.83672C12.7611 4.81386 12.824 4.81672 12.8656 4.84314L12.8703 4.84615C12.9119 4.87252 12.9164 4.91247 12.8804 4.93528L12.5648 5.13555L12.7464 5.25079L13.0175 5.07876C13.0535 5.0559 13.1163 5.05877 13.1579 5.08518C13.1995 5.11155 13.204 5.1515 13.168 5.17431L12.8969 5.34633L13.0905 5.46918L13.4195 5.26037C13.4557 5.23756 13.5185 5.24042 13.5601 5.26684ZM12.1471 7.54249C12.2054 7.50546 12.3074 7.5101 12.3748 7.55286L12.721 7.77263C12.7067 7.90308 12.6065 8.03161 12.4637 8.12222C12.1495 8.3216 11.6692 8.31039 11.3213 8.08958C10.9734 7.86877 10.9557 7.56397 11.2741 7.36187C11.4002 7.28188 11.5464 7.23433 11.703 7.22159C11.7991 7.21379 11.8943 7.26766 11.8974 7.33047C11.8998 7.37698 11.8496 7.41253 11.7782 7.41752C11.6738 7.42483 11.587 7.45203 11.5131 7.49899C11.3188 7.62223 11.3361 7.80176 11.5554 7.94091C11.7714 8.07797 12.0576 8.09101 12.2489 7.96959C12.3118 7.92975 12.3572 7.88417 12.3794 7.82403L12.1634 7.68696C12.096 7.6442 12.0887 7.57952 12.1471 7.54249ZM12.4222 7.3909C12.0792 7.17325 12.0566 6.86529 12.3722 6.66502C12.6863 6.46564 13.1713 6.47804 13.5159 6.69677C13.8606 6.91546 13.8801 7.22327 13.5659 7.42265C13.2504 7.62287 12.7652 7.60856 12.4222 7.3909ZM13.2818 6.84535C13.0625 6.70615 12.7782 6.69613 12.5998 6.8094C12.4213 6.92267 12.4371 7.10309 12.6564 7.24228C12.8757 7.38147 13.16 7.3915 13.3384 7.27823C13.5169 7.16491 13.5011 6.98454 13.2818 6.84535ZM13.2187 6.1529L13.2387 6.14021C13.297 6.10317 13.399 6.10781 13.4664 6.15057L14.2809 6.66749L14.6879 6.40921C14.74 6.37617 14.8309 6.38032 14.891 6.41844C14.9511 6.45656 14.9576 6.51428 14.9056 6.54731L14.3711 6.88653C14.3138 6.92292 14.2136 6.91837 14.1474 6.87635L13.2351 6.29737C13.1676 6.25461 13.1603 6.18993 13.2187 6.1529ZM14.0953 5.7487C14.0291 5.70668 14.0219 5.64313 14.0793 5.60674L14.4296 5.38445C14.7566 5.17692 15.2083 5.17905 15.5579 5.40089C15.9074 5.62274 15.9108 5.90942 15.5838 6.11695L15.2335 6.33924C15.1762 6.37563 15.076 6.37104 15.0098 6.32907L14.0953 5.7487ZM15.3531 5.98502C15.5516 5.85906 15.5447 5.68975 15.3237 5.54952C15.1027 5.40929 14.836 5.40489 14.6375 5.53085L14.4261 5.66501L15.1417 6.11917L15.3531 5.98502ZM14.434 8.30194C14.6869 8.46242 14.6967 8.63519 14.5049 8.75695C14.4654 8.78198 14.4207 8.80252 14.3749 8.81669C14.3276 8.83136 14.2644 8.81259 14.2431 8.77803L14.2426 8.77729C14.2254 8.74954 14.2422 8.72154 14.2805 8.70999C14.3098 8.70102 14.3379 8.68796 14.3643 8.67113C14.4692 8.60452 14.4659 8.51515 14.3293 8.42277C14.3351 8.47348 14.3038 8.52256 14.2377 8.56448C14.1156 8.642 13.9298 8.64585 13.7919 8.55831C13.6425 8.4635 13.6543 8.33661 13.7882 8.25163C13.9638 8.14019 14.1979 8.15209 14.434 8.30194ZM14.1428 8.32495C14.0801 8.28516 13.9934 8.28185 13.9238 8.32604C13.8613 8.36564 13.8597 8.41976 13.9266 8.46217C13.9934 8.50459 14.0788 8.50478 14.1439 8.46346C14.2082 8.42272 14.2065 8.36539 14.1428 8.32495ZM15.0104 7.93617C15.2632 8.09664 15.2731 8.26941 15.0813 8.39112C15.0403 8.41681 14.9967 8.43689 14.9513 8.45091C14.904 8.46558 14.8408 8.44677 14.8194 8.41225L14.819 8.41151C14.8018 8.38376 14.8186 8.35577 14.8568 8.34421C14.8862 8.33524 14.9143 8.32218 14.9406 8.30535C15.0456 8.23874 15.0423 8.14937 14.9057 8.05699C14.9115 8.1077 14.8802 8.15673 14.8141 8.19865C14.6919 8.27617 14.5062 8.28002 14.3682 8.19248C14.2188 8.09768 14.2307 7.97078 14.3646 7.8858C14.5402 7.77441 14.7742 7.78631 15.0104 7.93617ZM14.7191 7.95922C14.6564 7.91943 14.5698 7.91612 14.5001 7.96031C14.4377 7.99991 14.436 8.05403 14.5029 8.09644C14.5698 8.13891 14.6551 8.1391 14.7202 8.09773C14.7845 8.05699 14.7829 7.99966 14.7191 7.95922ZM15.5867 7.57039C15.8395 7.73086 15.8494 7.90363 15.6576 8.02534C15.6166 8.05103 15.573 8.07111 15.5276 8.08513C15.4803 8.0998 15.4171 8.08099 15.3957 8.04647L15.3953 8.04573C15.3781 8.01798 15.3949 7.98999 15.4332 7.97843C15.4625 7.96946 15.4906 7.9564 15.5169 7.93957C15.6219 7.87296 15.6186 7.78354 15.482 7.69121C15.4878 7.74192 15.4565 7.791 15.3904 7.83292C15.2683 7.91044 15.0825 7.91429 14.9446 7.82675C14.7952 7.73195 14.807 7.60505 14.9409 7.52007C15.1165 7.40868 15.3506 7.42058 15.5867 7.57039ZM15.2954 7.59345C15.2327 7.55365 15.1461 7.55034 15.0764 7.59453C15.014 7.63413 15.0124 7.68825 15.0792 7.73066C15.1461 7.77308 15.2314 7.77327 15.2966 7.73195C15.3608 7.69121 15.3592 7.63388 15.2954 7.59345ZM15.9283 7.71832C15.8677 7.67985 15.8669 7.62998 15.9157 7.59898C15.9646 7.56797 16.0432 7.56846 16.1038 7.60693C16.1634 7.6447 16.1673 7.69659 16.1185 7.7276C16.0696 7.75861 15.9878 7.75609 15.9283 7.71832ZM16.3883 7.06166C16.6412 7.22214 16.651 7.3949 16.4592 7.51662C16.4183 7.54231 16.3746 7.56239 16.3293 7.57641C16.282 7.59108 16.2187 7.57226 16.1974 7.53775L16.1969 7.53701C16.1798 7.50926 16.1966 7.48126 16.2348 7.46971C16.2641 7.46074 16.2923 7.44768 16.3186 7.43085C16.4235 7.36424 16.4202 7.27482 16.2837 7.18249C16.2894 7.2332 16.2581 7.28228 16.192 7.3242C16.0699 7.40172 15.8841 7.40557 15.7462 7.31803C15.5968 7.22322 15.6086 7.09633 15.7425 7.01135C15.9181 6.89991 16.1522 6.91181 16.3883 7.06166ZM16.0971 7.08472C16.0344 7.04493 15.9477 7.04162 15.878 7.08581C15.8156 7.12541 15.814 7.17953 15.8808 7.22194C15.9477 7.26435 16.0331 7.26455 16.0982 7.22322C16.1625 7.18249 16.1608 7.12516 16.0971 7.08472Z" fill="#8B451C"/>
<path d="M17.8014 16.1408L17.8019 16.1409L16.699 13.5205L2.14565 10.688L1.04004 12.8914L1.04045 12.8915C0.945621 13.0534 1.01848 13.2569 1.24905 13.4032L11.3757 19.8416C11.6773 20.0331 12.1337 20.0539 12.3949 19.8881L17.6539 16.5506C17.8202 16.4451 17.8669 16.2894 17.8014 16.1408Z" fill="url(#paint3_linear_2572_14298)"/>
<path d="M12.1179 16.2934L9.23047 14.5098L10.8171 19.4856L11.3774 19.8419C11.6791 20.0333 12.1354 20.0541 12.3966 19.8883L12.82 19.6196L12.1179 16.2934Z" fill="url(#paint4_linear_2572_14298)"/>
<path d="M4.77255 15.6435L7.0621 17.0992L6.24277 13.2182L3.46076 10.944L3.26172 10.9053L4.77255 15.6435Z" fill="url(#paint5_linear_2572_14298)"/>
<path d="M6.82911 7.66986L2.2663 10.5656C2.03964 10.7094 2.06807 10.9607 2.32977 11.1268L11.1158 16.7129C11.3775 16.879 11.7735 16.897 12.0001 16.7532L16.5629 13.8574C16.7896 13.7136 16.7612 13.4623 16.4995 13.2962L7.71344 7.71015C7.45169 7.54405 7.05577 7.52603 6.82911 7.66986Z" fill="url(#paint6_linear_2572_14298)"/>
<path d="M9.92632 9.11708L7.7134 7.71015C7.45165 7.54405 7.05573 7.52603 6.82906 7.66986L2.2663 10.5655C2.03964 10.7094 2.06807 10.9606 2.32977 11.1267L8.39325 14.9818L9.92632 9.11708Z" fill="url(#paint7_linear_2572_14298)"/>
<path d="M4.56147 10.2292L4.78252 10.3695L5.05258 10.1981C5.08856 10.1752 5.15145 10.1781 5.19304 10.2045L5.19781 10.2075C5.23936 10.2339 5.24389 10.2738 5.20791 10.2966L4.93786 10.468L5.14696 10.6007C5.19974 10.6342 5.20549 10.6849 5.15976 10.7139L5.15769 10.7152C5.11196 10.7442 5.0321 10.7406 4.97932 10.7071L4.36751 10.3188C4.29631 10.2736 4.28854 10.2052 4.35022 10.166L4.72071 9.93091C4.75669 9.90805 4.81958 9.91091 4.86118 9.93733L4.86594 9.94034C4.90749 9.96671 4.91203 10.0067 4.87605 10.0295L4.56147 10.2292ZM4.98246 9.76491L4.98453 9.76357C5.03026 9.73454 5.11008 9.73819 5.1629 9.77172L5.80808 10.1812C5.86086 10.2147 5.86661 10.2654 5.82089 10.2944L5.81882 10.2957C5.77309 10.3247 5.69322 10.3211 5.64044 10.2876L4.99526 9.87808C4.94248 9.8446 4.93673 9.79389 4.98246 9.76491ZM5.9989 9.24112L6.63178 9.64275C6.69138 9.68057 6.69785 9.73775 6.64624 9.77054C6.61825 9.78831 6.57733 9.79591 6.53461 9.79137L5.73316 9.70551L6.14534 9.9671C6.19812 10.0006 6.20387 10.0513 6.15814 10.0803C6.11241 10.1093 6.03259 10.1057 5.97977 10.0721L5.34689 9.6705C5.28729 9.63268 5.28082 9.5755 5.33243 9.54271L5.33337 9.54212C5.3614 9.52435 5.40241 9.51674 5.44522 9.52133L6.24551 9.60779L5.83333 9.3462C5.78055 9.31272 5.7748 9.26201 5.82053 9.23303C5.86625 9.20399 5.94612 9.20765 5.9989 9.24112ZM7.39218 9.19555L7.39694 9.19856C7.43849 9.22493 7.44302 9.26487 7.40704 9.28769L7.02307 9.53136C6.9614 9.57051 6.85368 9.56558 6.78244 9.5204L6.20396 9.15328C6.13276 9.1081 6.12499 9.03972 6.18667 9.00056L6.55716 8.76543C6.59314 8.74257 6.65603 8.74544 6.69763 8.77185L6.70239 8.77486C6.74394 8.80123 6.74848 8.84118 6.7125 8.86399L6.39689 9.06426L6.5785 9.1795L6.84959 9.00748C6.88562 8.98461 6.94846 8.98748 6.99006 9.01389C7.03161 9.04026 7.03614 9.08021 7.00016 9.10302L6.72907 9.27505L6.92263 9.39789L7.25167 9.18908C7.28769 9.16632 7.35058 9.16918 7.39218 9.19555ZM5.97909 11.4712C6.03744 11.4342 6.13941 11.4388 6.20679 11.4816L6.55308 11.7013C6.53875 11.8318 6.43853 11.9603 6.29569 12.0509C5.98156 12.2503 5.50124 12.2391 5.15329 12.0183C4.80539 11.7975 4.78773 11.4927 5.10617 11.2906C5.23221 11.2106 5.37847 11.163 5.53506 11.1503C5.63115 11.1425 5.72633 11.1963 5.72947 11.2592C5.73181 11.3056 5.68164 11.3412 5.61026 11.3462C5.50586 11.3535 5.41912 11.3807 5.34514 11.4277C5.15091 11.5509 5.16816 11.7305 5.38746 11.8696C5.60347 12.0067 5.88961 12.0197 6.08097 11.8983C6.14381 11.8585 6.18918 11.8129 6.21142 11.7527L5.9954 11.6157C5.92806 11.573 5.92074 11.5082 5.97909 11.4712ZM6.25423 11.3197C5.91126 11.102 5.88867 10.7941 6.20423 10.5938C6.5184 10.3944 7.00344 10.4068 7.34802 10.6255C7.69264 10.8442 7.71218 11.152 7.39802 11.3514C7.08245 11.5516 6.59719 11.5373 6.25423 11.3197ZM7.11385 10.7741C6.89456 10.6349 6.61026 10.6249 6.43179 10.7382C6.25328 10.8514 6.26909 11.0319 6.48839 11.171C6.70769 11.3102 6.99199 11.3203 7.1705 11.207C7.34896 11.0937 7.33315 10.9132 7.11385 10.7741ZM7.05074 10.0817L7.07073 10.069C7.12908 10.0319 7.23105 10.0366 7.29843 10.0793L8.11296 10.5963L8.51993 10.338C8.57199 10.3049 8.66291 10.3091 8.72301 10.3472C8.78311 10.3854 8.78963 10.443 8.73761 10.4761L8.20311 10.8153C8.14579 10.8517 8.04562 10.8471 7.97945 10.8051L7.06714 10.2261C6.99967 10.1834 6.99239 10.1187 7.05074 10.0817ZM7.92735 9.67746C7.86114 9.63544 7.85395 9.5719 7.91131 9.5355L8.2616 9.31321C8.58861 9.10569 9.04032 9.10781 9.38989 9.32966C9.73945 9.5515 9.74282 9.83818 9.41581 10.0457L9.06552 10.268C9.00821 10.3044 8.90803 10.2998 8.84182 10.2578L7.92735 9.67746ZM9.1851 9.91378C9.3836 9.78782 9.37668 9.61851 9.15572 9.47828C8.93476 9.33805 8.66798 9.33365 8.46948 9.45961L8.25814 9.59372L8.97375 10.0479L9.1851 9.91378ZM8.26604 12.2307C8.5189 12.3911 8.52873 12.5639 8.33693 12.6857C8.29744 12.7107 8.25275 12.7312 8.20697 12.7454C8.15967 12.7601 8.09643 12.7413 8.07509 12.7067L8.07464 12.706C8.05748 12.6783 8.07428 12.6503 8.11251 12.6387C8.14183 12.6297 8.16998 12.6167 8.19628 12.5998C8.30126 12.5332 8.29794 12.4439 8.16138 12.3515C8.16713 12.4022 8.13582 12.4513 8.06974 12.4932C7.94761 12.5707 7.76182 12.5746 7.62392 12.487C7.47451 12.3922 7.48633 12.2653 7.62023 12.1803C7.79582 12.0689 8.02994 12.0808 8.26604 12.2307ZM7.97483 12.2537C7.91212 12.2139 7.82547 12.2106 7.7558 12.2548C7.69336 12.2944 7.69175 12.3485 7.75859 12.3909C7.82547 12.4333 7.91082 12.4335 7.97595 12.3922C8.04019 12.3515 8.03857 12.2942 7.97483 12.2537ZM8.84241 11.8649C9.09526 12.0254 9.1051 12.1982 8.91329 12.3199C8.87236 12.3456 8.82871 12.3656 8.78334 12.3797C8.73604 12.3943 8.67279 12.3756 8.65145 12.341L8.651 12.3403C8.63385 12.3125 8.65064 12.2845 8.68887 12.273C8.71819 12.264 8.74635 12.2509 8.77265 12.2341C8.87762 12.1675 8.8743 12.0781 8.73774 11.9857C8.74349 12.0365 8.71218 12.0855 8.64611 12.1275C8.52397 12.205 8.33818 12.2088 8.20028 12.1213C8.05088 12.0265 8.06269 11.8996 8.1966 11.8146C8.37219 11.7032 8.60626 11.7151 8.84241 11.8649ZM8.55115 11.8879C8.48844 11.8481 8.40179 11.8448 8.33212 11.889C8.26968 11.9286 8.26806 11.9827 8.3349 12.0252C8.40179 12.0676 8.48714 12.0678 8.55227 12.0264C8.61651 11.9857 8.61489 11.9284 8.55115 11.8879ZM9.41873 11.4991C9.67158 11.6596 9.68142 11.8324 9.48961 11.9541C9.44868 11.9798 9.40503 11.9999 9.35966 12.0139C9.31236 12.0286 9.24911 12.0097 9.22777 11.9752L9.22732 11.9745C9.21016 11.9467 9.22696 11.9187 9.26519 11.9072C9.29451 11.8982 9.32266 11.8852 9.34897 11.8683C9.45394 11.8017 9.45062 11.7123 9.31406 11.6199C9.31981 11.6706 9.2885 11.7197 9.22243 11.7616C9.10029 11.8392 8.9145 11.843 8.7766 11.7555C8.6272 11.6607 8.63901 11.5338 8.77296 11.4488C8.94851 11.3374 9.18263 11.3493 9.41873 11.4991ZM9.12751 11.5222C9.0648 11.4824 8.97815 11.4791 8.90848 11.5233C8.84605 11.5629 8.84443 11.617 8.91127 11.6594C8.97815 11.7018 9.0635 11.702 9.12863 11.6607C9.19287 11.62 9.19121 11.5626 9.12751 11.5222ZM9.76034 11.6471C9.69974 11.6086 9.69894 11.5587 9.74781 11.5277C9.79668 11.4967 9.87529 11.4972 9.93589 11.5357C9.99545 11.5735 9.99936 11.6254 9.95053 11.6564C9.90161 11.6873 9.81986 11.6849 9.76034 11.6471ZM10.2204 10.9904C10.4732 11.1509 10.4831 11.3237 10.2912 11.4454C10.2503 11.4711 10.2067 11.4911 10.1613 11.5052C10.114 11.5198 10.0507 11.501 10.0294 11.4665L10.029 11.4658C10.0118 11.438 10.0286 11.41 10.0668 11.3985C10.0961 11.3895 10.1243 11.3764 10.1506 11.3596C10.2556 11.293 10.2523 11.2036 10.1157 11.1112C10.1214 11.1619 10.0901 11.211 10.0241 11.2529C9.90193 11.3304 9.71614 11.3343 9.57824 11.2467C9.42883 11.1519 9.44065 11.025 9.57455 10.9401C9.75014 10.8287 9.98422 10.8406 10.2204 10.9904ZM9.9291 11.0134C9.86639 10.9736 9.77975 10.9703 9.71007 11.0145C9.64764 11.0541 9.64597 11.1082 9.71286 11.1507C9.77975 11.1931 9.86509 11.1933 9.93023 11.1519C9.99451 11.1112 9.99284 11.0539 9.9291 11.0134Z" fill="#8B451C"/>
<path d="M5.97171 8.21436L3.24414 9.94534L11.8821 15.4273L14.735 15.4215L15.003 15.3151L20.0959 11.6714L5.97171 8.21436Z" fill="url(#paint8_linear_2572_14298)"/>
<path d="M16.6152 15.5394L19.7197 13.5847C19.9531 13.4365 20.0968 13.1628 20.0968 12.8666V11.6714L15.0039 15.3151C15.4353 15.7768 16.0928 15.8683 16.6152 15.5394Z" fill="url(#paint9_linear_2572_14298)"/>
<path d="M20.6979 11.5676L20.6984 11.5677L19.5955 8.94731L5.04218 6.11475L3.93653 8.31821L3.93693 8.31831C3.8421 8.48021 3.91496 8.68374 4.14554 8.83009L14.2721 15.2685C14.5738 15.4599 15.0302 15.4807 15.2914 15.315L20.5504 11.9774C20.7167 11.8718 20.7634 11.7162 20.6979 11.5676Z" fill="url(#paint10_linear_2572_14298)"/>
<path d="M11.2884 10.4093L8.25391 7.92871L9.65962 12.3374L12.0111 13.8324L11.2884 10.4093Z" fill="url(#paint11_linear_2572_14298)"/>
<path d="M9.72754 3.09713L5.16474 5.9928C4.93808 6.13663 4.96651 6.3879 5.22821 6.55401L14.0142 12.1401C14.2759 12.3062 14.6719 12.3242 14.8985 12.1804L19.4613 9.28466C19.688 9.14083 19.6595 8.88955 19.3978 8.72345L10.6118 3.13742C10.3501 2.97132 9.95421 2.95324 9.72754 3.09713Z" fill="url(#paint12_linear_2572_14298)"/>
<path d="M12.8248 4.54432L10.6118 3.1374C10.3501 2.9713 9.95416 2.95327 9.7275 3.09711L5.16474 5.99278C4.93808 6.13666 4.96651 6.38788 5.22821 6.55399L11.2917 10.4091L12.8248 4.54432Z" fill="url(#paint13_linear_2572_14298)"/>
<path d="M7.45596 5.65644L7.67701 5.79672L7.94707 5.62533C7.98305 5.60247 8.04594 5.60533 8.08753 5.63175L8.09234 5.63481C8.13393 5.66118 8.13842 5.70112 8.10244 5.72393L7.83239 5.89532L8.04149 6.02799C8.09427 6.06147 8.10002 6.11218 8.05429 6.14116L8.05222 6.1425C8.0065 6.17153 7.92663 6.16788 7.87385 6.13435L7.26204 5.74606C7.19084 5.70088 7.18307 5.63249 7.24475 5.59333L7.61525 5.3582C7.65123 5.33534 7.71411 5.33821 7.75571 5.36462L7.76047 5.36764C7.80202 5.394 7.80656 5.43395 7.77058 5.45676L7.45596 5.65644ZM7.8769 5.1921L7.87897 5.19077C7.9247 5.16174 8.00456 5.16539 8.05734 5.19892L8.70253 5.60839C8.75531 5.64187 8.76106 5.69258 8.71533 5.72156L8.71326 5.7229C8.66753 5.75193 8.58767 5.74828 8.53489 5.71475L7.8897 5.30527C7.83692 5.2718 7.83117 5.22114 7.8769 5.1921ZM8.89339 4.66837L9.52626 5.07C9.58587 5.10782 9.59234 5.165 9.54073 5.19778C9.51274 5.21551 9.47182 5.22316 9.4291 5.21862L8.62764 5.13275L9.03983 5.39435C9.09261 5.42783 9.09836 5.47853 9.05263 5.50752C9.0069 5.53655 8.92708 5.5329 8.87425 5.49937L8.24138 5.09775C8.18177 5.05992 8.1753 5.00275 8.22692 4.96996L8.22786 4.96937C8.25589 4.95159 8.2969 4.94394 8.33971 4.94858L9.14 5.03504L8.72777 4.77344C8.67499 4.73997 8.66924 4.68926 8.71497 4.66027C8.76074 4.63124 8.84056 4.63484 8.89339 4.66837ZM10.2866 4.6228L10.2914 4.62581C10.3329 4.65217 10.3375 4.69212 10.3015 4.71493L9.91751 4.9586C9.85584 4.99776 9.74812 4.99282 9.67688 4.94764L9.0984 4.58053C9.0272 4.53535 9.01943 4.46696 9.08111 4.42781L9.45161 4.19268C9.48759 4.16982 9.55047 4.17268 9.59207 4.1991L9.59683 4.20211C9.63838 4.22848 9.64292 4.26842 9.60694 4.29123L9.29133 4.4915L9.47294 4.60675L9.74403 4.43472C9.78001 4.41186 9.8429 4.41472 9.8845 4.44114C9.92609 4.46751 9.93058 4.5074 9.8946 4.53026L9.62351 4.70229L9.81707 4.82514L10.1461 4.61633C10.1822 4.59356 10.2451 4.59643 10.2866 4.6228ZM8.87358 6.89845C8.93193 6.86141 9.0339 6.86606 9.10128 6.90882L9.44756 7.12859C9.43323 7.25904 9.33302 7.38757 9.19017 7.47817C8.87605 7.67755 8.39572 7.66634 8.04778 7.44553C7.69987 7.22472 7.68222 6.91993 8.00066 6.71783C8.1267 6.63784 8.27296 6.59029 8.42955 6.57755C8.52568 6.56975 8.62082 6.62362 8.62396 6.68643C8.6263 6.73294 8.57612 6.76849 8.50474 6.77348C8.40035 6.78078 8.31361 6.80799 8.23963 6.85495C8.0454 6.97819 8.06264 7.15772 8.28199 7.29686C8.49801 7.43393 8.78414 7.44697 8.9755 7.32555C9.03834 7.2857 9.08371 7.24013 9.10595 7.17999L8.88993 7.04292C8.82251 7.00016 8.81518 6.93548 8.87358 6.89845ZM9.14867 6.74686C8.80571 6.52921 8.78311 6.22125 9.09867 6.02098C9.41284 5.8216 9.89788 5.83399 10.2425 6.05268C10.5871 6.27137 10.6066 6.57918 10.2925 6.77856C9.9769 6.97888 9.49163 6.96456 9.14867 6.74686ZM10.0083 6.2013C9.789 6.06211 9.5047 6.05209 9.32623 6.16536C9.14772 6.27863 9.16354 6.45905 9.38283 6.59824C9.60213 6.73743 9.88643 6.74745 10.0649 6.63419C10.2434 6.52092 10.2276 6.3405 10.0083 6.2013ZM9.94518 5.50885L9.96517 5.49616C10.0235 5.45913 10.1255 5.46377 10.1929 5.50653L11.0074 6.02345L11.4144 5.76516C11.4664 5.73213 11.5573 5.73628 11.6175 5.7744C11.6776 5.81252 11.6841 5.87024 11.6321 5.90327L11.0976 6.24248C11.0402 6.27887 10.9401 6.27428 10.8739 6.23231L9.96153 5.65333C9.89415 5.61062 9.88683 5.54593 9.94518 5.50885ZM10.8218 5.10471C10.7556 5.06269 10.7484 4.99914 10.8058 4.96275L11.1561 4.74046C11.4831 4.53293 11.9348 4.53505 12.2844 4.7569C12.6339 4.97875 12.6373 5.26543 12.3103 5.47296L11.96 5.69525C11.9027 5.73164 11.8025 5.72709 11.7364 5.68508L10.8218 5.10471ZM12.0795 5.34102C12.278 5.21506 12.2711 5.04575 12.0502 4.90552C11.8292 4.7653 11.5624 4.7609 11.3639 4.88686L11.1526 5.02097L11.8682 5.47513L12.0795 5.34102ZM11.1605 7.6579C11.4134 7.81837 11.4232 7.99114 11.2314 8.11285C11.1905 8.13854 11.1468 8.15862 11.1015 8.17265C11.0541 8.18731 10.9909 8.1685 10.9696 8.13399L10.9691 8.13325C10.952 8.1055 10.9688 8.0775 11.007 8.06595C11.0363 8.05698 11.0645 8.04392 11.0908 8.02709C11.1957 7.96048 11.1924 7.87111 11.0559 7.77873C11.0616 7.82943 11.0303 7.87852 10.9642 7.92044C10.8421 7.99796 10.6563 8.00181 10.5184 7.91426C10.369 7.81946 10.3808 7.69256 10.5147 7.60759C10.6903 7.49615 10.9244 7.50805 11.1605 7.6579ZM10.8693 7.68096C10.8066 7.64116 10.7199 7.63786 10.6502 7.68205C10.5878 7.72165 10.5861 7.77576 10.653 7.81818C10.7199 7.86059 10.8053 7.86079 10.8704 7.81946C10.9346 7.77873 10.933 7.7214 10.8693 7.68096ZM11.7368 7.29217C11.9897 7.45265 11.9995 7.62541 11.8077 7.74712C11.7668 7.77281 11.7232 7.79289 11.6778 7.80692C11.6305 7.82158 11.5672 7.80277 11.5459 7.76826L11.5454 7.76752C11.5283 7.73977 11.5451 7.71177 11.5833 7.70022C11.6126 7.69125 11.6408 7.67819 11.6671 7.66136C11.7721 7.59475 11.7687 7.50538 11.6322 7.413C11.6379 7.46371 11.6066 7.51274 11.5405 7.55466C11.4184 7.63218 11.2326 7.63603 11.0947 7.54848C10.9453 7.45368 10.9571 7.32679 11.091 7.24181C11.2666 7.13042 11.5008 7.14232 11.7368 7.29217ZM11.4456 7.31518C11.3829 7.27538 11.2963 7.27208 11.2266 7.31627C11.1642 7.35587 11.1626 7.40998 11.2294 7.4524C11.2963 7.49481 11.3816 7.49501 11.4468 7.45368C11.511 7.41295 11.5093 7.35562 11.4456 7.31518ZM12.3132 6.92639C12.5661 7.08687 12.5759 7.25963 12.3841 7.3814C12.3446 7.40643 12.2999 7.42697 12.2541 7.44114C12.2068 7.45581 12.1436 7.43704 12.1223 7.40248L12.1218 7.40174C12.1047 7.37399 12.1215 7.34599 12.1597 7.33444C12.189 7.32547 12.2172 7.31241 12.2435 7.29558C12.3484 7.22897 12.3451 7.1396 12.2085 7.04722C12.2143 7.09793 12.183 7.14701 12.1169 7.18893C11.9948 7.26645 11.809 7.2703 11.6711 7.18275C11.5217 7.08795 11.5335 6.96106 11.6674 6.87608C11.843 6.76464 12.0771 6.77654 12.3132 6.92639ZM12.022 6.94945C11.9592 6.90965 11.8726 6.90635 11.8029 6.95054C11.7405 6.99014 11.7389 7.04425 11.8057 7.08667C11.8726 7.12908 11.9579 7.12928 12.0231 7.08795C12.0873 7.04722 12.0857 6.98989 12.022 6.94945ZM12.6548 7.07428C12.5942 7.03581 12.5934 6.98594 12.6422 6.95493C12.6911 6.92392 12.7697 6.92442 12.8303 6.96288C12.8899 7.00066 12.8938 7.05255 12.845 7.08356C12.7961 7.11457 12.7143 7.1121 12.6548 7.07428ZM13.1148 6.41767C13.3677 6.57814 13.3775 6.75091 13.1857 6.87262C13.1448 6.89831 13.1011 6.91839 13.0557 6.93242C13.0084 6.94708 12.9452 6.92832 12.9239 6.89376L12.9234 6.89302C12.9062 6.86527 12.923 6.83727 12.9613 6.82572C12.9906 6.81675 13.0187 6.80369 13.045 6.78686C13.15 6.72025 13.1467 6.63088 13.0101 6.53849C13.0159 6.5892 12.9846 6.63828 12.9185 6.6802C12.7964 6.75772 12.6106 6.76158 12.4727 6.67403C12.3233 6.57923 12.3351 6.45233 12.469 6.36736C12.6446 6.25591 12.8787 6.26781 13.1148 6.41767ZM12.8236 6.44068C12.7609 6.40088 12.6742 6.39757 12.6046 6.44177C12.5421 6.48137 12.5405 6.53548 12.6073 6.5779C12.6742 6.62031 12.7596 6.62051 12.8247 6.57918C12.8889 6.53844 12.8873 6.48112 12.8236 6.44068Z" fill="#8B451C"/>
<path d="M15.5859 11.7421L19.4585 9.28447C19.6851 9.14064 19.6567 8.88936 19.3949 8.72326L16.2237 6.70703L15.5859 11.7421Z" fill="url(#paint14_linear_2572_14298)"/>
<defs>
<linearGradient id="paint0_linear_2572_14298" x1="7.96938" y1="11.4153" x2="23.1491" y2="11.4153" gradientUnits="userSpaceOnUse">
<stop stop-color="#BA5C25"/>
<stop offset="0.148" stop-color="#FFC538"/>
<stop offset="0.273" stop-color="#FFA538"/>
<stop offset="0.292" stop-color="#F99F36"/>
<stop offset="0.417" stop-color="#D77A2D"/>
<stop offset="0.519" stop-color="#C26427"/>
<stop offset="0.584" stop-color="#BA5C25"/>
<stop offset="0.657" stop-color="#D39231"/>
<stop offset="0.724" stop-color="#E7BD39"/>
<stop offset="0.776" stop-color="#F3D63F"/>
<stop offset="0.807" stop-color="#F7E041"/>
<stop offset="0.86" stop-color="#F9D53F"/>
<stop offset="0.952" stop-color="#FDB73B"/>
<stop offset="1" stop-color="#FFA538"/>
</linearGradient>
<linearGradient id="paint1_linear_2572_14298" x1="12.22" y1="1.87759" x2="19.9213" y2="14.0126" gradientUnits="userSpaceOnUse">
<stop stop-color="#BA5C25"/>
<stop offset="0.25" stop-color="#FFC538"/>
<stop offset="0.456" stop-color="#FFA538"/>
<stop offset="0.554" stop-color="#FBC23C"/>
<stop offset="0.652" stop-color="#F8D840"/>
<stop offset="0.715" stop-color="#F7E041"/>
<stop offset="0.768" stop-color="#F9D53F"/>
<stop offset="0.861" stop-color="#FDB73B"/>
<stop offset="0.909" stop-color="#FFA538"/>
</linearGradient>
<linearGradient id="paint2_linear_2572_14298" x1="21.7968" y1="8.22347" x2="12.3966" y2="7.35083" gradientUnits="userSpaceOnUse">
<stop stop-color="white"/>
<stop offset="1" stop-color="white" stop-opacity="0"/>
</linearGradient>
<linearGradient id="paint3_linear_2572_14298" x1="1.7995" y1="15.344" x2="16.9792" y2="15.344" gradientUnits="userSpaceOnUse">
<stop stop-color="#BA5C25"/>
<stop offset="0.148" stop-color="#FFC538"/>
<stop offset="0.273" stop-color="#FFA538"/>
<stop offset="0.292" stop-color="#F99F36"/>
<stop offset="0.417" stop-color="#D77A2D"/>
<stop offset="0.519" stop-color="#C26427"/>
<stop offset="0.584" stop-color="#BA5C25"/>
<stop offset="0.657" stop-color="#D39231"/>
<stop offset="0.724" stop-color="#E7BD39"/>
<stop offset="0.776" stop-color="#F3D63F"/>
<stop offset="0.807" stop-color="#F7E041"/>
<stop offset="0.86" stop-color="#F9D53F"/>
<stop offset="0.952" stop-color="#FDB73B"/>
<stop offset="1" stop-color="#FFA538"/>
</linearGradient>
<linearGradient id="paint4_linear_2572_14298" x1="16.1564" y1="17.8827" x2="11.1673" y2="17.4196" gradientUnits="userSpaceOnUse">
<stop stop-color="white"/>
<stop offset="1" stop-color="white" stop-opacity="0"/>
</linearGradient>
<linearGradient id="paint5_linear_2572_14298" x1="10.7102" y1="14.6245" x2="5.33874" y2="14.1259" gradientUnits="userSpaceOnUse">
<stop stop-color="white"/>
<stop offset="1" stop-color="white" stop-opacity="0"/>
</linearGradient>
<linearGradient id="paint6_linear_2572_14298" x1="6.05011" y1="5.80581" x2="13.7513" y2="17.9408" gradientUnits="userSpaceOnUse">
<stop stop-color="#BA5C25"/>
<stop offset="0.25" stop-color="#FFC538"/>
<stop offset="0.456" stop-color="#FFA538"/>
<stop offset="0.554" stop-color="#FBC23C"/>
<stop offset="0.652" stop-color="#F8D840"/>
<stop offset="0.715" stop-color="#F7E041"/>
<stop offset="0.768" stop-color="#F9D53F"/>
<stop offset="0.861" stop-color="#FDB73B"/>
<stop offset="0.909" stop-color="#FFA538"/>
</linearGradient>
<linearGradient id="paint7_linear_2572_14298" x1="15.6268" y1="12.1517" x2="6.22666" y2="11.2791" gradientUnits="userSpaceOnUse">
<stop stop-color="white"/>
<stop offset="1" stop-color="white" stop-opacity="0"/>
</linearGradient>
<linearGradient id="paint8_linear_2572_14298" x1="11.2611" y1="11.3954" x2="8.61863" y2="14.535" gradientUnits="userSpaceOnUse">
<stop stop-color="#5D3645"/>
<stop offset="1" stop-color="#5D3645" stop-opacity="0"/>
</linearGradient>
<linearGradient id="paint9_linear_2572_14298" x1="16.8427" y1="11.728" x2="18.8304" y2="15.8316" gradientUnits="userSpaceOnUse">
<stop stop-color="#5D3645"/>
<stop offset="1" stop-color="#5D3645" stop-opacity="0"/>
</linearGradient>
<linearGradient id="paint10_linear_2572_14298" x1="4.69598" y1="10.7708" x2="19.8757" y2="10.7708" gradientUnits="userSpaceOnUse">
<stop stop-color="#BA5C25"/>
<stop offset="0.148" stop-color="#FFC538"/>
<stop offset="0.273" stop-color="#FFA538"/>
<stop offset="0.292" stop-color="#F99F36"/>
<stop offset="0.417" stop-color="#D77A2D"/>
<stop offset="0.519" stop-color="#C26427"/>
<stop offset="0.584" stop-color="#BA5C25"/>
<stop offset="0.657" stop-color="#D39231"/>
<stop offset="0.724" stop-color="#E7BD39"/>
<stop offset="0.776" stop-color="#F3D63F"/>
<stop offset="0.807" stop-color="#F7E041"/>
<stop offset="0.86" stop-color="#F9D53F"/>
<stop offset="0.952" stop-color="#FDB73B"/>
<stop offset="1" stop-color="#FFA538"/>
</linearGradient>
<linearGradient id="paint11_linear_2572_14298" x1="15.5918" y1="11.4929" x2="10.3065" y2="11.0022" gradientUnits="userSpaceOnUse">
<stop stop-color="white"/>
<stop offset="1" stop-color="white" stop-opacity="0"/>
</linearGradient>
<linearGradient id="paint12_linear_2572_14298" x1="8.9485" y1="1.23308" x2="16.6497" y2="13.3681" gradientUnits="userSpaceOnUse">
<stop stop-color="#BA5C25"/>
<stop offset="0.25" stop-color="#FFC538"/>
<stop offset="0.456" stop-color="#FFA538"/>
<stop offset="0.554" stop-color="#FBC23C"/>
<stop offset="0.652" stop-color="#F8D840"/>
<stop offset="0.715" stop-color="#F7E041"/>
<stop offset="0.768" stop-color="#F9D53F"/>
<stop offset="0.861" stop-color="#FDB73B"/>
<stop offset="0.909" stop-color="#FFA538"/>
</linearGradient>
<linearGradient id="paint13_linear_2572_14298" x1="18.5253" y1="7.57899" x2="9.12505" y2="6.70635" gradientUnits="userSpaceOnUse">
<stop stop-color="white"/>
<stop offset="1" stop-color="white" stop-opacity="0"/>
</linearGradient>
<linearGradient id="paint14_linear_2572_14298" x1="11.5659" y1="8.78888" x2="18.3792" y2="9.35506" gradientUnits="userSpaceOnUse">
<stop stop-color="white"/>
<stop offset="1" stop-color="white" stop-opacity="0"/>
</linearGradient>
</defs>
</svg>
