<svg width="28" height="25" viewBox="0 0 28 25" fill="none" xmlns="http://www.w3.org/2000/svg">
<path d="M27.6365 11.9335L28 10.8167L26.7975 10.8529C26.6959 10.8529 25.9575 10.8328 25.2411 10.3342C25.2945 10.3392 25.3479 10.3463 25.4023 10.3463C26.1397 10.3463 26.8531 9.91998 27.139 9.31087L27.6564 8.21014C27.0081 8.21814 26.4152 8.13972 26.4152 8.13972C26.41 8.13877 25.9428 8.08142 25.4023 7.55168C25.0148 7.17173 24.5351 6.9707 24.0155 6.9707C23.7882 6.9707 23.5851 7.00986 23.4101 7.06314C23.4373 6.97368 23.4635 6.88323 23.4782 6.78974C23.6437 5.75938 22.9524 4.97329 22.9524 4.97427L22.0484 3.89969L21.4881 5.16224C21.486 5.16627 21.3446 5.46179 21.0911 5.60656C21.0147 5.23563 20.8271 4.81845 20.426 4.41941C19.6697 3.66747 18.749 3.55589 18.2673 3.55589C18.0442 3.55589 17.885 3.57899 17.8462 3.58504L16.7547 3.7911C16.8176 3.55687 16.9517 3.14977 17.1968 2.78287L17.7991 1.88219L16.2834 2.04804L15.8005 1.0639L14.8662 1.5263L14.0021 0.707031L13.1401 1.5263L12.2026 1.0639L11.7208 2.04804L10.2062 1.88219L10.8095 2.78287C11.0546 3.14977 11.1887 3.55589 11.2505 3.79012L10.2094 3.5931L10.1737 3.58705C10.1213 3.57899 9.9632 3.55589 9.73904 3.55589C9.25727 3.55589 8.33655 3.66846 7.58235 4.41941C7.18014 4.81747 6.99267 5.23563 6.91517 5.60656C6.66379 5.46381 6.52341 5.17232 6.52341 5.17232L5.96203 3.90268L5.04336 4.9843C4.93133 5.12405 4.37726 5.86291 4.52804 6.79173C4.54379 6.88422 4.56895 6.97472 4.59617 7.06418C4.42229 7.0109 4.21908 6.97164 3.99178 6.97164C3.47229 6.97164 2.99253 7.17272 2.60395 7.55267C2.06552 8.08048 1.60048 8.13972 1.6047 8.13972C1.6047 8.13972 1.11342 8.22421 0.35298 8.21113L0.867302 9.31187C1.15323 9.92202 1.86761 10.3472 2.60395 10.3472C2.65942 10.3472 2.71284 10.3402 2.76734 10.3352C2.05297 10.8338 1.31457 10.8539 1.22553 10.8549L0 10.8167L0.370795 11.9325C0.55724 12.5075 1.18047 13.4605 2.37454 13.563C2.24466 14.0858 1.95663 14.6708 1.32399 14.9231L0.411685 15.2839L0.909201 16.1153C1.18988 16.5636 1.84877 17.0884 2.78725 17.0884C2.99042 17.0874 3.18627 17.0682 3.37487 17.0301C3.42304 17.2351 3.48376 17.4402 3.55498 17.6433C3.83467 18.4414 3.59373 18.9983 3.59065 19.0044L3.14022 19.91L4.14574 20.1643C4.1583 20.1684 4.46207 20.2478 4.84226 20.2478C5.01511 20.2478 5.17958 20.2307 5.33463 20.1955C5.4519 20.1694 5.56398 20.1342 5.67184 20.092C5.80173 20.3162 5.95992 20.5202 6.1443 20.7032C6.78842 21.3375 7.70076 21.6592 8.85712 21.6592H8.86129L9.68671 21.6491L7.98147 22.3286L9.2761 22.9288C9.74635 23.149 10.3047 23.4093 10.8723 23.6083L10.7111 24.0325L11.1573 24.2276C11.1971 24.2446 12.0549 24.6135 13.4815 24.692C13.4815 24.692 13.8261 24.707 14.0157 24.707C14.2053 24.707 14.5457 24.6909 14.5457 24.6909C15.9629 24.6105 16.8144 24.2456 16.8543 24.2276L17.3015 24.0315L17.1381 23.6063C17.7226 23.4012 18.3008 23.1309 18.7511 22.9197L20.0217 22.3276L18.3217 21.6471L19.1503 21.6572C20.3076 21.6572 21.221 21.3355 21.8641 20.7001C22.0475 20.5182 22.2056 20.3141 22.3365 20.09C22.4444 20.1322 22.5575 20.1674 22.6749 20.1935C22.8288 20.2287 22.9932 20.2458 23.1661 20.2458C23.54 20.2458 23.8469 20.1664 23.8553 20.1643L24.865 19.908L24.4251 19.0194C24.4146 18.9963 24.1737 18.4404 24.4534 17.6413C24.5246 17.4372 24.5843 17.2321 24.6325 17.028C24.8221 17.0663 25.0201 17.0863 25.2243 17.0863C26.4194 17.0863 26.9924 16.2792 27.1034 16.1042L27.5957 15.282L26.6834 14.9221C26.0497 14.6698 25.7627 14.0837 25.6339 13.562C26.8112 13.4655 27.4438 12.5125 27.6365 11.9335ZM11.3301 4.1751L11.3175 4.17815L11.328 4.16507L11.3301 4.1751Z" fill="white"/>
<path d="M14.0033 4.12584C13.0375 4.12682 12.3137 4.43041 12.1556 4.78727L14.0033 5.48691L15.851 4.78727C15.6938 4.43041 14.9701 4.12682 14.0033 4.12584Z" fill="white"/>
<path d="M14.0221 22.6473H13.9854C13.3999 22.6513 12.5944 22.5357 12.2058 22.4271L11.7387 23.6404C12.0466 23.746 13.0899 23.9471 14.0043 23.9471C14.9165 23.9471 15.9609 23.745 16.2678 23.6404L15.8017 22.4271C15.412 22.5367 14.6076 22.6513 14.0221 22.6473Z" fill="white"/>
<path d="M17.5573 21.4411C17.2095 21.6301 16.4334 21.9135 15.9819 22.0452L16.3611 23.0474C17.0597 22.8645 17.6358 22.6504 18.1124 22.4212L17.3257 22.1698L17.5573 21.4411Z" fill="white"/>
<path d="M10.4505 21.4411L10.683 22.1698L9.89538 22.4212C10.3709 22.6504 10.9501 22.8645 11.6456 23.0474L12.0248 22.0452C11.5754 21.9135 10.7982 21.6291 10.4505 21.4411Z" fill="white"/>
<path d="M14.0033 2.96579C14.7312 2.96579 15.4456 3.13267 15.9945 3.42623C16.0447 3.26436 16.1149 3.06833 16.2103 2.8633L16.0029 2.88739L15.785 2.90951L15.6928 2.71952L15.4153 2.15659L14.9093 2.40994L14.7124 2.50643L14.5553 2.35764L14.0054 1.83492L13.4566 2.35764L13.2994 2.50643L13.1025 2.40994L12.5935 2.15659L12.319 2.71952L12.2248 2.90951L12.0069 2.88739L11.7995 2.8633C11.8949 3.06936 11.964 3.26436 12.0153 3.42623C12.5652 3.13267 13.2774 2.96579 14.0033 2.96579Z" fill="white"/>
<path d="M25.1177 9.4718C25.2119 9.50296 25.3083 9.51702 25.4036 9.51702C25.8153 9.51702 26.2133 9.26167 26.3505 8.96914C26.3505 8.96914 25.5953 8.92491 24.7835 8.1338C24.5248 7.87745 24.2514 7.80107 24.0168 7.80107C23.6523 7.80107 23.3789 7.986 23.3789 7.986C24.3593 8.48667 24.5594 9.29084 25.1177 9.4718Z" fill="white"/>
<path d="M2.60323 9.51702C2.69853 9.51702 2.79492 9.50296 2.88708 9.4718C3.44748 9.29084 3.64859 8.48667 4.62895 7.986C4.62895 7.986 4.35452 7.80107 3.99209 7.80107C3.75645 7.80107 3.48304 7.87745 3.22332 8.1338C2.41257 8.92491 1.65739 8.96914 1.65739 8.96914C1.79248 9.26167 2.19155 9.51702 2.60323 9.51702Z" fill="white"/>
<path d="M25.3837 12.7397C25.4005 12.7407 25.4152 12.7407 25.433 12.7407C26.4605 12.7407 26.8093 11.6842 26.8093 11.6842H26.7894C26.6009 11.6842 25.0726 11.642 23.9928 10.3241C23.2815 9.45759 22.6992 8.6956 21.548 8.39606L21.4349 8.37693L21.4098 8.2664C21.3784 8.09747 21.4988 7.93968 21.7722 7.76881C23.3601 6.77061 22.2823 5.49795 22.2823 5.49795C22.2823 5.49795 21.8288 6.51625 20.8138 6.51625C20.7897 6.51625 20.7635 6.51525 20.7384 6.51525C20.6231 6.50924 20.5121 6.50522 20.4001 6.48211L20.2125 6.44692C20.2125 6.44692 20.5017 5.69199 19.8041 4.99834C19.2782 4.47463 18.6383 4.38615 18.2685 4.38615C18.0821 4.38615 17.9637 4.40931 17.9637 4.40931C18.3146 4.84959 18.5681 5.5794 18.1627 6.0297C17.8129 6.41675 16.9582 6.43584 16.9582 7.01284C16.9582 7.25711 17.196 7.54263 17.6233 7.79893C18.9085 8.57597 20.1843 9.60638 20.7143 10.9875C21.3773 12.7105 20.6305 13.8535 19.5642 14.5089C19.5642 14.5089 19.8984 14.8044 20.3833 14.8416C20.4818 14.8507 20.5781 14.8547 20.6682 14.8547C21.6916 14.8547 22.2205 14.3943 22.2205 14.3943C22.2205 14.3943 22.1336 15.0306 21.6004 15.6217C21.1092 16.1675 20.464 16.4882 19.4804 16.5023C19.4804 16.5023 19.449 16.9406 19.8847 17.3195C20.1634 17.5588 20.8075 17.6372 20.8075 17.6372C20.8075 17.6372 19.6019 17.8714 19.4689 19.5803C19.3966 20.5061 19.1505 20.8278 19.1505 20.8278H19.1724C21.9702 20.8278 21.8979 18.5248 21.8979 18.5248C21.8979 18.5248 22.0927 19.2063 22.8731 19.3843C22.9673 19.4084 23.0679 19.4175 23.1642 19.4175C23.4156 19.4175 23.6335 19.3612 23.6335 19.3612C23.6335 19.3612 23.225 18.5339 23.6303 17.3768C23.9666 16.4168 23.9121 15.7051 23.9121 15.7051C23.9121 15.7051 24.2892 16.2519 25.2235 16.257H25.2329C26.0112 16.257 26.3505 15.691 26.3505 15.691C24.4851 14.9482 24.6694 12.5497 24.6694 12.5497C24.6694 12.5497 24.9114 12.7226 25.3837 12.7397ZM24.8223 15.2447C24.064 14.8859 23.5843 13.9329 23.468 13.5891C23.3423 15.4789 22.3808 16.7908 21.2569 18.0534C20.6735 18.7078 20.4702 19.3441 20.4702 19.3441C20.4702 19.3441 20.5823 18.6233 21.0872 18.0362C22.1357 16.827 23.1317 15.3221 23.2061 13.5821C23.2574 12.3677 22.9317 11.3826 22.4237 10.5714C22.7075 11.4168 22.6678 12.4522 21.7031 13.4182C21.7031 13.4182 23.623 11.2097 20.9385 8.94593C19.8638 8.0844 18.6886 7.55267 18.0832 7.17566C20.2702 7.86026 21.3375 7.10633 21.3375 7.10633C20.6389 7.68736 19.7349 7.67732 19.1746 7.59387C19.3265 7.66529 19.4846 7.73964 19.6553 7.82711C21.4988 8.78809 23.1559 10.3693 23.4386 12.5597V12.5427C23.8681 14.6928 24.8223 15.2447 24.8223 15.2447Z" fill="white"/>
<path d="M7.19923 17.6372C7.19923 17.6372 7.84335 17.5598 8.12201 17.3195C8.55664 16.9406 8.52633 16.5023 8.52633 16.5023C7.5417 16.4892 6.89757 16.1675 6.40314 15.6227C5.87424 15.0316 5.78624 14.3953 5.78624 14.3953C5.78624 14.3953 6.31515 14.8557 7.33745 14.8557C7.42967 14.8557 7.52497 14.8517 7.62341 14.8426C8.10837 14.8054 8.44353 14.5099 8.44353 14.5099C7.37728 13.8545 6.62941 12.7105 7.29139 10.9875C7.82246 9.60738 9.09718 8.57597 10.3823 7.79893C10.8097 7.54263 11.0475 7.25811 11.0475 7.01284C11.0475 6.43584 10.1938 6.41675 9.84402 6.0297C9.43862 5.5794 9.69314 4.84856 10.043 4.40931C10.043 4.40931 9.92671 4.38615 9.73919 4.38615C9.37053 4.38615 8.73053 4.47463 8.20476 4.99834C7.50506 5.69199 7.79519 6.44692 7.79519 6.44692L7.60772 6.48211C7.49564 6.50522 7.38356 6.50924 7.26937 6.51525C7.24323 6.51525 7.22012 6.51625 7.19501 6.51625C6.17795 6.51625 5.72649 5.49898 5.72649 5.49898C5.72649 5.49898 4.64866 6.77155 6.23559 7.76976C6.50894 7.94067 6.62833 8.09852 6.59694 8.26739L6.57178 8.37797L6.45656 8.39706C5.30756 8.69659 4.72416 9.45863 4.01293 10.3251C2.9351 11.641 1.409 11.6842 1.21838 11.6842H1.1974C1.1974 11.6842 1.54619 12.7407 2.57374 12.7407C2.59047 12.7407 2.60513 12.7407 2.62294 12.7397C3.09539 12.7236 3.33839 12.5497 3.33839 12.5497C3.33839 12.5497 3.52061 14.9472 1.65724 15.691C1.65724 15.691 1.99662 16.257 2.77485 16.257H2.78427C3.7196 16.2519 4.09567 15.7051 4.09567 15.7051C4.09567 15.7051 4.04118 16.4168 4.37634 17.3768C4.78174 18.5339 4.37536 19.3612 4.37536 19.3612C4.37536 19.3612 4.59319 19.4175 4.84354 19.4175C4.94091 19.4175 5.04048 19.4084 5.13368 19.3843C5.91293 19.2063 6.10884 18.5248 6.10884 18.5248C6.10884 18.5248 6.03757 20.8278 8.8353 20.8278H8.85521C8.85521 20.8278 8.61011 20.5061 8.53889 19.5803C8.40478 17.8714 7.19923 17.6372 7.19923 17.6372ZM6.74988 18.0534C5.62594 16.7908 4.66549 15.4789 4.53869 13.5891C4.4225 13.9318 3.94479 14.8859 3.18653 15.2447C3.18653 15.2447 4.13967 14.6928 4.56803 12.5427V12.5597C4.85193 10.3704 6.50791 8.78809 8.35245 7.82711C8.52108 7.7386 8.68128 7.66425 8.83216 7.59387C8.27176 7.67732 7.36786 7.68736 6.66924 7.10633C6.66924 7.10633 7.73658 7.86026 9.92249 7.17566C9.31712 7.55267 8.14296 8.0844 7.06826 8.94593C4.38267 11.2097 6.30367 13.4182 6.30367 13.4182C5.33792 12.4512 5.29917 11.4168 5.58302 10.5714C5.07398 11.3836 4.74922 12.3677 4.80165 13.5821C4.87493 15.3221 5.87105 16.827 6.91749 18.0362C7.42334 18.6223 7.53753 19.3441 7.53753 19.3441C7.53753 19.3441 7.3322 18.7078 6.74988 18.0534Z" fill="white"/>
<path d="M11.9347 9.21734C11.9808 9.26455 12.0258 9.31584 12.0688 9.36713C12.0793 9.37921 12.0887 9.39024 12.0991 9.40431C12.1389 9.4556 12.1798 9.50987 12.2185 9.56518C12.2269 9.57622 12.2353 9.58929 12.2447 9.60236C12.2919 9.67069 12.3359 9.74107 12.3799 9.81343C12.7832 10.482 13.4294 10.881 14.0024 10.8821C14.5763 10.881 15.2205 10.482 15.6259 9.81343C15.6709 9.73908 15.7159 9.66672 15.7631 9.59933C15.7704 9.58929 15.7777 9.58024 15.784 9.57015C15.8238 9.5129 15.8657 9.45659 15.9097 9.40232C15.9191 9.39024 15.9275 9.3802 15.9359 9.37016C15.9809 9.31689 16.027 9.26455 16.0741 9.21635C16.0826 9.20829 16.0888 9.20129 16.0962 9.19522C16.3014 8.9932 16.5466 8.83938 16.8671 8.75395L16.7246 8.67453H16.7162L16.1485 8.35785L15.5651 8.03719L14.0065 8.85141L14.0024 8.84842L13.9992 8.85141L12.4396 8.03719L11.8572 8.35685L11.2885 8.67353H11.2822L11.1376 8.7529C11.4591 8.83839 11.7032 8.99017 11.9096 9.19224C11.919 9.20029 11.9253 9.20934 11.9347 9.21734ZM13.3718 9.15199H14.6905V9.58626C14.5355 9.40431 14.2338 9.44153 14.2338 9.44153V10.0678C14.2338 10.0678 14.2453 10.3754 14.3574 10.5091H13.7049C13.819 10.3764 13.8295 10.0678 13.8295 10.0678V9.44153C13.8295 9.44153 13.5289 9.40431 13.3718 9.58626V9.15199Z" fill="white"/>
<path d="M13.8682 8.30959V5.76738L12.1818 5.21849L12.627 7.68239L13.8682 8.30959ZM13.5058 6.39165V6.79973L13.4241 6.76355C13.4199 6.76057 13.3005 6.73438 13.091 6.57559C12.7453 6.31825 12.7391 6.08103 12.7391 6.08103L13.5058 6.39165Z" fill="white"/>
<path d="M15.3808 7.68239L15.8239 5.21849L14.1386 5.76738V8.30959L15.3808 7.68239ZM14.501 6.39165L15.2677 6.08203C15.2677 6.08203 15.2614 6.31924 14.9147 6.57658C14.7063 6.73542 14.5858 6.76151 14.5816 6.7646L14.4999 6.80078V6.39165H14.501Z" fill="white"/>
<path d="M11.4832 14.2033C11.6476 14.2606 11.8467 14.2728 11.9483 14.2728C11.9525 14.2606 11.9577 14.2456 11.963 14.2275C11.9724 14.1983 11.9807 14.1702 11.9871 14.138C12.0153 13.9973 12.0258 13.8375 12.0279 13.7349C11.9588 13.6937 11.8614 13.6203 11.8069 13.5107C11.744 13.3841 11.655 13.3258 11.524 13.3258C11.3544 13.3258 11.1722 13.4233 11.0947 13.4695C11.0329 13.8204 11.302 14.139 11.4832 14.2033Z" fill="white"/>
<path d="M15.2134 12.8542C14.9002 13.1809 14.2874 13.7499 14.257 13.779L14.2204 13.8152L12.2837 13.786C12.2826 13.9701 12.2512 14.1269 12.2208 14.2414C12.2156 14.2605 12.2104 14.2807 12.2051 14.3008L14.5094 14.6978C14.7493 14.5369 15.4092 14.0745 15.6648 13.8936C15.4783 13.6323 15.4606 13.3227 15.5025 13.1045C15.3809 13.0291 15.2877 12.9447 15.2134 12.8542Z" fill="white"/>
<path d="M15.4759 10.6188C15.0296 11.044 14.6012 11.2008 14.2189 11.237C14.1498 11.244 14.0796 11.248 14.0084 11.248H13.999C13.9277 11.248 13.8565 11.244 13.7874 11.237C13.7204 11.231 13.6502 11.2209 13.58 11.2058C13.5549 11.3014 13.5234 11.5014 13.6136 11.6904C13.6942 11.8623 13.8586 11.9899 14.0985 12.0744L14.1791 12.1046L14.1802 12.1879C14.1802 12.2131 14.199 12.7539 14.8139 12.9037C14.9144 12.8042 15.0056 12.7147 15.0726 12.6404C14.9469 12.3569 15.0129 12.0673 15.1951 11.9256C15.1868 11.9558 15.1072 12.6655 15.7 12.9288L15.7974 12.9731L15.7681 13.0725C15.7587 13.1028 15.5607 13.7893 16.2782 14.0446L16.405 14.0909L16.3484 14.2095C16.3358 14.2356 16.0541 14.8589 16.717 15.2127H18.1552V14.117C17.6441 14.0567 17.4272 13.6626 17.3717 13.3832C17.1339 13.344 16.9496 13.2455 16.8239 13.0846C16.5222 12.7037 16.782 12.3548 16.7852 12.3357C16.7841 12.3388 16.7852 12.7107 17.0239 12.9399C17.1423 13.0504 17.2827 13.1359 17.4953 13.155L17.6 13.164L17.6095 13.2666C17.6116 13.2887 17.6692 13.7913 18.1563 13.8707L18.1552 11.6331C18.1552 11.2863 18.261 10.9374 18.3877 10.6158H15.4759V10.6188Z" fill="white"/>
<path d="M11.6059 11.6438L11.5671 13.0693L11.7357 13.0934L12.1484 11.7263L11.9389 11.3061L11.6059 11.6438Z" fill="white"/>
<path d="M16.1557 18.1811C16.1684 18.1811 16.183 18.1831 16.1967 18.1861C16.4532 18.2565 16.5182 19.1451 16.9686 19.2245C17.0126 19.2336 17.0534 19.2356 17.089 19.2356C17.2189 19.2356 17.2964 19.1823 17.3802 19.0878C17.3802 19.0878 17.154 18.746 16.9843 18.5158C16.7591 18.2143 16.5842 17.8494 16.1652 17.8494C16.1557 17.8494 16.1432 17.8494 16.1327 17.8504C15.9945 17.8574 15.9097 17.9218 15.9097 17.9218C15.74 17.8192 15.5818 17.784 15.4383 17.784C15.1754 17.784 14.9711 17.8996 14.8696 17.8996H14.8653L13.9289 17.8111C13.7823 17.7981 13.6671 17.6564 13.6252 17.6011C13.6147 17.586 13.6095 17.5769 13.6095 17.5769C13.6095 17.5528 13.6095 17.5277 13.6074 17.5055C13.576 16.7707 12.9831 16.4561 12.7726 16.4511C12.7726 16.4511 12.7977 16.3114 12.7401 16.2581L12.5338 16.4983L11.8561 16.1716L12.3389 16.7134L11.9294 17.1547C11.8781 17.205 11.8844 17.2733 11.9053 17.3015L12.0823 17.4513L12.3064 17.3206C12.318 17.3126 12.3379 17.3105 12.363 17.3105C12.4248 17.3105 12.518 17.3256 12.6018 17.3256C12.693 17.3256 12.7726 17.3065 12.782 17.2241C12.7537 17.4965 12.4908 17.97 12.6637 18.3419L12.7914 18.6224L11.964 18.5078L11.5764 19.136C11.457 19.3452 11.4381 19.5713 11.5533 19.6939L11.6979 19.8679C11.6979 19.8679 11.9011 19.6608 11.9472 19.5251L11.8812 19.4557C11.8257 19.3974 11.8288 19.3452 11.8624 19.2818L12.1053 18.8948L13.0826 19.1159L13.1339 19.0316C13.1999 18.9259 13.2952 18.8938 13.4 18.8938C13.4429 18.8938 13.4869 18.8988 13.533 18.9059C13.7142 18.9401 14.0127 18.9863 14.3113 18.9863C14.6391 18.9863 14.9638 18.93 15.1366 18.744C15.4906 19.2476 16.2081 19.3281 16.1516 19.5834L15.9631 20.4459C16.0877 20.4409 16.2081 20.4328 16.3223 20.4177L16.5014 19.52C16.5213 19.4226 16.5402 19.2909 16.5402 19.2909C16.4711 19.2235 16.3035 19.0808 16.2092 18.9079C16.0825 18.6747 16.1516 18.553 16.0332 18.2494C16.0374 18.2514 16.0731 18.1811 16.1557 18.1811ZM12.5002 16.9205C12.4521 16.9195 12.4175 16.8803 12.4196 16.8341C12.4238 16.7898 12.4626 16.7546 12.5097 16.7587C12.5579 16.7607 12.5924 16.8009 12.5903 16.8451C12.5861 16.8893 12.5463 16.9236 12.5002 16.9205Z" fill="white"/>
<path d="M11.166 18.9972C11.166 18.9972 11.4897 18.8695 11.519 18.778L11.4761 18.6745C11.4457 18.6072 11.4499 18.5338 11.5086 18.4936L11.8584 18.2614L12.4429 18.3689C12.4429 18.3689 12.3371 18.2423 12.3476 18.0724L11.7903 17.9588L11.2645 18.2664C11.0393 18.4283 11.0226 18.6926 11.0969 18.8494L11.166 18.9972Z" fill="white"/>
<path d="M15.2971 20.4588C15.4018 20.4548 15.517 20.4528 15.6438 20.4528C15.6438 20.4528 15.9444 19.6094 15.9612 19.5823C15.7925 19.5109 15.4427 19.333 15.3076 19.2516C15.3967 19.3792 15.6134 19.526 15.5705 19.6386L15.2971 20.4588Z" fill="white"/>
<path d="M18.1586 15.4569H9.84927V18.4565C9.84927 19.6829 10.7742 20.4509 12.139 20.4509C13.2796 20.4509 13.5802 20.4932 14.0045 20.8973C14.2966 20.6178 14.5387 20.5133 15.0351 20.474L15.0467 20.4278L15.3085 19.6508C15.2938 19.6337 14.8655 19.1662 14.8655 19.1662C14.6958 19.2205 14.5533 19.2296 14.3135 19.2296C14.0673 19.2296 13.7897 19.2024 13.4891 19.1481C13.4587 19.1411 13.4305 19.1391 13.4022 19.1391C13.3655 19.1391 13.3623 19.1421 13.3529 19.1592L13.3005 19.2416L13.2052 19.3924L13.0262 19.3532L12.229 19.1733L12.1201 19.3461L12.1369 19.3642L12.2343 19.4668L12.1914 19.6005C12.1327 19.7754 11.942 19.9795 11.8845 20.0358L11.6855 20.2408L11.5042 20.0207L11.3681 19.8569C11.2246 19.703 11.191 19.4668 11.2717 19.2195C11.2696 19.2216 11.2665 19.2225 11.2633 19.2225L11.0381 19.312L10.9365 19.1009L10.8653 18.9511C10.7427 18.6878 10.7878 18.3027 11.1177 18.0705L11.7598 17.7227L12.3705 17.8383C12.3852 17.782 12.4071 17.581 12.4249 17.5297C12.4134 17.5288 12.4019 17.5257 12.3904 17.5257L12.0384 17.6513L11.6991 17.4262C11.6991 17.4262 11.5661 17.3036 11.6864 17.1809L12.0154 16.7034L11.1827 15.7002L12.4626 16.2048L12.5475 16.1033L12.7203 15.9053L12.9162 16.0842C12.9717 16.1354 13.0031 16.1988 13.0188 16.2621C13.3718 16.3938 14.0034 16.7828 14.0589 17.4151L13.8609 17.4915V17.4965C13.906 17.5478 13.9437 17.569 13.9553 17.5709L14.8686 17.6574C14.8916 17.6533 14.921 17.6433 14.9534 17.6343C15.0666 17.597 15.2373 17.5438 15.4395 17.5438C15.6039 17.5438 15.7631 17.58 15.916 17.6483C15.9725 17.6282 16.0417 17.6131 16.1213 17.6081L16.1653 17.6071C16.6544 17.6071 16.8974 17.958 17.0923 18.2374C17.1248 18.2856 17.1572 18.3319 17.1908 18.3771C17.3615 18.6083 17.5846 18.9471 17.594 18.9612L17.6946 19.1119L17.571 19.2497C17.4757 19.3552 17.3332 19.4789 17.0881 19.4789C17.0378 19.4789 16.9823 19.4738 16.9226 19.4628C16.8702 19.4537 16.8231 19.4387 16.777 19.4206C16.7697 19.4668 16.7603 19.5221 16.7508 19.5693L16.5905 20.3715C17.549 20.1453 18.1575 19.4507 18.1575 18.4575L18.1586 15.4569Z" fill="#FFDD2D"/>
<path d="M9.84937 15.2157H16.311C15.9883 14.896 15.9926 14.491 16.0753 14.2275C15.981 14.1843 15.9035 14.1321 15.8344 14.0758C15.582 14.2547 14.811 14.7935 14.6099 14.9282L14.567 14.9563L12.0312 14.516H11.9798C11.9191 14.516 11.8301 14.5141 11.7327 14.503C11.7054 14.6126 11.6069 14.688 11.4938 14.688C11.4813 14.688 11.4666 14.687 11.453 14.6839C11.387 14.6728 11.3294 14.6407 11.2906 14.5874C11.2508 14.5352 11.2351 14.4729 11.2467 14.4085L11.2561 14.3562C10.9942 14.1793 10.7533 13.7842 10.8601 13.3681L10.8706 13.3238L10.9072 13.2987C10.9125 13.2947 10.9565 13.2666 11.0215 13.2303L10.8371 13.2032C10.768 13.1912 10.7219 13.1298 10.7324 13.0645C10.7439 12.9981 10.8088 12.9509 10.8769 12.964L11.3158 13.0303L11.3556 11.5466L12.0091 10.8831L12.4166 11.7064L11.9861 13.1339L12.3737 13.1922C12.4418 13.2022 12.4889 13.2635 12.4784 13.3309C12.468 13.3902 12.4156 13.4314 12.3538 13.4314C12.3475 13.4314 12.3401 13.4314 12.3339 13.4304L12.0186 13.3812C12.0228 13.3902 12.0291 13.3952 12.0332 13.4053C12.0668 13.4716 12.1411 13.5199 12.1852 13.54L14.1187 13.5691C14.2004 13.4927 14.4036 13.3017 14.612 13.0997C14.1365 12.9268 13.9637 12.5327 13.9343 12.2713C13.6683 12.1628 13.485 11.9999 13.3834 11.7878C13.2598 11.5255 13.3038 11.2631 13.3363 11.1354C13.0786 11.045 12.8073 10.8801 12.5308 10.6168H9.61893C9.74357 10.9384 9.84937 11.2872 9.84937 11.6341V15.2157Z" fill="#FFDD2D"/>
<path d="M12.5107 16.7587C12.4635 16.7546 12.4237 16.7898 12.4206 16.834C12.4174 16.8803 12.453 16.9194 12.5013 16.9205C12.5473 16.9245 12.5882 16.8903 12.5923 16.845C12.5923 16.8008 12.5588 16.7596 12.5107 16.7587Z" fill="black"/>
<path d="M18.1468 22.1978L17.6682 22.0219L17.8001 21.5475L17.9457 21.0298C17.9457 21.0298 17.0973 21.4711 15.9022 21.8028C15.5628 21.8963 15.3062 21.9385 15.3062 21.9385V22.2903C15.3062 22.2903 14.6672 22.3969 14.021 22.3969H13.9843C13.3381 22.3969 12.6991 22.2903 12.6991 22.2903V21.9385C12.6991 21.9385 12.4415 21.8963 12.1032 21.8028C10.908 21.4711 10.0606 21.0298 10.0606 21.0298L10.2041 21.5475L10.3393 22.0219L9.85951 22.1978L9.32741 22.3889C9.93809 22.6713 10.7834 23.0835 11.5574 23.2865L11.3752 23.765C11.3752 23.765 12.3566 24.1942 13.9916 24.1983V24.1993H14.0148V24.1983C15.6519 24.1942 16.6322 23.765 16.6322 23.765L16.4489 23.2865C17.223 23.0835 18.0704 22.6713 18.6779 22.3889L18.1468 22.1978ZM9.89517 22.421L10.6828 22.1697L10.4503 21.4409C10.797 21.6299 11.5752 21.9134 12.0256 22.0451L11.6454 23.0472C10.9499 22.8633 10.3707 22.6492 9.89517 22.421ZM14.0043 23.9469C13.0899 23.9469 12.0455 23.7449 11.7386 23.6404L12.2058 22.427C12.5933 22.5356 13.3999 22.6512 13.9854 22.6472H14.0221C14.6076 22.6512 15.412 22.5356 15.8017 22.427L16.2677 23.6404C15.9608 23.7459 14.9176 23.9469 14.0043 23.9469ZM16.361 23.0472L15.9818 22.0451C16.4333 21.9134 17.2094 21.6299 17.5571 21.4409L17.3256 22.1697L18.1123 22.421C17.6357 22.6492 17.0596 22.8633 16.361 23.0472Z" fill="black"/>
<path d="M14.0032 3.25937C14.9773 3.25937 15.7566 3.569 16.1871 3.89973C16.1871 3.89973 16.3149 3.16087 16.7517 2.50848L15.9671 2.59391L15.5565 1.75655L14.7678 2.14659L14.0032 1.42081L13.2406 2.14659L12.4509 1.75655L12.0414 2.59391L11.2569 2.50848C11.6936 3.16087 11.8214 3.89973 11.8214 3.89973C12.253 3.569 13.0301 3.25937 14.0032 3.25937ZM12.0058 2.88747L12.2236 2.90959L12.3179 2.71955L12.5923 2.15662L13.1013 2.40893L13.2983 2.50548L13.4554 2.35669L14.0043 1.83396L14.5542 2.35669L14.7113 2.50548L14.9082 2.40893L15.4141 2.15662L15.6917 2.71955L15.7838 2.90959L16.0017 2.88747L16.2091 2.86333C16.1138 3.06939 16.0436 3.26439 15.9933 3.42626C15.4445 3.1327 14.7301 2.96587 14.0021 2.96587C13.2773 2.96587 12.564 3.1327 12.0131 3.42626C11.9618 3.26439 11.8926 3.06841 11.7973 2.86333L12.0058 2.88747Z" fill="black"/>
<path d="M25.4319 13.0633C26.692 13.0633 27.113 11.8329 27.1308 11.7806L27.2712 11.3474L26.7988 11.3615H26.7967C26.6301 11.3615 25.2402 11.3263 24.2545 10.124L24.1613 10.0124C23.5172 9.22634 22.9065 8.47946 21.8151 8.13867C21.8465 8.11154 21.8916 8.07734 21.9534 8.03913C22.5326 7.67324 22.8699 7.22893 22.9547 6.71326C23.0783 5.93716 22.563 5.31894 22.5399 5.29383L22.189 4.87768L21.9702 5.37125C21.9555 5.40241 21.5868 6.19256 20.8116 6.19256H20.7541C20.7006 6.18948 20.6504 6.18749 20.6001 6.18351C20.6273 5.83065 20.5603 5.28478 20.045 4.77313C19.4259 4.15691 18.6655 4.06445 18.2675 4.06445C18.0548 4.06445 17.9134 4.08957 17.8988 4.09158L17.3687 4.1921L17.6955 4.60526C17.9522 4.92393 18.1847 5.51198 17.9092 5.81962C17.8213 5.91708 17.6401 5.9965 17.4662 6.07592C17.109 6.23371 16.6219 6.45288 16.6219 7.01175C16.6219 7.37366 16.9142 7.75167 17.4442 8.07332C19.0132 9.02028 19.9811 10.0084 20.399 11.0991C21.0453 12.7768 20.2021 13.7338 19.383 14.2374L19.0153 14.4646L19.3369 14.748C19.3798 14.7843 19.7736 15.117 20.355 15.1653C20.465 15.1723 20.5708 15.1783 20.6692 15.1783C21.0421 15.1783 21.3595 15.122 21.6171 15.0466C21.5459 15.1663 21.459 15.2879 21.349 15.4105C20.8808 15.9312 20.3047 16.1684 19.4762 16.1806L19.1683 16.1856L19.1442 16.4821C19.141 16.5414 19.1179 17.0913 19.6605 17.5587C19.7433 17.6311 19.8438 17.6904 19.9486 17.7397C19.5809 18.0573 19.207 18.6102 19.1348 19.5581C19.0739 20.3492 18.8771 20.6418 18.8749 20.6448L18.5345 21.1434L19.1494 21.1514C20.1654 21.1514 20.9436 20.882 21.483 20.3492C21.8015 20.0336 21.9838 19.6778 22.0916 19.3621C22.2686 19.5069 22.497 19.6336 22.7945 19.7009C22.9076 19.726 23.0312 19.7401 23.1642 19.7401C23.4512 19.7401 23.691 19.6818 23.7183 19.6758L24.1111 19.5752L23.9372 19.2234C23.9246 19.1953 23.5968 18.4896 23.9498 17.4823C24.1016 17.0471 24.1791 16.657 24.2169 16.3534C24.4641 16.4771 24.7951 16.5796 25.2234 16.5806C26.1954 16.5806 26.6239 15.884 26.6438 15.8548L26.8355 15.5352L26.4804 15.3945C25.3219 14.933 25.0653 13.6936 25.014 13.0221C25.1187 13.0412 25.2381 13.0593 25.3732 13.0633H25.4319ZM26.3505 15.691C26.3505 15.691 26.0111 16.257 25.2329 16.257H25.2234C24.2891 16.2519 23.9121 15.7051 23.9121 15.7051C23.9121 15.7051 23.9666 16.4168 23.6292 17.3768C23.2239 18.5338 23.6324 19.3611 23.6324 19.3611C23.6324 19.3611 23.4145 19.4174 23.1631 19.4174C23.0668 19.4174 22.9663 19.4084 22.872 19.3842C22.0916 19.2063 21.8968 18.5247 21.8968 18.5247C21.8968 18.5247 21.9691 20.8278 19.1714 20.8278H19.1494C19.1494 20.8278 19.3955 20.5061 19.4688 19.5802C19.6019 17.8714 20.8075 17.6371 20.8075 17.6371C20.8075 17.6371 20.1644 17.5597 19.8857 17.3195C19.45 16.9405 19.4804 16.5022 19.4804 16.5022C20.465 16.4891 21.1091 16.1675 21.6004 15.6216C22.1325 15.0305 22.2205 14.3942 22.2205 14.3942C22.2205 14.3942 21.6915 14.8546 20.6681 14.8546C20.5781 14.8546 20.4817 14.8507 20.3833 14.8416C19.8994 14.8045 19.5642 14.5089 19.5642 14.5089C20.6294 13.8535 21.3772 12.7095 20.7143 10.9865C20.1832 9.60629 18.9074 8.57493 17.6233 7.79784C17.196 7.54159 16.9582 7.25706 16.9582 7.01175C16.9582 6.43479 17.8129 6.4167 18.1637 6.02865C18.5681 5.57834 18.3146 4.8475 17.9637 4.40825C17.9637 4.40825 18.0821 4.38509 18.2685 4.38509C18.6382 4.38509 19.2782 4.47455 19.8041 4.99727C20.5027 5.6909 20.2125 6.44583 20.2125 6.44583L20.4 6.48101C20.5121 6.50412 20.6231 6.50815 20.7384 6.51317C20.7635 6.51317 20.7886 6.51421 20.8138 6.51421C21.8287 6.51421 22.2822 5.49591 22.2822 5.49591C22.2822 5.49591 23.3611 6.76952 21.7732 7.76668C21.4998 7.93759 21.3794 8.09544 21.4108 8.26431L21.4359 8.37489L21.549 8.39398C22.7002 8.69351 23.2826 9.45555 23.9938 10.3221C25.0737 11.6399 26.6019 11.6821 26.7904 11.6821H26.8103C26.8103 11.6821 26.4615 12.7386 25.434 12.7386C25.4172 12.7386 25.4026 12.7386 25.3847 12.7376C24.9123 12.7215 24.6704 12.5476 24.6704 12.5476C24.6704 12.5476 24.485 14.9471 26.3505 15.691Z" fill="black"/>
<path d="M23.2186 8.27147C23.6889 8.51176 23.9623 8.83342 24.2022 9.11889C24.4379 9.39735 24.662 9.66572 25.0119 9.7773C25.1365 9.81855 25.2685 9.83763 25.4026 9.83763C25.9284 9.83763 26.4562 9.529 26.6564 9.10179L26.8575 8.67358L26.3704 8.6454C26.3474 8.64441 25.721 8.59014 25.0234 7.90558C24.7364 7.62513 24.3897 7.47733 24.0158 7.47733C23.559 7.47733 23.2207 7.6965 23.1831 7.71857L22.7348 8.02118L23.2186 8.27147ZM24.0168 7.80102C24.2514 7.80102 24.5248 7.8775 24.7835 8.1338C25.5953 8.92496 26.3504 8.96909 26.3504 8.96909C26.2133 9.26063 25.8153 9.51702 25.4036 9.51702C25.3083 9.51702 25.213 9.50286 25.1177 9.4717C24.5594 9.29075 24.3593 8.48657 23.3779 7.986C23.3779 7.986 23.6523 7.80102 24.0168 7.80102Z" fill="black"/>
<path d="M23.4387 12.5428V12.5588C23.1559 10.3694 21.4988 8.78819 19.6554 7.82617C19.4846 7.7387 19.3275 7.66435 19.1746 7.59298C19.736 7.67637 20.6399 7.68646 21.3375 7.10543C21.3375 7.10543 20.2702 7.85936 18.0832 7.17481C18.6886 7.55173 19.8648 8.08356 20.9385 8.94499C23.623 11.2088 21.702 13.4173 21.702 13.4173C22.6667 12.4513 22.7065 11.4159 22.4227 10.5705C22.9307 11.3817 23.2554 12.3668 23.2051 13.5812C23.1307 15.3212 22.1346 16.8261 21.0861 18.0353C20.5823 18.6224 20.4692 19.3432 20.4692 19.3432C20.4692 19.3432 20.6724 18.7068 21.2558 18.0524C22.3797 16.7899 23.3402 15.478 23.4659 13.5882C23.5822 13.931 24.0609 14.885 24.8202 15.2438C24.8223 15.2448 23.8681 14.6929 23.4387 12.5428Z" fill="black"/>
<path d="M9.13166 20.6438C9.13058 20.6408 8.9358 20.3482 8.87297 19.5571C8.79959 18.6092 8.42671 18.0563 8.05805 17.7387C8.16488 17.6904 8.26332 17.6311 8.34607 17.5577C8.88763 17.0903 8.86458 16.5404 8.86144 16.4811L8.8405 16.1846L8.53045 16.1796C7.704 16.1665 7.12688 15.9292 6.65864 15.4095C6.54975 15.2869 6.46176 15.1652 6.39048 15.0456C6.6482 15.121 6.96349 15.1773 7.3374 15.1773C7.43795 15.1773 7.54164 15.1713 7.65161 15.1643C8.23296 15.116 8.62683 14.7843 8.67078 14.7471L8.99236 14.4636L8.62472 14.2364C7.8025 13.7318 6.96241 12.7748 7.60762 11.0981C8.02558 10.0074 8.99235 9.01929 10.5635 8.07232C11.0935 7.75067 11.3837 7.37266 11.3837 7.01075C11.3837 6.45189 10.8976 6.23177 10.5405 6.07492C10.3666 5.9955 10.1854 5.91608 10.0974 5.81862C9.82086 5.51198 10.0544 4.92295 10.31 4.60427L10.6389 4.19112L10.1068 4.09059C10.0911 4.08858 9.95183 4.06346 9.73811 4.06346C9.34012 4.06346 8.58175 4.15592 7.96166 4.77214C7.44531 5.28483 7.37718 5.83065 7.40342 6.18252C7.3531 6.1865 7.30287 6.18848 7.25048 6.19157H7.19393C6.41673 6.19157 6.0491 5.40143 6.03443 5.37026L5.81552 4.87669L5.46142 5.29284C5.44156 5.31796 4.92413 5.93721 5.0498 6.71226C5.13362 7.22794 5.47089 7.67225 6.05013 8.03813C6.11296 8.0763 6.15696 8.11054 6.1884 8.13768C5.09796 8.47847 4.48842 9.22634 3.84419 10.0124L3.75099 10.124C2.76641 11.3263 1.37335 11.3615 1.20681 11.3615L0.732297 11.3474L0.876843 11.7806C0.893588 11.8329 1.31362 13.0633 2.57472 13.0633L2.6355 13.0613C2.76852 13.0573 2.88791 13.0402 2.99479 13.0201C2.9424 13.6905 2.68577 14.93 1.52623 15.3924L1.17224 15.5332L1.36393 15.8528C1.38276 15.882 1.81224 16.5786 2.78632 16.5786C3.21154 16.5776 3.54253 16.4751 3.79077 16.3515C3.82849 16.655 3.90599 17.045 4.0579 17.4803C4.41087 18.4875 4.08204 19.1932 4.06943 19.2214L3.8956 19.5732L4.28937 19.6737C4.31556 19.6798 4.55753 19.7381 4.84349 19.7381C4.97754 19.7381 5.10115 19.724 5.2122 19.6989C5.51067 19.6315 5.74111 19.5049 5.91607 19.3601C6.02285 19.6758 6.2062 20.0316 6.52356 20.3473C7.06404 20.88 7.84125 21.1494 8.85722 21.1494L9.47315 21.1414L9.13166 20.6438ZM8.83417 20.8278C6.03649 20.8278 6.10776 18.5248 6.10776 18.5248C6.10776 18.5248 5.91288 19.2063 5.13254 19.3843C5.03935 19.4083 4.93982 19.4174 4.84246 19.4174C4.59103 19.4174 4.37423 19.3611 4.37423 19.3611C4.37423 19.3611 4.78066 18.5338 4.37526 17.3768C4.0401 16.4168 4.09454 15.705 4.09454 15.705C4.09454 15.705 3.71852 16.2519 2.78319 16.2569H2.77377C1.99549 16.2569 1.65611 15.691 1.65611 15.691C3.52056 14.9481 3.33726 12.5496 3.33726 12.5496C3.33726 12.5496 3.09534 12.7226 2.62186 12.7396C2.60513 12.7407 2.58939 12.7407 2.57266 12.7407C1.54408 12.7407 1.19632 11.6842 1.19632 11.6842H1.21725C1.40685 11.6842 2.93299 11.6419 4.01287 10.324C4.72405 9.45754 5.30751 8.69654 6.45656 8.39601L6.57178 8.37693L6.59684 8.26635C6.62833 8.09747 6.50889 7.93963 6.23554 7.76876C4.64758 6.77056 5.72644 5.49792 5.72644 5.49792C5.72644 5.49792 6.1779 6.5152 7.19501 6.5152C7.22007 6.5152 7.24312 6.51421 7.26932 6.51421C7.38351 6.50815 7.49667 6.50417 7.60762 6.48101L7.79514 6.44583C7.79514 6.44583 7.50501 5.6909 8.20471 4.99732C8.73053 4.47357 9.37048 4.38514 9.73914 4.38514C9.92666 4.38514 10.043 4.40824 10.043 4.40824C9.69309 4.84852 9.43964 5.57833 9.84391 6.0287C10.1937 6.41571 11.0474 6.43479 11.0474 7.0118C11.0474 7.25607 10.8097 7.54154 10.3823 7.79789C9.09708 8.57498 7.82133 9.60633 7.29129 10.9865C6.62936 12.7095 7.3762 13.8524 8.44353 14.5088C8.44353 14.5088 8.10832 14.8044 7.62336 14.8416C7.52492 14.8506 7.42962 14.8546 7.3374 14.8546C6.3151 14.8546 5.78619 14.3942 5.78619 14.3942C5.78619 14.3942 5.87413 15.0305 6.40309 15.6217C6.89752 16.1674 7.54165 16.4891 8.52628 16.5022C8.52628 16.5022 8.55767 16.9405 8.12196 17.3195C7.84228 17.5587 7.19918 17.6371 7.19918 17.6371C7.19918 17.6371 8.40581 17.8713 8.53776 19.5802C8.61006 20.5061 8.85408 20.8278 8.85408 20.8278H8.83417Z" fill="black"/>
<path d="M2.60302 9.83868C2.73811 9.83868 2.8701 9.81959 2.99479 9.77834C3.34667 9.66677 3.5698 9.39834 3.80549 9.11993C4.04638 8.83446 4.31767 8.51276 4.78797 8.27251L5.27185 8.02317L4.82255 7.72065C4.78483 7.69754 4.44756 7.47937 3.99193 7.47937C3.61694 7.47937 3.26923 7.62618 2.98321 7.90762C2.28567 8.59118 1.66038 8.6465 1.63727 8.64749L1.15026 8.67458L1.3503 9.10383C1.55139 9.52905 2.07823 9.83868 2.60302 9.83868ZM3.22312 8.1348C3.48289 7.8785 3.75624 7.80206 3.99193 7.80206C4.35431 7.80206 4.6288 7.98699 4.6288 7.98699C3.64833 8.48865 3.44723 9.29179 2.88688 9.47279C2.79471 9.5039 2.69833 9.51802 2.60302 9.51802C2.1914 9.51802 1.79335 9.26267 1.65719 8.97014C1.65719 8.96914 2.41133 8.92491 3.22312 8.1348Z" fill="black"/>
<path d="M4.80145 13.5822C4.74901 12.3678 5.07378 11.3827 5.58277 10.5715C5.29896 11.4169 5.33771 12.4522 6.30346 13.4183C6.30346 13.4183 4.38246 11.2098 7.06806 8.94598C8.14275 8.08455 9.31794 7.55272 9.92229 7.1758C7.73637 7.86036 6.66904 7.10642 6.66904 7.10642C7.36658 7.68746 8.27052 7.67737 8.83195 7.59293C8.68009 7.6643 8.52088 7.73874 8.35219 7.82617C6.50663 8.78819 4.85064 10.3695 4.56684 12.5588V12.5417C4.13839 14.6919 3.18524 15.2438 3.18524 15.2438C3.94361 14.8849 4.42121 13.932 4.53751 13.5882C4.6642 15.478 5.62471 16.7898 6.74859 18.0524C7.332 18.7069 7.53732 19.3431 7.53732 19.3431C7.53732 19.3431 7.42313 18.6224 6.91723 18.0353C5.87084 16.828 4.87473 15.3222 4.80145 13.5822Z" fill="black"/>
<path d="M13.3718 9.15209V9.58636C13.5279 9.40436 13.8295 9.44158 13.8295 9.44158V10.0678C13.8295 10.0678 13.8191 10.3754 13.7049 10.5092L14.3574 10.5091C14.2453 10.3764 14.2338 10.0678 14.2338 10.0678V9.44153C14.2338 9.44153 14.5355 9.40436 14.6905 9.58636V9.15209H13.3718Z" fill="black"/>
<path d="M13.0909 6.57663C13.2993 6.73547 13.4198 6.76161 13.4239 6.7646L13.5057 6.80078V6.39165L12.7389 6.08203C12.7389 6.08307 12.7463 6.31929 13.0909 6.57663Z" fill="black"/>
<path d="M14.9149 6.57663C15.2616 6.31929 15.2679 6.08203 15.2679 6.08203L14.5012 6.39165V6.80078L14.5818 6.7646C14.5871 6.76161 14.7065 6.73547 14.9149 6.57663Z" fill="black"/>
<path d="M16.296 4.91096C16.296 4.29077 15.2076 3.73285 14.0063 3.73285H13.9989C12.7975 3.73285 11.7093 4.29077 11.7093 4.91096L11.7334 5.06379L12.213 7.70654L11.7313 7.97492L10.4848 8.67358H10.489C10.489 8.67358 10.2083 8.8113 10.0784 8.89673C9.60391 9.21341 9.50335 9.67477 9.77887 9.86581C9.84695 9.48979 10.1569 9.09578 10.7373 9.09578C11.1552 9.09578 11.4736 9.30287 11.7313 9.61349C11.7972 9.69187 11.8601 9.77531 11.9187 9.86581C11.991 9.97938 12.0633 10.0789 12.1356 10.1754H8.9252C9.16089 10.6307 9.385 11.1133 9.385 11.637V18.4565C9.385 20.1071 10.7079 20.8952 12.1387 20.8952C13.2448 20.8952 13.3935 20.847 14.0042 21.43C14.6116 20.846 14.7604 20.8952 15.8675 20.8952C17.2994 20.8952 18.6202 20.1071 18.6202 18.4565V11.637C18.6202 11.1133 18.8444 10.6307 19.081 10.1754H15.8697C15.9409 10.0799 16.0132 9.97938 16.0855 9.86581C16.1451 9.77531 16.2069 9.69187 16.2719 9.61349C16.5317 9.30183 16.849 9.09578 17.2669 9.09578C17.8472 9.09578 18.1562 9.4888 18.2253 9.86581C18.5008 9.67477 18.4013 9.21341 17.9237 8.89673C17.7959 8.8113 17.5152 8.67358 17.5152 8.67358H17.5193L15.7932 7.70654L16.2729 5.06379L16.296 4.91096ZM12.1816 5.21858L13.868 5.76743V8.30969L12.6268 7.68144L12.1816 5.21858ZM12.5304 10.6187C12.8069 10.8831 13.0783 11.047 13.3359 11.1374C13.3024 11.265 13.2584 11.5284 13.383 11.7908C13.4847 12.0019 13.669 12.1647 13.934 12.2733C13.9633 12.5347 14.1351 12.9277 14.6116 13.1017C14.4032 13.3037 14.2 13.4936 14.1173 13.5711L12.1848 13.5419C12.1408 13.5208 12.0664 13.4736 12.0329 13.4062C12.0287 13.3972 12.0224 13.3922 12.0193 13.3821L12.3346 13.4313C12.3419 13.4324 12.3482 13.4324 12.3545 13.4324C12.4152 13.4324 12.4686 13.3922 12.4791 13.3319C12.4896 13.2645 12.4425 13.2032 12.3744 13.1931L11.9869 13.1348L12.4173 11.7084L12.0099 10.8851L11.3563 11.5485L11.3165 13.0323L10.8776 12.9659C10.8095 12.9529 10.7446 13.0011 10.7331 13.0665C10.7226 13.1318 10.7687 13.1931 10.8378 13.2052L11.0221 13.2323C10.9562 13.2685 10.9132 13.2966 10.908 13.3007L10.8703 13.3258L10.8598 13.37C10.753 13.7862 10.9949 14.1813 11.2557 14.3582L11.2463 14.4105C11.2359 14.4748 11.2505 14.5371 11.2903 14.5894C11.328 14.6427 11.3866 14.6748 11.4516 14.6859C11.4652 14.6879 11.4799 14.6889 11.4924 14.6889C11.6055 14.6889 11.704 14.6135 11.7323 14.504C11.8297 14.515 11.9187 14.517 11.9795 14.517H12.0308L14.5667 14.9563L14.6096 14.9291C14.8118 14.7934 15.5816 14.2546 15.834 14.0767C15.9032 14.134 15.9807 14.1862 16.075 14.2295C15.9932 14.4929 15.988 14.898 16.3116 15.2177H9.84901V11.638C9.84901 11.2912 9.74321 10.9424 9.61857 10.6207H12.5304V10.6187ZM15.6644 13.8937C15.4077 14.0747 14.7479 14.5371 14.509 14.6979L12.2047 14.3009C12.2099 14.2808 12.2151 14.2617 12.2204 14.2416C12.2508 14.127 12.2812 13.9702 12.2833 13.7862L14.2199 13.8164L14.2566 13.7802C14.2859 13.752 14.8997 13.1831 15.2129 12.8553C15.2873 12.9448 15.3805 13.0303 15.5021 13.1056C15.4601 13.3228 15.4779 13.6324 15.6644 13.8937ZM11.8067 13.5108C11.8611 13.6203 11.9596 13.6937 12.0277 13.7349C12.0256 13.8375 12.0151 13.9973 11.9869 14.138C11.9805 14.1692 11.9721 14.1984 11.9627 14.2275C11.9575 14.2456 11.9523 14.2607 11.9481 14.2727C11.8465 14.2727 11.6464 14.2607 11.483 14.2034C11.3018 14.139 11.0316 13.8204 11.0944 13.4695C11.173 13.4233 11.3542 13.3258 11.5238 13.3258C11.6548 13.3248 11.7438 13.3841 11.8067 13.5108ZM11.5668 13.0695L11.6055 11.645L11.9386 11.3063L12.1481 11.7265L11.7354 13.0936L11.5668 13.0695ZM15.6434 20.4539C15.5177 20.4539 15.4015 20.456 15.2967 20.46L15.5711 19.6407C15.6141 19.5271 15.3972 19.3813 15.3083 19.2537C15.4433 19.3351 15.7932 19.513 15.9618 19.5844C15.944 19.6105 15.6434 20.4539 15.6434 20.4539ZM16.5044 19.5231L16.3253 20.4197C16.2111 20.4348 16.0896 20.4429 15.965 20.4479L16.1535 19.5854C16.2101 19.3291 15.4926 19.2496 15.1385 18.746C14.9657 18.933 14.64 18.9883 14.3132 18.9883C14.0146 18.9883 13.7162 18.942 13.5349 18.9079C13.4888 18.9008 13.4448 18.8958 13.4019 18.8958C13.2971 18.8958 13.2018 18.927 13.1359 19.0335L13.0835 19.1179L12.1063 18.8968L11.8632 19.2828C11.8287 19.3452 11.8266 19.3984 11.8821 19.4567L11.9481 19.5261C11.903 19.6628 11.6999 19.8689 11.6999 19.8689L11.5542 19.695C11.439 19.5713 11.4579 19.3462 11.5783 19.1371L11.9659 18.5088L12.7933 18.6234L12.6645 18.3419C12.4917 17.97 12.7546 17.4965 12.7829 17.2241C12.7734 17.3065 12.6949 17.3246 12.6027 17.3246C12.519 17.3246 12.4257 17.3096 12.3639 17.3096C12.3398 17.3096 12.3188 17.3116 12.3074 17.3196L12.0832 17.4503L11.9061 17.3005C11.8852 17.2714 11.8779 17.204 11.9303 17.1537L12.3398 16.7134L11.8559 16.1716L12.5336 16.4983L12.7399 16.258C12.7965 16.3114 12.7724 16.4511 12.7724 16.4511C12.984 16.4561 13.5768 16.7707 13.6083 17.5045C13.6104 17.5267 13.6104 17.5518 13.6104 17.5759C13.6104 17.5759 13.6156 17.585 13.626 17.6001C13.668 17.6554 13.7832 17.7971 13.9298 17.8102L14.8662 17.8987H14.8704C14.973 17.8987 15.1773 17.783 15.4392 17.783C15.5816 17.783 15.7408 17.8182 15.9105 17.9207C15.9105 17.9207 15.9953 17.8564 16.1336 17.8493C16.1441 17.8484 16.1556 17.8484 16.1661 17.8484C16.5861 17.8484 16.76 18.2123 16.9852 18.5148C17.1548 18.745 17.3811 19.0868 17.3811 19.0868C17.2973 19.1823 17.2198 19.2346 17.0899 19.2346C17.0543 19.2346 17.0134 19.2315 16.9694 19.2235C16.5191 19.1441 16.4541 18.2555 16.1975 18.1851C16.1839 18.1811 16.1692 18.1801 16.1567 18.1801C16.0739 18.1801 16.0372 18.2504 16.0372 18.2504C16.1545 18.5531 16.0865 18.6757 16.2121 18.9089C16.3065 19.0817 16.474 19.2245 16.5431 19.2919C16.5431 19.2939 16.5243 19.4246 16.5044 19.5231ZM11.4757 18.6747L11.5186 18.7782C11.4903 18.8687 11.1656 18.9973 11.1656 18.9973L11.0955 18.8506C11.0211 18.6938 11.0368 18.4293 11.2631 18.2675L11.7888 17.9599L12.3461 18.0736C12.3356 18.2434 12.4414 18.3701 12.4414 18.3701L11.8569 18.2625L11.5071 18.4947C11.4484 18.5339 11.4443 18.6073 11.4757 18.6747ZM16.5924 20.3705L16.7526 19.5683C16.761 19.5211 16.7715 19.4658 16.7788 19.4196C16.8239 19.4376 16.872 19.4527 16.9245 19.4617C16.9841 19.4728 17.0396 19.4778 17.0899 19.4778C17.335 19.4778 17.4774 19.3542 17.5728 19.2486L17.6964 19.1109L17.5958 18.9601C17.5864 18.9451 17.3643 18.6073 17.1926 18.3761C17.1591 18.3308 17.1265 18.2856 17.0941 18.2364C16.8993 17.957 16.6552 17.6061 16.1661 17.6061L16.1221 17.6071C16.0415 17.6121 15.9723 17.6272 15.9168 17.6473C15.7628 17.578 15.6047 17.5428 15.4402 17.5428C15.2381 17.5428 15.0673 17.596 14.9542 17.6333C14.9217 17.6423 14.8924 17.6523 14.8693 17.6563L13.955 17.5699C13.9434 17.5679 13.9057 17.5468 13.8607 17.4945V17.4905L14.0586 17.4141C14.0032 16.7818 13.3705 16.3928 13.0175 16.2611C13.0018 16.1978 12.9704 16.1344 12.9148 16.0832L12.7179 15.9042L12.5451 16.1033L12.4603 16.2048L11.1803 15.7002L12.013 16.7034L11.6841 17.1809C11.5637 17.3035 11.6967 17.4262 11.6967 17.4262L12.036 17.6503L12.388 17.5247C12.4006 17.5247 12.4111 17.5277 12.4226 17.5287C12.4058 17.5799 12.3838 17.781 12.3692 17.8373L11.7585 17.7217L11.1164 18.0695C10.7865 18.3017 10.7414 18.6867 10.864 18.9501L10.9352 19.0998L11.0368 19.311L11.2609 19.2215C11.2641 19.2205 11.2672 19.2195 11.2693 19.2175C11.1887 19.4648 11.2212 19.7 11.3657 19.8548L11.5019 20.0197L11.683 20.2398L11.8821 20.0347C11.9407 19.9785 12.1303 19.7744 12.1889 19.5995L12.232 19.4658L12.1345 19.3632L12.1188 19.3452L12.2277 19.1723L13.0248 19.3522L13.2039 19.3914L13.2993 19.2406L13.3516 19.1581C13.3611 19.1411 13.3642 19.1381 13.4008 19.1381C13.4291 19.1381 13.4574 19.1411 13.4878 19.1472C13.7884 19.2014 14.066 19.2286 14.3121 19.2286C14.5509 19.2286 14.6934 19.2195 14.8642 19.1652C14.8642 19.1652 15.2925 19.6316 15.3072 19.6498L15.0453 20.4258L15.0338 20.473C14.5373 20.5112 14.2954 20.6158 14.0032 20.8963C13.5789 20.4922 13.2783 20.4499 12.1376 20.4499C10.7728 20.4499 9.84793 19.6819 9.84793 18.4555V15.4569H18.1562L18.1583 18.4555C18.1593 19.4507 17.5508 20.1443 16.5924 20.3705ZM18.3888 10.6187C18.262 10.9404 18.1562 11.2892 18.1562 11.636L18.1572 13.8736C17.6702 13.7952 17.6126 13.2916 17.6105 13.2695L17.6011 13.167L17.4963 13.1579C17.2847 13.1388 17.1444 13.0524 17.026 12.9418C16.7872 12.7126 16.7861 12.3407 16.7872 12.3377C16.7841 12.3567 16.5243 12.7056 16.826 13.0866C16.9527 13.2474 17.136 13.3459 17.3738 13.3851C17.4293 13.6646 17.6461 14.0586 18.1572 14.1189V15.2147H16.7202C16.0571 14.8608 16.3379 14.2375 16.3514 14.2114L16.408 14.0928L16.2813 14.0466C15.5638 13.7912 15.7607 13.1037 15.7712 13.0745L15.8005 12.974L15.7032 12.9298C15.1102 12.6664 15.1909 11.9557 15.1982 11.9265C15.016 12.0683 14.95 12.3578 15.0757 12.6413C15.0076 12.7157 14.9165 12.8061 14.817 12.9046C14.2032 12.7548 14.1844 12.213 14.1844 12.1879L14.1833 12.1045L14.1026 12.0743C13.8628 11.9888 13.6983 11.8612 13.6177 11.6893C13.5266 11.4993 13.559 11.3002 13.5841 11.2048C13.6543 11.2198 13.7245 11.2309 13.7916 11.2359C13.8607 11.2429 13.9319 11.2469 14.0032 11.2469H14.0126C14.0838 11.2469 14.154 11.2429 14.2231 11.2359C14.6054 11.1997 15.0338 11.0419 15.48 10.6177H18.3888V10.6187ZM16.1493 8.3569L16.717 8.67358H16.7254L16.8679 8.753C16.5473 8.83844 16.3022 8.99225 16.0969 9.19428C16.0896 9.20034 16.0823 9.20834 16.075 9.2154C16.0278 9.26366 15.9807 9.31594 15.9367 9.36917C15.9283 9.37926 15.9199 9.39029 15.9105 9.40138C15.8665 9.45565 15.8257 9.51096 15.7859 9.56926C15.7796 9.5793 15.7722 9.58934 15.7649 9.59838C15.7178 9.66572 15.6727 9.73814 15.6277 9.81249C15.2234 10.481 14.5781 10.8801 14.0042 10.8811C13.4312 10.8801 12.786 10.481 12.3817 9.81249C12.3377 9.74017 12.2937 9.66975 12.2466 9.60137C12.2371 9.58834 12.2288 9.57527 12.2204 9.56424C12.1806 9.50892 12.1408 9.45465 12.0999 9.40336C12.0895 9.3893 12.0801 9.37827 12.0696 9.36619C12.0256 9.3149 11.9805 9.26366 11.9355 9.2164C11.926 9.20939 11.9198 9.20034 11.9104 9.19224C11.704 8.99022 11.46 8.83739 11.1384 8.753L11.2829 8.67358H11.2892L11.8569 8.3569L12.4404 8.03629L13.9989 8.85046L14.0021 8.84748L14.0063 8.85046L15.5648 8.03629L16.1493 8.3569ZM15.3805 7.68239L14.1382 8.31063V5.76743L15.8235 5.21858L15.3805 7.68239ZM14.0032 5.488L12.1554 4.78733C12.3126 4.43047 13.0374 4.12688 14.0032 4.1259C14.9699 4.12688 15.6947 4.43047 15.8508 4.78733L14.0032 5.488Z" fill="black"/>
</svg>
