<svg width="24" height="25" viewBox="0 0 24 25" fill="none" xmlns="http://www.w3.org/2000/svg">
<g id="binance-logo 1" clip-path="url(#clip0_4014_12264)">
<g id="Group">
<path id="Vector" d="M7.34149 10.7915L12.0027 6.13219L16.6659 10.7953L19.3766 8.08275L12.0027 0.707031L4.62891 8.08086L7.34149 10.7915Z" fill="#F3BA2F"/>
<path id="Vector_2" d="M0 12.7087L2.71069 9.99609L5.42327 12.7087L2.71069 15.4194L0 12.7087Z" fill="#F3BA2F"/>
<path id="Vector_3" d="M7.34149 14.623L12.0027 19.2842L16.6659 14.6211L19.3785 17.3299L12.0046 24.7056L4.62891 17.3356L7.34149 14.623Z" fill="#F3BA2F"/>
<path id="Vector_4" d="M18.5762 12.7087L21.2869 9.99609L23.9994 12.7068L21.2869 15.4213L18.5762 12.7087Z" fill="#F3BA2F"/>
<path id="Vector_5" d="M14.7529 12.7055L12.0024 9.95312L9.96848 11.9871L9.73343 12.2202L9.25195 12.7017L12.0024 15.4503L14.7529 12.7074V12.7055Z" fill="#F3BA2F"/>
</g>
</g>
<defs>
<clipPath id="clip0_4014_12264">
<rect width="24" height="24" fill="white" transform="translate(0 0.707031)"/>
</clipPath>
</defs>
</svg>
