<svg width="36" height="36" viewBox="0 0 36 36" fill="none" xmlns="http://www.w3.org/2000/svg">
<path d="M26.3345 26.1904C27.9668 26.1904 29.2956 24.8904 29.3101 23.2871C29.3101 22.4782 28.9779 21.6982 28.3856 21.1204L27.5912 20.3404C26.8401 19.6038 26.4212 18.6215 26.4212 17.5815V13.6671C26.4212 12.4827 26.2334 11.2982 25.7567 10.2004C24.3412 6.936 21.1345 4.97153 17.7401 4.98597C12.959 4.98597 9.08786 8.78485 9.08786 13.4649V17.5671C9.08786 18.6071 8.66898 19.5893 7.91787 20.326L7.12342 21.106C6.5312 21.6838 6.19897 22.4638 6.19897 23.2726C6.19897 24.876 7.52786 26.176 9.17453 26.176H26.349L26.3345 26.1904Z" stroke="#171717" stroke-width="1.5" stroke-linecap="round" stroke-linejoin="round"/>
<path d="M15.4868 31H20.0079" stroke="#171717" stroke-width="1.5" stroke-linecap="round" stroke-linejoin="round"/>
</svg>
