<svg width="28" height="28" viewBox="0 0 28 28" fill="none" xmlns="http://www.w3.org/2000/svg">
<g id="icon-vklad">
<g id="vklad">
<path id="Vector" d="M16.2525 1.29821L14.0763 0.0357966L14.0761 0.03607C13.9744 -0.0194926 13.8433 -0.0128754 13.7 0.0699764L2.58447 6.49621C2.26165 6.6828 2 7.18347 2 7.61446V17.4871C2 17.9962 2.27126 18.4667 2.71156 18.7214L4.15739 19.5611L16.2525 1.29821Z" fill="url(#paint0_linear_2227_26183)"/>
<path id="Vector_2" d="M15.6668 1.62378L4.92424 7.83444C4.61229 8.0148 4.35938 8.49867 4.35938 8.91517V19.2517L16.2316 12.3879V2.05139C16.2316 1.63489 15.9787 1.44342 15.6668 1.62378Z" fill="url(#paint1_linear_2227_26183)"/>
<path id="Vector_3" d="M12.8192 10.3654V3.07764L4.7417 7.74752C4.41888 7.93411 4.15723 8.43478 4.15723 8.86577V15.3732L12.8192 10.3654Z" fill="url(#paint2_linear_2227_26183)"/>
<path id="Vector_4" d="M16.404 12.6426L4.46875 19.5428L13.4557 24.7385C13.8179 24.9478 14.3657 24.9706 14.6793 24.7893L25.4788 18.5457C25.7924 18.3644 25.7531 18.0476 25.391 17.8383L16.404 12.6426Z" fill="url(#paint3_linear_2227_26183)"/>
<path id="Vector_5" d="M9.11864 17.4863L8.14844 18.8258L9.98366 18.3017L9.11864 17.4863Z" fill="url(#paint4_linear_2227_26183)"/>
<path id="Vector_6" d="M7.97559 21.7677L13.4068 24.9077C13.7796 25.1232 14.3434 25.1466 14.6661 24.96L22.5474 20.4036L16.4413 16.8734L7.97559 21.7677Z" fill="url(#paint5_linear_2227_26183)"/>
<path id="Vector_7" d="M15.7458 2.19018V12.0568L4.85305 18.3543V8.86573C4.85305 8.65218 5.01072 8.39712 5.08958 8.3509L15.7458 2.19018ZM16.0892 1.25098C16.0181 1.25098 15.9396 1.27356 15.8571 1.3212L4.7417 7.74748C4.41893 7.93408 4.15723 8.43474 4.15723 8.86573V19.5611L16.4416 12.459V1.76367C16.4416 1.44277 16.2965 1.25098 16.0892 1.25098Z" fill="url(#paint6_linear_2227_26183)"/>
<path id="Vector_8" d="M11.719 18.2083H11.7188V16.8221L24.9463 18.5747V19.9601L24.9461 19.9601C24.9464 20.0028 24.9155 20.0481 24.8545 20.0833L20.0584 22.8562C19.9474 22.9203 19.7796 22.9272 19.6835 22.8717L16.8857 21.2542L15.57 20.4194L14.567 19.9137L11.7835 18.3044C11.7392 18.2787 11.7182 18.2443 11.719 18.2083Z" fill="url(#paint7_linear_2227_26183)"/>
<path id="Vector_9" d="M11.7836 18.193L19.6836 22.7603C19.7797 22.8159 19.9475 22.8089 20.0585 22.7448L24.8546 19.9719C24.9156 19.9367 24.9465 19.8915 24.9462 19.8487H24.9464V19.9843H24.9462C24.9465 20.0271 24.9156 20.0723 24.8546 20.1075L20.0585 22.8803C19.9475 22.9445 19.7797 22.9514 19.6836 22.8959L16.8858 21.2784L16.8231 21.1612L14.645 19.9142L14.5671 19.9379L11.7835 18.3286C11.7392 18.303 11.7182 18.2685 11.719 18.2325H11.7188V18.0969H11.719C11.7183 18.133 11.7393 18.1674 11.7836 18.193Z" fill="url(#paint8_linear_2227_26183)"/>
<path id="Vector_10" d="M11.7835 17.9232L19.6835 22.4905C19.7796 22.546 19.9474 22.539 20.0584 22.4749L24.8545 19.7021C24.9155 19.6668 24.9465 19.6217 24.9461 19.5789H24.9463V19.7145H24.9461C24.9465 19.7573 24.9155 19.8025 24.8545 19.8377L20.0584 22.6106C19.9475 22.6747 19.7797 22.6817 19.6835 22.6261L11.7835 18.0588C11.7392 18.0332 11.7182 17.9988 11.719 17.9628H11.7188V17.8271H11.719C11.7182 17.8631 11.7392 17.8975 11.7835 17.9232Z" fill="url(#paint9_linear_2227_26183)"/>
<path id="Vector_11" d="M11.7835 17.6569L19.6835 22.2242C19.7796 22.2798 19.9474 22.2728 20.0584 22.2086L24.8545 19.4358C24.9155 19.4005 24.9465 19.3554 24.9461 19.3126H24.9463V19.4482H24.9461C24.9465 19.4909 24.9155 19.5362 24.8545 19.5714L20.0584 22.3443C19.9475 22.4084 19.7797 22.4154 19.6835 22.3599L11.7835 17.7926C11.7392 17.767 11.7182 17.7326 11.719 17.6966L11.7188 17.6965V17.5609L11.719 17.561C11.7182 17.5969 11.7392 17.6314 11.7835 17.6569Z" fill="url(#paint10_linear_2227_26183)"/>
<path id="Vector_12" d="M11.7835 17.3878L19.6835 21.9551C19.7796 22.0107 19.9474 22.0037 20.0584 21.9395L24.8545 19.1667C24.9155 19.1314 24.9465 19.0863 24.9461 19.0434H24.9463V19.1791H24.9461C24.9465 19.2218 24.9155 19.2671 24.8545 19.3023L20.0584 22.0752C19.9475 22.1393 19.7797 22.1463 19.6835 22.0907L11.7835 17.5235C11.7392 17.4979 11.7182 17.4634 11.719 17.4274L11.7188 17.4274V17.2917L11.719 17.2918C11.7182 17.3277 11.7392 17.3622 11.7835 17.3878Z" fill="url(#paint11_linear_2227_26183)"/>
<path id="Vector_13" d="M11.7835 17.1126L19.6835 21.6799C19.7796 21.7354 19.9474 21.7284 20.0584 21.6643L24.8545 18.8914C24.9155 18.8562 24.9465 18.811 24.9461 18.7682L24.9463 18.7682V18.9039L24.9461 18.9038C24.9465 18.9466 24.9155 18.9918 24.8545 19.0271L20.0584 21.7999C19.9475 21.864 19.7797 21.871 19.6835 21.8155L11.7835 17.2482C11.7392 17.2226 11.7182 17.1881 11.719 17.1522L11.7188 17.1521V17.0165L11.719 17.0165C11.7182 17.0525 11.7392 17.0869 11.7835 17.1126Z" fill="url(#paint12_linear_2227_26183)"/>
<path id="Vector_14" d="M16.9931 13.9488L24.8182 18.4727C24.9133 18.5278 24.9014 18.6238 24.7915 18.6874L20.0409 21.4339C19.931 21.4975 19.7647 21.5043 19.6696 21.4493L11.8445 16.9254C11.7494 16.8703 11.7613 16.7743 11.8712 16.7107L16.6219 13.9642C16.7317 13.9006 16.8979 13.8937 16.9931 13.9488Z" fill="url(#paint13_linear_2227_26183)"/>
<path id="Vector_15" d="M16.6067 13.9283L11.8105 16.7011C11.6996 16.7653 11.6875 16.8623 11.7836 16.9179L19.6836 21.4851C19.7797 21.5407 19.9475 21.5337 20.0585 21.4696L24.8546 18.6968C24.9655 18.6326 24.9776 18.5356 24.8815 18.4801L22.0954 16.8693L20.6514 16.1816L19.7702 15.525L16.9815 13.9127C16.8854 13.8572 16.7176 13.8642 16.6067 13.9283ZM13.5646 16.09L15.5496 14.9424C15.5802 15.0604 15.6691 15.1703 15.8189 15.2568C16.2359 15.4979 16.9643 15.4677 17.4458 15.1893C17.6187 15.0893 17.736 14.9709 17.7963 14.8491L23.2618 18.0089C23.0511 18.0438 22.8463 18.1116 22.6734 18.2115C22.1918 18.49 22.1395 18.9111 22.5565 19.1522C22.7063 19.2387 22.8963 19.2902 23.1005 19.3078L21.1155 20.4554C21.0849 20.3374 20.996 20.2276 20.8462 20.141C20.4292 19.8999 19.7008 19.9301 19.2192 20.2085C19.0463 20.3085 18.9291 20.4269 18.8687 20.5487L13.4033 17.3889C13.614 17.354 13.8188 17.2862 13.9917 17.1863C14.4732 16.9079 14.5256 16.4868 14.1085 16.2456C13.9588 16.1591 13.7688 16.1077 13.5646 16.09Z" fill="url(#paint14_linear_2227_26183)"/>
<path id="Vector_16" d="M16.8101 16.7994C17.7917 16.2319 19.2766 16.1703 20.1267 16.6618C20.9768 17.1532 20.8702 18.0117 19.8886 18.5792C18.9069 19.1467 17.4221 19.2083 16.572 18.7169C15.7219 18.2254 15.8285 17.367 16.8101 16.7994Z" fill="url(#paint15_linear_2227_26183)"/>
<path id="Vector_17" d="M16.886 19.8676V21.278L14.5674 19.9375V18.5271L15.7267 19.0084L16.886 19.8676Z" fill="url(#paint16_linear_2227_26183)"/>
<path id="Vector_18" d="M19.7704 15.525L22.0956 16.8694L16.886 19.8677L14.5674 18.5272L19.7704 15.525Z" fill="url(#paint17_linear_2227_26183)"/>
<path id="Vector_19" d="M17.5435 18.3389L17.2844 18.4887C17.2396 18.5146 17.1887 18.5282 17.1369 18.5282C17.0851 18.5282 17.0342 18.5146 16.9894 18.4887C16.9189 18.4479 16.9189 18.346 16.9894 18.3053L17.2401 18.1604C17.1583 18.0952 17.092 18.0227 17.0429 17.9469C16.9585 17.8162 17.0288 17.6413 17.1803 17.6064L17.1828 17.6058C17.2546 17.5892 17.3298 17.597 17.3967 17.6279C17.4635 17.6589 17.5181 17.7113 17.5519 17.7769C17.6071 17.8845 17.6932 17.9799 17.7908 18.0363C17.9151 18.1082 18.0465 18.1227 18.1448 18.0659C18.4611 17.883 17.4204 17.5026 18.0796 17.1216C18.3745 16.9511 18.7633 16.9392 19.1137 17.0772L19.3568 16.9367C19.4017 16.9107 19.4526 16.8971 19.5044 16.8971C19.5562 16.8971 19.6071 16.9107 19.6519 16.9367C19.7224 16.9774 19.7224 17.0792 19.6519 17.12L19.4224 17.2527C19.4643 17.2837 19.5037 17.3178 19.5406 17.3547C19.6635 17.4783 19.6031 17.6892 19.4337 17.73C19.2985 17.7625 19.1584 17.7066 19.0803 17.5915C19.0182 17.5 18.941 17.42 18.8622 17.3744C18.7609 17.3159 18.6516 17.3019 18.5666 17.351C18.2583 17.5293 19.283 17.9189 18.6133 18.306C18.2864 18.4949 17.8787 18.4804 17.5435 18.3389Z" fill="white"/>
<path id="Vector_20" d="M6.17112 21.4256H6.1709V20.0394L19.3984 21.7919V23.1774H19.3982C19.3985 23.2201 19.3676 23.2653 19.3066 23.3006L14.5105 26.0734C14.3996 26.1376 14.2318 26.1445 14.1356 26.089L11.3378 24.4715L10.0221 23.6367L9.01914 23.131L6.23556 21.5217C6.19138 21.496 6.17035 21.4616 6.17112 21.4256Z" fill="url(#paint18_linear_2227_26183)"/>
<path id="Vector_21" d="M6.23572 21.4096L14.1357 25.9769C14.2318 26.0324 14.3996 26.0254 14.5106 25.9613L19.3067 23.1884C19.3677 23.1532 19.3987 23.108 19.3983 23.0652L19.3986 23.0652V23.2009L19.3983 23.2008C19.3987 23.2436 19.3677 23.2888 19.3067 23.3241L14.5106 26.0969C14.3997 26.161 14.2319 26.168 14.1357 26.1125L11.3379 24.495L11.2752 24.3778L9.09708 23.1308L9.01925 23.1545L6.23567 21.5452C6.19138 21.5196 6.17035 21.4851 6.17112 21.4492L6.1709 21.4491V21.3135L6.17112 21.3135C6.17041 21.3495 6.19143 21.3839 6.23572 21.4096Z" fill="url(#paint19_linear_2227_26183)"/>
<path id="Vector_22" d="M6.23567 21.1406L14.1357 25.7079C14.2318 25.7635 14.3996 25.7565 14.5106 25.6923L19.3067 22.9195C19.3677 22.8842 19.3986 22.8391 19.3983 22.7963H19.3985V22.9319L19.3983 22.9319C19.3986 22.9746 19.3677 23.0199 19.3067 23.0551L14.5106 25.828C14.3996 25.8921 14.2318 25.8991 14.1357 25.8436L6.23567 21.2763C6.19138 21.2507 6.17035 21.2162 6.17112 21.1802L6.1709 21.1802V21.0446L6.17112 21.0446C6.17035 21.0806 6.19138 21.115 6.23567 21.1406Z" fill="url(#paint20_linear_2227_26183)"/>
<path id="Vector_23" d="M6.23567 20.8739L14.1357 25.4412C14.2318 25.4967 14.3996 25.4897 14.5106 25.4256L19.3067 22.6528C19.3677 22.6175 19.3986 22.5724 19.3983 22.5295L19.3985 22.5296V22.6652H19.3983C19.3986 22.708 19.3677 22.7532 19.3067 22.7884L14.5106 25.5612C14.3996 25.6254 14.2318 25.6323 14.1357 25.5768L6.23567 21.0095C6.19138 20.9839 6.17035 20.9494 6.17112 20.9135H6.1709V20.7778H6.17112C6.17035 20.8138 6.19138 20.8483 6.23567 20.8739Z" fill="url(#paint21_linear_2227_26183)"/>
<path id="Vector_24" d="M6.23567 20.6051L14.1357 25.1724C14.2318 25.2279 14.3996 25.2209 14.5106 25.1568L19.3067 22.384C19.3677 22.3487 19.3986 22.3036 19.3983 22.2607L19.3985 22.2608V22.3964H19.3983C19.3986 22.4392 19.3677 22.4844 19.3067 22.5196L14.5106 25.2924C14.3996 25.3566 14.2318 25.3635 14.1357 25.308L6.23567 20.7407C6.19138 20.7151 6.17035 20.6806 6.17112 20.6447H6.1709V20.509H6.17112C6.17035 20.545 6.19138 20.5794 6.23567 20.6051Z" fill="url(#paint22_linear_2227_26183)"/>
<path id="Vector_25" d="M6.23567 20.3294L14.1357 24.8967C14.2318 24.9523 14.3996 24.9453 14.5106 24.8812L19.3067 22.1084C19.3677 22.0731 19.3986 22.0279 19.3983 21.9852H19.3985V22.1208H19.3983C19.3986 22.1635 19.3677 22.2088 19.3067 22.244L14.5106 25.0168C14.3996 25.081 14.2318 25.0879 14.1357 25.0323L6.23567 20.4651C6.19138 20.4395 6.17035 20.405 6.17112 20.369H6.1709V20.2334H6.17112C6.17035 20.2693 6.19138 20.3038 6.23567 20.3294Z" fill="url(#paint23_linear_2227_26183)"/>
<path id="Vector_26" d="M11.4472 17.1657L19.2723 21.6897C19.3675 21.7447 19.3556 21.8408 19.2457 21.9043L14.495 24.6508C14.3851 24.7144 14.2189 24.7213 14.1237 24.6663L6.29863 20.1423C6.20344 20.0873 6.2154 19.9912 6.32528 19.9276L11.0759 17.1811C11.1859 17.1176 11.3521 17.1107 11.4472 17.1657Z" fill="url(#paint24_linear_2227_26183)"/>
<path id="Vector_27" d="M11.0588 17.1456L6.26269 19.9184C6.15171 19.9826 6.1397 20.0796 6.23576 20.1351L14.1358 24.7024C14.2318 24.758 14.3997 24.751 14.5106 24.6868L19.3068 21.914C19.4177 21.8499 19.4298 21.7528 19.3337 21.6973L16.5476 20.0865L15.1035 19.3988L14.2223 18.7422L11.4337 17.1299C11.3376 17.0745 11.1698 17.0815 11.0588 17.1456ZM8.01675 19.3073L10.0018 18.1597C10.0324 18.2778 10.1213 18.3876 10.271 18.4742C10.688 18.7153 11.4165 18.6851 11.898 18.4067C12.0709 18.3067 12.1882 18.1883 12.2485 18.0665L17.714 21.2263C17.5033 21.2612 17.2985 21.329 17.1256 21.4289C16.6441 21.7073 16.5917 22.1284 17.0088 22.3696C17.1585 22.4561 17.3485 22.5075 17.5527 22.5252L15.5677 23.6728C15.5371 23.5547 15.4482 23.4449 15.2984 23.3583C14.8814 23.1172 14.153 23.1474 13.6715 23.4259C13.4986 23.5258 13.3813 23.6442 13.321 23.7661L7.85543 20.6063C8.06618 20.5714 8.27098 20.5036 8.44388 20.4036C8.92541 20.1252 8.97773 19.7041 8.5607 19.463C8.41095 19.3764 8.22095 19.325 8.01675 19.3073Z" fill="url(#paint25_linear_2227_26183)"/>
<path id="Vector_28" d="M11.2632 20.0168C12.2448 19.4493 13.7297 19.3877 14.5798 19.8792C15.4299 20.3706 15.3233 21.2291 14.3417 21.7966C13.3601 22.3641 11.8752 22.4257 11.0251 21.9343C10.175 21.4427 10.2816 20.5843 11.2632 20.0168Z" fill="url(#paint26_linear_2227_26183)"/>
<path id="Vector_29" d="M11.3391 23.0848V24.4952L9.02051 23.1547V21.7443L10.1798 22.2256L11.3391 23.0848Z" fill="url(#paint27_linear_2227_26183)"/>
<path id="Vector_30" d="M14.2235 18.7418L16.5487 20.0861L11.3391 23.0845L9.02051 21.744L14.2235 18.7418Z" fill="url(#paint28_linear_2227_26183)"/>
<path id="Vector_31" d="M11.9957 21.556L11.7366 21.7058C11.6917 21.7317 11.6408 21.7454 11.589 21.7454C11.5373 21.7454 11.4864 21.7317 11.4415 21.7058C11.3711 21.6651 11.3711 21.5632 11.4415 21.5225L11.6922 21.3775C11.6105 21.3123 11.5441 21.2398 11.4951 21.164C11.4106 21.0333 11.4809 20.8584 11.6324 20.8235L11.6349 20.8229C11.7067 20.8063 11.782 20.8141 11.8488 20.8451C11.9156 20.876 11.9703 20.9285 12.004 20.994C12.0592 21.1015 12.1454 21.1969 12.243 21.2534C12.3673 21.3253 12.4987 21.3398 12.597 21.283C12.9133 21.1002 11.8726 20.7197 12.5318 20.3387C12.8267 20.1682 13.2155 20.1564 13.5659 20.2944L13.809 20.1538C13.8539 20.1279 13.9048 20.1143 13.9566 20.1143C14.0084 20.1143 14.0593 20.1279 14.1041 20.1538C14.1746 20.1946 14.1746 20.2964 14.1041 20.3371L13.8746 20.4698C13.9165 20.5009 13.9559 20.535 13.9928 20.5719C14.1157 20.6955 14.0553 20.9063 13.8859 20.9471C13.7507 20.9797 13.6106 20.9238 13.5325 20.8086C13.4704 20.7171 13.3932 20.6371 13.3144 20.5915C13.2131 20.533 13.1038 20.5189 13.0188 20.5681C12.7105 20.7464 13.7352 21.136 13.0655 21.5232C12.7386 21.7121 12.3309 21.6976 11.9957 21.556Z" fill="white"/>
<path id="Vector_32" d="M25.9998 21.1339L25.9997 18.2219L14.123 24.6662L4.15723 19.5599V21.6511C4.15723 21.9012 4.22299 22.147 4.34791 22.3637C4.47284 22.5804 4.65252 22.7603 4.86889 22.8854L13.4071 27.8216C13.7798 28.0371 14.3436 28.0605 14.6664 27.8739L25.7818 21.4477C25.927 21.3637 25.9981 21.2515 25.9991 21.1339L25.9998 21.1339Z" fill="url(#paint29_linear_2227_26183)"/>
<path id="Vector_33" d="M15.7686 26.0605V27.2375L17.6489 26.1504V25.719L15.7686 26.0605Z" fill="url(#paint30_linear_2227_26183)"/>
<path id="Vector_34" d="M22.8369 21.9457V23.1505L24.7174 22.0634V21.6042L22.8369 21.9457Z" fill="url(#paint31_linear_2227_26183)"/>
<path id="Vector_35" d="M18.2363 24.4337V25.8103L18.9129 25.4191V24.6013L18.2363 24.4337Z" fill="url(#paint32_linear_2227_26183)"/>
<path id="Vector_36" d="M22.2773 22.095V23.6879L23.1857 22.7549L22.2773 22.095Z" fill="url(#paint33_linear_2227_26183)"/>
<path id="Vector_37" d="M16.4416 13.2626L24.9747 18.1959L14.3186 24.3566C14.3037 24.3651 14.2353 24.3893 14.1195 24.3893C13.9853 24.3893 13.8456 24.3567 13.755 24.3043L5.54888 19.5601L16.4416 13.2626ZM16.4416 12.458L4.15723 19.56L13.4071 24.9077C13.611 25.0255 13.872 25.086 14.1195 25.086C14.3245 25.086 14.5202 25.0445 14.6664 24.96L25.7819 18.5337C26.1046 18.3472 26.0642 18.0212 25.6914 17.8057L16.4416 12.458Z" fill="url(#paint34_linear_2227_26183)"/>
<path id="Vector_38" d="M18.0796 24.0318L17.4845 23.6933C17.4702 23.685 17.4517 23.6856 17.4313 23.6974L15.8497 24.6213C15.8049 24.6472 15.7686 24.7167 15.7686 24.7766V26.2236C15.7686 26.2568 15.7797 26.28 15.7974 26.2897L16.3933 26.6287L18.0796 24.0318Z" fill="url(#paint35_linear_2227_26183)"/>
<path id="Vector_39" d="M18.0279 24.0369L16.4464 24.9607C16.4016 24.9866 16.3652 25.0561 16.3652 25.116V26.563C16.3652 26.6229 16.4016 26.6504 16.4464 26.6245L18.0279 25.7006C18.0728 25.6747 18.1091 25.6052 18.1091 25.5453V24.0983C18.1091 24.0384 18.0728 24.0109 18.0279 24.0369Z" fill="url(#paint36_linear_2227_26183)"/>
<path id="Vector_40" d="M25.1479 19.9347L24.5529 19.5963C24.5386 19.588 24.52 19.5886 24.4996 19.6004L22.9181 20.5243C22.8732 20.5502 22.8369 20.6197 22.8369 20.6795V22.1266C22.8369 22.1598 22.8481 22.183 22.8657 22.1926L23.4616 22.5317L25.1479 19.9347Z" fill="url(#paint37_linear_2227_26183)"/>
<path id="Vector_41" d="M25.0973 19.9397L23.5157 20.8635C23.4709 20.8894 23.4346 20.959 23.4346 21.0188V22.4659C23.4346 22.5257 23.4709 22.5532 23.5157 22.5273L25.0973 21.6034C25.1421 21.5775 25.1784 21.508 25.1784 21.4482V20.0012C25.1784 19.9413 25.1421 19.9138 25.0973 19.9397Z" fill="url(#paint38_linear_2227_26183)"/>
<path id="Vector_42" d="M16.9386 22.7776H11.8565L6.66797 19.6925L9.18127 18.2219L16.9386 22.7776Z" fill="url(#paint39_linear_2227_26183)"/>
<path id="Vector_43" d="M9.1193 18.2367H9.11914V16.9045L21.8317 18.5889V19.9203L21.8315 19.9202C21.8318 19.9614 21.8021 20.0048 21.7434 20.0387L17.134 22.7036C17.0274 22.7652 16.8661 22.7719 16.7738 22.7185L14.0849 21.1639L12.8204 20.3617L11.8565 19.8756L9.18135 18.329C9.1388 18.3044 9.11859 18.2713 9.1193 18.2367Z" fill="url(#paint40_linear_2227_26183)"/>
<path id="Vector_44" d="M9.18135 18.2223L16.7738 22.6117C16.8661 22.6651 17.0274 22.6584 17.134 22.5968L21.7434 19.9319C21.802 19.898 21.8317 19.8546 21.8315 19.8134H21.8317V19.9438H21.8315C21.8318 19.9849 21.8021 20.0284 21.7434 20.0623L17.134 22.7271C17.0274 22.7888 16.8661 22.7955 16.7738 22.7421L14.0849 21.1875L14.0246 21.0749L11.9313 19.8764L11.8565 19.8992L9.18135 18.3526C9.13875 18.328 9.11854 18.2948 9.1193 18.2603H9.11914V18.1299H9.1193C9.11859 18.1646 9.1388 18.1976 9.18135 18.2223Z" fill="url(#paint41_linear_2227_26183)"/>
<path id="Vector_45" d="M9.18135 17.9633L16.7738 22.3527C16.8661 22.4061 17.0274 22.3994 17.134 22.3378L21.7434 19.6729C21.802 19.639 21.8317 19.5956 21.8315 19.5545H21.8317V19.6849H21.8315C21.8318 19.726 21.8021 19.7694 21.7434 19.8033L17.134 22.4682C17.0274 22.5298 16.8661 22.5365 16.7738 22.4831L9.18135 18.0937C9.13875 18.069 9.11854 18.0359 9.1193 18.0013H9.11914V17.871H9.1193C9.11859 17.9055 9.1388 17.9386 9.18135 17.9633Z" fill="url(#paint42_linear_2227_26183)"/>
<path id="Vector_46" d="M9.18135 17.7072L16.7738 22.0966C16.8661 22.15 17.0274 22.1433 17.134 22.0817L21.7434 19.4168C21.802 19.3829 21.8317 19.3395 21.8315 19.2984H21.8317V19.4287H21.8315C21.8318 19.4699 21.8021 19.5133 21.7434 19.5472L17.134 22.2121C17.0274 22.2737 16.8661 22.2804 16.7738 22.227L9.18135 17.8376C9.13875 17.8129 9.11854 17.7798 9.1193 17.7452H9.11914V17.6149H9.1193C9.11859 17.6495 9.1388 17.6826 9.18135 17.7072Z" fill="url(#paint43_linear_2227_26183)"/>
<path id="Vector_47" d="M9.18135 17.4484L16.7738 21.8379C16.8661 21.8913 17.0274 21.8846 17.134 21.823L21.7434 19.1581C21.802 19.1242 21.8317 19.0808 21.8315 19.0396H21.8317V19.17L21.8315 19.17C21.8318 19.2111 21.8021 19.2545 21.7434 19.2884L17.134 21.9533C17.0274 22.0149 16.8661 22.0216 16.7738 21.9682L9.18135 17.5788C9.13875 17.5542 9.11854 17.521 9.1193 17.4865H9.11914V17.3561H9.1193C9.11859 17.3907 9.1388 17.4238 9.18135 17.4484Z" fill="url(#paint44_linear_2227_26183)"/>
<path id="Vector_48" d="M9.18135 17.1839L16.7738 21.5733C16.8661 21.6267 17.0274 21.62 17.134 21.5584L21.7434 18.8935C21.802 18.8596 21.8317 18.8162 21.8315 18.7751H21.8317V18.9054H21.8315C21.8318 18.9466 21.8021 18.99 21.7434 19.0239L17.134 21.6888C17.0274 21.7504 16.8661 21.7571 16.7738 21.7037L9.18135 17.3142C9.13875 17.2896 9.11854 17.2565 9.1193 17.2219H9.11914V17.0916H9.1193C9.11859 17.1261 9.1388 17.1593 9.18135 17.1839Z" fill="url(#paint45_linear_2227_26183)"/>
<path id="Vector_49" d="M14.1896 14.143L21.71 18.4908C21.8015 18.5437 21.79 18.6361 21.6844 18.6971L17.1187 21.3367C17.0131 21.3978 16.8533 21.4044 16.7619 21.3515L9.24145 17.0037C9.14997 16.9508 9.16144 16.8585 9.26706 16.7974L13.8327 14.1578C13.9384 14.0967 14.0981 14.0901 14.1896 14.143Z" fill="url(#paint46_linear_2227_26183)"/>
<path id="Vector_50" d="M13.8158 14.1236L9.20636 16.7885C9.09975 16.8501 9.08817 16.9434 9.18047 16.9967L16.7729 21.3862C16.8653 21.4396 17.0265 21.4329 17.1331 21.3713L21.7425 18.7064C21.8492 18.6447 21.8607 18.5515 21.7684 18.4981L19.0907 16.95L17.7029 16.2891L16.8561 15.6581L14.176 14.1086C14.0837 14.0553 13.9224 14.062 13.8158 14.1236ZM10.8922 16.2011L12.7999 15.0982C12.8293 15.2117 12.9147 15.3172 13.0587 15.4005C13.4595 15.6322 14.1596 15.6031 14.6223 15.3355C14.7885 15.2395 14.9012 15.1257 14.9592 15.0086L20.2119 18.0454C20.0094 18.0789 19.8126 18.144 19.6464 18.2401C19.1836 18.5076 19.1333 18.9124 19.5341 19.1441C19.678 19.2273 19.8606 19.2767 20.0569 19.2937L18.1491 20.3966C18.1197 20.2831 18.0343 20.1776 17.8904 20.0944C17.4895 19.8626 16.7895 19.8917 16.3267 20.1593C16.1605 20.2554 16.0479 20.3692 15.9899 20.4862L10.7372 17.4495C10.9397 17.416 11.1365 17.3508 11.3027 17.2548C11.7655 16.9872 11.8157 16.5825 11.415 16.3508C11.271 16.2675 11.0884 16.2181 10.8922 16.2011Z" fill="url(#paint47_linear_2227_26183)"/>
<path id="Vector_51" d="M14.0118 16.8827C14.9552 16.3373 16.3823 16.2781 17.1993 16.7504C18.0163 17.2227 17.9139 18.0478 16.9705 18.5932C16.0271 19.1386 14.6 19.1978 13.783 18.7255C12.966 18.2532 13.0685 17.4281 14.0118 16.8827Z" fill="url(#paint48_linear_2227_26183)"/>
<path id="Vector_52" d="M14.0839 19.8315V21.187L11.8555 19.8986V18.5432L12.9696 19.0058L14.0839 19.8315Z" fill="url(#paint49_linear_2227_26183)"/>
<path id="Vector_53" d="M16.8559 15.6577L19.0906 16.9497L14.0839 19.8313L11.8555 18.543L16.8559 15.6577Z" fill="url(#paint50_linear_2227_26183)"/>
<path id="Vector_54" d="M14.7172 18.3627L14.4682 18.5066C14.4251 18.5315 14.3762 18.5447 14.3264 18.5447C14.2766 18.5447 14.2277 18.5315 14.1846 18.5066C14.1169 18.4674 14.1169 18.3696 14.1846 18.3304L14.4255 18.1911C14.3469 18.1284 14.2832 18.0588 14.236 17.9859C14.1548 17.8603 14.2224 17.6921 14.368 17.6586L14.3705 17.6581C14.4394 17.6421 14.5118 17.6496 14.576 17.6794C14.6402 17.7091 14.6927 17.7595 14.7252 17.8225C14.7782 17.9259 14.861 18.0176 14.9548 18.0718C15.0743 18.1409 15.2006 18.1548 15.2951 18.1002C15.599 17.9245 14.5989 17.5589 15.2323 17.1927C15.5158 17.0288 15.8894 17.0174 16.2262 17.1501L16.4599 17.015C16.503 16.9901 16.5519 16.9769 16.6017 16.9769C16.6515 16.9769 16.7004 16.9901 16.7435 17.015C16.8113 17.0542 16.8113 17.152 16.7435 17.1912L16.523 17.3187C16.5632 17.3485 16.6012 17.3813 16.6365 17.4167C16.7547 17.5355 16.6966 17.7382 16.5339 17.7773C16.404 17.8086 16.2693 17.7549 16.1942 17.6442C16.1345 17.5563 16.0604 17.4794 15.9845 17.4356C15.8872 17.3793 15.7822 17.3659 15.7005 17.4131C15.4042 17.5844 16.389 17.9588 15.7454 18.3309C15.4311 18.5126 15.0393 18.4987 14.7172 18.3627Z" fill="white"/>
<path id="Vector_55" d="M23.7442 23.4981C23.6831 23.4982 23.623 23.4821 23.5701 23.4515C23.5171 23.4209 23.4731 23.3769 23.4426 23.3239C23.412 23.2709 23.3959 23.2108 23.3959 23.1497C23.3959 23.0885 23.412 23.0284 23.4425 22.9754L22.4513 22.4023C22.4117 22.3794 22.3771 22.349 22.3492 22.3127C22.3214 22.2764 22.301 22.2349 22.2892 22.1908C22.2774 22.1466 22.2744 22.1005 22.2803 22.0551C22.2863 22.0098 22.3011 21.966 22.3239 21.9264C22.3468 21.8868 22.3772 21.852 22.4134 21.8242C22.4497 21.7963 22.4911 21.7759 22.5352 21.7641C22.5793 21.7522 22.6254 21.7492 22.6706 21.7552C22.7159 21.7611 22.7596 21.776 22.7992 21.7989L23.9178 22.4456C24.0994 22.5505 24.2078 22.7385 24.2078 22.9485C24.2078 23.1584 24.0994 23.3464 23.9178 23.4513C23.8651 23.482 23.8052 23.4981 23.7442 23.4981Z" fill="url(#paint51_linear_2227_26183)"/>
<path id="Vector_56" d="M20.6722 25.6232C20.5499 25.6233 20.4298 25.5912 20.3239 25.53C20.218 25.4688 20.13 25.3808 20.0689 25.2747C19.8768 24.9414 19.9908 24.5153 20.3236 24.3229L23.2312 22.6419C23.564 22.4495 23.9896 22.5637 24.1817 22.8969C24.3739 23.2302 24.2599 23.6563 23.927 23.8487L21.0194 25.5297C20.9139 25.5909 20.7942 25.6232 20.6722 25.6232Z" fill="url(#paint52_linear_2227_26183)"/>
<path id="Vector_57" d="M20.0509 25.561C19.9111 25.561 19.7713 25.525 19.6465 25.4529L18.4103 24.7382C18.3707 24.7153 18.336 24.6848 18.3082 24.6485C18.2804 24.6122 18.26 24.5708 18.2482 24.5266C18.2364 24.4824 18.2333 24.4363 18.2393 24.391C18.2453 24.3456 18.2601 24.3019 18.2829 24.2623C18.3058 24.2226 18.3362 24.1879 18.3724 24.16C18.4087 24.1322 18.45 24.1117 18.4942 24.0999C18.5383 24.088 18.5843 24.085 18.6296 24.091C18.6749 24.097 18.7186 24.1118 18.7582 24.1347L19.9944 24.8494C20.0116 24.8593 20.031 24.8646 20.0509 24.8646C20.0707 24.8646 20.0901 24.8593 20.1073 24.8494L20.2526 24.7654C20.2921 24.7426 20.3358 24.7277 20.3811 24.7218C20.4264 24.7158 20.4724 24.7188 20.5166 24.7306C20.5607 24.7425 20.6021 24.7629 20.6383 24.7908C20.6746 24.8186 20.705 24.8534 20.7278 24.893C20.7507 24.9326 20.7655 24.9763 20.7714 25.0217C20.7774 25.067 20.7744 25.1131 20.7626 25.1573C20.7507 25.2015 20.7303 25.2429 20.7025 25.2792C20.6747 25.3155 20.64 25.346 20.6005 25.3689L20.4552 25.4529C20.3322 25.5238 20.1928 25.5611 20.0509 25.561Z" fill="url(#paint53_linear_2227_26183)"/>
</g>
</g>
<defs>
<linearGradient id="paint0_linear_2227_26183" x1="5.63724" y1="10.3295" x2="6.80293" y2="8.31316" gradientUnits="userSpaceOnUse">
<stop stop-color="#8B451C"/>
<stop offset="1" stop-color="#CC8241"/>
</linearGradient>
<linearGradient id="paint1_linear_2227_26183" x1="11.4681" y1="8.44552" x2="10.5505" y2="10.0326" gradientUnits="userSpaceOnUse">
<stop stop-color="#8B451C"/>
<stop offset="1" stop-color="#CC8241"/>
</linearGradient>
<linearGradient id="paint2_linear_2227_26183" x1="8.48816" y1="4.32922" x2="8.48816" y2="15.0311" gradientUnits="userSpaceOnUse">
<stop stop-color="#8B451C"/>
<stop offset="1" stop-color="#CC8241"/>
</linearGradient>
<linearGradient id="paint3_linear_2227_26183" x1="16.6988" y1="18.7772" x2="14.7864" y2="18.7772" gradientUnits="userSpaceOnUse">
<stop stop-color="#8B451C"/>
<stop offset="1" stop-color="#CC8241"/>
</linearGradient>
<linearGradient id="paint4_linear_2227_26183" x1="9.71857" y1="17.7395" x2="8.61356" y2="18.7563" gradientUnits="userSpaceOnUse">
<stop stop-color="#8B451C"/>
<stop offset="1" stop-color="#8B451C" stop-opacity="0"/>
</linearGradient>
<linearGradient id="paint5_linear_2227_26183" x1="20.431" y1="24.0743" x2="10.085" y2="18.1092" gradientUnits="userSpaceOnUse">
<stop stop-color="#8B451C"/>
<stop offset="1" stop-color="#CC8241"/>
</linearGradient>
<linearGradient id="paint6_linear_2227_26183" x1="10.2994" y1="19.5611" x2="10.2994" y2="1.1492" gradientUnits="userSpaceOnUse">
<stop stop-color="#8B451C"/>
<stop offset="1" stop-color="#CC8241"/>
</linearGradient>
<linearGradient id="paint7_linear_2227_26183" x1="7.29601" y1="19.8656" x2="22.1978" y2="19.8656" gradientUnits="userSpaceOnUse">
<stop offset="0.002" stop-color="#236568"/>
<stop offset="0.847" stop-color="#2F878A"/>
<stop offset="1" stop-color="#06DAAE"/>
</linearGradient>
<linearGradient id="paint8_linear_2227_26183" x1="19.5812" y1="20.5152" x2="20.1621" y2="20.5152" gradientUnits="userSpaceOnUse">
<stop stop-color="#236568"/>
<stop offset="1" stop-color="#2F878A"/>
</linearGradient>
<linearGradient id="paint9_linear_2227_26183" x1="19.5811" y1="20.2454" x2="20.162" y2="20.2454" gradientUnits="userSpaceOnUse">
<stop stop-color="#236568"/>
<stop offset="1" stop-color="#2F878A"/>
</linearGradient>
<linearGradient id="paint10_linear_2227_26183" x1="19.5811" y1="19.9791" x2="20.162" y2="19.9791" gradientUnits="userSpaceOnUse">
<stop stop-color="#236568"/>
<stop offset="1" stop-color="#2F878A"/>
</linearGradient>
<linearGradient id="paint11_linear_2227_26183" x1="19.5811" y1="19.71" x2="20.162" y2="19.71" gradientUnits="userSpaceOnUse">
<stop stop-color="#236568"/>
<stop offset="1" stop-color="#2F878A"/>
</linearGradient>
<linearGradient id="paint12_linear_2227_26183" x1="19.5811" y1="19.4347" x2="20.162" y2="19.4347" gradientUnits="userSpaceOnUse">
<stop stop-color="#236568"/>
<stop offset="1" stop-color="#2F878A"/>
</linearGradient>
<linearGradient id="paint13_linear_2227_26183" x1="21.8769" y1="15.6492" x2="14.4236" y2="19.9465" gradientUnits="userSpaceOnUse">
<stop stop-color="#06DAAE"/>
<stop offset="1" stop-color="#9BF0DF"/>
</linearGradient>
<linearGradient id="paint14_linear_2227_26183" x1="20.7967" y1="16.2743" x2="12.0795" y2="21.3004" gradientUnits="userSpaceOnUse">
<stop stop-color="#2F878A"/>
<stop offset="1" stop-color="#06DAAE"/>
</linearGradient>
<linearGradient id="paint15_linear_2227_26183" x1="21.008" y1="16.1522" x2="15.4976" y2="19.3293" gradientUnits="userSpaceOnUse">
<stop stop-color="#2F878A"/>
<stop offset="1" stop-color="#06DAAE"/>
</linearGradient>
<linearGradient id="paint16_linear_2227_26183" x1="15.7267" y1="20.7519" x2="15.7267" y2="16.6419" gradientUnits="userSpaceOnUse">
<stop stop-color="#FFA538"/>
<stop offset="1" stop-color="#FFC538"/>
</linearGradient>
<linearGradient id="paint17_linear_2227_26183" x1="21.0413" y1="16.1387" x2="18.1701" y2="21.1047" gradientUnits="userSpaceOnUse">
<stop stop-color="#FD7C34"/>
<stop offset="1" stop-color="#FFCFB4"/>
</linearGradient>
<linearGradient id="paint18_linear_2227_26183" x1="1.74816" y1="23.0829" x2="16.6499" y2="23.0829" gradientUnits="userSpaceOnUse">
<stop offset="0.002" stop-color="#236568"/>
<stop offset="0.847" stop-color="#2F878A"/>
<stop offset="1" stop-color="#06DAAE"/>
</linearGradient>
<linearGradient id="paint19_linear_2227_26183" x1="14.0333" y1="23.7317" x2="14.6142" y2="23.7317" gradientUnits="userSpaceOnUse">
<stop stop-color="#236568"/>
<stop offset="1" stop-color="#2F878A"/>
</linearGradient>
<linearGradient id="paint20_linear_2227_26183" x1="14.0333" y1="23.4628" x2="14.6141" y2="23.4628" gradientUnits="userSpaceOnUse">
<stop stop-color="#236568"/>
<stop offset="1" stop-color="#2F878A"/>
</linearGradient>
<linearGradient id="paint21_linear_2227_26183" x1="14.0333" y1="23.1961" x2="14.6141" y2="23.1961" gradientUnits="userSpaceOnUse">
<stop stop-color="#236568"/>
<stop offset="1" stop-color="#2F878A"/>
</linearGradient>
<linearGradient id="paint22_linear_2227_26183" x1="14.0333" y1="22.9273" x2="14.6141" y2="22.9273" gradientUnits="userSpaceOnUse">
<stop stop-color="#236568"/>
<stop offset="1" stop-color="#2F878A"/>
</linearGradient>
<linearGradient id="paint23_linear_2227_26183" x1="14.0333" y1="22.6516" x2="14.6141" y2="22.6516" gradientUnits="userSpaceOnUse">
<stop stop-color="#236568"/>
<stop offset="1" stop-color="#2F878A"/>
</linearGradient>
<linearGradient id="paint24_linear_2227_26183" x1="16.3311" y1="18.8661" x2="8.87776" y2="23.1635" gradientUnits="userSpaceOnUse">
<stop stop-color="#06DAAE"/>
<stop offset="1" stop-color="#9BF0DF"/>
</linearGradient>
<linearGradient id="paint25_linear_2227_26183" x1="15.2489" y1="19.4916" x2="6.53169" y2="24.5176" gradientUnits="userSpaceOnUse">
<stop stop-color="#2F878A"/>
<stop offset="1" stop-color="#06DAAE"/>
</linearGradient>
<linearGradient id="paint26_linear_2227_26183" x1="15.4612" y1="19.3696" x2="9.95081" y2="22.5467" gradientUnits="userSpaceOnUse">
<stop stop-color="#2F878A"/>
<stop offset="1" stop-color="#06DAAE"/>
</linearGradient>
<linearGradient id="paint27_linear_2227_26183" x1="10.1798" y1="23.9691" x2="10.1798" y2="19.859" gradientUnits="userSpaceOnUse">
<stop stop-color="#FFA538"/>
<stop offset="1" stop-color="#FFC538"/>
</linearGradient>
<linearGradient id="paint28_linear_2227_26183" x1="15.4944" y1="19.3555" x2="12.6233" y2="24.3215" gradientUnits="userSpaceOnUse">
<stop stop-color="#FD7C34"/>
<stop offset="1" stop-color="#FFCFB4"/>
</linearGradient>
<linearGradient id="paint29_linear_2227_26183" x1="13.3059" y1="23.1109" x2="15.0588" y2="23.1109" gradientUnits="userSpaceOnUse">
<stop stop-color="#8B451C"/>
<stop offset="1" stop-color="#CC8241"/>
</linearGradient>
<linearGradient id="paint30_linear_2227_26183" x1="16.7087" y1="25.9952" x2="16.7087" y2="27.0784" gradientUnits="userSpaceOnUse">
<stop stop-color="#8B451C"/>
<stop offset="1" stop-color="#8B451C" stop-opacity="0"/>
</linearGradient>
<linearGradient id="paint31_linear_2227_26183" x1="23.7771" y1="21.8855" x2="23.7771" y2="22.9885" gradientUnits="userSpaceOnUse">
<stop stop-color="#8B451C"/>
<stop offset="1" stop-color="#8B451C" stop-opacity="0"/>
</linearGradient>
<linearGradient id="paint32_linear_2227_26183" x1="18.5746" y1="24.6841" x2="18.5746" y2="25.666" gradientUnits="userSpaceOnUse">
<stop stop-color="#8B451C"/>
<stop offset="1" stop-color="#8B451C" stop-opacity="0"/>
</linearGradient>
<linearGradient id="paint33_linear_2227_26183" x1="22.7315" y1="22.3848" x2="22.7315" y2="23.5209" gradientUnits="userSpaceOnUse">
<stop stop-color="#8B451C"/>
<stop offset="1" stop-color="#8B451C" stop-opacity="0"/>
</linearGradient>
<linearGradient id="paint34_linear_2227_26183" x1="23.0638" y1="23.3885" x2="7.21758" y2="14.2522" gradientUnits="userSpaceOnUse">
<stop stop-color="#8B451C"/>
<stop offset="1" stop-color="#CC8241"/>
</linearGradient>
<linearGradient id="paint35_linear_2227_26183" x1="16.4667" y1="25.1725" x2="16.5553" y2="25.0194" gradientUnits="userSpaceOnUse">
<stop stop-color="#A996EB"/>
<stop offset="1" stop-color="#D7D1EB"/>
</linearGradient>
<linearGradient id="paint36_linear_2227_26183" x1="17.2372" y1="26.352" x2="16.4529" y2="24.9954" gradientUnits="userSpaceOnUse">
<stop stop-color="#E7E3F3"/>
<stop offset="1" stop-color="#F3EEFA"/>
</linearGradient>
<linearGradient id="paint37_linear_2227_26183" x1="23.5351" y1="21.0755" x2="23.6237" y2="20.9224" gradientUnits="userSpaceOnUse">
<stop stop-color="#A996EB"/>
<stop offset="1" stop-color="#D7D1EB"/>
</linearGradient>
<linearGradient id="paint38_linear_2227_26183" x1="24.3065" y1="22.2548" x2="23.5222" y2="20.8982" gradientUnits="userSpaceOnUse">
<stop stop-color="#E7E3F3"/>
<stop offset="1" stop-color="#F3EEFA"/>
</linearGradient>
<linearGradient id="paint39_linear_2227_26183" x1="12.7487" y1="19.5953" x2="11.5217" y2="21.7176" gradientUnits="userSpaceOnUse">
<stop stop-color="#1A4C4E"/>
<stop offset="1" stop-color="#1A4C4E" stop-opacity="0"/>
</linearGradient>
<linearGradient id="paint40_linear_2227_26183" x1="4.86859" y1="19.8295" x2="19.1901" y2="19.8295" gradientUnits="userSpaceOnUse">
<stop offset="0.002" stop-color="#236568"/>
<stop offset="0.847" stop-color="#2F878A"/>
<stop offset="1" stop-color="#06DAAE"/>
</linearGradient>
<linearGradient id="paint41_linear_2227_26183" x1="16.6754" y1="20.4541" x2="17.2336" y2="20.4541" gradientUnits="userSpaceOnUse">
<stop stop-color="#236568"/>
<stop offset="1" stop-color="#2F878A"/>
</linearGradient>
<linearGradient id="paint42_linear_2227_26183" x1="16.6754" y1="20.195" x2="17.2336" y2="20.195" gradientUnits="userSpaceOnUse">
<stop stop-color="#236568"/>
<stop offset="1" stop-color="#2F878A"/>
</linearGradient>
<linearGradient id="paint43_linear_2227_26183" x1="16.6754" y1="19.939" x2="17.2336" y2="19.939" gradientUnits="userSpaceOnUse">
<stop stop-color="#236568"/>
<stop offset="1" stop-color="#2F878A"/>
</linearGradient>
<linearGradient id="paint44_linear_2227_26183" x1="16.6754" y1="19.6802" x2="17.2336" y2="19.6802" gradientUnits="userSpaceOnUse">
<stop stop-color="#236568"/>
<stop offset="1" stop-color="#2F878A"/>
</linearGradient>
<linearGradient id="paint45_linear_2227_26183" x1="16.6754" y1="19.4156" x2="17.2336" y2="19.4156" gradientUnits="userSpaceOnUse">
<stop stop-color="#236568"/>
<stop offset="1" stop-color="#2F878A"/>
</linearGradient>
<linearGradient id="paint46_linear_2227_26183" x1="18.8833" y1="15.7772" x2="11.7202" y2="19.9073" gradientUnits="userSpaceOnUse">
<stop stop-color="#06DAAE"/>
<stop offset="1" stop-color="#9BF0DF"/>
</linearGradient>
<linearGradient id="paint47_linear_2227_26183" x1="17.8427" y1="16.3783" x2="9.46488" y2="21.2086" gradientUnits="userSpaceOnUse">
<stop stop-color="#2F878A"/>
<stop offset="1" stop-color="#06DAAE"/>
</linearGradient>
<linearGradient id="paint48_linear_2227_26183" x1="18.0463" y1="16.2607" x2="12.7506" y2="19.314" gradientUnits="userSpaceOnUse">
<stop stop-color="#2F878A"/>
<stop offset="1" stop-color="#06DAAE"/>
</linearGradient>
<linearGradient id="paint49_linear_2227_26183" x1="12.9696" y1="20.6814" x2="12.9696" y2="16.7314" gradientUnits="userSpaceOnUse">
<stop stop-color="#FD7C34"/>
<stop offset="1" stop-color="#FFE0CE"/>
</linearGradient>
<linearGradient id="paint50_linear_2227_26183" x1="18.0773" y1="16.2475" x2="15.318" y2="21.0201" gradientUnits="userSpaceOnUse">
<stop stop-color="#FD7C34"/>
<stop offset="1" stop-color="#FFCFB4"/>
</linearGradient>
<linearGradient id="paint51_linear_2227_26183" x1="24.0255" y1="23.0976" x2="22.4992" y2="22.2425" gradientUnits="userSpaceOnUse">
<stop stop-color="#A996EB"/>
<stop offset="1" stop-color="#D7D1EB"/>
</linearGradient>
<linearGradient id="paint52_linear_2227_26183" x1="22.4732" y1="24.6893" x2="22.0507" y2="23.9584" gradientUnits="userSpaceOnUse">
<stop stop-color="#43386B"/>
<stop offset="1" stop-color="#594A8E"/>
</linearGradient>
<linearGradient id="paint53_linear_2227_26183" x1="18.1202" y1="23.9481" x2="19.6839" y2="24.8528" gradientUnits="userSpaceOnUse">
<stop stop-color="#A996EB"/>
<stop offset="1" stop-color="#D7D1EB"/>
</linearGradient>
</defs>
</svg>
