<svg width="25" height="25" viewBox="0 0 25 25" fill="none" xmlns="http://www.w3.org/2000/svg">
<g clip-path="url(#clip0_3769_16003)">
<path d="M0.5 13.3242V14.2715L0.500703 14.2716C0.487719 14.5523 0.687453 14.8515 1.08941 15.0835L12.1218 21.453C12.8343 21.8644 13.9121 21.909 14.5291 21.5528L24.0834 16.0366C24.3556 15.8795 24.4924 15.6706 24.4995 15.4509H24.5V14.4886L0.500422 13.3242H0.5Z" fill="url(#paint0_linear_3769_16003)"/>
<path d="M24.0835 15.0723L14.5291 20.5886C13.912 20.9448 12.8342 20.9001 12.1218 20.4888L1.08939 14.1192C0.37689 13.7079 0.299546 13.0856 0.916561 12.7294L10.4709 7.21316C11.0879 6.85691 12.1657 6.90158 12.8782 7.31296L23.9106 13.6825C24.6231 14.0939 24.7005 14.7161 24.0835 15.0723Z" fill="#F2EDFF"/>
<path d="M23.3431 14.7894L14.0385 20.1614C13.6469 20.3875 12.9628 20.3592 12.5106 20.0981L1.76666 13.895C1.31446 13.634 1.26533 13.239 1.65697 13.0129L10.9615 7.64094C11.3532 7.41481 12.0373 7.44317 12.4895 7.70427L23.2334 13.9073C23.6856 14.1684 23.7347 14.5633 23.3431 14.7894Z" fill="#E7E3F3"/>
<path d="M16.9582 16.918L11.9802 19.7921L7.33203 17.1084L12.31 14.2344L16.9582 16.918Z" fill="#C5BAEB"/>
<path d="M22.4545 13.4573L17.5604 16.283L14.9043 14.7495L19.7984 11.9238L22.4545 13.4573Z" fill="#06DAAE"/>
<path d="M22.4538 13.4573L20.0067 14.8702L17.3506 13.3366L19.7976 11.9238L22.4538 13.4573Z" fill="#2F878A"/>
<path d="M14.7169 11.5421L11.9674 13.1295L9.24902 11.5601L11.9985 9.97266L14.7169 11.5421Z" fill="#C5BAEB"/>
<path d="M7.63401 11.5334L4.65684 13.2522L2.94824 12.2657L5.92537 10.5469L7.63401 11.5334Z" fill="#06DAAE"/>
<path d="M12.6933 9.57116L14.209 8.69609L13.3789 8.21689L11.8633 9.09195L10.1547 8.10547L9.43586 8.5205L11.1445 9.50698L4.69895 13.2282L2.99031 12.2418L2.27148 12.6568L7.52158 15.6879L6.19759 16.4523L7.02761 16.9315L16.2347 11.6158L12.6933 9.57116ZM5.52897 13.7075L11.9745 9.98619L14.6859 11.5516L8.24041 15.2729L5.52897 13.7075Z" fill="white"/>
<path d="M23.2329 13.9072L22.3846 13.4175L17.5623 16.2016L15.0168 14.732L19.8391 11.9479L18.5941 11.229L13.7718 14.0132L6.8478 10.0156L5.76953 10.6382L16.484 16.8242L11.6618 19.6083L12.5101 20.098C12.6542 20.1812 12.8217 20.2405 12.9959 20.2757L23.5406 14.1876C23.4796 14.0871 23.3769 13.9904 23.2329 13.9072Z" fill="#F7E041"/>
<path d="M14.947 4.56836L14.9471 4.56798L13.5698 3.77279L13.5697 3.77312C13.14 3.5515 12.6029 3.56209 12.0195 3.8507C10.4339 4.63506 9.11719 7.07106 9.11719 9.157C9.11719 9.93568 9.30127 10.5504 9.61378 10.9617L11.0493 13.0901C11.0875 13.1473 11.136 13.1968 11.1923 13.2362L12.4925 13.9882L14.947 4.56836Z" fill="url(#paint1_linear_3769_16003)"/>
<path d="M15.3869 9.14261C15.7374 8.27659 15.9263 7.34125 15.8752 6.48287C15.7721 4.75229 14.673 3.94393 13.3291 4.60872C11.7434 5.39303 10.4268 7.82907 10.4268 9.91497C10.4268 10.6937 10.6108 11.3083 10.9234 11.7197L12.3589 13.8481C12.7327 14.4022 13.5776 13.9144 13.9514 12.9287L15.3869 9.14261Z" fill="#FF4757"/>
<path d="M14.8415 6.23483L14.322 5.93492L14.3204 5.93815C14.0112 5.74578 13.6034 5.75356 13.1548 6.01259C12.1907 6.56919 11.4092 8.06244 11.4092 9.34784C11.4092 10.0035 11.6133 10.477 11.9405 10.7111L11.9399 10.7123L11.9668 10.7277C12.0009 10.7504 12.0359 10.7713 12.0726 10.7888L12.4805 11.0244L14.8414 6.23497L14.8415 6.23483Z" fill="url(#paint2_linear_3769_16003)"/>
<path d="M15.085 9.24484C15.6652 7.88332 15.5111 6.5135 14.7408 6.18528C13.9705 5.85705 12.8758 6.6947 12.2956 8.05623C11.7154 9.41775 11.8695 10.7876 12.6398 11.1158C13.4101 11.444 14.5048 10.6064 15.085 9.24484Z" fill="white"/>
</g>
<defs>
<linearGradient id="paint0_linear_3769_16003" x1="0.5" y1="13.3242" x2="24.5" y2="13.3242" gradientUnits="userSpaceOnUse">
<stop stop-color="#C5BAEB"/>
<stop offset="1" stop-color="#DFDAEF"/>
</linearGradient>
<linearGradient id="paint1_linear_3769_16003" x1="11.7397" y1="9.12236" x2="13.29" y2="6.43717" gradientUnits="userSpaceOnUse">
<stop stop-color="#AB2C37"/>
<stop offset="1" stop-color="#FF7A85"/>
</linearGradient>
<linearGradient id="paint2_linear_3769_16003" x1="11.4092" y1="5.80469" x2="14.8415" y2="5.80469" gradientUnits="userSpaceOnUse">
<stop stop-color="#C5BAEB"/>
<stop offset="1" stop-color="#DFDAEF"/>
</linearGradient>
<clipPath id="clip0_3769_16003">
<rect width="24" height="24" fill="white" transform="translate(0.5 0.707031)"/>
</clipPath>
</defs>
</svg>
