<svg width="60" height="65" viewBox="0 0 60 65" fill="none" xmlns="http://www.w3.org/2000/svg">
<path fill-rule="evenodd" clip-rule="evenodd" d="M0.853516 40.854V23.4952C0.853516 18.7047 3.41774 14.2807 7.57453 11.8995L23.5157 2.76777C27.6217 0.415738 32.6653 0.410423 36.7762 2.7538L52.8286 11.9043C56.9991 14.2817 59.574 18.7134 59.574 23.514V40.8352C59.574 45.6358 56.9991 50.0675 52.8285 52.4449L36.7762 61.5954C32.6653 63.9388 27.6217 63.9335 23.5157 61.5814L7.57453 52.4497C3.41774 50.0685 0.853516 45.6445 0.853516 40.854ZM12.2285 21.2817C12.4411 33.7281 19.3367 44.592 29.5745 50.6225C39.8125 44.5919 46.7081 33.7277 46.9205 21.2811C42.1015 17.7212 36.0918 15.6085 29.5749 15.6085C23.0577 15.6085 17.0476 17.7214 12.2285 21.2817Z" fill="#1A4B5F"/>
<path d="M7.57453 11.8995L7.36254 11.5294H7.36254L7.57453 11.8995ZM23.5157 2.76777L23.3037 2.3977L23.5157 2.76777ZM36.7762 2.7538L36.9874 2.38328L36.7762 2.7538ZM52.8286 11.9043L52.6173 12.2749L52.8286 11.9043ZM52.8285 52.4449L52.6173 52.0743L52.8285 52.4449ZM36.7762 61.5954L36.9874 61.9659L36.7762 61.5954ZM23.5157 61.5814L23.7277 61.2114L23.5157 61.5814ZM7.57453 52.4497L7.78653 52.0796L7.57453 52.4497ZM29.5745 50.6225L29.358 50.99L29.5745 51.1175L29.7909 50.99L29.5745 50.6225ZM12.2285 21.2817L11.9751 20.9387L11.7983 21.0693L11.8021 21.289L12.2285 21.2817ZM46.9205 21.2811L47.3469 21.2883L47.3506 21.0686L47.1739 20.938L46.9205 21.2811ZM0.427022 23.4952V40.854H1.28001V23.4952H0.427022ZM7.36254 11.5294C3.07308 13.9866 0.427022 18.5518 0.427022 23.4952H1.28001C1.28001 18.8576 3.7624 14.5747 7.78652 12.2696L7.36254 11.5294ZM23.3037 2.3977L7.36254 11.5294L7.78652 12.2696L23.7277 3.13785L23.3037 2.3977ZM36.9874 2.38328C32.7453 -0.0348865 27.5407 -0.0294025 23.3037 2.3977L23.7277 3.13785C27.7026 0.860878 32.5853 0.855733 36.565 3.12433L36.9874 2.38328ZM53.0398 11.5338L36.9874 2.38328L36.565 3.12433L52.6173 12.2749L53.0398 11.5338ZM60.0005 23.514C60.0005 18.5602 57.3434 13.9871 53.0398 11.5338L52.6173 12.2749C56.6548 14.5764 59.1475 18.8666 59.1475 23.514H60.0005ZM60.0005 40.8352V23.514H59.1475V40.8352H60.0005ZM53.0398 52.8154C57.3434 50.3621 60.0005 45.789 60.0005 40.8352H59.1475C59.1475 45.4826 56.6548 49.7728 52.6173 52.0743L53.0398 52.8154ZM36.9874 61.9659L53.0398 52.8154L52.6173 52.0743L36.565 61.2249L36.9874 61.9659ZM23.3037 61.9515C27.5407 64.3786 32.7453 64.3841 36.9874 61.9659L36.565 61.2249C32.5853 63.4935 27.7026 63.4883 23.7277 61.2114L23.3037 61.9515ZM7.36254 52.8198L23.3037 61.9515L23.7277 61.2114L7.78653 52.0796L7.36254 52.8198ZM0.427022 40.854C0.427022 45.7974 3.07309 50.3626 7.36254 52.8198L7.78653 52.0796C3.7624 49.7745 1.28001 45.4916 1.28001 40.854H0.427022ZM29.7909 50.255C19.6726 44.2949 12.8649 33.5628 12.6549 21.2744L11.8021 21.289C12.0174 33.8933 19.0007 44.8891 29.358 50.99L29.7909 50.255ZM46.494 21.2738C46.2844 33.5625 39.4765 44.2948 29.358 50.255L29.7909 50.99C40.1484 44.889 47.1318 33.8929 47.3469 21.2883L46.494 21.2738ZM29.5749 16.035C35.9984 16.035 41.9197 18.1171 46.6671 21.6241L47.1739 20.938C42.2833 17.3252 36.1852 15.182 29.5749 15.182V16.035ZM12.4819 21.6248C17.2294 18.1174 23.1511 16.035 29.5749 16.035V15.182C22.9643 15.182 16.8658 17.3255 11.9751 20.9387L12.4819 21.6248Z" fill="#1A4B5F"/>
<path fill-rule="evenodd" clip-rule="evenodd" d="M47.761 55.8051C28.7061 55.486 13.2926 39.7577 12.7798 20.2043C8.88395 24.9707 6.53906 31.1098 6.53906 37.8092C6.53906 45.0757 9.29772 51.683 13.8019 56.5944L23.3298 62.1714C27.4906 64.6069 32.6406 64.6123 36.8066 62.1858L47.761 55.8051Z" fill="url(#paint0_linear_2287_46760)"/>
<path fill-rule="evenodd" clip-rule="evenodd" d="M0 40.3871V23.3988C0 20.0848 1.22688 16.9489 3.35552 14.5428C3.67143 14.2036 3.99646 13.8726 4.33022 13.5504C5.09866 12.8455 5.95612 12.2249 6.89166 11.707L14.7487 7.35792C17.2946 6.55555 20.0096 6.12219 22.8279 6.12219C34.7304 6.12219 44.7895 13.8515 48.0577 24.4645C43.2304 20.1923 36.8326 17.5908 29.8146 17.5908C14.7805 17.5908 2.59292 29.5291 2.59292 44.2558C2.59292 45.8084 2.72839 47.33 2.98837 48.8099C1.08643 46.4664 0 43.5056 0 40.3871Z" fill="url(#paint1_linear_2287_46760)"/>
<path fill-rule="evenodd" clip-rule="evenodd" d="M32.3473 50.9148C43.5823 50.9148 53.5831 45.7898 60.0002 37.8187V23.1916C60.0002 18.3672 57.3999 13.9174 53.1968 11.5491L42.6483 5.60547C45.0306 10.1967 46.3721 15.3832 46.3721 20.8737C46.3721 33.2824 39.5203 44.1389 29.2861 50.0783C29.6656 50.3482 30.0504 50.6107 30.4403 50.8654C31.0717 50.8982 31.7075 50.9148 32.3473 50.9148Z" fill="url(#paint2_linear_2287_46760)"/>
<defs>
<linearGradient id="paint0_linear_2287_46760" x1="11.5154" y1="18.232" x2="77.4078" y2="113.571" gradientUnits="userSpaceOnUse">
<stop stop-color="#1A4B5F"/>
<stop offset="0.134156" stop-color="#1C5972"/>
<stop offset="0.532288" stop-color="#2196C5"/>
<stop offset="0.654209" stop-color="#23AEE6"/>
<stop offset="1" stop-color="#25C0FF"/>
</linearGradient>
<linearGradient id="paint1_linear_2287_46760" x1="46.4935" y1="24.975" x2="-36.8267" y2="0.266275" gradientUnits="userSpaceOnUse">
<stop stop-color="#1A4B5F"/>
<stop offset="0.128073" stop-color="#1C5972"/>
<stop offset="0.694819" stop-color="#23AEE6"/>
<stop offset="1" stop-color="#25C0FF"/>
</linearGradient>
<linearGradient id="paint2_linear_2287_46760" x1="37.7321" y1="56.9597" x2="58.7562" y2="-29.6653" gradientUnits="userSpaceOnUse">
<stop stop-color="#1A4B5F"/>
<stop offset="0.153946" stop-color="#1C5972"/>
<stop offset="0.629879" stop-color="#2192C0"/>
<stop offset="0.790907" stop-color="#23AEE6"/>
<stop offset="1" stop-color="#25C0FF"/>
</linearGradient>
</defs>
</svg>
