<svg width="24" height="24" viewBox="0 0 24 24" fill="none" xmlns="http://www.w3.org/2000/svg">
<g id="Space-2" clip-path="url(#clip0_2140_14623)">
<path id="Vector" d="M17.9502 12.6505C17.9502 12.9305 18.0102 13.2005 18.0102 13.4805C18.0102 14.9705 17.5802 16.4205 16.7502 17.6605C15.9302 18.9005 14.7602 19.8605 13.3902 20.4305C12.0202 21.0005 10.5101 21.1505 9.05014 20.8605C7.59014 20.5705 6.25017 19.8605 5.20017 18.8105C4.16017 17.7605 3.44015 16.4205 3.15015 14.9605C2.85015 13.5005 3.00016 11.9905 3.57016 10.6205C4.13016 9.25048 5.10014 8.07049 6.33014 7.25049C7.57014 6.42049 9.02016 5.98047 10.5002 5.98047C10.7802 5.98047 11.0501 6.00052 11.3301 6.03052" stroke="#FEFEFE" stroke-width="1.5" stroke-miterlimit="10" stroke-linecap="round"/>
<path id="Vector_2" d="M19.3501 12.6503H12.9601C12.5301 12.6503 12.1101 12.4802 11.8101 12.1702C11.5101 11.8602 11.3301 11.4503 11.3301 11.0103V4.66023C11.3301 4.41023 11.3601 4.17026 11.4601 3.94026C11.5601 3.71026 11.7101 3.51024 11.9001 3.36024C12.0901 3.20024 12.3201 3.09024 12.5601 3.04024C12.8001 2.99024 13.0501 2.99025 13.2901 3.05025C15.1701 3.44025 16.9101 4.37024 18.2701 5.73024C19.6301 7.09024 20.5601 8.83023 20.9501 10.7202C21.0101 10.9602 21.0101 11.2003 20.9501 11.4403C20.8901 11.6803 20.7801 11.9003 20.6301 12.0803C20.4701 12.2703 20.2801 12.4203 20.0601 12.5103C19.8301 12.6103 19.5901 12.6603 19.3501 12.6503Z" stroke="#FEFEFE" stroke-width="1.5" stroke-miterlimit="10" stroke-linecap="round"/>
</g>
<defs>
<clipPath id="clip0_2140_14623">
<rect width="24" height="24" fill="white"/>
</clipPath>
</defs>
</svg>
