<svg width="24" height="24" viewBox="0 0 24 24" fill="none" xmlns="http://www.w3.org/2000/svg">
<g id="Warning" clip-path="url(#clip0_2572_9378)">
<path id="Vector" d="M20.4998 14.91V9.10999C20.4998 8.54999 20.3498 7.99001 20.0698 7.51001C19.7798 7.02001 19.3698 6.61998 18.8798 6.34998L13.5698 3.41998C13.0998 3.14998 12.5598 3.01001 12.0098 3.01001C11.4598 3.01001 10.9198 3.14998 10.4498 3.41998L5.13977 6.34998C4.64977 6.61998 4.23977 7.02001 3.93977 7.51001C3.64977 7.99001 3.50977 8.54999 3.50977 9.10999V14.91C3.50977 15.47 3.65977 16.02 3.93977 16.51C4.23977 16.99 4.64977 17.39 5.13977 17.67L10.4498 20.6C10.9198 20.87 11.4598 21.01 12.0098 21.01C12.5598 21.01 13.0998 20.87 13.5698 20.6L18.8798 17.67C19.3698 17.4 19.7798 17 20.0698 16.52C20.3598 16.04 20.4998 15.49 20.4998 14.93V14.91Z" stroke="#E12828" stroke-width="1.5" stroke-miterlimit="10"/>
<path id="Vector_2" d="M12 7.29004V12.5801" stroke="#E12828" stroke-width="1.5" stroke-linecap="round" stroke-linejoin="round"/>
<path id="Vector_3" d="M11.9995 16.73C12.5395 16.73 12.9795 16.29 12.9795 15.75C12.9795 15.21 12.5395 14.77 11.9995 14.77C11.4595 14.77 11.0195 15.21 11.0195 15.75C11.0195 16.29 11.4595 16.73 11.9995 16.73Z" fill="#E12828"/>
</g>
<defs>
<clipPath id="clip0_2572_9378">
<rect width="24" height="24" fill="white"/>
</clipPath>
</defs>
</svg>
