<svg width="36" height="36" viewBox="0 0 36 36" fill="none" xmlns="http://www.w3.org/2000/svg">
<g clip-path="url(#clip0_2916_15324)">
<path d="M20.9849 11.4L12.4949 19.32C11.8349 19.95 11.4599 20.805 11.4899 21.69C11.5199 22.575 11.8799 23.415 12.5549 24.03C13.2299 24.645 14.1449 25.005 15.0899 25.005C16.0349 25.005 16.9349 24.675 17.6249 24.06L26.4149 15.885C27.7349 14.625 28.4549 12.915 28.4399 11.16C28.4249 9.39 27.6749 7.71 26.3399 6.465C25.0049 5.22 23.1899 4.515 21.2999 4.5C19.4099 4.5 17.5799 5.16001 16.2149 6.39001L7.70995 14.295C6.70495 15.225 5.90993 16.335 5.35493 17.565C4.81493 18.795 4.54492 20.1 4.54492 21.42C4.54492 22.74 4.82993 24.06 5.35493 25.275C5.90993 26.505 6.68995 27.615 7.70995 28.545C8.72995 29.475 9.91494 30.225 11.2199 30.735C12.5399 31.245 13.9499 31.5 15.3749 31.5C16.7999 31.5 18.1949 31.245 19.5299 30.735C20.8349 30.225 22.0349 29.49 23.0399 28.545L31.5449 20.64" stroke="#6A6B6C" stroke-width="1.5" stroke-linecap="round" stroke-linejoin="round"/>
</g>
<defs>
<clipPath id="clip0_2916_15324">
<rect width="36" height="36" fill="white"/>
</clipPath>
</defs>
</svg>
