<svg width="36" height="36" viewBox="0 0 36 36" fill="none" xmlns="http://www.w3.org/2000/svg">
<g clip-path="url(#clip0_2836_6521)">
<path d="M24 8.55078H12C8.68629 8.55078 6 11.2371 6 14.5508V25.5008C6 28.8145 8.68629 31.5008 12 31.5008H24C27.3137 31.5008 30 28.8145 30 25.5008V14.5508C30 11.2371 27.3137 8.55078 24 8.55078Z" stroke="#FEFEFE" stroke-width="1.5" stroke-linejoin="round"/>
<path d="M12.5996 4.5V8.55" stroke="#FEFEFE" stroke-width="1.5" stroke-linecap="round" stroke-linejoin="round"/>
<path d="M23.4004 4.5V8.55" stroke="#FEFEFE" stroke-width="1.5" stroke-linecap="round" stroke-linejoin="round"/>
<path d="M30.1495 15.3008H5.84961" stroke="#FEFEFE" stroke-width="1.5" stroke-linejoin="round"/>
<path d="M12.4355 20.6992H12.7656" stroke="#FEFEFE" stroke-width="1.5" stroke-linecap="round" stroke-linejoin="round"/>
<path d="M16.9805 20.6992H19.0204" stroke="#FEFEFE" stroke-width="1.5" stroke-linecap="round" stroke-linejoin="round"/>
<path d="M23.2344 20.6992H23.5644" stroke="#FEFEFE" stroke-width="1.5" stroke-linecap="round" stroke-linejoin="round"/>
<path d="M12.4355 26.0996H14.8655" stroke="#FEFEFE" stroke-width="1.5" stroke-linecap="round" stroke-linejoin="round"/>
<path d="M19.3496 26.0996H19.0195" stroke="#FEFEFE" stroke-width="1.5" stroke-linecap="round" stroke-linejoin="round"/>
<path d="M23.2344 26.0996H23.5644" stroke="#FEFEFE" stroke-width="1.5" stroke-linecap="round" stroke-linejoin="round"/>
</g>
<defs>
<clipPath id="clip0_2836_6521">
<rect width="36" height="36" fill="white"/>
</clipPath>
</defs>
</svg>
