<svg width="36" height="36" viewBox="0 0 36 36" fill="none" xmlns="http://www.w3.org/2000/svg">
<g id="bell" clip-path="url(#clip0_2473_29371)">
<path id="Vector" d="M26.3343 26.1904C27.9665 26.1904 29.2954 24.8904 29.3098 23.2871C29.3098 22.4782 28.9776 21.6982 28.3854 21.1204L27.5909 20.3404C26.8398 19.6037 26.421 18.6215 26.421 17.5815V13.6671C26.421 12.4826 26.2332 11.2982 25.7565 10.2004C24.3409 6.93597 21.1343 4.97151 17.7398 4.98595C12.9587 4.98595 9.08762 8.78483 9.08762 13.4648V17.5671C9.08762 18.6071 8.66873 19.5893 7.91762 20.3259L7.12317 21.106C6.53095 21.6837 6.19873 22.4637 6.19873 23.2726C6.19873 24.876 7.52762 26.176 9.17428 26.176H26.3487L26.3343 26.1904Z" stroke="#FEFEFE" stroke-width="1.5" stroke-linecap="round" stroke-linejoin="round"/>
<path id="Vector_2" d="M15.4863 31H20.0074" stroke="#FEFEFE" stroke-width="1.5" stroke-linecap="round" stroke-linejoin="round"/>
</g>
<defs>
<clipPath id="clip0_2473_29371">
<rect width="34.6667" height="34.6667" fill="white" transform="translate(0.666504 0.666656)"/>
</clipPath>
</defs>
</svg>
