<svg width="25" height="24" viewBox="0 0 25 24" fill="none" xmlns="http://www.w3.org/2000/svg">
<g clip-path="url(#clip0_2259_1177)">
<path d="M5.66651 14C6.77206 14 7.6665 13.1055 7.6665 12C7.6665 10.8944 6.77206 10 5.66651 10C4.56095 10 3.6665 10.8944 3.6665 12C3.6665 13.1055 4.56095 14 5.66651 14Z" stroke="#A6A6A6" stroke-miterlimit="10" stroke-linecap="round"/>
<path d="M12.6665 14C13.7721 14 14.6665 13.1055 14.6665 12C14.6665 10.8944 13.7721 10 12.6665 10C11.561 10 10.6665 10.8944 10.6665 12C10.6665 13.1055 11.561 14 12.6665 14Z" stroke="#A6A6A6" stroke-miterlimit="10" stroke-linecap="round"/>
<path d="M19.6665 14C20.7721 14 21.6665 13.1055 21.6665 12C21.6665 10.8944 20.7721 10 19.6665 10C18.561 10 17.6665 10.8944 17.6665 12C17.6665 13.1055 18.561 14 19.6665 14Z" stroke="#A6A6A6" stroke-miterlimit="10" stroke-linecap="round"/>
</g>
<defs>
<clipPath id="clip0_2259_1177">
<rect width="24" height="24" fill="white" transform="translate(0.666504)"/>
</clipPath>
</defs>
</svg>
