<svg width="40" height="40" viewBox="0 0 40 40" fill="none" xmlns="http://www.w3.org/2000/svg">
<g id="logo">
<mask id="mask0_8_14102" style="mask-type:alpha" maskUnits="userSpaceOnUse" x="0" y="0" width="40" height="40">
<circle id="Ellipse 24" cx="20" cy="20" r="20" fill="#C4C4C4"/>
</mask>
<g mask="url(#mask0_8_14102)">
<circle id="Ellipse 26" cx="20" cy="20" r="20" fill="#005FF9"/>
<path id="Vector" d="M23.3838 19.9999C23.3838 21.8658 21.8659 23.3838 20 23.3838C18.1341 23.3838 16.6162 21.8658 16.6162 19.9999C16.6162 18.134 18.1341 16.6161 20 16.6161C21.8659 16.6161 23.3838 18.134 23.3838 19.9999ZM20 8.74992C13.7964 8.74992 8.75 13.7964 8.75 19.9999C8.75 26.2035 13.7964 31.2499 20 31.2499C22.2725 31.2499 24.4638 30.5733 26.337 29.2932L26.3691 29.2707L24.8536 27.5093L24.8279 27.5254C23.3862 28.4535 21.7164 28.9437 20 28.9437C15.0685 28.9437 11.0563 24.9314 11.0563 19.9999C11.0563 15.0684 15.0685 11.0562 20 11.0562C24.9315 11.0562 28.9438 15.0684 28.9438 19.9999C28.9438 20.6388 28.8722 21.2856 28.7332 21.9221C28.4504 23.0832 27.6371 23.4384 27.0272 23.3918C26.4133 23.342 25.6949 22.9048 25.6901 21.8345V21.0189V19.9999C25.6901 16.862 23.1379 14.3098 20 14.3098C16.8621 14.3098 14.3099 16.862 14.3099 19.9999C14.3099 23.1379 16.8621 25.69 20 25.69C21.5244 25.69 22.9539 25.0946 24.0315 24.0105C24.6583 24.9861 25.6796 25.5976 26.8424 25.6908C26.9421 25.6989 27.0441 25.7029 27.1446 25.7029C27.9634 25.7029 28.7742 25.4289 29.4283 24.933C30.1025 24.4204 30.6063 23.6803 30.8844 22.7907C30.9286 22.6469 31.0105 22.3182 31.0105 22.3158L31.0129 22.3038C31.1769 21.5902 31.25 20.879 31.25 19.9999C31.25 13.7964 26.2036 8.74992 20 8.74992Z" fill="#FF9E00"/>
</g>
</g>
</svg>
