<svg width="768" height="437" viewBox="0 0 768 437" fill="none" xmlns="http://www.w3.org/2000/svg">
<g clip-path="url(#clip0_2722_37282)">
<rect width="768" height="437" fill="#F7F9FB"/>
<path d="M803.186 397.069C805.522 393.29 805.518 388.513 803.174 384.738L781.313 349.531C779.178 346.092 775.417 344 771.368 344H739.63C735.722 344 732.073 345.949 729.9 349.197L706.346 384.404C703.715 388.337 703.71 393.466 706.333 397.404L729.902 432.784C732.073 436.042 735.729 438 739.644 438H771.354C775.41 438 779.177 435.9 781.31 432.45L803.186 397.069Z" stroke="#F9C9BE" stroke-width="1.61464"/>
<path d="M803.186 293.069C805.522 289.29 805.518 284.513 803.174 280.738L781.313 245.531C779.178 242.092 775.417 240 771.368 240H739.63C735.722 240 732.073 241.949 729.9 245.197L706.346 280.404C703.715 284.337 703.71 289.466 706.333 293.404L729.902 328.784C732.073 332.042 735.729 334 739.644 334H771.354C775.41 334 779.177 331.9 781.31 328.45L803.186 293.069Z" stroke="#F9C9BE" stroke-width="1.61464"/>
<path d="M718.186 346.069C720.522 342.29 720.518 337.513 718.174 333.738L696.313 298.531C694.178 295.092 690.417 293 686.368 293H654.63C650.722 293 647.073 294.949 644.9 298.197L621.346 333.404C618.715 337.337 618.71 342.466 621.333 346.404L644.902 381.784C647.073 385.042 650.729 387 654.644 387H686.354C690.41 387 694.177 384.9 696.31 381.45L718.186 346.069Z" stroke="#F9C9BE" stroke-width="1.61464"/>
<path d="M718.186 451.069C720.522 447.29 720.518 442.513 718.174 438.738L696.313 403.531C694.178 400.092 690.417 398 686.368 398H654.63C650.722 398 647.073 399.949 644.9 403.197L621.346 438.404C618.715 442.337 618.71 447.466 621.333 451.404L644.902 486.784C647.073 490.042 650.729 492 654.644 492H686.354C690.41 492 694.177 489.9 696.31 486.45L718.186 451.069Z" stroke="#F9C9BE" stroke-width="1.61464"/>
<path d="M-43.1857 398.069C-45.5225 394.29 -45.5179 389.513 -43.1739 385.738L-21.3133 350.531C-19.1777 347.092 -15.4167 345 -11.3683 345H20.3704C24.2776 345 27.9272 346.949 30.0999 350.197L53.6544 385.404C56.2853 389.337 56.2903 394.466 53.6672 398.404L30.0979 433.784C27.9271 437.042 24.2709 439 20.3555 439H-11.3537C-15.41 439 -19.1773 436.9 -21.3104 433.45L-43.1857 398.069Z" stroke="#F9C9BE" stroke-width="1.61464"/>
<path d="M-43.1857 294.069C-45.5225 290.29 -45.5179 285.513 -43.1739 281.738L-21.3133 246.531C-19.1777 243.092 -15.4167 241 -11.3683 241H20.3704C24.2776 241 27.9272 242.949 30.0999 246.197L53.6544 281.404C56.2853 285.337 56.2903 290.466 53.6672 294.404L30.0979 329.784C27.9271 333.042 24.2709 335 20.3555 335H-11.3537C-15.41 335 -19.1773 332.9 -21.3104 329.45L-43.1857 294.069Z" stroke="#F9C9BE" stroke-width="1.61464"/>
<path d="M41.8143 347.069C39.4775 343.29 39.4821 338.513 41.8261 334.738L63.6867 299.531C65.8223 296.092 69.5833 294 73.6317 294H105.37C109.278 294 112.927 295.949 115.1 299.197L138.654 334.404C141.285 338.337 141.29 343.466 138.667 347.404L115.098 382.784C112.927 386.042 109.271 388 105.356 388H73.6463C69.59 388 65.8227 385.9 63.6896 382.45L41.8143 347.069Z" stroke="#F9C9BE" stroke-width="1.61464"/>
<path d="M41.8143 452.069C39.4775 448.29 39.4821 443.513 41.8261 439.738L63.6867 404.531C65.8223 401.092 69.5833 399 73.6317 399H105.37C109.278 399 112.927 400.949 115.1 404.197L138.654 439.404C141.285 443.337 141.29 448.466 138.667 452.404L115.098 487.784C112.927 491.042 109.271 493 105.356 493H73.6463C69.59 493 65.8227 490.9 63.6896 487.45L41.8143 452.069Z" stroke="#F9C9BE" stroke-width="1.61464"/>
</g>
<defs>
<clipPath id="clip0_2722_37282">
<rect width="768" height="437" fill="white"/>
</clipPath>
</defs>
</svg>
