<svg width="218" height="65" viewBox="0 0 218 65" fill="none" xmlns="http://www.w3.org/2000/svg">
<path fill-rule="evenodd" clip-rule="evenodd" d="M0.853516 40.854V23.4952C0.853516 18.7047 3.41774 14.2807 7.57453 11.8995L23.5157 2.76777C27.6217 0.415738 32.6653 0.410423 36.7762 2.7538L52.8286 11.9043C56.9991 14.2817 59.574 18.7134 59.574 23.514V40.8352C59.574 45.6358 56.9991 50.0675 52.8285 52.4449L36.7762 61.5954C32.6653 63.9388 27.6217 63.9335 23.5157 61.5814L7.57453 52.4497C3.41774 50.0685 0.853516 45.6445 0.853516 40.854ZM12.2285 21.2817C12.4411 33.7281 19.3367 44.592 29.5745 50.6225C39.8125 44.5919 46.7081 33.7277 46.9205 21.2811C42.1015 17.7212 36.0918 15.6085 29.5749 15.6085C23.0577 15.6085 17.0476 17.7214 12.2285 21.2817Z" fill="#1A4B5F"/>
<path d="M7.57453 11.8995L7.36254 11.5294H7.36254L7.57453 11.8995ZM23.5157 2.76777L23.3037 2.3977L23.5157 2.76777ZM36.7762 2.7538L36.9874 2.38328L36.7762 2.7538ZM52.8286 11.9043L52.6173 12.2749L52.8286 11.9043ZM52.8285 52.4449L52.6173 52.0743L52.8285 52.4449ZM36.7762 61.5954L36.9874 61.9659L36.7762 61.5954ZM23.5157 61.5814L23.7277 61.2114L23.5157 61.5814ZM7.57453 52.4497L7.78653 52.0796L7.57453 52.4497ZM29.5745 50.6225L29.358 50.99L29.5745 51.1175L29.7909 50.99L29.5745 50.6225ZM12.2285 21.2817L11.9751 20.9387L11.7983 21.0693L11.8021 21.289L12.2285 21.2817ZM46.9205 21.2811L47.3469 21.2883L47.3506 21.0686L47.1739 20.938L46.9205 21.2811ZM0.427022 23.4952V40.854H1.28001V23.4952H0.427022ZM7.36254 11.5294C3.07308 13.9866 0.427022 18.5518 0.427022 23.4952H1.28001C1.28001 18.8576 3.7624 14.5747 7.78652 12.2696L7.36254 11.5294ZM23.3037 2.3977L7.36254 11.5294L7.78652 12.2696L23.7277 3.13785L23.3037 2.3977ZM36.9874 2.38328C32.7453 -0.0348865 27.5407 -0.0294025 23.3037 2.3977L23.7277 3.13785C27.7026 0.860878 32.5853 0.855733 36.565 3.12433L36.9874 2.38328ZM53.0398 11.5338L36.9874 2.38328L36.565 3.12433L52.6173 12.2749L53.0398 11.5338ZM60.0005 23.514C60.0005 18.5602 57.3434 13.9871 53.0398 11.5338L52.6173 12.2749C56.6548 14.5764 59.1475 18.8666 59.1475 23.514H60.0005ZM60.0005 40.8352V23.514H59.1475V40.8352H60.0005ZM53.0398 52.8154C57.3434 50.3621 60.0005 45.789 60.0005 40.8352H59.1475C59.1475 45.4826 56.6548 49.7728 52.6173 52.0743L53.0398 52.8154ZM36.9874 61.9659L53.0398 52.8154L52.6173 52.0743L36.565 61.2249L36.9874 61.9659ZM23.3037 61.9515C27.5407 64.3786 32.7453 64.3841 36.9874 61.9659L36.565 61.2249C32.5853 63.4935 27.7026 63.4883 23.7277 61.2114L23.3037 61.9515ZM7.36254 52.8198L23.3037 61.9515L23.7277 61.2114L7.78653 52.0796L7.36254 52.8198ZM0.427022 40.854C0.427022 45.7974 3.07309 50.3626 7.36254 52.8198L7.78653 52.0796C3.7624 49.7745 1.28001 45.4916 1.28001 40.854H0.427022ZM29.7909 50.255C19.6726 44.2949 12.8649 33.5628 12.6549 21.2744L11.8021 21.289C12.0174 33.8933 19.0007 44.8891 29.358 50.99L29.7909 50.255ZM46.494 21.2738C46.2844 33.5625 39.4765 44.2948 29.358 50.255L29.7909 50.99C40.1484 44.889 47.1318 33.8929 47.3469 21.2883L46.494 21.2738ZM29.5749 16.035C35.9984 16.035 41.9197 18.1171 46.6671 21.6241L47.1739 20.938C42.2833 17.3252 36.1852 15.182 29.5749 15.182V16.035ZM12.4819 21.6248C17.2294 18.1174 23.1511 16.035 29.5749 16.035V15.182C22.9643 15.182 16.8658 17.3255 11.9751 20.9387L12.4819 21.6248Z" fill="#1A4B5F"/>
<path fill-rule="evenodd" clip-rule="evenodd" d="M47.761 55.8048C28.7061 55.4857 13.2926 39.7574 12.7798 20.2041C8.88395 24.9705 6.53906 31.1095 6.53906 37.809C6.53906 45.0755 9.29772 51.6827 13.8019 56.5942L23.3298 62.1712C27.4906 64.6066 32.6406 64.6121 36.8066 62.1855L47.761 55.8048Z" fill="url(#paint0_linear_2572_15203)"/>
<path fill-rule="evenodd" clip-rule="evenodd" d="M0 40.3869V23.3987C0 20.0846 1.22688 16.9488 3.35552 14.5426C3.67143 14.2034 3.99646 13.8725 4.33022 13.5502C5.09866 12.8454 5.95612 12.2248 6.89166 11.7069L14.7487 7.3578C17.2946 6.55542 20.0096 6.12207 22.8279 6.12207C34.7304 6.12207 44.7895 13.8513 48.0577 24.4644C43.2304 20.1921 36.8326 17.5906 29.8146 17.5906C14.7805 17.5906 2.59292 29.529 2.59292 44.2557C2.59292 45.8083 2.72839 47.3299 2.98837 48.8097C1.08643 46.4663 0 43.5055 0 40.3869Z" fill="url(#paint1_linear_2572_15203)"/>
<path fill-rule="evenodd" clip-rule="evenodd" d="M32.3463 50.9148C43.5813 50.9148 53.5821 45.7898 59.9993 37.8187V23.1916C59.9993 18.3672 57.3989 13.9174 53.1958 11.5491L42.6473 5.60547C45.0297 10.1967 46.3711 15.3832 46.3711 20.8737C46.3711 33.2824 39.5193 44.1389 29.2852 50.0783C29.6646 50.3482 30.0494 50.6107 30.4394 50.8654C31.0707 50.8982 31.7065 50.9148 32.3463 50.9148Z" fill="url(#paint2_linear_2572_15203)"/>
<path d="M79.8221 40.801C78.3821 40.801 77.1554 40.4876 76.1421 39.861C75.1288 39.2276 74.3521 38.3476 73.8121 37.221C73.2788 36.0943 73.0121 34.7876 73.0121 33.301C73.0121 31.8143 73.2788 30.5076 73.8121 29.381C74.3521 28.2543 75.1288 27.3776 76.1421 26.751C77.1554 26.1176 78.3821 25.801 79.8221 25.801C81.4821 25.801 82.8554 26.221 83.9421 27.061C85.0354 27.901 85.7954 29.031 86.2221 30.451L84.1021 31.021C83.8221 30.0143 83.3221 29.2243 82.6021 28.651C81.8888 28.0776 80.9621 27.791 79.8221 27.791C78.8021 27.791 77.9521 28.021 77.2721 28.481C76.5921 28.941 76.0788 29.5843 75.7321 30.411C75.3921 31.2376 75.2221 32.201 75.2221 33.301C75.2154 34.401 75.3821 35.3643 75.7221 36.191C76.0688 37.0176 76.5821 37.661 77.2621 38.121C77.9488 38.581 78.8021 38.811 79.8221 38.811C80.9621 38.811 81.8888 38.5243 82.6021 37.951C83.3221 37.371 83.8221 36.581 84.1021 35.581L86.2221 36.151C85.7954 37.571 85.0354 38.701 83.9421 39.541C82.8554 40.381 81.4821 40.801 79.8221 40.801ZM91.4715 40.801C90.6715 40.801 90.0015 40.6543 89.4615 40.361C88.9215 40.061 88.5115 39.6676 88.2315 39.181C87.9582 38.6876 87.8215 38.1476 87.8215 37.561C87.8215 37.0143 87.9182 36.5343 88.1115 36.121C88.3048 35.7076 88.5915 35.3576 88.9715 35.071C89.3515 34.7776 89.8182 34.541 90.3715 34.361C90.8515 34.221 91.3948 34.0976 92.0015 33.991C92.6082 33.8843 93.2448 33.7843 93.9115 33.691C94.5848 33.5976 95.2515 33.5043 95.9115 33.411L95.1515 33.831C95.1648 32.9843 94.9848 32.3576 94.6115 31.951C94.2448 31.5376 93.6115 31.331 92.7115 31.331C92.1448 31.331 91.6248 31.4643 91.1515 31.731C90.6782 31.991 90.3482 32.4243 90.1615 33.031L88.2115 32.431C88.4782 31.5043 88.9848 30.7676 89.7315 30.221C90.4848 29.6743 91.4848 29.401 92.7315 29.401C93.6982 29.401 94.5382 29.5676 95.2515 29.901C95.9715 30.2276 96.4982 30.7476 96.8315 31.461C97.0048 31.8143 97.1115 32.1876 97.1515 32.581C97.1915 32.9743 97.2115 33.3976 97.2115 33.851V40.501H95.3615V38.031L95.7215 38.351C95.2748 39.1776 94.7048 39.7943 94.0115 40.201C93.3248 40.601 92.4782 40.801 91.4715 40.801ZM91.8415 39.091C92.4348 39.091 92.9448 38.9876 93.3715 38.781C93.7982 38.5676 94.1415 38.2976 94.4015 37.971C94.6615 37.6443 94.8315 37.3043 94.9115 36.951C95.0248 36.631 95.0882 36.271 95.1015 35.871C95.1215 35.471 95.1315 35.151 95.1315 34.911L95.8115 35.161C95.1515 35.261 94.5515 35.351 94.0115 35.431C93.4715 35.511 92.9815 35.591 92.5415 35.671C92.1082 35.7443 91.7215 35.8343 91.3815 35.941C91.0948 36.041 90.8382 36.161 90.6115 36.301C90.3915 36.441 90.2148 36.611 90.0815 36.811C89.9548 37.011 89.8915 37.2543 89.8915 37.541C89.8915 37.821 89.9615 38.081 90.1015 38.321C90.2415 38.5543 90.4548 38.741 90.7415 38.881C91.0282 39.021 91.3948 39.091 91.8415 39.091ZM104.878 40.801C103.845 40.801 102.978 40.551 102.278 40.051C101.578 39.5443 101.048 38.861 100.688 38.001C100.328 37.141 100.148 36.171 100.148 35.091C100.148 34.011 100.325 33.041 100.678 32.181C101.038 31.321 101.565 30.6443 102.258 30.151C102.958 29.651 103.818 29.401 104.838 29.401C105.852 29.401 106.725 29.651 107.458 30.151C108.198 30.6443 108.768 31.321 109.168 32.181C109.568 33.0343 109.768 34.0043 109.768 35.091C109.768 36.171 109.568 37.1443 109.168 38.011C108.775 38.871 108.212 39.551 107.478 40.051C106.752 40.551 105.885 40.801 104.878 40.801ZM99.7982 45.301V29.701H101.658V37.471H101.898V45.301H99.7982ZM104.588 38.911C105.255 38.911 105.805 38.741 106.238 38.401C106.678 38.061 107.005 37.6043 107.218 37.031C107.438 36.451 107.548 35.8043 107.548 35.091C107.548 34.3843 107.438 33.7443 107.218 33.171C107.005 32.5976 106.675 32.141 106.228 31.801C105.782 31.461 105.212 31.291 104.518 31.291C103.865 31.291 103.325 31.451 102.898 31.771C102.478 32.091 102.165 32.5376 101.958 33.111C101.758 33.6843 101.658 34.3443 101.658 35.091C101.658 35.8376 101.758 36.4976 101.958 37.071C102.158 37.6443 102.475 38.0943 102.908 38.421C103.342 38.7476 103.902 38.911 104.588 38.911ZM112.176 27.931V25.901H114.266V27.931H112.176ZM112.176 40.501V29.701H114.266V40.501H112.176ZM123.449 40.501C122.769 40.6343 122.102 40.691 121.449 40.671C120.796 40.651 120.212 40.5243 119.699 40.291C119.186 40.0576 118.799 39.691 118.539 39.191C118.306 38.7443 118.179 38.291 118.159 37.831C118.146 37.3643 118.139 36.8376 118.139 36.251V26.701H120.239V36.151C120.239 36.5843 120.242 36.961 120.249 37.281C120.262 37.601 120.332 37.871 120.459 38.091C120.699 38.5043 121.079 38.741 121.599 38.801C122.126 38.8543 122.742 38.831 123.449 38.731V40.501ZM116.069 31.381V29.701H123.449V31.381H116.069ZM128.776 40.801C127.976 40.801 127.306 40.6543 126.766 40.361C126.226 40.061 125.816 39.6676 125.536 39.181C125.263 38.6876 125.126 38.1476 125.126 37.561C125.126 37.0143 125.223 36.5343 125.416 36.121C125.61 35.7076 125.896 35.3576 126.276 35.071C126.656 34.7776 127.123 34.541 127.676 34.361C128.156 34.221 128.7 34.0976 129.306 33.991C129.913 33.8843 130.55 33.7843 131.216 33.691C131.89 33.5976 132.556 33.5043 133.216 33.411L132.456 33.831C132.47 32.9843 132.29 32.3576 131.916 31.951C131.55 31.5376 130.916 31.331 130.016 31.331C129.45 31.331 128.93 31.4643 128.456 31.731C127.983 31.991 127.653 32.4243 127.466 33.031L125.516 32.431C125.783 31.5043 126.29 30.7676 127.036 30.221C127.79 29.6743 128.79 29.401 130.036 29.401C131.003 29.401 131.843 29.5676 132.556 29.901C133.276 30.2276 133.803 30.7476 134.136 31.461C134.31 31.8143 134.416 32.1876 134.456 32.581C134.496 32.9743 134.516 33.3976 134.516 33.851V40.501H132.666V38.031L133.026 38.351C132.58 39.1776 132.01 39.7943 131.316 40.201C130.63 40.601 129.783 40.801 128.776 40.801ZM129.146 39.091C129.74 39.091 130.25 38.9876 130.676 38.781C131.103 38.5676 131.446 38.2976 131.706 37.971C131.966 37.6443 132.136 37.3043 132.216 36.951C132.33 36.631 132.393 36.271 132.406 35.871C132.426 35.471 132.436 35.151 132.436 34.911L133.116 35.161C132.456 35.261 131.856 35.351 131.316 35.431C130.776 35.511 130.286 35.591 129.846 35.671C129.413 35.7443 129.026 35.8343 128.686 35.941C128.4 36.041 128.143 36.161 127.916 36.301C127.696 36.441 127.52 36.611 127.386 36.811C127.26 37.011 127.196 37.2543 127.196 37.541C127.196 37.821 127.266 38.081 127.406 38.321C127.546 38.5543 127.76 38.741 128.046 38.881C128.333 39.021 128.7 39.091 129.146 39.091ZM137.313 40.501V25.801H139.403V40.501H137.313ZM152.42 40.801C150.98 40.801 149.753 40.4876 148.74 39.861C147.726 39.2276 146.95 38.3476 146.41 37.221C145.876 36.0943 145.61 34.7876 145.61 33.301C145.61 31.8143 145.876 30.5076 146.41 29.381C146.95 28.2543 147.726 27.3776 148.74 26.751C149.753 26.1176 150.98 25.801 152.42 25.801C154.08 25.801 155.453 26.221 156.54 27.061C157.633 27.901 158.393 29.031 158.82 30.451L156.7 31.021C156.42 30.0143 155.92 29.2243 155.2 28.651C154.486 28.0776 153.56 27.791 152.42 27.791C151.4 27.791 150.55 28.021 149.87 28.481C149.19 28.941 148.676 29.5843 148.33 30.411C147.99 31.2376 147.82 32.201 147.82 33.301C147.813 34.401 147.98 35.3643 148.32 36.191C148.666 37.0176 149.18 37.661 149.86 38.121C150.546 38.581 151.4 38.811 152.42 38.811C153.56 38.811 154.486 38.5243 155.2 37.951C155.92 37.371 156.42 36.581 156.7 35.581L158.82 36.151C158.393 37.571 157.633 38.701 156.54 39.541C155.453 40.381 154.08 40.801 152.42 40.801ZM165.709 40.801C164.629 40.801 163.692 40.5576 162.899 40.071C162.106 39.5843 161.492 38.9143 161.059 38.061C160.632 37.201 160.419 36.211 160.419 35.091C160.419 33.9643 160.639 32.9743 161.079 32.121C161.519 31.261 162.136 30.5943 162.929 30.121C163.722 29.641 164.649 29.401 165.709 29.401C166.789 29.401 167.726 29.6443 168.519 30.131C169.312 30.6176 169.926 31.2876 170.359 32.141C170.792 32.9943 171.009 33.9776 171.009 35.091C171.009 36.2176 170.789 37.211 170.349 38.071C169.916 38.9243 169.302 39.5943 168.509 40.081C167.716 40.561 166.782 40.801 165.709 40.801ZM165.709 38.831C166.742 38.831 167.512 38.4843 168.019 37.791C168.532 37.091 168.789 36.191 168.789 35.091C168.789 33.9643 168.529 33.0643 168.009 32.391C167.496 31.711 166.729 31.371 165.709 31.371C165.009 31.371 164.432 31.531 163.979 31.851C163.526 32.1643 163.189 32.601 162.969 33.161C162.749 33.7143 162.639 34.3576 162.639 35.091C162.639 36.2243 162.899 37.131 163.419 37.811C163.939 38.491 164.702 38.831 165.709 38.831ZM180.787 40.501V35.191C180.787 34.771 180.75 34.341 180.677 33.901C180.61 33.4543 180.477 33.041 180.277 32.661C180.083 32.281 179.807 31.9743 179.447 31.741C179.093 31.5076 178.63 31.391 178.057 31.391C177.683 31.391 177.33 31.4543 176.997 31.581C176.663 31.701 176.37 31.8976 176.117 32.171C175.87 32.4443 175.673 32.8043 175.527 33.251C175.387 33.6976 175.317 34.241 175.317 34.881L174.017 34.391C174.017 33.411 174.2 32.5476 174.567 31.801C174.933 31.0476 175.46 30.461 176.147 30.041C176.833 29.621 177.663 29.411 178.637 29.411C179.383 29.411 180.01 29.531 180.517 29.771C181.023 30.011 181.433 30.3276 181.747 30.721C182.067 31.1076 182.31 31.531 182.477 31.991C182.643 32.451 182.757 32.901 182.817 33.341C182.877 33.781 182.907 34.1676 182.907 34.501V40.501H180.787ZM173.197 40.501V29.701H175.067V32.821H175.317V40.501H173.197ZM191.691 40.501C191.011 40.6343 190.345 40.691 189.691 40.671C189.038 40.651 188.455 40.5243 187.941 40.291C187.428 40.0576 187.041 39.691 186.781 39.191C186.548 38.7443 186.421 38.291 186.401 37.831C186.388 37.3643 186.381 36.8376 186.381 36.251V26.701H188.481V36.151C188.481 36.5843 188.485 36.961 188.491 37.281C188.505 37.601 188.575 37.871 188.701 38.091C188.941 38.5043 189.321 38.741 189.841 38.801C190.368 38.8543 190.985 38.831 191.691 38.731V40.501ZM184.311 31.381V29.701H191.691V31.381H184.311ZM193.968 40.501V29.701H195.828V32.321L195.568 31.981C195.702 31.6343 195.875 31.3176 196.088 31.031C196.302 30.7376 196.548 30.4976 196.828 30.311C197.102 30.111 197.405 29.9576 197.738 29.851C198.078 29.7376 198.425 29.671 198.778 29.651C199.132 29.6243 199.472 29.641 199.798 29.701V31.661C199.445 31.5676 199.052 31.541 198.618 31.581C198.192 31.621 197.798 31.7576 197.438 31.991C197.098 32.211 196.828 32.4776 196.628 32.791C196.435 33.1043 196.295 33.4543 196.208 33.841C196.122 34.221 196.078 34.6243 196.078 35.051V40.501H193.968ZM206.197 40.801C205.117 40.801 204.181 40.5576 203.387 40.071C202.594 39.5843 201.981 38.9143 201.547 38.061C201.121 37.201 200.907 36.211 200.907 35.091C200.907 33.9643 201.127 32.9743 201.567 32.121C202.007 31.261 202.624 30.5943 203.417 30.121C204.211 29.641 205.137 29.401 206.197 29.401C207.277 29.401 208.214 29.6443 209.007 30.131C209.801 30.6176 210.414 31.2876 210.847 32.141C211.281 32.9943 211.497 33.9776 211.497 35.091C211.497 36.2176 211.277 37.211 210.837 38.071C210.404 38.9243 209.791 39.5943 208.997 40.081C208.204 40.561 207.271 40.801 206.197 40.801ZM206.197 38.831C207.231 38.831 208.001 38.4843 208.507 37.791C209.021 37.091 209.277 36.191 209.277 35.091C209.277 33.9643 209.017 33.0643 208.497 32.391C207.984 31.711 207.217 31.371 206.197 31.371C205.497 31.371 204.921 31.531 204.467 31.851C204.014 32.1643 203.677 32.601 203.457 33.161C203.237 33.7143 203.127 34.3576 203.127 35.091C203.127 36.2243 203.387 37.131 203.907 37.811C204.427 38.491 205.191 38.831 206.197 38.831ZM213.895 40.501V25.801H215.985V40.501H213.895Z" fill="#171717"/>
<defs>
<linearGradient id="paint0_linear_2572_15203" x1="11.5154" y1="18.2318" x2="77.4078" y2="113.571" gradientUnits="userSpaceOnUse">
<stop stop-color="#1A4B5F"/>
<stop offset="0.134156" stop-color="#1C5972"/>
<stop offset="0.532288" stop-color="#2196C5"/>
<stop offset="0.654209" stop-color="#23AEE6"/>
<stop offset="1" stop-color="#25C0FF"/>
</linearGradient>
<linearGradient id="paint1_linear_2572_15203" x1="46.4935" y1="24.9748" x2="-36.8267" y2="0.266153" gradientUnits="userSpaceOnUse">
<stop stop-color="#1A4B5F"/>
<stop offset="0.128073" stop-color="#1C5972"/>
<stop offset="0.694819" stop-color="#23AEE6"/>
<stop offset="1" stop-color="#25C0FF"/>
</linearGradient>
<linearGradient id="paint2_linear_2572_15203" x1="37.7312" y1="56.9597" x2="58.7552" y2="-29.6653" gradientUnits="userSpaceOnUse">
<stop stop-color="#1A4B5F"/>
<stop offset="0.153946" stop-color="#1C5972"/>
<stop offset="0.629879" stop-color="#2192C0"/>
<stop offset="0.790907" stop-color="#23AEE6"/>
<stop offset="1" stop-color="#25C0FF"/>
</linearGradient>
</defs>
</svg>
