<svg width="143" height="20" viewBox="0 0 143 20" fill="none" xmlns="http://www.w3.org/2000/svg">
<path d="M6.82211 15.3C5.38211 15.3 4.15544 14.9867 3.14211 14.36C2.12878 13.7267 1.35211 12.8467 0.812109 11.72C0.278776 10.5933 0.0121094 9.28667 0.0121094 7.8C0.0121094 6.31333 0.278776 5.00667 0.812109 3.88C1.35211 2.75333 2.12878 1.87667 3.14211 1.25C4.15544 0.616666 5.38211 0.3 6.82211 0.3C8.48211 0.3 9.85544 0.719999 10.9421 1.56C12.0354 2.4 12.7954 3.53 13.2221 4.95L11.1021 5.52C10.8221 4.51333 10.3221 3.72333 9.60211 3.15C8.88878 2.57667 7.96211 2.29 6.82211 2.29C5.80211 2.29 4.95211 2.52 4.27211 2.98C3.59211 3.44 3.07878 4.08333 2.73211 4.91C2.39211 5.73667 2.22211 6.7 2.22211 7.8C2.21544 8.9 2.38211 9.86333 2.72211 10.69C3.06878 11.5167 3.58211 12.16 4.26211 12.62C4.94878 13.08 5.80211 13.31 6.82211 13.31C7.96211 13.31 8.88878 13.0233 9.60211 12.45C10.3221 11.87 10.8221 11.08 11.1021 10.08L13.2221 10.65C12.7954 12.07 12.0354 13.2 10.9421 14.04C9.85544 14.88 8.48211 15.3 6.82211 15.3ZM18.4715 15.3C17.6715 15.3 17.0015 15.1533 16.4615 14.86C15.9215 14.56 15.5115 14.1667 15.2315 13.68C14.9582 13.1867 14.8215 12.6467 14.8215 12.06C14.8215 11.5133 14.9182 11.0333 15.1115 10.62C15.3048 10.2067 15.5915 9.85667 15.9715 9.57C16.3515 9.27667 16.8182 9.04 17.3715 8.86C17.8515 8.72 18.3948 8.59667 19.0015 8.49C19.6082 8.38333 20.2448 8.28333 20.9115 8.19C21.5848 8.09667 22.2515 8.00333 22.9115 7.91L22.1515 8.33C22.1648 7.48333 21.9848 6.85667 21.6115 6.45C21.2448 6.03667 20.6115 5.83 19.7115 5.83C19.1448 5.83 18.6248 5.96333 18.1515 6.23C17.6782 6.49 17.3482 6.92333 17.1615 7.53L15.2115 6.93C15.4782 6.00333 15.9848 5.26667 16.7315 4.72C17.4848 4.17333 18.4848 3.9 19.7315 3.9C20.6982 3.9 21.5382 4.06667 22.2515 4.4C22.9715 4.72667 23.4982 5.24667 23.8315 5.96C24.0048 6.31333 24.1115 6.68667 24.1515 7.08C24.1915 7.47333 24.2115 7.89667 24.2115 8.35V15H22.3615V12.53L22.7215 12.85C22.2748 13.6767 21.7048 14.2933 21.0115 14.7C20.3248 15.1 19.4782 15.3 18.4715 15.3ZM18.8415 13.59C19.4348 13.59 19.9448 13.4867 20.3715 13.28C20.7982 13.0667 21.1415 12.7967 21.4015 12.47C21.6615 12.1433 21.8315 11.8033 21.9115 11.45C22.0248 11.13 22.0882 10.77 22.1015 10.37C22.1215 9.97 22.1315 9.65 22.1315 9.41L22.8115 9.66C22.1515 9.76 21.5515 9.85 21.0115 9.93C20.4715 10.01 19.9815 10.09 19.5415 10.17C19.1082 10.2433 18.7215 10.3333 18.3815 10.44C18.0948 10.54 17.8382 10.66 17.6115 10.8C17.3915 10.94 17.2148 11.11 17.0815 11.31C16.9548 11.51 16.8915 11.7533 16.8915 12.04C16.8915 12.32 16.9615 12.58 17.1015 12.82C17.2415 13.0533 17.4548 13.24 17.7415 13.38C18.0282 13.52 18.3948 13.59 18.8415 13.59ZM31.8782 15.3C30.8449 15.3 29.9782 15.05 29.2782 14.55C28.5782 14.0433 28.0482 13.36 27.6882 12.5C27.3282 11.64 27.1482 10.67 27.1482 9.59C27.1482 8.51 27.3249 7.54 27.6782 6.68C28.0382 5.82 28.5649 5.14333 29.2582 4.65C29.9582 4.15 30.8182 3.9 31.8382 3.9C32.8515 3.9 33.7249 4.15 34.4582 4.65C35.1982 5.14333 35.7682 5.82 36.1682 6.68C36.5682 7.53333 36.7682 8.50333 36.7682 9.59C36.7682 10.67 36.5682 11.6433 36.1682 12.51C35.7749 13.37 35.2115 14.05 34.4782 14.55C33.7515 15.05 32.8849 15.3 31.8782 15.3ZM26.7982 19.8V4.2H28.6582V11.97H28.8982V19.8H26.7982ZM31.5882 13.41C32.2549 13.41 32.8049 13.24 33.2382 12.9C33.6782 12.56 34.0049 12.1033 34.2182 11.53C34.4382 10.95 34.5482 10.3033 34.5482 9.59C34.5482 8.88333 34.4382 8.24333 34.2182 7.67C34.0049 7.09667 33.6749 6.64 33.2282 6.3C32.7815 5.96 32.2115 5.79 31.5182 5.79C30.8649 5.79 30.3249 5.95 29.8982 6.27C29.4782 6.59 29.1649 7.03667 28.9582 7.61C28.7582 8.18333 28.6582 8.84333 28.6582 9.59C28.6582 10.3367 28.7582 10.9967 28.9582 11.57C29.1582 12.1433 29.4749 12.5933 29.9082 12.92C30.3415 13.2467 30.9015 13.41 31.5882 13.41ZM39.1762 2.43V0.4H41.2662V2.43H39.1762ZM39.1762 15V4.2H41.2662V15H39.1762ZM50.4491 15C49.7691 15.1333 49.1025 15.19 48.4491 15.17C47.7958 15.15 47.2125 15.0233 46.6991 14.79C46.1858 14.5567 45.7991 14.19 45.5391 13.69C45.3058 13.2433 45.1791 12.79 45.1591 12.33C45.1458 11.8633 45.1391 11.3367 45.1391 10.75V1.2H47.2391V10.65C47.2391 11.0833 47.2425 11.46 47.2491 11.78C47.2625 12.1 47.3325 12.37 47.4591 12.59C47.6991 13.0033 48.0791 13.24 48.5991 13.3C49.1258 13.3533 49.7425 13.33 50.4491 13.23V15ZM43.0691 5.88V4.2H50.4491V5.88H43.0691ZM55.7762 15.3C54.9762 15.3 54.3062 15.1533 53.7662 14.86C53.2262 14.56 52.8162 14.1667 52.5362 13.68C52.2628 13.1867 52.1262 12.6467 52.1262 12.06C52.1262 11.5133 52.2228 11.0333 52.4162 10.62C52.6095 10.2067 52.8962 9.85667 53.2762 9.57C53.6562 9.27667 54.1228 9.04 54.6762 8.86C55.1562 8.72 55.6995 8.59667 56.3062 8.49C56.9128 8.38333 57.5495 8.28333 58.2162 8.19C58.8895 8.09667 59.5562 8.00333 60.2162 7.91L59.4562 8.33C59.4695 7.48333 59.2895 6.85667 58.9162 6.45C58.5495 6.03667 57.9162 5.83 57.0162 5.83C56.4495 5.83 55.9295 5.96333 55.4562 6.23C54.9828 6.49 54.6528 6.92333 54.4662 7.53L52.5162 6.93C52.7828 6.00333 53.2895 5.26667 54.0362 4.72C54.7895 4.17333 55.7895 3.9 57.0362 3.9C58.0028 3.9 58.8428 4.06667 59.5562 4.4C60.2762 4.72667 60.8028 5.24667 61.1362 5.96C61.3095 6.31333 61.4162 6.68667 61.4562 7.08C61.4962 7.47333 61.5162 7.89667 61.5162 8.35V15H59.6662V12.53L60.0262 12.85C59.5795 13.6767 59.0095 14.2933 58.3162 14.7C57.6295 15.1 56.7828 15.3 55.7762 15.3ZM56.1462 13.59C56.7395 13.59 57.2495 13.4867 57.6762 13.28C58.1028 13.0667 58.4462 12.7967 58.7062 12.47C58.9662 12.1433 59.1362 11.8033 59.2162 11.45C59.3295 11.13 59.3928 10.77 59.4062 10.37C59.4262 9.97 59.4362 9.65 59.4362 9.41L60.1162 9.66C59.4562 9.76 58.8562 9.85 58.3162 9.93C57.7762 10.01 57.2862 10.09 56.8462 10.17C56.4128 10.2433 56.0262 10.3333 55.6862 10.44C55.3995 10.54 55.1428 10.66 54.9162 10.8C54.6962 10.94 54.5195 11.11 54.3862 11.31C54.2595 11.51 54.1962 11.7533 54.1962 12.04C54.1962 12.32 54.2662 12.58 54.4062 12.82C54.5462 13.0533 54.7595 13.24 55.0462 13.38C55.3328 13.52 55.6995 13.59 56.1462 13.59ZM64.3129 15V0.3H66.4029V15H64.3129ZM79.4198 15.3C77.9798 15.3 76.7531 14.9867 75.7398 14.36C74.7264 13.7267 73.9498 12.8467 73.4098 11.72C72.8764 10.5933 72.6098 9.28667 72.6098 7.8C72.6098 6.31333 72.8764 5.00667 73.4098 3.88C73.9498 2.75333 74.7264 1.87667 75.7398 1.25C76.7531 0.616666 77.9798 0.3 79.4198 0.3C81.0798 0.3 82.4531 0.719999 83.5398 1.56C84.6331 2.4 85.3931 3.53 85.8198 4.95L83.6998 5.52C83.4198 4.51333 82.9198 3.72333 82.1998 3.15C81.4864 2.57667 80.5598 2.29 79.4198 2.29C78.3998 2.29 77.5498 2.52 76.8698 2.98C76.1898 3.44 75.6764 4.08333 75.3298 4.91C74.9898 5.73667 74.8198 6.7 74.8198 7.8C74.8131 8.9 74.9798 9.86333 75.3198 10.69C75.6664 11.5167 76.1798 12.16 76.8598 12.62C77.5464 13.08 78.3998 13.31 79.4198 13.31C80.5598 13.31 81.4864 13.0233 82.1998 12.45C82.9198 11.87 83.4198 11.08 83.6998 10.08L85.8198 10.65C85.3931 12.07 84.6331 13.2 83.5398 14.04C82.4531 14.88 81.0798 15.3 79.4198 15.3ZM92.7091 15.3C91.6291 15.3 90.6925 15.0567 89.8991 14.57C89.1058 14.0833 88.4925 13.4133 88.0591 12.56C87.6325 11.7 87.4191 10.71 87.4191 9.59C87.4191 8.46333 87.6391 7.47333 88.0791 6.62C88.5191 5.76 89.1358 5.09333 89.9291 4.62C90.7225 4.14 91.6491 3.9 92.7091 3.9C93.7891 3.9 94.7258 4.14333 95.5191 4.63C96.3125 5.11667 96.9258 5.78667 97.3591 6.64C97.7925 7.49333 98.0091 8.47667 98.0091 9.59C98.0091 10.7167 97.7891 11.71 97.3491 12.57C96.9158 13.4233 96.3025 14.0933 95.5091 14.58C94.7158 15.06 93.7825 15.3 92.7091 15.3ZM92.7091 13.33C93.7425 13.33 94.5125 12.9833 95.0191 12.29C95.5325 11.59 95.7891 10.69 95.7891 9.59C95.7891 8.46333 95.5291 7.56333 95.0091 6.89C94.4958 6.21 93.7291 5.87 92.7091 5.87C92.0091 5.87 91.4325 6.03 90.9791 6.35C90.5258 6.66333 90.1891 7.1 89.9691 7.66C89.7491 8.21333 89.6391 8.85667 89.6391 9.59C89.6391 10.7233 89.8991 11.63 90.4191 12.31C90.9391 12.99 91.7025 13.33 92.7091 13.33ZM107.787 15V9.69C107.787 9.27 107.75 8.84 107.677 8.4C107.61 7.95333 107.477 7.54 107.277 7.16C107.083 6.78 106.807 6.47333 106.447 6.24C106.093 6.00667 105.63 5.89 105.057 5.89C104.683 5.89 104.33 5.95333 103.997 6.08C103.663 6.2 103.37 6.39667 103.117 6.67C102.87 6.94333 102.673 7.30333 102.527 7.75C102.387 8.19667 102.317 8.74 102.317 9.38L101.017 8.89C101.017 7.91 101.2 7.04667 101.567 6.3C101.933 5.54667 102.46 4.96 103.147 4.54C103.833 4.12 104.663 3.91 105.637 3.91C106.383 3.91 107.01 4.03 107.517 4.27C108.023 4.51 108.433 4.82667 108.747 5.22C109.067 5.60667 109.31 6.03 109.477 6.49C109.643 6.95 109.757 7.4 109.817 7.84C109.877 8.28 109.907 8.66667 109.907 9V15H107.787ZM100.197 15V4.2H102.067V7.32H102.317V15H100.197ZM118.691 15C118.011 15.1333 117.345 15.19 116.691 15.17C116.038 15.15 115.455 15.0233 114.941 14.79C114.428 14.5567 114.041 14.19 113.781 13.69C113.548 13.2433 113.421 12.79 113.401 12.33C113.388 11.8633 113.381 11.3367 113.381 10.75V1.2H115.481V10.65C115.481 11.0833 115.485 11.46 115.491 11.78C115.505 12.1 115.575 12.37 115.701 12.59C115.941 13.0033 116.321 13.24 116.841 13.3C117.368 13.3533 117.985 13.33 118.691 13.23V15ZM111.311 5.88V4.2H118.691V5.88H111.311ZM120.968 15V4.2H122.828V6.82L122.568 6.48C122.702 6.13333 122.875 5.81667 123.088 5.53C123.302 5.23667 123.548 4.99667 123.828 4.81C124.102 4.61 124.405 4.45667 124.738 4.35C125.078 4.23667 125.425 4.17 125.778 4.15C126.132 4.12333 126.472 4.14 126.798 4.2V6.16C126.445 6.06667 126.052 6.04 125.618 6.08C125.192 6.12 124.798 6.25667 124.438 6.49C124.098 6.71 123.828 6.97667 123.628 7.29C123.435 7.60333 123.295 7.95333 123.208 8.34C123.122 8.72 123.078 9.12333 123.078 9.55V15H120.968ZM133.197 15.3C132.117 15.3 131.181 15.0567 130.387 14.57C129.594 14.0833 128.981 13.4133 128.547 12.56C128.121 11.7 127.907 10.71 127.907 9.59C127.907 8.46333 128.127 7.47333 128.567 6.62C129.007 5.76 129.624 5.09333 130.417 4.62C131.211 4.14 132.137 3.9 133.197 3.9C134.277 3.9 135.214 4.14333 136.007 4.63C136.801 5.11667 137.414 5.78667 137.847 6.64C138.281 7.49333 138.497 8.47667 138.497 9.59C138.497 10.7167 138.277 11.71 137.837 12.57C137.404 13.4233 136.791 14.0933 135.997 14.58C135.204 15.06 134.271 15.3 133.197 15.3ZM133.197 13.33C134.231 13.33 135.001 12.9833 135.507 12.29C136.021 11.59 136.277 10.69 136.277 9.59C136.277 8.46333 136.017 7.56333 135.497 6.89C134.984 6.21 134.217 5.87 133.197 5.87C132.497 5.87 131.921 6.03 131.467 6.35C131.014 6.66333 130.677 7.1 130.457 7.66C130.237 8.21333 130.127 8.85667 130.127 9.59C130.127 10.7233 130.387 11.63 130.907 12.31C131.427 12.99 132.191 13.33 133.197 13.33ZM140.895 15V0.3H142.985V15H140.895Z" fill="#171717"/>
</svg>
