<svg width="24" height="24" viewBox="0 0 24 24" fill="none" xmlns="http://www.w3.org/2000/svg">
<g clip-path="url(#clip0_2140_14633)">
<path d="M12.0207 14.9269C13.6936 14.9269 15.0544 13.5939 15.0544 11.9552C15.0544 10.3166 13.6936 8.9836 12.0207 8.9836C10.3478 8.9836 8.98706 10.3166 8.98706 11.9552C8.98706 13.5939 10.3478 14.9269 12.0207 14.9269Z" stroke="#FEFEFE" stroke-width="1.5" stroke-miterlimit="10"/>
<path d="M14.668 3.00554C14.8927 3.7882 15.417 4.46079 16.1287 4.87658C16.8403 5.29237 17.6767 5.41465 18.4757 5.21899C19.0625 5.04778 19.6992 5.07225 20.2735 5.3046C20.8477 5.53695 21.3222 5.95273 21.6343 6.47858C21.9464 7.00443 22.0587 7.62811 21.9713 8.23956C21.8839 8.85101 21.5843 9.40133 21.1349 9.81712C20.5606 10.4041 20.2361 11.199 20.2361 12.0183C20.2361 12.8377 20.5606 13.6326 21.1349 14.2196C21.5843 14.6354 21.8714 15.1979 21.9713 15.7971C22.0587 16.4085 21.9464 17.02 21.6343 17.5581C21.3222 18.0839 20.8477 18.4997 20.2735 18.7321C19.6992 18.9644 19.075 18.9889 18.4757 18.8177C17.6767 18.622 16.8278 18.7321 16.1037 19.1479C15.3921 19.5637 14.8552 20.224 14.6305 21.0189C14.4682 21.5937 14.1187 22.095 13.6443 22.4497C13.1699 22.8043 12.5831 23 11.9838 23C11.3846 23 10.8104 22.8043 10.3235 22.4497C9.84908 22.095 9.49947 21.5937 9.33717 21.0189C9.11245 20.224 8.57563 19.5637 7.86403 19.1479C7.15242 18.7443 6.30353 18.622 5.49205 18.8177C4.90528 18.9889 4.26851 18.9522 3.70672 18.7198C3.13244 18.4875 2.65809 18.0717 2.35846 17.5459C2.05884 17.02 1.93398 16.3963 2.03386 15.7971C2.12125 15.1979 2.42084 14.6354 2.85779 14.2196C3.43207 13.6326 3.7567 12.8377 3.7567 12.0183C3.7567 11.199 3.43207 10.4041 2.85779 9.81712C2.40836 9.40133 2.12125 8.83878 2.03386 8.23956C1.94647 7.64034 2.05884 7.01667 2.35846 6.49082C2.65809 5.96497 3.13244 5.5492 3.70672 5.31684C4.281 5.08449 4.90528 5.04778 5.49205 5.21899C6.29104 5.41465 7.15242 5.29238 7.86403 4.88882C8.57563 4.47303 9.11245 3.80044 9.33717 3.01778C9.48698 2.44302 9.83658 1.9294 10.311 1.56252C10.7854 1.19565 11.3846 1 11.9838 1C12.5831 1 13.1824 1.19565 13.6568 1.56252C14.1312 1.9294 14.4807 2.44302 14.6305 3.01778L14.668 3.00554Z" stroke="#FEFEFE" stroke-width="1.5" stroke-miterlimit="10" stroke-linecap="round"/>
</g>
<defs>
<clipPath id="clip0_2140_14633">
<rect width="24" height="24" fill="white"/>
</clipPath>
</defs>
</svg>
