<svg width="19" height="20" viewBox="0 0 19 20" fill="none" xmlns="http://www.w3.org/2000/svg">
<g id="motocycle 2" clip-path="url(#clip0_2507_5181)">
<g id="Group">
<path id="Vector" d="M1.68718 4.28857L1.53599 4.44221L0 6.23845L0.385863 6.50564L2.84102 5.08806L1.68718 4.28857Z" fill="#23292E"/>
<path id="Vector_2" d="M2.2748 4.90153L1.20301 5.55524L0.385863 6.50472L0 6.23757L1.53596 4.44141L2.2748 4.90153Z" fill="#2E373D"/>
<path id="Vector_3" d="M16.351 15.9598C16.1712 15.9598 16.0062 15.8402 15.9565 15.6583L13.3603 6.16047C13.3007 5.94227 13.4291 5.71731 13.6471 5.6576C13.8652 5.59815 14.0903 5.72644 14.15 5.9446L16.7462 15.4424C16.8058 15.6605 16.6773 15.8856 16.4592 15.9452C16.4231 15.9552 16.3869 15.9598 16.351 15.9598Z" fill="#CECECE"/>
<path id="Vector_4" d="M4.82404 4.54714C4.20624 4.19052 3.64366 4.18024 3.2211 4.45162L2.12273 5.0761C1.5632 5.33267 1.20312 6.03037 1.20312 7.04824C1.20312 8.79776 2.26683 10.8304 3.57898 11.5879C4.18969 11.9404 4.74648 11.9547 5.16745 11.6929L6.3306 11.0345C6.86127 10.7599 7.19993 10.074 7.19993 9.08696C7.19993 7.33729 6.13622 5.30484 4.82404 4.54714Z" fill="#23292E"/>
<path id="Vector_5" d="M5.95502 9.79218C5.95502 11.5418 4.89131 12.3459 3.57898 11.5883C2.26683 10.8308 1.20312 8.79821 1.20312 7.04868C1.20312 5.29905 2.26683 4.49482 3.57898 5.25237C4.89131 6.01007 5.95502 8.04251 5.95502 9.79218Z" fill="#2E373D"/>
<path id="Vector_6" d="M5.04407 9.26672C5.04407 10.3458 4.38797 10.8418 3.57866 10.3745C2.76938 9.90727 2.11328 8.65371 2.11328 7.57461C2.11328 6.49551 2.76938 5.99965 3.57866 6.46686C4.38797 6.93418 5.04407 8.18762 5.04407 9.26672Z" fill="#CECECE"/>
<path id="Vector_7" d="M8.87197 10.2265L4.29973 7.58657C4.17028 7.51187 4.02388 7.47151 3.87444 7.46933C3.725 7.46715 3.57749 7.50321 3.44591 7.5741C3.21673 7.61759 3.02539 7.81561 3.02539 8.08016C3.02542 8.32462 3.08975 8.56477 3.21193 8.77652C3.3341 8.98826 3.50982 9.16414 3.72145 9.28651L8.87212 12.2639L8.87197 10.2265Z" fill="#23292E"/>
<path id="Vector_8" d="M5.64893 6.46094V7.92936C5.64894 8.08152 5.689 8.231 5.76508 8.36278C5.84117 8.49455 5.95059 8.60399 6.08236 8.68008L7.69543 9.61145C7.9041 9.7412 8.07625 9.922 8.19562 10.1368C8.31498 10.3516 8.37762 10.5932 8.37761 10.839V11.6051C8.37761 11.8372 8.43871 12.0652 8.55476 12.2662C8.67081 12.4673 8.83774 12.6342 9.03876 12.7503L10.3478 13.5061C10.5165 13.6035 10.7062 13.5911 10.8537 13.5059L13.5635 11.9463C13.5755 11.9399 13.5874 11.9331 13.599 11.9259H13.5992C13.7376 11.8385 13.8352 11.686 13.8352 11.499C13.8352 11.0359 13.9126 10.5761 14.0642 10.1386L14.5173 8.83015L5.64893 6.46094Z" fill="#CECECE"/>
<path id="Vector_9" d="M7.69564 8.03718L5.64914 6.85547V7.93053C5.64915 8.08269 5.68921 8.23217 5.76529 8.36395C5.84138 8.49573 5.9508 8.60516 6.08257 8.68125L7.69564 9.61258V8.03718ZM9.72141 11.06L3.79741 7.63551C3.45445 7.43734 3.02539 7.68479 3.02539 8.08097C3.0254 8.32543 3.08973 8.56559 3.2119 8.77734C3.33408 8.98908 3.50981 9.16496 3.72145 9.28732L9.72144 12.7557L9.72141 11.06Z" fill="#525E65"/>
<path id="Vector_10" d="M7.03406 2.93076L6.63996 2.24802C6.4513 1.92122 6.17993 1.64985 5.85313 1.46119L4.7187 0.806248C4.44906 0.650574 4.14276 0.689428 3.9224 0.849889L1.30029 2.33553C1.05559 2.448 0.873535 2.692 0.873535 2.99941C0.873533 3.33331 0.961424 3.66133 1.12837 3.95049C1.29532 4.23966 1.53545 4.47978 1.82461 4.64673L6.33106 7.24847L9.72123 4.53296L7.03406 2.93076Z" fill="#627681"/>
<path id="Vector_11" d="M6.9715 6.09332L4.28455 4.49093L3.89027 3.8082C3.70161 3.4814 3.43024 3.21002 3.10344 3.02137L1.96912 2.3665C1.48224 2.08543 0.873535 2.43678 0.873535 2.99895C0.87354 3.33284 0.961434 3.66085 1.12838 3.95001C1.29533 4.23917 1.53545 4.47929 1.82461 4.64624L6.33106 7.24812L6.9715 6.09332Z" fill="#2E373D"/>
<path id="Vector_12" d="M4.28467 4.49194L7.03425 2.93115L9.72134 4.53354L6.97161 6.09428L4.28467 4.49194Z" fill="#525E65"/>
<path id="Vector_13" d="M12.6498 4.57386C12.1912 4.30281 11.6688 4.15853 11.1361 4.1558C10.6034 4.15308 10.0795 4.292 9.61817 4.55835C9.59263 4.57312 7.22157 5.94906 6.98989 6.08343C6.95612 6.10124 6.92265 6.11954 6.88944 6.13884C6.71967 6.23682 6.57869 6.37777 6.48067 6.54751C6.38265 6.71726 6.33105 6.90982 6.33105 7.10583V7.24878L11.7886 10.3997L14.5173 8.81939V7.8331C14.5173 7.17415 14.345 6.52666 14.0174 5.95492C13.6898 5.38318 13.2183 4.90707 12.6498 4.57386Z" fill="#E33400"/>
<path id="Vector_14" d="M6.33105 7.2485L11.7886 10.3995V9.41332C11.7886 8.75435 11.6163 8.10684 11.2886 7.5351C10.961 6.96335 10.4895 6.48725 9.92098 6.15407C9.46242 5.88296 8.94003 5.73863 8.40733 5.73588C7.87463 5.73313 7.35077 5.87205 6.88944 6.13841C6.71968 6.23644 6.57871 6.37742 6.48069 6.54719C6.38267 6.71695 6.33107 6.90953 6.33105 7.10556V7.2485Z" fill="#872E02"/>
<path id="Vector_15" d="M7.69531 8.03662L11.7885 10.3997L11.3352 11.7081C11.1837 12.1457 11.1064 12.6055 11.1063 13.0686C11.1063 13.4579 10.6848 13.7012 10.3478 13.5067L9.03878 12.7508C8.83773 12.6347 8.67077 12.4678 8.55469 12.2668C8.4386 12.0657 8.37749 11.8377 8.37749 11.6055V10.8394C8.37749 10.3399 8.11958 9.87569 7.69531 9.61203V8.03662Z" fill="#82A5B9"/>
<path id="Vector_16" d="M16.3001 12.3822C15.6824 12.0255 15.1197 12.0152 14.6971 12.2865L13.5988 12.911C13.0392 13.1676 12.6792 13.8653 12.6792 14.8832C12.6792 16.6327 13.7429 18.6653 15.055 19.4228C15.6658 19.7754 16.2225 19.7896 16.6433 19.5278L17.8066 18.8695C18.3375 18.595 18.6761 17.909 18.6761 16.9219C18.6761 15.1722 17.6124 13.1398 16.3001 12.3822Z" fill="#23292E"/>
<path id="Vector_17" d="M16.5722 11.7656C15.84 11.343 15.176 11.3479 14.6891 11.6971L13.2498 12.5281C12.6487 12.8423 12.2656 13.6217 12.2656 14.7416C12.2656 15.5922 12.4873 16.5013 12.8568 17.3312L13.0204 17.2514C13.3698 17.0813 13.5455 16.6861 13.4418 16.3117C13.3518 15.9871 13.3016 15.6569 13.3016 15.3397C13.3016 14.1121 14.0482 13.5477 14.969 14.0793C15.1564 14.1876 15.3364 14.3333 15.5043 14.5068C15.7807 14.7925 16.2486 14.7631 16.5028 14.4574L16.5896 14.353L17.5892 13.7716C17.7813 13.7685 17.9729 13.685 18.1059 13.525L18.1927 13.4206C17.7412 12.7083 17.1802 12.1166 16.5722 11.7656Z" fill="#E33400"/>
<path id="Vector_18" d="M17.4311 17.6271C17.4311 19.3768 16.3674 20.181 15.0552 19.4233C13.7431 18.6657 12.6792 16.6333 12.6792 14.8836C12.6792 13.1339 13.7431 12.3297 15.0552 13.0874C16.3674 13.845 17.4311 15.8775 17.4311 17.6271Z" fill="#2E373D"/>
<path id="Vector_19" d="M16.5201 17.0997C16.5201 18.1788 15.864 18.6748 15.0547 18.2075C14.2454 17.7403 13.5894 16.4867 13.5894 15.4076C13.5894 14.3285 14.2454 13.8327 15.0547 14.2999C15.864 14.7672 16.5201 16.0207 16.5201 17.0998V17.0997Z" fill="#CECECE"/>
<path id="Vector_20" d="M15.6886 16.6197C15.6886 17.0862 15.4049 17.3005 15.055 17.0986C14.7051 16.8966 14.4214 16.3546 14.4214 15.8879C14.4214 15.4215 14.7051 15.2071 15.055 15.409C15.4049 15.6111 15.6886 16.153 15.6886 16.6197Z" fill="#627681"/>
<path id="Vector_21" d="M13.3017 15.3402C13.3017 14.1125 14.0482 13.5482 14.969 14.0798C15.1566 14.1881 15.3364 14.3337 15.5045 14.5073C15.7809 14.793 16.2486 14.7635 16.5029 14.4578L16.5896 14.3535C16.1381 13.641 15.5771 13.0494 14.969 12.6985C13.4761 11.8364 12.2656 12.7514 12.2656 14.7421C12.2656 15.5927 12.4873 16.5017 12.8568 17.3316L13.0204 17.2519C13.3698 17.0817 13.5455 16.6867 13.4418 16.3121C13.3518 15.9876 13.3016 15.6573 13.3016 15.3402H13.3017Z" fill="#872E02"/>
<path id="Vector_22" d="M15.0254 16.762C14.8455 16.762 14.6806 16.6424 14.6309 16.4605L12.0346 6.96272C11.975 6.7447 12.1034 6.51956 12.3216 6.45985C12.5396 6.4004 12.7648 6.52868 12.8243 6.74685L15.4205 16.2447C15.4801 16.4627 15.3517 16.6878 15.1337 16.7474C15.0974 16.7574 15.0612 16.762 15.0254 16.762Z" fill="#CECECE"/>
<path id="Vector_23" d="M13.8356 2.91597C13.6941 2.91597 13.5565 2.8425 13.4807 2.71113C13.3676 2.51545 13.4347 2.26511 13.6305 2.15204L14.6827 1.54467C14.8784 1.4316 15.1287 1.49873 15.2418 1.69441C15.3548 1.89027 15.2878 2.14046 15.0919 2.25354L14.0398 2.86102C13.9777 2.89699 13.9073 2.91595 13.8356 2.91597Z" fill="#2E373D"/>
<path id="Vector_24" d="M15.3973 2.77923H14.0367C13.9788 2.77817 13.9237 2.75442 13.8831 2.71311C13.8426 2.6718 13.8198 2.61621 13.8198 2.55831C13.8198 2.50042 13.8426 2.44483 13.8831 2.40352C13.9237 2.3622 13.9788 2.33846 14.0367 2.3374H15.3973C15.4552 2.33846 15.5103 2.3622 15.5509 2.40352C15.5915 2.44483 15.6142 2.50042 15.6142 2.55831C15.6142 2.61621 15.5915 2.6718 15.5509 2.71311C15.5103 2.75442 15.4552 2.77817 15.3973 2.77923Z" fill="#2E373D"/>
<path id="Vector_25" d="M11.5898 7.50317C11.0249 7.50317 10.4665 7.28125 10.0501 6.85579L8.77853 5.55697C8.62037 5.39532 8.62297 5.1363 8.78461 4.97814C8.94608 4.81997 9.20529 4.82276 9.36341 4.98422L10.6351 6.28305C11.0618 6.71894 11.7288 6.81041 12.2571 6.50541L13.559 5.75379C13.7031 5.67096 13.8171 5.54437 13.8845 5.39238C13.9519 5.24039 13.9692 5.07089 13.9338 4.90844L13.4351 2.59326C13.3875 2.37235 13.5279 2.15463 13.749 2.10695C13.9699 2.05926 14.1876 2.19987 14.2353 2.42089L14.7341 4.73592C14.8814 5.41925 14.5735 6.11316 13.9682 6.46262L12.6663 7.21427C12.3391 7.4036 11.9678 7.50326 11.5898 7.50317Z" fill="#CECECE"/>
<path id="Vector_26" d="M7.71787 6.46088C7.57641 6.46088 7.43881 6.38752 7.36303 6.25619C7.24996 6.06036 7.31709 5.81013 7.51277 5.6971L8.86611 4.91576C9.06179 4.80269 9.31216 4.86982 9.4252 5.06568C9.53827 5.26136 9.47118 5.5117 9.27531 5.62477L7.92212 6.40607C7.86006 6.44204 7.7896 6.46095 7.71787 6.46088Z" fill="#2E373D"/>
<path id="Vector_27" d="M15.5155 5.81068L14.8132 5.40507C14.4865 5.21648 14.116 5.11719 13.7388 5.11719C13.3616 5.11719 12.991 5.21648 12.6644 5.40507C11.4387 6.11279 11.4387 7.88172 12.6644 8.58943L13.9249 9.33162C14.15 9.48031 14.4514 9.47683 14.7827 9.28549C15.4797 8.88308 16.0446 7.80371 16.0446 6.87453C16.0446 6.3098 15.8357 5.93102 15.5155 5.81068Z" fill="#82A5B9"/>
<path id="Vector_28" d="M16.0447 6.87542C16.0447 7.80464 15.4798 8.88396 14.7828 9.28641C14.0859 9.68864 13.521 9.26159 13.521 8.33241C13.521 7.40322 14.0859 6.32371 14.7828 5.92145C15.4798 5.51907 16.0447 5.94624 16.0447 6.87542Z" fill="#CECECE"/>
<path id="Vector_29" d="M15.6776 7.08695C15.6776 7.74579 15.2771 8.51121 14.7829 8.79632C14.2889 9.08158 13.8884 8.77877 13.8884 8.12008C13.8884 7.46124 14.2889 6.69586 14.7829 6.4106C15.2771 6.1253 15.6776 6.42811 15.6776 7.08695ZM8.94775 11.3369C8.94775 11.9065 9.29406 12.5683 9.72141 12.8149C10.1486 13.0616 10.4949 12.7998 10.4949 12.2301C10.4949 11.6604 10.1486 10.9987 9.72141 10.7519C9.29406 10.5054 8.94775 10.7672 8.94775 11.3369Z" fill="white"/>
<path id="Vector_30" d="M8.87209 7.15754C8.85539 7.15754 8.83846 7.15569 8.8215 7.15161C8.76446 7.13825 8.71505 7.1028 8.68414 7.05303C8.65323 7.00326 8.64335 6.94325 8.65667 6.8862L9.0098 5.37704C9.01593 5.34829 9.02773 5.32106 9.04452 5.29693C9.0613 5.27281 9.08273 5.25227 9.10755 5.23653C9.13236 5.22079 9.16007 5.21015 9.18905 5.20525C9.21803 5.20034 9.24769 5.20127 9.27631 5.20797C9.30492 5.21467 9.33192 5.22701 9.3557 5.24427C9.37949 5.26153 9.3996 5.28336 9.41484 5.30849C9.43009 5.33362 9.44017 5.36153 9.4445 5.3906C9.44883 5.41967 9.44731 5.44931 9.44004 5.47779L9.08691 6.98695C9.07556 7.03543 9.04817 7.07866 9.00918 7.10962C8.97019 7.14059 8.92188 7.15747 8.87209 7.15754Z" fill="#2E373D"/>
</g>
</g>
<defs>
<clipPath id="clip0_2507_5181">
<rect width="19" height="19" fill="white" transform="translate(0 0.70752)"/>
</clipPath>
</defs>
</svg>
