<svg width="28" height="28" viewBox="0 0 28 28" fill="none" xmlns="http://www.w3.org/2000/svg">
<g id="icon-akcii">
<g id="stocks">
<path id="Vector" d="M4.79807 17.3537C4.71384 17.3538 4.63043 17.3377 4.55267 17.3062C4.47491 17.2747 4.40434 17.2285 4.34506 17.1703C4.09662 16.9268 4.09807 16.5334 4.34824 16.2917L8.71108 12.0759L12.7503 13.6151L16.5377 9.43988L20.622 5.54895C20.8739 5.30891 21.2781 5.31301 21.5248 5.55824C21.7715 5.80344 21.7672 6.19676 21.5152 6.43676L17.4642 10.2961L13.1164 15.089L9.0203 13.5281L5.24795 17.1733C5.12846 17.2891 4.96666 17.3539 4.79807 17.3537Z" fill="#FF4757"/>
<path id="Vector_2" d="M5.59498 24.0009C5.32093 24.0009 5.04748 23.9307 4.79807 23.7906C4.29834 23.5098 4 23.007 4 22.4455V7.5439C4 7.11499 4.35727 6.76733 4.79803 6.76733C5.2388 6.76733 5.59606 7.11499 5.59606 7.5439V22.4455L22.799 12.6573C23.1795 12.4409 23.6682 12.5654 23.8908 12.9358C24.1132 13.306 23.9851 13.7816 23.6046 13.9981L6.39787 23.7884C6.14569 23.9302 5.87004 24.0009 5.59498 24.0009Z" fill="url(#paint0_linear_2382_9357)"/>
<path id="Vector_3" d="M9.82946 11.2721L9.42944 11.0503C9.22395 10.9364 8.9566 10.9479 8.66424 11.1122C8.0159 11.4764 7.49036 12.4536 7.49036 13.2948C7.49036 13.7382 7.63647 14.0552 7.86954 14.2026L7.8695 14.2027L8.31753 14.4518C8.52069 14.556 9.82946 11.2721 9.82946 11.2721Z" fill="url(#paint1_linear_2382_9357)"/>
<path id="Vector_4" d="M10.2402 12.1984C10.2402 11.3572 9.71464 10.9706 9.06634 11.3348C8.418 11.6991 7.89246 12.6763 7.89246 13.5174C7.89246 14.3586 8.41804 14.7452 9.06634 14.381C9.71464 14.0168 10.2402 13.0396 10.2402 12.1984Z" fill="url(#paint2_linear_2382_9357)"/>
<path id="Vector_5" d="M13.8977 12.1442L13.4977 11.9224C13.2922 11.8085 13.0248 11.82 12.7325 11.9842C12.0841 12.3485 11.5586 13.3257 11.5586 14.1668C11.5586 14.6103 11.7047 14.9273 11.9378 15.0747L11.9378 15.0748L12.3858 15.3239C12.5889 15.4281 13.8977 12.1442 13.8977 12.1442Z" fill="url(#paint3_linear_2382_9357)"/>
<path id="Vector_6" d="M14.3085 13.0707C14.3085 12.2296 13.7829 11.8429 13.1346 12.2071C12.4863 12.5714 11.9607 13.5486 11.9607 14.3897C11.9607 15.2309 12.4863 15.6176 13.1346 15.2533C13.7829 14.8891 14.3085 13.9119 14.3085 13.0707Z" fill="url(#paint4_linear_2382_9357)"/>
<path id="Vector_7" d="M17.9659 8.39318L17.5659 8.17142C17.3604 8.05748 17.0931 8.069 16.8007 8.23326C16.1524 8.59751 15.6268 9.5747 15.6268 10.4159C15.6268 10.8593 15.7729 11.1763 16.0061 11.3238L16.006 11.3238L16.454 11.573C16.6572 11.6772 17.9659 8.39318 17.9659 8.39318Z" fill="url(#paint5_linear_2382_9357)"/>
<path id="Vector_8" d="M18.3767 9.31975C18.3767 8.47858 17.8511 8.09194 17.2028 8.45616C16.5545 8.82042 16.0289 9.7976 16.0289 10.6388C16.0289 11.4799 16.5545 11.8666 17.2028 11.5024C17.8511 11.1381 18.3767 10.1609 18.3767 9.31975Z" fill="url(#paint6_linear_2382_9357)"/>
<path id="Vector_9" d="M22.0331 4.29796L21.6331 4.07621C21.4276 3.96226 21.1602 3.97378 20.8679 4.13804C20.2195 4.5023 19.694 5.47948 19.694 6.32066C19.694 6.76409 19.8401 7.08112 20.0732 7.22851L20.0732 7.22858L20.5212 7.47772C20.7243 7.58194 22.0331 4.29796 22.0331 4.29796Z" fill="url(#paint7_linear_2382_9357)"/>
<path id="Vector_10" d="M22.4426 5.22429C22.4426 4.38312 21.917 3.99648 21.2687 4.3607C20.6204 4.72496 20.0948 5.70214 20.0948 6.54331C20.0948 7.38448 20.6204 7.77112 21.2687 7.40691C21.917 7.04269 22.4426 6.06546 22.4426 5.22429Z" fill="url(#paint8_linear_2382_9357)"/>
<path id="Vector_11" d="M8.46692 18.2478C8.46692 18.0335 8.64567 17.8595 8.86594 17.8595C9.087 17.8595 9.26575 18.0335 9.26575 18.2478C9.26575 18.4621 9.087 18.6361 8.86594 18.6361C8.64563 18.6361 8.46692 18.4622 8.46692 18.2478ZM8.46692 16.6077C8.46692 16.3934 8.64567 16.2194 8.86594 16.2194C9.087 16.2194 9.26575 16.3934 9.26575 16.6077C9.26575 16.822 9.087 16.996 8.86594 16.996C8.64563 16.996 8.46692 16.822 8.46692 16.6077ZM8.46692 14.9676C8.46692 14.7533 8.64567 14.5793 8.86594 14.5793C9.087 14.5793 9.26575 14.7533 9.26575 14.9676C9.26575 15.1827 9.087 15.3559 8.86594 15.3559C8.81352 15.3559 8.76161 15.3459 8.71318 15.3264C8.66474 15.3069 8.62073 15.2783 8.58367 15.2423C8.54661 15.2062 8.51722 15.1634 8.49718 15.1162C8.47715 15.0691 8.46687 15.0186 8.46692 14.9676ZM12.5353 16.3219C12.5352 16.2709 12.5455 16.2204 12.5655 16.1733C12.5856 16.1261 12.615 16.0833 12.652 16.0473C12.6891 16.0112 12.7331 15.9826 12.7815 15.9631C12.83 15.9436 12.8819 15.9336 12.9343 15.9336C13.1545 15.9336 13.3325 16.1076 13.3325 16.3219C13.3325 16.5363 13.1546 16.7102 12.9343 16.7102C12.8819 16.7103 12.83 16.7003 12.7815 16.6808C12.7331 16.6613 12.6891 16.6327 12.652 16.5966C12.615 16.5605 12.5856 16.5177 12.5655 16.4706C12.5455 16.4234 12.5352 16.3729 12.5353 16.3219ZM16.6029 13.7562C16.6028 13.7051 16.6131 13.6546 16.6331 13.6075C16.6532 13.5604 16.6826 13.5176 16.7196 13.4815C16.7567 13.4454 16.8007 13.4168 16.8491 13.3973C16.8976 13.3778 16.9495 13.3678 17.0019 13.3679C17.2222 13.3679 17.4009 13.5419 17.4009 13.7562C17.4009 13.9705 17.2222 14.1444 17.0019 14.1444C16.9495 14.1445 16.8976 14.1345 16.8491 14.115C16.8007 14.0955 16.7567 14.0669 16.7196 14.0308C16.6826 13.9948 16.6532 13.9519 16.6331 13.9048C16.6131 13.8577 16.6028 13.8072 16.6029 13.7562ZM16.6029 12.1635C16.6028 12.1125 16.6131 12.0619 16.6331 12.0148C16.6532 11.9677 16.6826 11.9249 16.7196 11.8888C16.7567 11.8527 16.8007 11.8241 16.8491 11.8046C16.8976 11.7851 16.9495 11.7751 17.0019 11.7752C17.2222 11.7752 17.4009 11.9491 17.4009 12.1635C17.4009 12.3786 17.2222 12.5525 17.0019 12.5525C16.7808 12.5525 16.6029 12.3786 16.6029 12.1635ZM20.6705 11.4249C20.6705 11.2106 20.8492 11.0366 21.0695 11.0366C21.2897 11.0366 21.4685 11.2106 21.4685 11.4249C21.4685 11.6392 21.2897 11.8132 21.0695 11.8132C20.8492 11.8132 20.6705 11.6393 20.6705 11.4249ZM20.6705 9.77085C20.6705 9.55651 20.8492 9.38257 21.0695 9.38257C21.2897 9.38257 21.4685 9.55651 21.4685 9.77085C21.4685 9.98514 21.2897 10.1591 21.0695 10.1591C20.8492 10.1591 20.6705 9.98514 20.6705 9.77085ZM20.6705 8.11753C20.6704 8.06652 20.6807 8.01601 20.7007 7.96888C20.7208 7.92175 20.7502 7.87892 20.7872 7.84286C20.8243 7.80679 20.8683 7.77819 20.9167 7.7587C20.9652 7.73921 21.0171 7.7292 21.0695 7.72925C21.1219 7.7292 21.1738 7.73921 21.2222 7.75871C21.2707 7.77821 21.3147 7.80681 21.3517 7.84287C21.3888 7.87893 21.4182 7.92176 21.4382 7.96889C21.4583 8.01601 21.4685 8.06653 21.4685 8.11753C21.4685 8.33186 21.2897 8.50581 21.0695 8.50581C20.8492 8.50581 20.6705 8.33186 20.6705 8.11753Z" fill="#D7D1EB"/>
<g id="Group">
<path id="Vector_12" d="M8.86782 20.2761C9.08917 20.2761 9.26861 20.1015 9.26861 19.8861C9.26861 19.6707 9.08917 19.4961 8.86782 19.4961C8.64648 19.4961 8.46704 19.6707 8.46704 19.8861C8.46704 20.1015 8.64648 20.2761 8.86782 20.2761Z" fill="#D7D1EB"/>
<path id="Vector_13" d="M12.9326 18.008C13.154 18.008 13.3334 17.8334 13.3334 17.618C13.3334 17.4026 13.154 17.228 12.9326 17.228C12.7113 17.228 12.5319 17.4026 12.5319 17.618C12.5319 17.8334 12.7113 18.008 12.9326 18.008Z" fill="#D7D1EB"/>
<path id="Vector_14" d="M17.002 15.7385C17.2233 15.7385 17.4028 15.5639 17.4028 15.3485C17.4028 15.1331 17.2233 14.9585 17.002 14.9585C16.7806 14.9585 16.6012 15.1331 16.6012 15.3485C16.6012 15.5639 16.7806 15.7385 17.002 15.7385Z" fill="#D7D1EB"/>
<path id="Vector_15" d="M21.0691 13.469C21.2905 13.469 21.4699 13.2944 21.4699 13.079C21.4699 12.8636 21.2905 12.689 21.0691 12.689C20.8478 12.689 20.6683 12.8636 20.6683 13.079C20.6683 13.2944 20.8478 13.469 21.0691 13.469Z" fill="#D7D1EB"/>
</g>
</g>
</g>
<defs>
<linearGradient id="paint0_linear_2382_9357" x1="14" y1="26.9184" x2="14" y2="14.4621" gradientUnits="userSpaceOnUse">
<stop offset="0.032" stop-color="#004446"/>
<stop offset="0.081" stop-color="#004446"/>
<stop offset="0.356" stop-color="#3C797B"/>
<stop offset="0.532" stop-color="#318789"/>
<stop offset="1" stop-color="#61ACAE"/>
</linearGradient>
<linearGradient id="paint1_linear_2382_9357" x1="8.2187" y1="13.0491" x2="9.70768" y2="10.3987" gradientUnits="userSpaceOnUse">
<stop stop-color="#CC8241"/>
<stop offset="0.388" stop-color="#E5A23D"/>
<stop offset="0.77" stop-color="#F8BC39"/>
<stop offset="1" stop-color="#FFC538"/>
</linearGradient>
<linearGradient id="paint2_linear_2382_9357" x1="9.06634" y1="18.1763" x2="9.06634" y2="9.91709" gradientUnits="userSpaceOnUse">
<stop stop-color="#FFC538"/>
<stop offset="0.546" stop-color="#FAD73E"/>
<stop offset="1" stop-color="#F7E041"/>
</linearGradient>
<linearGradient id="paint3_linear_2382_9357" x1="12.2869" y1="13.9211" x2="13.7759" y2="11.2708" gradientUnits="userSpaceOnUse">
<stop stop-color="#FD7C34"/>
<stop offset="1" stop-color="#FD7C34"/>
</linearGradient>
<linearGradient id="paint4_linear_2382_9357" x1="13.1346" y1="19.0486" x2="13.1346" y2="10.7894" gradientUnits="userSpaceOnUse">
<stop stop-color="#FD7C34"/>
<stop offset="0.073" stop-color="#BB5922"/>
<stop offset="0.483" stop-color="#FD7C34"/>
<stop offset="0.806" stop-color="#FFB489"/>
<stop offset="1" stop-color="#FFD8C2"/>
</linearGradient>
<linearGradient id="paint5_linear_2382_9357" x1="16.3552" y1="10.1702" x2="17.8442" y2="7.51984" gradientUnits="userSpaceOnUse">
<stop stop-color="#2F878A"/>
<stop offset="1" stop-color="#06DAAE"/>
</linearGradient>
<linearGradient id="paint6_linear_2382_9357" x1="17.2028" y1="15.2976" x2="17.2028" y2="7.03843" gradientUnits="userSpaceOnUse">
<stop stop-color="#06DAAE"/>
<stop offset="0.081" stop-color="#16DCB3"/>
<stop offset="0.394" stop-color="#4FE5C6"/>
<stop offset="0.663" stop-color="#78EBD4"/>
<stop offset="0.873" stop-color="#92EFDC"/>
<stop offset="1" stop-color="#9BF0DF"/>
</linearGradient>
<linearGradient id="paint7_linear_2382_9357" x1="20.4223" y1="6.07495" x2="21.9113" y2="3.42463" gradientUnits="userSpaceOnUse">
<stop stop-color="#00568D"/>
<stop offset="0.992" stop-color="#0197F8"/>
</linearGradient>
<linearGradient id="paint8_linear_2382_9357" x1="21.2687" y1="11.2021" x2="21.2687" y2="2.94297" gradientUnits="userSpaceOnUse">
<stop stop-color="#2F97F7"/>
<stop offset="1" stop-color="#59ACF9"/>
</linearGradient>
</defs>
</svg>
