<svg width="24" height="24" viewBox="0 0 24 24" fill="none" xmlns="http://www.w3.org/2000/svg">
<path d="M18.3077 2.11117L15.525 0.490096C14.1984 -0.258635 12.4803 -0.176042 10.6018 0.921907C6.40343 3.3759 3 9.95937 3 15.6265C3 18.8342 4.091 21.0597 5.79878 21.9431L8.46925 23.508L18.3077 2.11117Z" fill="url(#paint0_linear_3239_30055)"/>
<path d="M8.45791 19.3278L3.01172 16.1445C3.12326 19.0741 4.18587 21.1089 5.80022 21.944L8.47074 23.5089L9.5046 21.2604L8.45791 19.3278Z" fill="url(#paint1_linear_3239_30055)"/>
<path d="M21.0005 8.37243C21.0005 2.70526 17.597 0.100429 13.3987 2.55442C9.20035 5.00836 5.79688 11.5918 5.79688 17.259C5.79688 22.9262 9.20035 25.531 13.3987 23.077C17.5971 20.6231 21.0005 14.0396 21.0005 8.37243Z" fill="url(#paint2_linear_3239_30055)"/>
<path d="M13.3987 2.55425C9.20035 5.0082 5.79688 11.5917 5.79688 17.2588C5.79688 20.3469 6.80754 22.5253 8.40656 23.4718L19.1315 2.72614C17.7378 1.38229 15.6864 1.2171 13.3987 2.55425Z" fill="url(#paint3_linear_3239_30055)"/>
<path d="M19.5373 9.22617C19.5373 4.64899 16.7884 2.5452 13.3976 4.52716C10.0067 6.50912 7.25781 11.8264 7.25781 16.4035C7.25781 20.9807 10.0067 23.0845 13.3976 21.1025C16.7885 19.1206 19.5373 13.8034 19.5373 9.22617Z" fill="url(#paint4_linear_3239_30055)"/>
<path d="M16.4921 3.84766C17.3346 4.774 17.8388 6.2798 17.8388 8.23955C17.8388 12.8167 15.09 18.1339 11.6991 20.1159C10.5709 20.7753 9.5139 20.9819 8.60547 20.7961C9.73068 22.0334 11.4594 22.2366 13.3985 21.1032C16.7894 19.1213 19.5382 13.804 19.5382 9.22687C19.5382 6.17269 18.314 4.22026 16.4921 3.84766Z" fill="url(#paint5_linear_3239_30055)"/>
<path d="M12.1198 6.42071L12.1193 6.42042V6.42052C12.0112 6.36383 11.8728 6.37262 11.722 6.4608C11.3761 6.663 11.0957 7.20537 11.0957 7.67222V8.70566L12.183 9.34127L13.2156 7.06132L12.1219 6.42202C12.1212 6.42154 12.1205 6.42105 12.1198 6.42071Z" fill="url(#paint6_linear_3239_30055)"/>
<path d="M13.8753 9.04392C14.6539 8.58886 15.0776 8.70035 15.0776 9.43196C15.0776 10.1636 14.6539 10.7837 13.8753 11.2388L12.2888 12.1661V9.97122L13.8753 9.04392Z" fill="url(#paint7_linear_3239_30055)"/>
<path fill-rule="evenodd" clip-rule="evenodd" d="M15.0776 9.43196C15.0776 8.70035 14.6539 8.58886 13.8753 9.04392L12.2888 9.97122V12.1661L13.8753 11.2388C14.6539 10.7837 15.0776 10.1636 15.0776 9.43196Z" fill="url(#paint8_linear_3239_30055)"/>
<path fill-rule="evenodd" clip-rule="evenodd" d="M15.8956 11.3954C16.4573 10.668 16.9756 9.24535 16.9756 8.31417C16.9756 7.06251 16.0224 6.44122 14.7323 6.97398L13.4798 7.6522L12.3552 8.30955V7.27611C12.3552 6.8092 12.0748 6.59463 11.7289 6.79678C11.3831 6.99893 11.1027 7.5413 11.1027 8.0082V9.04164L10.3172 9.50078C9.9713 9.70297 9.69091 10.2297 9.69091 10.6966C9.69091 11.1635 9.36375 12.6846 10.3172 12.5189L10.7023 12.2938V16.8966L10.3172 17.1217C9.9713 17.3239 9.52773 17.6545 9.69093 19.5662C9.69093 20.0331 9.97133 20.2477 10.3172 20.0456L11.1027 19.5864V20.6599C11.1027 21.1269 11.3831 21.3414 11.729 21.1393C12.0749 20.9371 12.3552 20.3948 12.3552 19.9279V18.8804L13.7029 18.0222C14.1096 17.4889 14.3119 17.1487 14.1096 16.3292C13.9459 15.6666 13.3756 15.4377 13.0483 15.6034L12.2888 16.0371V13.7358C14.954 12.5069 15.3393 11.9588 15.8956 11.3954ZM15.0776 9.43196C15.0776 8.70035 14.6539 8.58886 13.8753 9.04392L12.2888 9.97122V12.1661L13.8753 11.2388C14.6539 10.7837 15.0776 10.1636 15.0776 9.43196Z" fill="url(#paint9_linear_3239_30055)"/>
<path d="M12.1824 19.6877V18.6543L11.3969 19.1134C11.2909 19.1754 11.1911 19.1979 11.1035 19.1862L11.1037 19.1866C11.1268 19.3598 11.1955 19.4854 11.2935 19.5522L12.3898 20.1941L12.3897 20.1936C12.2628 20.1131 12.1824 19.9369 12.1824 19.6877Z" fill="url(#paint10_linear_3239_30055)"/>
<path d="M11.0954 8.70703L10.3099 9.16622C9.96399 9.36841 9.68359 9.91078 9.68359 10.3776C9.68359 10.6334 9.76811 10.8128 9.90109 10.8901L9.90076 10.8906L10.695 11.3549L10.9894 11.527L12.1826 9.34264L11.0954 8.70703Z" fill="url(#paint11_linear_3239_30055)"/>
<path d="M15.1462 6.39278L16.5813 7.12391L17.3995 7.2895C17.0068 6.89191 15.6458 6.28851 15.1462 6.39278Z" fill="#D9D9D9"/>
<path d="M15.1462 6.39278L16.5813 7.12391L17.3995 7.2895C17.0068 6.89191 15.6458 6.28851 15.1462 6.39278Z" fill="url(#paint12_linear_3239_30055)"/>
<path d="M13.3341 7.5123L13.4722 8.61489L16.5813 7.12391L15.1462 6.39278L13.3086 7.28957C13.3249 7.35544 13.3341 7.42969 13.3341 7.5123Z" fill="#D9D9D9"/>
<path d="M13.3341 7.5123L13.4722 8.61489L16.5813 7.12391L15.1462 6.39278L13.3086 7.28957C13.3249 7.35544 13.3341 7.42969 13.3341 7.5123Z" fill="url(#paint13_linear_3239_30055)"/>
<path d="M12.4824 15.3594L13.9175 16.0905L14.353 16.0904C13.9603 15.6928 12.9819 15.2551 12.4824 15.3594Z" fill="#D9D9D9"/>
<path d="M12.4824 15.3594L13.9175 16.0905L14.353 16.0904C13.9603 15.6928 12.9819 15.2551 12.4824 15.3594Z" fill="url(#paint14_linear_3239_30055)"/>
<path d="M12.5205 15.7091L12.6585 16.8117L13.9175 16.0905L12.4824 15.3594L12.4949 15.4864C12.5113 15.5523 12.5205 15.6265 12.5205 15.7091Z" fill="#D9D9D9"/>
<path d="M12.5205 15.7091L12.6585 16.8117L13.9175 16.0905L12.4824 15.3594L12.4949 15.4864C12.5113 15.5523 12.5205 15.6265 12.5205 15.7091Z" fill="url(#paint15_linear_3239_30055)"/>
<path d="M10.695 16.5605L10.3099 16.7856C9.96399 16.9878 9.68359 17.5302 9.68359 17.9971C9.68359 18.234 9.75598 18.4055 9.87228 18.4911L10.9951 19.1477L11.0004 19.1508L11.7822 17.1962L10.695 16.5605Z" fill="url(#paint16_linear_3239_30055)"/>
<path d="M11.7825 11.2676L11.3974 11.4927C11.2417 11.5837 11.0995 11.5896 10.9899 11.5266L10.9897 11.5271L10.6953 11.355V16.5621L11.7825 17.1977V11.2676Z" fill="url(#paint17_linear_3239_30055)"/>
<path d="M14.954 9.3447C15.7325 8.88964 16.1563 9.00113 16.1563 9.73274C16.1563 10.4643 15.7325 11.0845 14.954 11.5396L13.3675 12.4669V10.272L14.954 9.3447Z" fill="url(#paint18_linear_3239_30055)"/>
<path fill-rule="evenodd" clip-rule="evenodd" d="M16.1563 9.73274C16.1563 9.00113 15.7325 8.88964 14.954 9.3447L13.3675 10.272V12.4669L14.954 11.5396C15.7325 11.0845 16.1563 10.4643 16.1563 9.73274Z" fill="url(#paint19_linear_3239_30055)"/>
<path fill-rule="evenodd" clip-rule="evenodd" d="M16.9742 11.6962C17.5359 10.9688 18.0543 9.54613 18.0543 8.61495C18.0543 7.3633 17.1011 6.742 15.8109 7.27476L14.5584 7.95298L13.4338 8.61033V7.57689C13.4338 7.10999 13.1534 6.89542 12.8076 7.09756C12.4617 7.29971 12.1813 7.84208 12.1813 8.30898V9.34242L11.3958 9.80156C11.0499 10.0038 10.7695 10.5461 10.7695 11.013C10.7695 11.4799 11.0499 11.6945 11.3958 11.4924L11.7809 11.2672V17.1974L11.3958 17.4225C11.0499 17.6247 10.7695 18.167 10.7695 18.6339C10.7695 19.1009 11.0499 19.3154 11.3958 19.1133L12.1813 18.6541V19.6876C12.1813 20.1545 12.4617 20.3691 12.8076 20.1669C13.1535 19.9648 13.4338 19.4224 13.4338 18.9555V17.922L13.6577 17.77C14.187 17.4108 14.5426 17.0104 14.4542 16.3768C14.3536 15.6551 13.6947 16.1723 13.3675 16.3379V14.0366C16.0326 12.8076 16.4179 12.2596 16.9742 11.6962ZM16.1563 9.73274C16.1563 9.00113 15.7325 8.88964 14.954 9.3447L13.3675 10.272V12.4669L14.954 11.5396C15.7325 11.0845 16.1563 10.4643 16.1563 9.73274Z" fill="url(#paint20_linear_3239_30055)"/>
<path d="M16.156 9.73273C16.156 9.03451 15.7698 8.90153 15.0579 9.28631C14.9907 9.9357 14.5768 10.4887 13.8664 10.904L13.3672 11.1958V12.467L14.9537 11.5396C15.7322 11.0845 16.156 10.4643 16.156 9.73273Z" fill="url(#paint21_linear_3239_30055)"/>
<path d="M14.5584 7.95298L13.4338 8.61033V7.57689C13.4338 7.10999 13.1535 6.89542 12.8076 7.09756C12.4617 7.29976 12.1813 7.84213 12.1813 8.30898V9.34242L11.3958 9.80156C11.0499 10.0038 10.7695 10.5461 10.7695 11.013C10.7695 11.4799 11.0499 11.6944 11.3958 11.4923L11.7809 11.2672V17.1974L11.3958 17.4225C11.0499 17.6247 10.7695 18.167 10.7695 18.6339C10.7695 19.1008 11.0499 19.3154 11.3958 19.1133L11.4612 19.0751L13.3675 15.3874V14.0366L14.3682 13.4517L15.6304 11.0101C15.4489 11.2047 15.2232 11.3822 14.954 11.5396L13.3675 12.4669V10.272L14.954 9.34466C15.7325 8.8896 16.1563 9.00108 16.1563 9.73269C16.1563 9.84019 16.1461 9.94498 16.128 10.0475L17.4851 7.42245C17.1778 7.0152 16.6171 6.94186 15.8109 7.27476L14.5584 7.95298Z" fill="url(#paint22_linear_3239_30055)"/>
<defs>
<linearGradient id="paint0_linear_3239_30055" x1="8.11593" y1="13.0476" x2="15.5335" y2="0.357206" gradientUnits="userSpaceOnUse">
<stop stop-color="#BA5C25"/>
<stop offset="0.049" stop-color="#C06127"/>
<stop offset="0.277" stop-color="#DA7331"/>
<stop offset="0.414" stop-color="#E37A34"/>
<stop offset="0.473" stop-color="#E98335"/>
<stop offset="0.571" stop-color="#F99D37"/>
<stop offset="0.599" stop-color="#FFA538"/>
</linearGradient>
<linearGradient id="paint1_linear_3239_30055" x1="6.25814" y1="14.8346" x2="6.25814" y2="19.5213" gradientUnits="userSpaceOnUse">
<stop offset="0.032" stop-color="#8B451C"/>
<stop offset="1" stop-color="#8B451C" stop-opacity="0"/>
</linearGradient>
<linearGradient id="paint2_linear_3239_30055" x1="13.3987" y1="31.5826" x2="0.597515" y2="9.68227" gradientUnits="userSpaceOnUse">
<stop stop-color="#FFA538"/>
<stop offset="1" stop-color="#F7E041"/>
</linearGradient>
<linearGradient id="paint3_linear_3239_30055" x1="15.772" y1="14.2027" x2="10.9207" y2="11.4361" gradientUnits="userSpaceOnUse">
<stop offset="0.032" stop-color="white"/>
<stop offset="1" stop-color="white" stop-opacity="0"/>
</linearGradient>
<linearGradient id="paint4_linear_3239_30055" x1="13.3976" y1="16.5657" x2="5.3537" y2="2.80423" gradientUnits="userSpaceOnUse">
<stop stop-color="#FFA538"/>
<stop offset="1" stop-color="#F7E041"/>
</linearGradient>
<linearGradient id="paint5_linear_3239_30055" x1="14.0719" y1="22.6393" x2="14.0719" y2="2.59291" gradientUnits="userSpaceOnUse">
<stop stop-color="#BA5C25"/>
<stop offset="0.049" stop-color="#C06127"/>
<stop offset="0.277" stop-color="#DA7331"/>
<stop offset="0.414" stop-color="#E37A34"/>
<stop offset="0.473" stop-color="#E98335"/>
<stop offset="0.571" stop-color="#F99D37"/>
<stop offset="0.599" stop-color="#FFA538"/>
</linearGradient>
<linearGradient id="paint6_linear_3239_30055" x1="11.3357" y1="8.84598" x2="12.592" y2="6.69671" gradientUnits="userSpaceOnUse">
<stop stop-color="#BA5C25"/>
<stop offset="0.033" stop-color="#C06127"/>
<stop offset="0.189" stop-color="#DA7331"/>
<stop offset="0.283" stop-color="#E37A34"/>
<stop offset="0.413" stop-color="#E98335"/>
<stop offset="0.628" stop-color="#F99D37"/>
<stop offset="0.689" stop-color="#FFA538"/>
</linearGradient>
<linearGradient id="paint7_linear_3239_30055" x1="13.3062" y1="22.891" x2="13.3062" y2="5.59629" gradientUnits="userSpaceOnUse">
<stop offset="0.032" stop-color="#8B451C"/>
<stop offset="1" stop-color="#8B451C" stop-opacity="0"/>
</linearGradient>
<linearGradient id="paint8_linear_3239_30055" x1="13.3062" y1="22.891" x2="13.3062" y2="5.59629" gradientUnits="userSpaceOnUse">
<stop offset="0.032" stop-color="#8B451C"/>
<stop offset="1" stop-color="#8B451C" stop-opacity="0"/>
</linearGradient>
<linearGradient id="paint9_linear_3239_30055" x1="13.3062" y1="22.891" x2="13.3062" y2="5.59629" gradientUnits="userSpaceOnUse">
<stop offset="0.032" stop-color="#8B451C"/>
<stop offset="1" stop-color="#8B451C" stop-opacity="0"/>
</linearGradient>
<linearGradient id="paint10_linear_3239_30055" x1="11.7467" y1="18.5398" x2="11.7467" y2="20.1459" gradientUnits="userSpaceOnUse">
<stop stop-color="#BA5C25"/>
<stop offset="0.042" stop-color="#C06127"/>
<stop offset="0.239" stop-color="#DA7331"/>
<stop offset="0.358" stop-color="#E37A34"/>
<stop offset="0.51" stop-color="#E98335"/>
<stop offset="0.763" stop-color="#F99D37"/>
<stop offset="0.835" stop-color="#FFA538"/>
</linearGradient>
<linearGradient id="paint11_linear_3239_30055" x1="10.2779" y1="10.862" x2="11.2251" y2="9.24147" gradientUnits="userSpaceOnUse">
<stop stop-color="#BA5C25"/>
<stop offset="0.033" stop-color="#C06127"/>
<stop offset="0.189" stop-color="#DA7331"/>
<stop offset="0.283" stop-color="#E37A34"/>
<stop offset="0.413" stop-color="#E98335"/>
<stop offset="0.628" stop-color="#F99D37"/>
<stop offset="0.689" stop-color="#FFA538"/>
</linearGradient>
<linearGradient id="paint12_linear_3239_30055" x1="14.3435" y1="7.99176" x2="14.8324" y2="6.43386" gradientUnits="userSpaceOnUse">
<stop stop-color="#BA5C25"/>
<stop offset="0.033" stop-color="#C06127"/>
<stop offset="0.189" stop-color="#DA7331"/>
<stop offset="0.283" stop-color="#E37A34"/>
<stop offset="0.413" stop-color="#E98335"/>
<stop offset="0.628" stop-color="#F99D37"/>
<stop offset="0.689" stop-color="#FFA538"/>
</linearGradient>
<linearGradient id="paint13_linear_3239_30055" x1="14.3435" y1="7.99176" x2="14.8324" y2="6.43386" gradientUnits="userSpaceOnUse">
<stop stop-color="#BA5C25"/>
<stop offset="0.033" stop-color="#C06127"/>
<stop offset="0.189" stop-color="#DA7331"/>
<stop offset="0.283" stop-color="#E37A34"/>
<stop offset="0.413" stop-color="#E98335"/>
<stop offset="0.628" stop-color="#F99D37"/>
<stop offset="0.689" stop-color="#FFA538"/>
</linearGradient>
<linearGradient id="paint14_linear_3239_30055" x1="14.1807" y1="16.5199" x2="14.6696" y2="14.962" gradientUnits="userSpaceOnUse">
<stop stop-color="#BA5C25"/>
<stop offset="0.033" stop-color="#C06127"/>
<stop offset="0.189" stop-color="#DA7331"/>
<stop offset="0.283" stop-color="#E37A34"/>
<stop offset="0.413" stop-color="#E98335"/>
<stop offset="0.628" stop-color="#F99D37"/>
<stop offset="0.689" stop-color="#FFA538"/>
</linearGradient>
<linearGradient id="paint15_linear_3239_30055" x1="14.1807" y1="16.5199" x2="14.6696" y2="14.962" gradientUnits="userSpaceOnUse">
<stop stop-color="#BA5C25"/>
<stop offset="0.033" stop-color="#C06127"/>
<stop offset="0.189" stop-color="#DA7331"/>
<stop offset="0.283" stop-color="#E37A34"/>
<stop offset="0.413" stop-color="#E98335"/>
<stop offset="0.628" stop-color="#F99D37"/>
<stop offset="0.689" stop-color="#FFA538"/>
</linearGradient>
<linearGradient id="paint16_linear_3239_30055" x1="10.2572" y1="18.5296" x2="11.1258" y2="17.0435" gradientUnits="userSpaceOnUse">
<stop stop-color="#BA5C25"/>
<stop offset="0.033" stop-color="#C06127"/>
<stop offset="0.189" stop-color="#DA7331"/>
<stop offset="0.283" stop-color="#E37A34"/>
<stop offset="0.413" stop-color="#E98335"/>
<stop offset="0.628" stop-color="#F99D37"/>
<stop offset="0.689" stop-color="#FFA538"/>
</linearGradient>
<linearGradient id="paint17_linear_3239_30055" x1="10.4189" y1="15.7143" x2="13.0274" y2="11.2516" gradientUnits="userSpaceOnUse">
<stop stop-color="#BA5C25"/>
<stop offset="0.033" stop-color="#C06127"/>
<stop offset="0.189" stop-color="#DA7331"/>
<stop offset="0.283" stop-color="#E37A34"/>
<stop offset="0.384" stop-color="#E98335"/>
<stop offset="0.551" stop-color="#F99D37"/>
<stop offset="0.599" stop-color="#FFA538"/>
<stop offset="0.997" stop-color="#BA5C25"/>
</linearGradient>
<linearGradient id="paint18_linear_3239_30055" x1="14.4384" y1="21.9322" x2="14.4384" y2="4.49879" gradientUnits="userSpaceOnUse">
<stop stop-color="#FFA538"/>
<stop offset="1" stop-color="#F7E041"/>
</linearGradient>
<linearGradient id="paint19_linear_3239_30055" x1="14.4384" y1="21.9322" x2="14.4384" y2="4.49879" gradientUnits="userSpaceOnUse">
<stop stop-color="#FFA538"/>
<stop offset="1" stop-color="#F7E041"/>
</linearGradient>
<linearGradient id="paint20_linear_3239_30055" x1="14.4384" y1="21.9322" x2="14.4384" y2="4.49879" gradientUnits="userSpaceOnUse">
<stop stop-color="#FFA538"/>
<stop offset="1" stop-color="#F7E041"/>
</linearGradient>
<linearGradient id="paint21_linear_3239_30055" x1="15.4741" y1="9.45239" x2="13.4405" y2="12.9315" gradientUnits="userSpaceOnUse">
<stop stop-color="#BA5C25"/>
<stop offset="0.029" stop-color="#C06127"/>
<stop offset="0.162" stop-color="#DA7331"/>
<stop offset="0.243" stop-color="#E37A34"/>
<stop offset="0.59" stop-color="#FFA538"/>
<stop offset="0.711" stop-color="#FA9E37"/>
<stop offset="0.89" stop-color="#ED8A35"/>
<stop offset="1" stop-color="#E37A34"/>
</linearGradient>
<linearGradient id="paint22_linear_3239_30055" x1="16.7747" y1="14.9334" x2="11.8706" y2="11.8174" gradientUnits="userSpaceOnUse">
<stop offset="0.032" stop-color="white"/>
<stop offset="1" stop-color="white" stop-opacity="0"/>
</linearGradient>
</defs>
</svg>
