<svg width="24" height="24" viewBox="0 0 24 24" fill="none" xmlns="http://www.w3.org/2000/svg">
<path d="M5.44727 18.6128V19.8405C5.44727 20.5113 5.87113 21.1282 6.61018 21.5329C7.17741 21.8434 7.86016 22.0005 8.52175 22.0005C9.10974 22.0005 9.68108 21.8763 10.1391 21.6255L21.006 15.6753C21.6376 15.3295 21.9998 14.7745 21.9998 14.1525V12.9248L5.44727 18.6128Z" fill="url(#paint0_linear_2572_14332)"/>
<path d="M20.8369 11.2318C19.7654 10.6452 18.2813 10.6062 17.308 11.1391L6.44087 17.0894C5.80946 17.4352 5.44727 17.9902 5.44727 18.6122C5.44727 19.2831 5.87113 19.8999 6.61018 20.3046C7.17741 20.6152 7.86016 20.7723 8.52175 20.7722C9.10974 20.7722 9.68108 20.6481 10.1391 20.3973L21.0061 14.447C21.6376 14.1012 21.9999 13.5462 21.9999 12.9242C21.9998 12.2534 21.576 11.6365 20.8369 11.2318Z" fill="#E9E5F6"/>
<path d="M7.88281 16.3L9.05412 16.9413L9.4462 16.727L9.47323 15.4292L7.88281 16.3Z" fill="url(#paint1_linear_2572_14332)"/>
<path d="M17.8941 12.1013L7.02704 18.0515C6.42284 18.3823 6.49861 18.9602 7.19627 19.3422C7.89398 19.7243 8.94938 19.7658 9.55359 19.4349L20.4207 13.4847C21.0249 13.1539 20.9491 12.576 20.2514 12.194C19.5537 11.8119 18.4983 11.7705 17.8941 12.1013Z" fill="#221C36"/>
<path d="M9.45401 19.4851L18.6822 1.21379L18.3405 1.02746C18.2763 0.988904 18.1912 0.990094 18.0977 1.04136L9.45946 5.77119C9.25966 5.88058 9.09766 6.17412 9.09766 6.42678V19.6004C9.22545 19.5723 9.34525 19.5337 9.45401 19.4851Z" fill="url(#paint2_linear_2572_14332)"/>
<path d="M9.48828 6.79081V19.373L10.1686 19.0972L18.7613 14.395V1.71338L9.48828 6.79081Z" fill="url(#paint3_linear_2572_14332)"/>
<path d="M18.4453 1.23357L9.80712 5.9634C9.60732 6.07279 9.44531 6.36633 9.44531 6.61898V19.488C9.48251 19.4716 9.51888 19.4544 9.5533 19.4355L10.1701 19.0978V9.42325C10.4142 9.48732 10.7042 9.44363 11.0157 9.27309C11.8829 8.79818 12.586 7.52418 12.586 6.42748C12.586 6.03366 12.495 5.71682 12.3386 5.4937L15.9137 3.53614C15.7574 3.9305 15.6663 4.34705 15.6663 4.74087C15.6663 5.83757 16.3694 6.34164 17.2367 5.86677C17.5481 5.69623 17.8381 5.42233 18.0822 5.09093V14.7681L18.807 14.3713V1.49294C18.8071 1.24029 18.6452 1.12414 18.4453 1.23357Z" fill="url(#paint4_linear_2572_14332)"/>
<path d="M16.622 15.5695C17.0468 14.65 17.3007 13.6469 17.3007 12.7073C17.3007 10.4717 15.8675 9.44416 14.0996 10.4122C12.3316 11.3802 10.8985 13.9772 10.8984 16.2128C10.8984 17.1524 11.1523 17.8775 11.5771 18.3318L16.622 15.5695Z" fill="url(#paint5_linear_2572_14332)"/>
<path d="M16.2683 12.8516L15.8017 13.1071C15.7203 12.389 15.3756 12.0087 14.7869 12.3311C13.5807 12.9916 13.8966 15.052 13.3414 15.3561C13.1882 15.44 13.1117 15.3064 13.1116 15.0401C13.1116 14.8326 13.1668 14.5189 13.2534 14.1818C13.3624 13.7576 13.3232 13.4676 13.1508 13.4583C12.9348 13.4466 12.5519 14.0564 12.4701 14.5439C12.4468 14.6831 12.429 14.8225 12.4176 14.9601L12.0043 15.1864C11.8774 15.2558 11.7188 15.5744 11.7188 15.7597C11.7188 15.9998 11.82 16.0923 11.9845 16.0022L12.4224 15.7625C12.5229 16.4821 12.8915 16.7645 13.4228 16.4736C14.6099 15.8236 14.2652 13.7789 14.8348 13.467C15.0119 13.3701 15.1076 13.5235 15.1076 13.8503C15.1076 14.107 15.0365 14.4762 14.9187 14.8579C14.771 15.3367 14.7986 15.6814 14.9846 15.6963L14.9878 15.6966C15.1785 15.7119 15.5144 15.2226 15.6418 14.7446C15.7158 14.4672 15.7689 14.1859 15.7969 13.9147L16.2485 13.6675C16.3754 13.598 16.534 13.2795 16.534 13.0942C16.534 12.8541 16.4327 12.7616 16.2683 12.8516Z" fill="white"/>
<path d="M8.8322 11.5765C8.82524 11.5719 8.81793 11.5677 8.81032 11.564L7.6618 10.9091V9.46756C7.6618 9.07579 7.52268 8.80148 7.30368 8.68627L7.30372 8.68594L5.97261 7.92729C5.7924 7.81786 5.55255 7.82225 5.28926 7.96642C4.72939 8.273 4.27546 9.09547 4.27546 9.80347V12.4334L3.34141 12.9449C3.06108 13.0984 2.90064 13.5904 3.06813 13.7829L5.01599 16.0218C5.03013 16.038 5.04578 16.0508 5.06261 16.0606V16.0607L6.42044 16.8345L6.42048 16.8344C6.56549 16.9204 6.79889 16.7715 6.92128 16.4968L8.86914 12.1249C8.97959 11.8769 8.94737 11.6549 8.8322 11.5765Z" fill="url(#paint6_linear_2572_14332)"/>
<path d="M4.27547 12.4326L3.34138 12.9441C3.06105 13.0976 2.90064 13.5896 3.06814 13.7821L5.01599 16.021C5.03014 16.0372 5.04579 16.05 5.06261 16.0598V16.0599L6.42045 16.8337L6.42049 16.8336L5.63421 13.2069L4.27547 12.4326Z" fill="url(#paint7_linear_2572_14332)"/>
<path d="M4.42752 14.5568L6.37537 16.7957C6.51164 16.9523 6.78561 16.8023 6.92188 16.4965L8.86974 12.1245C9.03723 11.7485 8.87679 11.4322 8.5965 11.5857L7.66241 12.0972V9.46721C7.66241 8.75921 7.20853 8.4338 6.64861 8.74039C6.08873 9.04697 5.6348 9.86944 5.6348 10.5774V13.2074L4.70071 13.7189C4.42042 13.8723 4.26002 14.3643 4.42752 14.5568Z" fill="url(#paint8_linear_2572_14332)"/>
<path d="M9.44531 16.108V19.4876C9.48251 19.4711 9.51888 19.454 9.5533 19.4351L11.0623 18.6088V18.6115L18.8071 14.3709V10.9819L9.44531 16.108Z" fill="url(#paint9_linear_2572_14332)"/>
<defs>
<linearGradient id="paint0_linear_2572_14332" x1="5.44727" y1="17.4626" x2="21.9998" y2="17.4626" gradientUnits="userSpaceOnUse">
<stop stop-color="#7662BD"/>
<stop offset="0.222" stop-color="#E9E5F6"/>
<stop offset="0.375" stop-color="#A996EB"/>
<stop offset="0.437" stop-color="#BBACEF"/>
<stop offset="0.552" stop-color="#D9D1F5"/>
<stop offset="0.646" stop-color="#EBE7F9"/>
<stop offset="0.706" stop-color="#F2EFFA"/>
<stop offset="0.764" stop-color="#E9E4F8"/>
<stop offset="0.866" stop-color="#D0C6F3"/>
<stop offset="1" stop-color="#A996EB"/>
</linearGradient>
<linearGradient id="paint1_linear_2572_14332" x1="10.3077" y1="16.7569" x2="8.74684" y2="15.8067" gradientUnits="userSpaceOnUse">
<stop stop-color="#7662BD"/>
<stop offset="1" stop-color="#7662BD" stop-opacity="0"/>
</linearGradient>
<linearGradient id="paint2_linear_2572_14332" x1="12.3269" y1="7.83966" x2="12.8295" y2="6.92176" gradientUnits="userSpaceOnUse">
<stop stop-color="#1A4C4E"/>
<stop offset="1" stop-color="#236568"/>
</linearGradient>
<linearGradient id="paint3_linear_2572_14332" x1="10.0836" y1="8.33047" x2="18.3884" y2="13.3862" gradientUnits="userSpaceOnUse">
<stop stop-color="#06DAAE"/>
<stop offset="1" stop-color="#9BF0DF"/>
</linearGradient>
<linearGradient id="paint4_linear_2572_14332" x1="11.2692" y1="8.8216" x2="21.102" y2="14.8076" gradientUnits="userSpaceOnUse">
<stop stop-color="#2F878A"/>
<stop offset="1" stop-color="#06DAAE"/>
</linearGradient>
<linearGradient id="paint5_linear_2572_14332" x1="10.3532" y1="13.6081" x2="17.77" y2="16.3166" gradientUnits="userSpaceOnUse">
<stop stop-color="#2F878A"/>
<stop offset="1" stop-color="#06DAAE"/>
</linearGradient>
<linearGradient id="paint6_linear_2572_14332" x1="6.6826" y1="11.0831" x2="7.68623" y2="9.25007" gradientUnits="userSpaceOnUse">
<stop stop-color="#00395E"/>
<stop offset="1" stop-color="#0197F8"/>
</linearGradient>
<linearGradient id="paint7_linear_2572_14332" x1="4.89248" y1="14.8" x2="5.26631" y2="14.1172" gradientUnits="userSpaceOnUse">
<stop stop-color="#00395E"/>
<stop offset="1" stop-color="#0197F8"/>
</linearGradient>
<linearGradient id="paint8_linear_2572_14332" x1="6.64865" y1="18.0482" x2="6.64865" y2="10.9378" gradientUnits="userSpaceOnUse">
<stop stop-color="#0072BC"/>
<stop offset="1" stop-color="#2F97F7"/>
</linearGradient>
<linearGradient id="paint9_linear_2572_14332" x1="14.984" y1="16.6438" x2="13.6885" y2="14.2777" gradientUnits="userSpaceOnUse">
<stop stop-color="#1A4C4E"/>
<stop offset="1" stop-color="#1A4C4E" stop-opacity="0"/>
</linearGradient>
</defs>
</svg>
