<svg width="24" height="25" viewBox="0 0 24 25" fill="none" xmlns="http://www.w3.org/2000/svg">
<g id="com-realty 2">
<g id="Group">
<path id="Vector" d="M23.8154 15.3184L23.8121 16.3864L12.0377 23.2289L12.041 22.1609L23.8154 15.3184Z" fill="#8FB545"/>
<path id="Vector_2" d="M12.0411 22.1609L12.0377 23.2289L0.184692 16.3854L0.188015 15.3174L12.0411 22.1609Z" fill="#9FC14C"/>
<path id="Vector_3" d="M23.8154 15.3178L13.9053 21.0778L12.0407 22.1615L10.5785 21.3178L0.188354 15.3178L11.9613 8.47412L23.8154 15.3178Z" fill="#B2CC5E"/>
<path id="Vector_4" d="M20.2152 6.92041L20.1944 14.2458L13.906 17.9002L13.9269 10.5747L20.2152 6.92041Z" fill="#DDCCAC"/>
<g id="Clip path group">
<mask id="mask0_2382_10224" style="mask-type:luminance" maskUnits="userSpaceOnUse" x="10" y="10" width="4" height="8">
<g id="a">
<path id="Vector_5" d="M13.9267 10.5729L13.9061 17.8983C12.6069 17.8987 11.8784 17.8983 10.5787 17.8983L10.5994 10.5728C11.8991 10.5728 12.6278 10.5735 13.9267 10.5729Z" fill="white"/>
</g>
</mask>
<g mask="url(#mask0_2382_10224)">
<g id="Group_2">
<path id="Vector_6" d="M13.9267 10.5729L13.9061 17.8983C12.6069 17.8987 11.8784 17.8983 10.5787 17.8983L10.5994 10.5728C11.8991 10.5728 12.6278 10.5735 13.9267 10.5729Z" fill="#EAD9B5"/>
</g>
</g>
</g>
<path id="Vector_7" d="M10.5994 10.5749L10.5787 17.9002L4.24915 14.2458L4.26982 6.92041L10.5994 10.5749Z" fill="#F7E4BA"/>
<path id="Vector_8" d="M20.2153 6.92009L13.9269 10.5744C12.6278 10.5749 11.8993 10.5744 10.5994 10.5744L4.2699 6.92027L10.5583 3.26562H13.8858L20.2153 6.92009Z" fill="#B0B0B0"/>
<path id="Vector_9" d="M20.9049 6.23438L20.9027 6.98354L13.9381 11.0309L13.9401 10.2817L20.9049 6.23438Z" fill="#9E6A4D"/>
<g id="Clip path group_2">
<mask id="mask1_2382_10224" style="mask-type:luminance" maskUnits="userSpaceOnUse" x="10" y="10" width="4" height="2">
<g id="b">
<path id="Vector_10" d="M13.9403 10.2808L13.938 11.0302C12.6383 11.0302 11.9097 11.0296 10.6107 11.0302L10.6127 10.281C11.9119 10.2805 12.6404 10.281 13.9401 10.281L13.9403 10.2808Z" fill="white"/>
</g>
</mask>
<g mask="url(#mask1_2382_10224)">
<g id="Group_3">
<path id="Vector_11" d="M13.9403 10.2808L13.938 11.0302C12.6383 11.0302 11.9097 11.0296 10.6107 11.0302L10.6127 10.281C11.9119 10.2805 12.6404 10.281 13.9401 10.281" fill="#B7805A"/>
</g>
</g>
</g>
<path id="Vector_12" d="M10.6128 10.2817L10.6108 11.0311L3.60059 6.98354L3.60262 6.23438L10.6128 10.2817Z" fill="#C68B63"/>
<path id="Vector_13" d="M20.905 6.2345L13.9402 10.2818C12.6405 10.2818 11.912 10.2815 10.6129 10.2818L3.60266 6.23468L10.5675 2.18718C11.8666 2.18681 12.5951 2.18718 13.895 2.18718L20.905 6.2345Z" fill="#D49B6E"/>
<path id="Vector_14" d="M10.6502 3.72119L5.27344 6.84581L10.6949 9.97578H13.8573L19.2341 6.85098L13.8126 3.72119H10.6502Z" fill="#DADADA"/>
<path id="Vector_15" d="M13.8126 2.49316V3.72086L19.2342 6.85064L20.2941 6.23495L13.8126 2.49316Z" fill="#C68B63"/>
<path id="Vector_16" d="M4.2135 6.23414L5.27356 6.84596L10.6499 3.72098V2.49365L4.2135 6.23414Z" fill="#9E6A4D"/>
<path id="Vector_17" d="M10.6501 2.49365H13.8128V3.72116H10.6501V2.49365Z" fill="#B7805A"/>
<path id="Vector_18" d="M18.0038 14.1116V14.156L16.2038 15.1953L16.1983 13.3916L16.1964 12.8304V12.4556L16.1946 11.9018L17.0678 11.3978L17.9927 10.8643L17.9964 11.767L18.0001 13.1738L18.002 13.5504L18.0038 14.1116Z" fill="#78C2FF"/>
<path id="Vector_19" d="M18.003 14.1564L16.2034 15.1955L16.2039 15.3721L18.0036 14.3331L18.1572 14.2445L18.1468 10.5978L16.1936 11.7258L16.1942 11.9023L17.9936 10.8633L18.003 14.1564ZM19.803 13.1172L18.1568 14.0678L18.1572 14.2445L19.9572 13.2051L19.947 9.55859L18.147 10.598L18.1474 10.7745L19.7938 9.82407L19.803 13.1172Z" fill="#4C525D"/>
<path id="Vector_20" d="M19.8038 13.1169L19.0081 13.5766L18.6241 13.7981L18.157 14.0677L18.1551 13.6117V13.235L18.1515 11.8301L18.1478 10.7741L19.7945 9.8252L19.8019 12.4873L19.8038 13.1169ZM16.0505 15.2843L14.4038 16.235L14.3945 12.9415L14.6678 12.7827H14.6696L15.2419 12.4523H15.2438L15.6278 12.2289L16.0413 11.9907L16.0431 12.395V12.7698L16.045 13.331L16.0505 15.2843Z" fill="#78C2FF"/>
<g id="Group_4">
<path id="Vector_21" d="M18.0038 14.1123L16.1983 13.3923L16.0451 13.3314L14.6697 12.7831L15.242 12.4526H15.2438L16.0432 12.7701L16.1964 12.8311L18.002 13.5511L18.0038 14.1123ZM18.6241 13.7984L18.1571 14.068L18.1552 13.612L18.6241 13.7984ZM16.0414 11.9911L16.0432 12.3954L15.6278 12.2292L16.0414 11.9911ZM17.9964 11.7677L18.0001 13.1744L16.1964 12.4563L16.1946 11.9024L17.0678 11.3984L17.9964 11.7677ZM19.8038 13.1172L19.0081 13.5769L18.1552 13.2354H18.1534L18.1497 11.8304H18.1515L19.802 12.4877L19.8038 13.1172Z" fill="#88CEFC"/>
</g>
<path id="Vector_22" d="M16.2038 15.3726L16.0502 15.4612L14.2506 16.5004L14.2402 12.8539L16.1935 11.7261L16.2038 15.3726ZM14.4034 16.2353L16.0502 15.2845L16.041 11.9912L14.3942 12.942L14.4034 16.2353Z" fill="#4C525D"/>
<path id="Vector_23" d="M6.51917 14.1737V14.218L8.31916 15.2573L8.3247 13.4537L8.32655 12.8924V12.5177L8.3284 11.9638L7.45516 11.4598L6.53024 10.9263L6.52655 11.829L6.52286 13.2358L6.52101 13.6124L6.51917 14.1737Z" fill="#78C2FF"/>
<path id="Vector_24" d="M6.52018 14.2183L8.31963 15.2573L8.31926 15.434L6.51963 14.395L6.36584 14.3064L6.37618 10.6597L8.32941 11.7875L8.32905 11.9642L6.52941 10.9251L6.52018 14.2183Z" fill="#4C525D"/>
<path id="Vector_25" d="M4.71995 13.1793L6.36635 14.1297L6.3658 14.3063L4.5658 13.2669L4.57613 9.62061L6.37613 10.66L6.37576 10.8365L4.72937 9.8859L4.71995 13.1793Z" fill="#4C525D"/>
<path id="Vector_26" d="M4.71924 13.1784L5.51493 13.6381L5.89893 13.8596L6.36601 14.1292L6.36785 13.6732V13.2966L6.37155 11.8916L6.37524 10.8356L4.72847 9.88672L4.72108 12.5489L4.71924 13.1784ZM8.47247 15.346L10.1192 16.2968L10.1285 13.0032L9.85524 12.8444H9.85339L9.28108 12.514H9.27924L8.89524 12.2906L8.4817 12.0524L8.47985 12.4567V12.8315L8.47801 13.3927L8.47247 15.346Z" fill="#78C2FF"/>
<g id="Group_5">
<path id="Vector_27" d="M6.51912 14.173L8.32465 13.453L8.47789 13.3921L9.85327 12.8438L9.28096 12.5133H9.27912L8.47973 12.8309L8.3265 12.8918L6.52096 13.6118L6.51912 14.173ZM5.89881 13.859L6.36589 14.1285L6.36773 13.6725L5.89881 13.859ZM8.48158 12.0516L8.47973 12.4559L8.89512 12.2898L8.48158 12.0516ZM6.5265 11.8282L6.52281 13.235L8.3265 12.5168L8.32835 11.963L7.45512 11.459L6.5265 11.8282ZM4.71912 13.1778L5.51481 13.6374L6.36773 13.2959H6.36958L6.37327 11.891H6.37142L4.72096 12.5482L4.71912 13.1778Z" fill="#88CEFC"/>
</g>
<path id="Vector_28" d="M8.32955 11.7876L10.2828 12.9152L10.2724 16.5618L8.473 15.5227L8.31921 15.4341L8.32955 11.7876ZM10.1198 16.2966L10.129 13.0035L8.48223 12.0527L8.473 15.3459L10.1198 16.2966Z" fill="#4C525D"/>
<path id="Vector_29" d="M10.9729 13.457H13.4899V17.9004H10.9729V13.457Z" fill="#875744"/>
<path id="Vector_30" d="M11.1841 13.668H13.2785V17.9001H11.1841V13.668Z" fill="#9E6A4D"/>
<path id="Vector_31" d="M11.3687 13.8525H13.0939V16.1868H11.3687V13.8525Z" fill="#F7E4BA"/>
<path id="Vector_32" d="M12.9656 16.6389C13.0436 16.6389 13.1068 16.5757 13.1068 16.4977C13.1068 16.4197 13.0436 16.3564 12.9656 16.3564C12.8876 16.3564 12.8243 16.4197 12.8243 16.4977C12.8243 16.5757 12.8876 16.6389 12.9656 16.6389Z" fill="#875744"/>
<path id="Vector_33" d="M4.07952 10.1041L3.44666 9.74429C3.44592 9.48343 3.53786 9.19229 3.68611 8.93568C3.83435 8.67795 4.03964 8.4542 4.26728 8.32275L4.90032 8.68275C4.67269 8.81402 4.4674 9.03777 4.31897 9.29531C4.17072 9.55229 4.07878 9.84325 4.07952 10.1041Z" fill="#F06260"/>
<path id="Vector_34" d="M4.90027 8.68262L4.90286 9.62877L4.07947 10.1042C4.07873 9.84329 4.17067 9.55234 4.31892 9.29554C4.46735 9.03782 4.67264 8.81406 4.90027 8.68262Z" fill="#CC4357"/>
<path id="Vector_35" d="M4.71233 10.47L4.07947 10.11C4.07873 9.84915 4.17067 9.5582 4.31892 9.3014C4.46735 9.04386 4.67264 8.81992 4.90027 8.68848L5.53313 9.04848C5.3055 9.17992 5.10021 9.40368 4.95196 9.6614C4.80353 9.91801 4.7116 10.2092 4.71233 10.47Z" fill="white"/>
<path id="Vector_36" d="M5.53315 9.04834L5.53592 9.99449L4.71253 10.4699C4.71161 10.209 4.80355 9.91788 4.95198 9.66126C5.10022 9.40354 5.30552 9.17979 5.53315 9.04834Z" fill="#E7E8E8"/>
<path id="Vector_37" d="M5.34527 10.8352L4.71241 10.4752C4.71167 10.2144 4.80361 9.92343 4.95204 9.66663C5.10028 9.4091 5.30558 9.18516 5.53321 9.05371L6.16607 9.41371C5.93844 9.54516 5.73315 9.76891 5.5849 10.0264C5.43647 10.2832 5.34471 10.5744 5.34545 10.8352H5.34527Z" fill="#F06260"/>
<path id="Vector_38" d="M6.16627 9.41376L6.16885 10.3599L5.34547 10.8353C5.34454 10.5744 5.43648 10.2833 5.58491 10.0265C5.73316 9.76896 5.93845 9.54502 6.16608 9.41357L6.16627 9.41376Z" fill="#E7E8E8"/>
<path id="Vector_39" d="M5.97832 11.201L5.34546 10.841C5.34472 10.5801 5.43666 10.289 5.58491 10.0324C5.73316 9.77463 5.93845 9.55088 6.16608 9.41943L6.79912 9.77943C6.57149 9.9107 6.3662 10.1346 6.21777 10.3922C6.06953 10.649 5.97759 10.9401 5.97832 11.201Z" fill="white"/>
<path id="Vector_40" d="M6.79908 9.7793L6.80166 10.7256L5.97828 11.201C5.97754 10.94 6.06948 10.649 6.21772 10.3922C6.36615 10.1347 6.57144 9.91074 6.79908 9.7793Z" fill="#E7E8E8"/>
<path id="Vector_41" d="M6.61114 11.567L5.97828 11.2072C5.97754 10.9463 6.06948 10.6552 6.21772 10.3986C6.36615 10.1408 6.57144 9.91709 6.79908 9.78564L7.43194 10.1455C7.20431 10.2769 6.99901 10.5007 6.85077 10.7584C6.70234 11.0152 6.6104 11.3061 6.61114 11.567Z" fill="#F06260"/>
<path id="Vector_42" d="M7.43195 10.145L7.43472 11.0912L6.61134 11.5666C6.61041 11.3057 6.70235 11.0146 6.8506 10.7579C6.99903 10.5002 7.20432 10.2765 7.43195 10.145Z" fill="#E7E8E8"/>
<path id="Vector_43" d="M7.24413 11.9326L6.61109 11.5726C6.61035 11.3116 6.70229 11.0206 6.85072 10.7638C6.99897 10.5063 7.20426 10.2823 7.43189 10.1509L8.06475 10.5109C7.83712 10.6423 7.63183 10.8661 7.48358 11.1238C7.33515 11.3804 7.2434 11.6717 7.24413 11.9326Z" fill="white"/>
<path id="Vector_44" d="M8.06476 10.5107L8.06753 11.4569L7.24415 11.9323C7.24322 11.6714 7.33516 11.3803 7.48359 11.1237C7.63184 10.8659 7.83713 10.6422 8.06476 10.5107Z" fill="#E7E8E8"/>
<path id="Vector_45" d="M7.87701 12.2981L7.24415 11.9381C7.24341 11.6773 7.33535 11.3863 7.48359 11.1295C7.63184 10.8718 7.83713 10.648 8.06476 10.5166L8.69781 10.8766C8.47018 11.0079 8.26488 11.2318 8.11645 11.4893C7.96821 11.7461 7.87627 12.0373 7.87701 12.2981Z" fill="#F06260"/>
<path id="Vector_46" d="M8.69788 10.8767L8.70046 11.8228L7.87708 12.2982C7.87634 12.0373 7.96828 11.7462 8.11653 11.4894C8.26496 11.2318 8.47025 11.0079 8.69788 10.8765V10.8767Z" fill="#E7E8E8"/>
<path id="Vector_47" d="M8.50994 12.6637L7.87708 12.3039C7.87634 12.043 7.96828 11.7519 8.11653 11.4952C8.26496 11.2375 8.47025 11.0138 8.69788 10.8823L9.33074 11.2423C9.10311 11.3736 8.89782 11.5975 8.74957 11.8551C8.60114 12.1119 8.5092 12.4028 8.50994 12.6637Z" fill="white"/>
<path id="Vector_48" d="M9.33075 11.2422L9.33352 12.1883L8.51014 12.6639C8.50922 12.4029 8.60115 12.1119 8.7494 11.8551C8.89783 11.5976 9.10312 11.3736 9.33075 11.2422Z" fill="#E7E8E8"/>
<path id="Vector_49" d="M9.14275 13.0294L8.50989 12.6696C8.50915 12.4087 8.60109 12.1176 8.74952 11.861C8.89777 11.6032 9.10306 11.3795 9.33069 11.248L9.96355 11.6079C9.73592 11.7393 9.53063 11.9631 9.38238 12.2208C9.23395 12.4774 9.14201 12.7685 9.14275 13.0294Z" fill="#F06260"/>
<path id="Vector_50" d="M9.96375 11.6079L9.96634 12.5542L9.14295 13.0296C9.14203 12.7688 9.23397 12.4776 9.3824 12.221C9.53064 11.9633 9.73594 11.7395 9.96357 11.6081L9.96375 11.6079Z" fill="#E7E8E8"/>
<path id="Vector_51" d="M9.77581 13.3953L9.14295 13.0353C9.14221 12.7744 9.23415 12.4835 9.3824 12.2267C9.53083 11.9692 9.73593 11.7452 9.96375 11.6138L10.5966 11.9738C10.369 12.1052 10.1637 12.329 10.0153 12.5867C9.86701 12.8433 9.77507 13.1344 9.77581 13.3953Z" fill="white"/>
<path id="Vector_52" d="M10.5967 11.9736L10.5993 12.9198L9.77588 13.3952C9.77514 13.1343 9.86708 12.8432 10.0153 12.5866C10.1638 12.3288 10.3691 12.1051 10.5967 11.9736Z" fill="#EBEBEB"/>
<path id="Vector_53" d="M20.4259 10.166L21.0588 9.806C21.0595 9.54495 20.9676 9.254 20.8191 8.9972C20.6709 8.73966 20.4656 8.51572 20.238 8.38428L19.6051 8.74428C19.8325 8.87572 20.0378 9.09948 20.1863 9.3572C20.3345 9.61382 20.4265 9.90495 20.4257 10.1658L20.4259 10.166Z" fill="#F06260"/>
<path id="Vector_54" d="M19.6051 8.74414L19.6023 9.69029L20.4257 10.1657C20.4266 9.90482 20.3347 9.61368 20.1862 9.35706C20.038 9.09934 19.8327 8.87559 19.6051 8.74414Z" fill="#CC4357"/>
<path id="Vector_55" d="M19.7928 10.5315L20.4257 10.1715C20.4264 9.91068 20.3345 9.61972 20.1863 9.36292C20.038 9.1052 19.8327 8.88145 19.6051 8.75L18.972 9.11C19.1997 9.24126 19.405 9.4652 19.5534 9.72274C19.7016 9.97954 19.7936 10.2707 19.7928 10.5315Z" fill="white"/>
<path id="Vector_56" d="M18.9721 9.11005L18.9695 10.0562L19.7929 10.5316C19.7936 10.2705 19.7017 9.97959 19.5534 9.72279C19.405 9.46525 19.1997 9.24149 18.9721 9.11005Z" fill="#E7E8E8"/>
<path id="Vector_57" d="M19.16 10.8971L19.7929 10.5373C19.7936 10.2764 19.7017 9.98526 19.5534 9.72865C19.405 9.47092 19.1997 9.24717 18.9721 9.11572L18.3392 9.47572C18.5669 9.60698 18.7722 9.83092 18.9204 10.0885C19.0688 10.3453 19.1608 10.6362 19.16 10.8971Z" fill="#F06260"/>
<path id="Vector_58" d="M18.3392 9.47559L18.3364 10.4217L19.1598 10.8973C19.1607 10.6363 19.0688 10.3453 18.9204 10.0885C18.7721 9.83097 18.5668 9.60703 18.3392 9.47559Z" fill="#E7E8E8"/>
<path id="Vector_59" d="M18.5269 11.2628L19.16 10.903C19.1607 10.6421 19.0688 10.351 18.9203 10.0944C18.7721 9.83665 18.5668 9.61289 18.3392 9.48145L17.7063 9.84126C17.9337 9.97271 18.139 10.1965 18.2875 10.4542C18.4357 10.7108 18.5277 11.0019 18.5269 11.2628Z" fill="white"/>
<path id="Vector_60" d="M17.7064 9.84082L17.7036 10.7872L18.527 11.2625C18.5279 11.0017 18.436 10.7105 18.2876 10.4539C18.1393 10.1962 17.934 9.97227 17.7064 9.84082Z" fill="#E7E8E8"/>
<path id="Vector_61" d="M17.8942 11.6282L18.527 11.2682C18.5278 11.0074 18.4358 10.7164 18.2876 10.4596C18.1393 10.2021 17.934 9.97813 17.7064 9.84668L17.0734 10.2067C17.301 10.3381 17.5063 10.5619 17.6547 10.8196C17.803 11.0762 17.8949 11.3674 17.8942 11.6282Z" fill="#F06260"/>
<path id="Vector_62" d="M17.0733 10.207L17.0707 11.1532L17.8941 11.6286C17.8948 11.3677 17.8029 11.0766 17.6546 10.82C17.5062 10.5622 17.3009 10.3385 17.0733 10.207Z" fill="#E7E8E8"/>
<path id="Vector_63" d="M17.2612 11.9939L17.8941 11.6339C17.8948 11.3731 17.8029 11.0821 17.6546 10.8253C17.5062 10.5676 17.3009 10.3438 17.0733 10.2124L16.4404 10.5724C16.6681 10.7037 16.8734 10.9276 17.0216 11.1851C17.17 11.4419 17.262 11.7331 17.2612 11.9939Z" fill="white"/>
<path id="Vector_64" d="M16.4405 10.5723L16.4377 11.5186L17.2611 11.994C17.2621 11.7329 17.1701 11.442 17.0217 11.1852C16.8734 10.9277 16.6681 10.7037 16.4405 10.5723Z" fill="#E7E8E8"/>
<path id="Vector_65" d="M16.6284 12.3597L17.2613 11.9997C17.262 11.7388 17.1701 11.4477 17.0216 11.191C16.8734 10.9333 16.6681 10.7096 16.4405 10.5781L15.8076 10.9381C16.0352 11.0694 16.2405 11.2933 16.3888 11.5509C16.537 11.8077 16.629 12.0986 16.6282 12.3595L16.6284 12.3597Z" fill="#F06260"/>
<path id="Vector_66" d="M15.8076 10.938L15.8048 11.8841L16.6282 12.3597C16.6291 12.0987 16.5372 11.8077 16.3887 11.5509C16.2405 11.2934 16.0352 11.0694 15.8076 10.938Z" fill="#E7E8E8"/>
<path id="Vector_67" d="M15.9954 12.7254L16.6282 12.3656C16.629 12.1047 16.537 11.8136 16.3888 11.5568C16.2405 11.2992 16.0352 11.0755 15.8076 10.9438L15.1746 11.3038C15.4022 11.4353 15.6075 11.659 15.7559 11.9168C15.9042 12.1734 15.9961 12.4645 15.9954 12.7254Z" fill="white"/>
<path id="Vector_68" d="M15.1746 11.3037L15.172 12.2499L15.9954 12.7252C15.9961 12.4644 15.9042 12.1732 15.7559 11.9166C15.6075 11.6589 15.4022 11.4352 15.1746 11.3037Z" fill="#E7E8E8"/>
<path id="Vector_69" d="M15.3624 13.0911L15.9953 12.7311C15.996 12.4702 15.9041 12.1793 15.7558 11.9225C15.6074 11.665 15.4021 11.441 15.1745 11.3096L14.5416 11.6696C14.7693 11.801 14.9745 12.0248 15.1228 12.2823C15.2712 12.5393 15.3632 12.8302 15.3624 13.0911Z" fill="#F06260"/>
<path id="Vector_70" d="M14.5417 11.6696L14.5389 12.6158L15.3623 13.0912C15.3632 12.8303 15.2713 12.5392 15.1229 12.2824C14.9746 12.0248 14.7693 11.8012 14.5417 11.6696Z" fill="#E7E8E8"/>
<path id="Vector_71" d="M14.7294 13.4568L15.3625 13.0968C15.3632 12.836 15.2713 12.545 15.1228 12.2882C14.9746 12.0305 14.7693 11.8067 14.5417 11.6753L13.9088 12.0353C14.1364 12.1666 14.3417 12.3905 14.49 12.648C14.6384 12.9048 14.7302 13.196 14.7294 13.4568Z" fill="white"/>
<path id="Vector_72" d="M13.9088 12.0352L13.906 12.9815L14.7294 13.4569C14.7303 13.1958 14.6384 12.9049 14.4899 12.6481C14.3417 12.3905 14.1364 12.1666 13.9088 12.0352Z" fill="#EBEBEB"/>
<path id="Vector_73" d="M22.2748 15.2313L22.2342 15.2075C22.2342 15.2251 22.222 15.2465 22.2067 15.2551L22.2476 15.279C22.2556 15.2737 22.2622 15.2667 22.2669 15.2584C22.2716 15.2501 22.2743 15.2408 22.2748 15.2313Z" fill="#4C525D"/>
<path id="Vector_74" d="M22.2732 14.6386L22.2325 14.6147L22.234 15.2075L22.2748 15.2314L22.2732 14.6386Z" fill="#4C525D"/>
<path id="Vector_75" d="M22.2653 14.6208L22.2245 14.5972C22.2295 14.6001 22.2324 14.6062 22.2324 14.6147L22.2732 14.6385C22.2732 14.6298 22.2703 14.6236 22.2653 14.6208ZM22.2478 15.279L22.207 15.2551L21.6112 15.5991L21.6518 15.6229L22.2478 15.279Z" fill="#4C525D"/>
<path id="Vector_76" d="M21.5913 15.6012L21.6321 15.6248C21.6373 15.6277 21.6441 15.6274 21.6519 15.6229L21.6111 15.5991C21.6033 15.6036 21.5963 15.6041 21.5913 15.6012ZM21.5622 15.6512L21.603 15.675C21.5906 15.6676 21.583 15.6525 21.583 15.6307L21.5422 15.6071C21.5422 15.6288 21.5498 15.6438 21.5622 15.6512Z" fill="#4C525D"/>
<path id="Vector_77" d="M21.5814 15.038L21.5406 15.0142L21.5423 15.607L21.5829 15.6308L21.5814 15.038Z" fill="#4C525D"/>
<path id="Vector_78" d="M22.2457 14.5752C22.2834 14.5534 22.314 14.5715 22.3144 14.6147L22.3161 15.2075C22.3148 15.2312 22.308 15.2543 22.2961 15.2749C22.2843 15.2955 22.2677 15.313 22.2478 15.326L21.652 15.6699C21.614 15.6921 21.5831 15.6744 21.5831 15.6306L21.5813 15.038C21.5826 15.0142 21.5894 14.991 21.6014 14.9703C21.6133 14.9497 21.63 14.9321 21.65 14.9191L22.2457 14.5752ZM21.6241 15.6072C21.6241 15.6243 21.6369 15.6315 21.6518 15.6229L22.2478 15.2789C22.2557 15.2737 22.2623 15.2666 22.267 15.2583C22.2717 15.2501 22.2744 15.2408 22.2749 15.2313L22.2732 14.6385C22.2732 14.6211 22.2611 14.6141 22.2457 14.6228L21.6502 14.9667C21.6421 14.9719 21.6355 14.9789 21.6306 14.9872C21.6258 14.9954 21.623 15.0047 21.6225 15.0142L21.6241 15.6072Z" fill="#5F656F"/>
<path id="Vector_79" d="M21.5406 15.0139L21.5813 15.0379C21.5813 14.9943 21.6119 14.9409 21.6501 14.919L22.2455 14.575C22.2647 14.564 22.2815 14.5634 22.2942 14.5702L22.2531 14.5466C22.2409 14.5396 22.2235 14.5401 22.2051 14.5512L21.6091 14.8952C21.5891 14.9081 21.5724 14.9256 21.5605 14.9463C21.5487 14.967 21.5419 14.9902 21.5408 15.0141L21.5406 15.0139ZM21.5951 14.8361L21.5543 14.8123C21.5543 14.8298 21.5421 14.851 21.527 14.8599L21.5678 14.8837C21.5758 14.8785 21.5824 14.8714 21.5871 14.8632C21.5919 14.8549 21.5946 14.8456 21.5951 14.8361Z" fill="#4C525D"/>
<path id="Vector_80" d="M21.5934 14.2435L21.5526 14.2197L21.5543 14.8125L21.5949 14.8363L21.5934 14.2435Z" fill="#4C525D"/>
<path id="Vector_81" d="M21.5854 14.2258L21.5448 14.2021C21.5496 14.2051 21.5525 14.2112 21.5527 14.2197L21.5933 14.2435C21.5933 14.2348 21.5904 14.2287 21.5856 14.226L21.5854 14.2258ZM21.5678 14.8839L21.527 14.8601L20.9313 15.2041L20.9721 15.2279L21.5678 14.8839Z" fill="#4C525D"/>
<path id="Vector_82" d="M20.9115 15.2061L20.9525 15.2298C20.9574 15.2327 20.9645 15.2323 20.972 15.2279L20.9314 15.2041C20.9237 15.2085 20.9166 15.2089 20.9117 15.2059L20.9115 15.2061ZM20.8825 15.2562L20.9231 15.28C20.9109 15.2726 20.9033 15.2575 20.9032 15.2357L20.8625 15.212C20.8625 15.2338 20.8699 15.2488 20.8825 15.2562Z" fill="#4C525D"/>
<path id="Vector_83" d="M20.9015 14.643L20.8607 14.6191L20.8626 15.2119L20.9032 15.2358L20.9015 14.643Z" fill="#4C525D"/>
<path id="Vector_84" d="M21.5657 14.1802C21.6036 14.1584 21.6344 14.1765 21.6344 14.2197L21.6363 14.8125C21.635 14.8362 21.6282 14.8593 21.6163 14.8799C21.6045 14.9005 21.5879 14.918 21.5679 14.931L20.9722 15.2749C20.9342 15.2971 20.9033 15.2794 20.9031 15.2356L20.9015 14.643C20.9028 14.6192 20.9096 14.596 20.9216 14.5753C20.9335 14.5546 20.9502 14.5371 20.9702 14.5241L21.5657 14.1802ZM20.9443 15.2122C20.9443 15.2293 20.9569 15.2365 20.972 15.2278L21.5678 14.8839C21.5757 14.8787 21.5824 14.8716 21.5871 14.8634C21.5919 14.8551 21.5946 14.8458 21.5951 14.8363L21.5932 14.2435C21.5932 14.2261 21.5811 14.2191 21.5659 14.2278L20.9702 14.5717C20.9621 14.5769 20.9555 14.5839 20.9506 14.5921C20.9458 14.6004 20.943 14.6096 20.9425 14.6192L20.9443 15.2122Z" fill="#5F656F"/>
<path id="Vector_85" d="M20.8608 14.6189L20.9015 14.6429C20.9015 14.5993 20.9321 14.5459 20.9703 14.524L21.5657 14.18C21.5847 14.1689 21.6017 14.1684 21.6144 14.1752L21.5733 14.1516C21.5611 14.1446 21.5437 14.1451 21.5253 14.1562L20.9291 14.5001C20.9091 14.5131 20.8924 14.5306 20.8806 14.5513C20.8687 14.572 20.8619 14.595 20.8608 14.6189Z" fill="#4C525D"/>
<path id="Vector_86" d="M20.7453 14.6024L21.4284 14.9993C21.4497 15.01 21.4731 15.0155 21.4969 15.0155C21.5207 15.0155 21.5441 15.01 21.5654 14.9993L22.336 14.5459V14.6456L21.5654 15.0944C21.5443 15.105 21.5209 15.1106 21.4973 15.1106C21.4736 15.1106 21.4503 15.105 21.4292 15.0944L20.7459 14.6975C20.7273 14.6864 20.7178 14.6724 20.7178 14.6583L20.7173 14.5634C20.7173 14.5775 20.7267 14.5915 20.7453 14.6024Z" fill="#875744"/>
<path id="Vector_87" d="M20.7459 14.5235L21.5213 14.0732L22.336 14.5451V14.5462L21.5652 14.9996C21.5441 15.0103 21.5207 15.0159 21.497 15.0159C21.4733 15.0159 21.4499 15.0103 21.4288 14.9996L20.7455 14.6027C20.7079 14.5806 20.7084 14.5453 20.7459 14.5235Z" fill="#9E6A4D"/>
<path id="Vector_88" d="M22.2743 14.0883L21.4635 13.6172L21.465 14.1101L22.2756 14.5812L22.2743 14.0883Z" fill="#93624A"/>
<path id="Vector_89" d="M22.4244 13.3354L21.6138 12.8643L21.4635 13.6175L22.2743 14.0886L22.4244 13.3354Z" fill="#93624A"/>
<path id="Vector_90" d="M22.4829 13.319L21.6723 12.8477L21.6138 12.8639L22.4244 13.335L22.4829 13.319Z" fill="#9E6A4D"/>
<path id="Vector_91" d="M22.4244 13.3351L22.2743 14.0883L22.2756 14.5812L22.336 14.5464L22.3347 14.0582L22.4829 13.3188L22.4244 13.3351Z" fill="#875744"/>
<path id="Vector_92" d="M20.9179 15.6806C21.1051 15.7888 21.1059 15.964 20.9202 16.072C20.7341 16.1802 20.4315 16.1802 20.2443 16.072C20.0571 15.9638 20.0562 15.7888 20.2422 15.6806C20.4282 15.5726 20.7307 15.5726 20.9179 15.6806Z" fill="#81AA40"/>
<path id="Vector_93" d="M20.7313 14.5886L20.7307 15.8169C20.7307 15.839 20.7161 15.861 20.6872 15.8778C20.6288 15.9118 20.5339 15.9118 20.4748 15.8778C20.4453 15.8608 20.4305 15.8383 20.4305 15.816L20.4313 14.5879C20.4313 14.61 20.446 14.6326 20.4756 14.6497C20.5343 14.6837 20.6294 14.6837 20.6879 14.6497C20.7167 14.6328 20.7313 14.6108 20.7313 14.5888V14.5886Z" fill="#5F656F"/>
<path id="Vector_94" d="M20.687 14.5269C20.7459 14.5609 20.7461 14.6159 20.6877 14.6499C20.6294 14.6839 20.5345 14.6839 20.4754 14.6499C20.4163 14.6159 20.4163 14.5609 20.4749 14.5269C20.5334 14.493 20.6279 14.493 20.687 14.5269Z" fill="#E4E8F4"/>
<path id="Vector_95" d="M22.0142 14.3066L22.0136 14.4665C22.0131 14.6775 21.8744 14.8883 21.5973 15.0493C21.0396 15.3735 20.1322 15.3737 19.5706 15.0495C19.2881 14.8865 19.1473 14.6723 19.1478 14.4587L19.1484 14.2988C19.1476 14.5124 19.2887 14.7266 19.5712 14.8896C20.1326 15.2138 21.04 15.2134 21.5979 14.8894C21.8748 14.7284 22.0134 14.5176 22.0142 14.3066Z" fill="#C1C1C1"/>
<path id="Vector_96" d="M21.5912 13.7157C22.1526 14.0398 22.1552 14.5654 21.5978 14.8894C21.0399 15.2134 20.1326 15.2138 19.5711 14.8894C19.0097 14.5654 19.0071 14.0398 19.5649 13.7157C20.1224 13.3918 21.0298 13.3915 21.5912 13.7157Z" fill="#EBEBEB"/>
<path id="Vector_97" d="M20.3388 16.4108L20.3015 16.3892C20.3011 16.3979 20.2986 16.4064 20.2943 16.4139C20.29 16.4215 20.2839 16.4279 20.2766 16.4327L20.3139 16.4543C20.3212 16.4495 20.3273 16.4431 20.3316 16.4355C20.3359 16.428 20.3384 16.4195 20.3388 16.4108Z" fill="#4C525D"/>
<path id="Vector_98" d="M20.3373 15.8694L20.3 15.8477L20.3015 16.3893L20.3388 16.4109L20.3373 15.8694Z" fill="#4C525D"/>
<path id="Vector_99" d="M20.33 15.8533L20.2927 15.8315C20.2973 15.8341 20.3001 15.8397 20.3001 15.8476L20.3373 15.8694C20.3373 15.8615 20.3346 15.8559 20.33 15.8533ZM20.3139 16.4544L20.2766 16.4328L19.7322 16.7471L19.7697 16.7688L20.3139 16.4544Z" fill="#4C525D"/>
<path id="Vector_100" d="M19.7142 16.7485L19.7515 16.7703C19.7562 16.7729 19.7626 16.7725 19.7696 16.7685L19.7322 16.7469C19.7253 16.7509 19.7189 16.7511 19.7142 16.7485ZM19.6875 16.7945L19.725 16.8161C19.7137 16.8096 19.7065 16.7956 19.7065 16.7758L19.6694 16.7541C19.6694 16.774 19.6762 16.7878 19.6875 16.7945ZM19.705 16.234L19.6677 16.2124L19.6694 16.7541L19.7067 16.7757L19.705 16.234Z" fill="#4C525D"/>
<path id="Vector_101" d="M20.312 15.8116C20.3465 15.7918 20.3747 15.8083 20.3747 15.8478L20.3762 16.3894C20.3762 16.4295 20.3485 16.4779 20.314 16.4978L19.7696 16.812C19.7349 16.8322 19.7068 16.8161 19.7066 16.776L19.705 16.2344C19.7062 16.2126 19.7125 16.1915 19.7234 16.1727C19.7343 16.1539 19.7495 16.1379 19.7677 16.126L20.312 15.8116ZM19.7441 16.7544C19.7441 16.7703 19.7555 16.777 19.7694 16.769L20.3138 16.4546C20.3211 16.4498 20.3272 16.4434 20.3315 16.4358C20.3358 16.4282 20.3383 16.4198 20.3387 16.411L20.3373 15.8694C20.3373 15.8535 20.326 15.8472 20.3122 15.8552L19.7677 16.1694C19.7604 16.1741 19.7543 16.1805 19.7499 16.188C19.7455 16.1956 19.7429 16.2041 19.7424 16.2128L19.7441 16.7544Z" fill="#5F656F"/>
<path id="Vector_102" d="M19.6679 16.2126L19.7049 16.2342C19.7061 16.2124 19.7125 16.1912 19.7235 16.1724C19.7344 16.1536 19.7497 16.1376 19.768 16.1258L20.3121 15.8114C20.3294 15.8012 20.3449 15.8009 20.3564 15.8071L20.3189 15.7854C20.3078 15.7791 20.2919 15.7796 20.275 15.7896L19.7303 16.104C19.712 16.1158 19.6968 16.1318 19.686 16.1507C19.6751 16.1696 19.6689 16.1908 19.6679 16.2126ZM19.7176 16.0499L19.6803 16.0283C19.6799 16.037 19.6774 16.0455 19.6731 16.0531C19.6687 16.0606 19.6627 16.0671 19.6554 16.0719L19.6927 16.0935C19.7 16.0887 19.706 16.0822 19.7104 16.0747C19.7147 16.0671 19.7172 16.0586 19.7176 16.0499Z" fill="#4C525D"/>
<path id="Vector_103" d="M19.7161 15.5084L19.6788 15.4868L19.6803 16.0285L19.7176 16.0501L19.7161 15.5084Z" fill="#4C525D"/>
<path id="Vector_104" d="M19.7087 15.4923L19.6716 15.4707C19.676 15.4733 19.6788 15.4788 19.6788 15.4868L19.716 15.5084C19.716 15.5004 19.7133 15.4949 19.7087 15.4923ZM19.6926 16.0936L19.6553 16.072L19.1111 16.3862L19.1484 16.4078L19.6926 16.0936ZM19.093 16.3879L19.1303 16.4095C19.1349 16.4122 19.1413 16.4119 19.1484 16.4078L19.1111 16.3862C19.104 16.3903 19.0976 16.3905 19.093 16.3879ZM19.0664 16.4337L19.1037 16.4554C19.0924 16.4488 19.0854 16.435 19.0852 16.415L19.0481 16.3934C19.0481 16.4132 19.0551 16.4272 19.0664 16.4337ZM19.0837 15.8733L19.0466 15.8517L19.0481 16.3934L19.0852 16.415L19.0837 15.8733Z" fill="#4C525D"/>
<path id="Vector_105" d="M19.6908 15.4504C19.7253 15.4304 19.7536 15.4469 19.7536 15.4866L19.7551 16.0282C19.7552 16.0681 19.7274 16.1165 19.6928 16.1364L19.1484 16.4508C19.1137 16.4708 19.0856 16.4549 19.0855 16.4148L19.084 15.8732C19.0851 15.8514 19.0914 15.8303 19.1023 15.8114C19.1132 15.7925 19.1283 15.7765 19.1466 15.7646L19.6908 15.4504ZM19.1229 16.3932C19.1229 16.4091 19.1346 16.4157 19.1484 16.4076L19.6927 16.0934C19.7 16.0886 19.706 16.0822 19.7103 16.0746C19.7147 16.067 19.7172 16.0585 19.7176 16.0498L19.7161 15.5082C19.7161 15.4923 19.705 15.486 19.691 15.494L19.1466 15.8082C19.1393 15.8129 19.1332 15.8193 19.1288 15.8269C19.1245 15.8344 19.1219 15.8429 19.1215 15.8516L19.1229 16.3932Z" fill="#5F656F"/>
<path id="Vector_106" d="M19.0468 15.8516L19.0837 15.8734C19.0849 15.8516 19.0913 15.8304 19.1022 15.8116C19.1132 15.7927 19.1284 15.7767 19.1467 15.7648L19.6908 15.4504C19.7083 15.4404 19.7236 15.4399 19.7351 15.4462L19.6976 15.4246C19.6865 15.4183 19.6706 15.4187 19.6536 15.4288L19.109 15.7432C19.0908 15.755 19.0756 15.771 19.0647 15.7898C19.0538 15.8087 19.0478 15.8299 19.0468 15.8516Z" fill="#4C525D"/>
<path id="Vector_107" d="M20.5453 15.6348L20.5444 15.7221C20.5444 15.7376 20.535 15.7522 20.5143 15.764L19.6516 16.2656V16.1783L20.5151 15.6767C20.535 15.6649 20.5453 15.6503 20.5453 15.6348Z" fill="#875744"/>
<path id="Vector_108" d="M19.6517 16.1783V16.2656L18.8855 15.8237V15.7363L19.6517 16.1783Z" fill="#93624A"/>
<path id="Vector_109" d="M20.5145 15.5921C20.5551 15.6157 20.5555 15.6538 20.5149 15.6774L19.6518 16.1788L18.8856 15.7365L19.7485 15.2349C19.7713 15.2233 19.7965 15.2173 19.822 15.2173C19.8475 15.2173 19.8727 15.2233 19.8955 15.2349L20.5145 15.5921Z" fill="#B7805A"/>
<path id="Vector_110" d="M19.6517 16.1796L18.8855 15.7365L18.8859 14.9707L19.6502 15.4149L19.6517 16.1796Z" fill="#93624A"/>
<path id="Vector_111" d="M19.6501 15.4146L18.8858 14.9704L18.7054 14.5303L19.4698 14.9745L19.6501 15.4146Z" fill="#9E6A4D"/>
<path id="Vector_112" d="M19.4696 14.9749L18.7053 14.5307L18.7733 14.4624L19.5374 14.9066L19.4696 14.9749Z" fill="#B7805A"/>
<path id="Vector_113" d="M19.5374 14.9062L19.7223 15.3575L19.7246 16.1365L19.6522 16.1782L19.6502 15.4147L19.4696 14.9746L19.5374 14.9062Z" fill="#875744"/>
<path id="Vector_114" d="M3.06543 15.7189L3.10623 15.6953C3.10623 15.7129 3.11841 15.7343 3.13355 15.7429L3.09294 15.7668C3.08493 15.7615 3.07826 15.7545 3.07348 15.7462C3.0687 15.738 3.06594 15.7285 3.06543 15.7189Z" fill="#4C525D"/>
<path id="Vector_115" d="M3.06715 15.1267L3.10814 15.103L3.10629 15.6956L3.06567 15.7195L3.06715 15.1267Z" fill="#4C525D"/>
<path id="Vector_116" d="M3.0752 15.1088L3.11581 15.085C3.11101 15.0879 3.10806 15.094 3.10806 15.1027L3.06726 15.1263C3.06726 15.1176 3.07021 15.1115 3.0752 15.1088ZM3.09274 15.7669L3.13354 15.7429L3.72929 16.0871L3.68849 16.1107L3.09274 15.7669Z" fill="#4C525D"/>
<path id="Vector_117" d="M3.74903 16.0892L3.70823 16.1129C3.70306 16.1158 3.69605 16.1155 3.68848 16.111L3.72928 16.0874C3.73685 16.0918 3.74405 16.0922 3.74903 16.0892ZM3.7782 16.1393L3.7374 16.1631C3.74958 16.1559 3.75734 16.1406 3.75734 16.1188L3.79814 16.0952C3.79814 16.1169 3.79038 16.1319 3.7782 16.1393Z" fill="#4C525D"/>
<path id="Vector_118" d="M3.75899 15.5258L3.79979 15.502L3.79812 16.0948L3.75732 16.1186L3.75899 15.5258Z" fill="#4C525D"/>
<path id="Vector_119" d="M3.69051 15.4072C3.71048 15.4203 3.72709 15.4378 3.739 15.4585C3.7509 15.4791 3.75775 15.5023 3.759 15.5261L3.75734 16.1187C3.75734 16.1627 3.72632 16.1802 3.68829 16.1583L3.09254 15.8143C3.07264 15.8013 3.0561 15.7838 3.04426 15.7632C3.03242 15.7426 3.02562 15.7195 3.02441 15.6958L3.02626 15.103C3.02626 15.0596 3.05709 15.0417 3.09457 15.0635L3.69051 15.4072ZM3.71635 16.0951L3.71801 15.5025C3.71748 15.4929 3.71469 15.4836 3.70988 15.4754C3.70507 15.4671 3.69837 15.4601 3.69032 15.4549L3.09457 15.1109C3.07943 15.1023 3.06724 15.1091 3.06706 15.1266L3.0654 15.7194C3.0654 15.7368 3.07758 15.7582 3.09272 15.7671L3.68848 16.111C3.70361 16.1197 3.71635 16.1127 3.71635 16.0951Z" fill="#5F656F"/>
<path id="Vector_120" d="M3.79968 15.5023L3.75906 15.5259C3.75773 15.5021 3.7508 15.4789 3.73884 15.4583C3.72687 15.4377 3.71021 15.4202 3.6902 15.4072L3.09482 15.0633C3.0758 15.0522 3.059 15.0516 3.04626 15.0586L3.08725 15.0348C3.09943 15.0278 3.11679 15.0286 3.13525 15.0394L3.73156 15.3836C3.75158 15.3965 3.76822 15.414 3.7801 15.4346C3.79198 15.4553 3.79876 15.4785 3.79986 15.5023H3.79968ZM3.7454 15.3241L3.78602 15.3005C3.78602 15.318 3.7982 15.3394 3.81353 15.3481L3.77273 15.3719C3.76475 15.3667 3.75812 15.3597 3.75337 15.3514C3.74863 15.3431 3.7459 15.3337 3.7454 15.3241Z" fill="#4C525D"/>
<path id="Vector_121" d="M3.74702 14.7316L3.78782 14.708L3.78598 15.3006L3.74536 15.3244L3.74702 14.7316Z" fill="#4C525D"/>
<path id="Vector_122" d="M3.75519 14.7138L3.79581 14.6899C3.79101 14.6929 3.78787 14.699 3.78787 14.7077L3.74707 14.7313C3.74707 14.7226 3.75039 14.7165 3.75519 14.7138ZM3.77255 15.3719L3.81353 15.3479L4.40929 15.692L4.3683 15.7157L3.77255 15.3719Z" fill="#4C525D"/>
<path id="Vector_123" d="M4.42902 15.6942L4.38804 15.7179C4.38306 15.7208 4.37604 15.7204 4.36829 15.716L4.40909 15.6924C4.41684 15.6968 4.42404 15.6972 4.42902 15.6942ZM4.45801 15.7443L4.41721 15.7681C4.42958 15.7609 4.43715 15.7456 4.43715 15.7238L4.47813 15.7001C4.47813 15.7219 4.47038 15.7369 4.45801 15.7443Z" fill="#4C525D"/>
<path id="Vector_124" d="M4.43892 15.1307L4.47953 15.1069L4.47806 15.6997L4.43726 15.7235L4.43892 15.1307Z" fill="#4C525D"/>
<path id="Vector_125" d="M4.37032 15.0122C4.39029 15.0252 4.4069 15.0428 4.41881 15.0635C4.43071 15.0841 4.43756 15.1073 4.43881 15.1311L4.43715 15.7237C4.43715 15.7677 4.40632 15.7852 4.36829 15.7632L3.77253 15.4193C3.7526 15.4063 3.73602 15.3888 3.72415 15.3682C3.71228 15.3476 3.70545 15.3245 3.70422 15.3008L3.70607 14.708C3.70607 14.6646 3.7369 14.6467 3.77456 14.6685L4.37032 15.0122ZM4.39616 15.7001L4.39801 15.1075C4.39747 15.0979 4.39469 15.0886 4.38987 15.0803C4.38506 15.0721 4.37836 15.065 4.37032 15.0598L3.77456 14.7159C3.75942 14.7072 3.74705 14.7141 3.74687 14.7316L3.74539 15.3244C3.74539 15.3418 3.75739 15.3632 3.77272 15.372L4.36829 15.716C4.38361 15.7248 4.39598 15.7176 4.39616 15.7001Z" fill="#5F656F"/>
<path id="Vector_126" d="M4.47955 15.1073L4.43894 15.1309C4.43761 15.1071 4.43068 15.0839 4.41871 15.0633C4.40675 15.0427 4.39008 15.0252 4.37008 15.0122L3.77469 14.6682C3.75549 14.6572 3.73869 14.6566 3.72595 14.6636L3.76712 14.6398C3.77931 14.6328 3.79666 14.6335 3.81512 14.6444L4.41106 14.9886C4.43108 15.0015 4.44772 15.019 4.4596 15.0396C4.47148 15.0603 4.47845 15.0835 4.47955 15.1073Z" fill="#4C525D"/>
<path id="Vector_127" d="M4.5951 15.0909L3.91184 15.4878C3.89061 15.4984 3.86719 15.5039 3.84344 15.5039C3.8197 15.5039 3.79628 15.4984 3.77504 15.4878L3.00427 15.0342V15.1339L3.77504 15.5827C3.79618 15.5933 3.81951 15.5988 3.84316 15.5988C3.86682 15.5988 3.89015 15.5933 3.91129 15.5827L4.59455 15.1857C4.6132 15.1747 4.62261 15.1606 4.62261 15.1466L4.62316 15.0517C4.62316 15.0657 4.61393 15.0798 4.5951 15.0909Z" fill="#875744"/>
<path id="Vector_128" d="M4.59455 15.0116L3.81916 14.5615L3.00427 15.0332V15.0343L3.77523 15.4877C3.79635 15.4984 3.81969 15.504 3.84335 15.504C3.86701 15.504 3.89035 15.4984 3.91147 15.4877L4.59492 15.0908C4.63258 15.0687 4.63203 15.0332 4.59455 15.0116Z" fill="#9E6A4D"/>
<path id="Vector_129" d="M3.06611 14.5764L3.87675 14.1053L3.87546 14.5982L3.06463 15.0693L3.06611 14.5764ZM2.91602 13.8232L3.72666 13.3521L3.87675 14.1053L3.06611 14.5764L2.91602 13.8232Z" fill="#93624A"/>
<path id="Vector_130" d="M2.85742 13.8071L3.66825 13.3359L3.72678 13.3522L2.91613 13.8233L2.85742 13.8071Z" fill="#9E6A4D"/>
<path id="Vector_131" d="M2.91607 13.8234L3.06616 14.5766L3.06468 15.0695L3.00431 15.0346L3.00579 14.5465L2.85754 13.8071L2.91607 13.8234Z" fill="#875744"/>
<path id="Vector_132" d="M4.42252 16.169C4.23532 16.277 4.2344 16.4524 4.4203 16.5604C4.60621 16.6684 4.90898 16.6686 5.096 16.5604C5.28338 16.4524 5.2843 16.277 5.09821 16.169C4.9123 16.0608 4.60972 16.0608 4.42252 16.169Z" fill="#81AA40"/>
<path id="Vector_133" d="M4.60901 15.0771L4.60956 16.3052C4.60956 16.3273 4.62433 16.3493 4.65332 16.3661C4.71165 16.4 4.80655 16.4 4.86544 16.3661C4.89498 16.3491 4.90975 16.3266 4.90975 16.3042L4.90919 15.0762C4.90919 15.0985 4.89442 15.1208 4.86489 15.138C4.80599 15.172 4.7111 15.172 4.65258 15.138C4.62359 15.1212 4.60919 15.0992 4.60901 15.0771Z" fill="#5F656F"/>
<path id="Vector_134" d="M4.65337 15.0152C4.59466 15.0491 4.59429 15.1041 4.65282 15.1381C4.71134 15.1721 4.80605 15.1721 4.86494 15.1381C4.92365 15.1041 4.92402 15.0491 4.86568 15.0152C4.80734 14.9812 4.71226 14.9814 4.65337 15.0152Z" fill="#E4E8F4"/>
<path id="Vector_135" d="M3.32629 14.7949L3.32685 14.9547C3.3274 15.1659 3.46605 15.3766 3.74297 15.5376C4.30088 15.8618 5.20826 15.8619 5.76968 15.5378C6.05214 15.3747 6.19319 15.1608 6.19245 14.947L6.19208 14.7871C6.19263 15.0009 6.05177 15.2149 5.76931 15.3779C5.20789 15.7021 4.30032 15.7019 3.7426 15.3777C3.46568 15.2167 3.32685 15.0059 3.32629 14.7949Z" fill="#C1C1C1"/>
<path id="Vector_136" d="M3.74923 14.2039C3.18763 14.5281 3.18523 15.0537 3.74259 15.3777C4.30031 15.7019 5.20788 15.7021 5.76929 15.3779C6.33052 15.0537 6.33329 14.5281 5.77539 14.2039C5.21803 13.8801 4.31065 13.8798 3.74923 14.2039Z" fill="#EBEBEB"/>
<path id="Vector_137" d="M5.00171 16.8992L5.039 16.8774C5.03943 16.8862 5.04191 16.8946 5.04624 16.9022C5.05058 16.9098 5.05663 16.9162 5.06392 16.921L5.02663 16.9428C5.01934 16.938 5.01328 16.9316 5.00895 16.924C5.00462 16.9164 5.00214 16.9079 5.00171 16.8992Z" fill="#4C525D"/>
<path id="Vector_138" d="M5.00319 16.3577L5.04048 16.3359L5.039 16.8775L5.00171 16.8993L5.00319 16.3577ZM5.01057 16.3414L5.04768 16.3198C5.04325 16.3224 5.04048 16.3279 5.04048 16.3359L5.00319 16.3577C5.00319 16.3497 5.00596 16.344 5.01057 16.3414ZM5.02663 16.9429L5.06392 16.9211L5.60817 17.2353L5.57088 17.2571L5.02663 16.9429Z" fill="#4C525D"/>
<path id="Vector_139" d="M5.62619 17.237L5.58889 17.2588C5.58409 17.2614 5.57782 17.2612 5.5708 17.257L5.60809 17.2354C5.61511 17.2394 5.62157 17.2396 5.62619 17.237ZM5.65277 17.283L5.61548 17.3046C5.62674 17.2981 5.63375 17.2843 5.63394 17.2643L5.67105 17.2426C5.67105 17.2625 5.66403 17.2763 5.65277 17.283Z" fill="#4C525D"/>
<path id="Vector_140" d="M5.63527 16.7225L5.67256 16.7007L5.67108 17.2423L5.63379 17.2641L5.63527 16.7225Z" fill="#4C525D"/>
<path id="Vector_141" d="M5.57273 16.6137C5.59099 16.6256 5.6062 16.6416 5.6171 16.6605C5.62801 16.6794 5.63431 16.7005 5.63549 16.7223L5.63383 17.2639C5.63383 17.3038 5.60559 17.3199 5.57088 17.2998L5.02645 16.9855C5.00827 16.9737 4.99316 16.9577 4.98234 16.9388C4.97153 16.92 4.96533 16.8989 4.96423 16.8772L4.96571 16.3355C4.96571 16.296 4.99396 16.2796 5.02848 16.2995L5.57273 16.6137ZM5.59636 17.2422L5.59783 16.7005C5.59731 16.6918 5.59474 16.6834 5.59035 16.6759C5.58595 16.6684 5.57985 16.662 5.57254 16.6573L5.02829 16.3429C5.01445 16.335 5.00319 16.3414 5.00319 16.3573L5.00171 16.899C5.00214 16.9077 5.00462 16.9162 5.00895 16.9237C5.01328 16.9313 5.01934 16.9377 5.02663 16.9425L5.57088 17.2567C5.58473 17.2647 5.59636 17.2582 5.59636 17.2422Z" fill="#5F656F"/>
<path id="Vector_142" d="M5.67262 16.7008L5.63552 16.7224C5.63428 16.7007 5.62794 16.6795 5.617 16.6607C5.60606 16.6419 5.59084 16.6259 5.57256 16.614L5.0285 16.2996C5.01096 16.2897 4.99564 16.2891 4.98401 16.2954L5.02149 16.2738C5.03256 16.2673 5.04862 16.2679 5.06542 16.2778L5.61004 16.5922C5.62834 16.6041 5.64355 16.6201 5.65441 16.639C5.66526 16.6578 5.67163 16.679 5.67262 16.7008ZM5.62278 16.5382L5.66007 16.5166C5.6605 16.5253 5.66298 16.5338 5.66731 16.5413C5.67164 16.5489 5.6777 16.5553 5.68499 16.5601L5.64789 16.5817C5.64059 16.5769 5.63454 16.5705 5.63021 16.5629C5.62587 16.5554 5.62339 16.5469 5.62296 16.5382H5.62278Z" fill="#4C525D"/>
<path id="Vector_143" d="M5.6244 15.9962L5.66169 15.9746L5.66022 16.5163L5.62292 16.5379L5.6244 15.9962Z" fill="#4C525D"/>
<path id="Vector_144" d="M5.63159 15.9806L5.66888 15.959C5.66445 15.9616 5.6615 15.9671 5.6615 15.975L5.62439 15.9966C5.62439 15.9889 5.62697 15.9832 5.63159 15.9806ZM5.64765 16.5819L5.68494 16.5603L6.22937 16.8745L6.19208 16.8961L5.64765 16.5819Z" fill="#4C525D"/>
<path id="Vector_145" d="M6.2474 16.8757L6.20992 16.8975C6.20531 16.9001 6.19885 16.8997 6.19202 16.8956L6.22931 16.874C6.23632 16.8781 6.2426 16.8785 6.24722 16.8759L6.2474 16.8757ZM6.27399 16.9217L6.23669 16.9433C6.24777 16.9366 6.25497 16.9228 6.25497 16.9028L6.29226 16.8812C6.29226 16.9012 6.28543 16.915 6.27399 16.9217Z" fill="#4C525D"/>
<path id="Vector_146" d="M6.25667 16.3616L6.29377 16.3398L6.2923 16.8815L6.255 16.9031L6.25667 16.3616Z" fill="#4C525D"/>
<path id="Vector_147" d="M6.19388 16.2529C6.21215 16.2648 6.22735 16.2808 6.23826 16.2997C6.24917 16.3185 6.25547 16.3397 6.25665 16.3614L6.25481 16.9029C6.25481 16.943 6.22674 16.959 6.19204 16.9389L5.64742 16.6247C5.62924 16.6128 5.61413 16.5968 5.60331 16.578C5.5925 16.5591 5.5863 16.538 5.58521 16.5163L5.58687 15.9747C5.58687 15.9352 5.61511 15.9187 5.64964 15.9387L6.19388 16.2529ZM6.21751 16.8813L6.21899 16.3397C6.21849 16.3309 6.21594 16.3225 6.21154 16.3149C6.20715 16.3074 6.20103 16.301 6.1937 16.2963L5.64945 15.9821C5.6356 15.9741 5.62434 15.9804 5.62434 15.9963L5.62268 16.5379C5.62311 16.5466 5.62559 16.5551 5.62992 16.5627C5.63426 16.5703 5.64031 16.5767 5.6476 16.5815L6.19204 16.8957C6.20588 16.9038 6.21733 16.8972 6.21751 16.8813Z" fill="#5F656F"/>
<path id="Vector_148" d="M6.29366 16.3398L6.25673 16.3614C6.25553 16.3396 6.2492 16.3185 6.23826 16.2996C6.22732 16.2807 6.21208 16.2647 6.19378 16.2529L5.64972 15.9388C5.63218 15.9287 5.61686 15.9281 5.60522 15.9346L5.6427 15.9128C5.65378 15.9065 5.66984 15.9071 5.68664 15.917L6.23126 16.2314C6.24956 16.2432 6.26477 16.2593 6.27562 16.2781C6.28648 16.297 6.29266 16.3181 6.29366 16.3398Z" fill="#4C525D"/>
<path id="Vector_149" d="M4.79504 16.123L4.79578 16.2104C4.79578 16.2259 4.80538 16.2406 4.82587 16.2523L5.68858 16.7539V16.6666L4.82532 16.165C4.80538 16.1531 4.79504 16.1386 4.79504 16.123Z" fill="#875744"/>
<path id="Vector_150" d="M5.68884 16.6666V16.7539L6.455 16.3119V16.2246L5.68884 16.6666Z" fill="#93624A"/>
<path id="Vector_151" d="M4.82593 16.0801C4.78532 16.1035 4.78495 16.1416 4.82557 16.165L5.68864 16.6666L6.4548 16.2243L5.5919 15.7227C5.56914 15.7111 5.54396 15.7051 5.51843 15.7051C5.49289 15.7051 5.46772 15.7111 5.44495 15.7227L4.82593 16.0801Z" fill="#B7805A"/>
<path id="Vector_152" d="M5.68884 16.6678L6.455 16.2248L6.45444 15.459L5.69032 15.9032L5.68884 16.6678Z" fill="#93624A"/>
<path id="Vector_153" d="M5.69031 15.9032L6.45462 15.459L6.63498 15.019L5.87068 15.463L5.69031 15.9032Z" fill="#9E6A4D"/>
<path id="Vector_154" d="M5.87079 15.463L6.63492 15.019L6.56716 14.9507L5.80286 15.3947L5.87079 15.463Z" fill="#B7805A"/>
<path id="Vector_155" d="M5.80311 15.3945L5.61794 15.8459L5.61572 16.6248L5.68809 16.6665L5.69031 15.903L5.87068 15.4628L5.80311 15.3945Z" fill="#875744"/>
<path id="Vector_156" d="M10.3131 8.53409L10.513 8.41797L10.5086 9.9536L10.3088 10.0697L10.3131 8.53409Z" fill="#4079AD"/>
<path id="Vector_157" d="M4.01733 4.89951L4.21709 4.7832L10.513 8.41828L10.3131 8.53459L4.01733 4.89951Z" fill="#5388CA"/>
<path id="Vector_158" d="M10.313 8.53431L10.3088 10.0699L4.01282 6.43486L4.01725 4.89941L10.313 8.53431Z" fill="#4B82BF"/>
<path id="Vector_159" d="M4.71148 6.19944L4.83757 6.48042L4.698 6.39974L4.59 6.15679L4.58336 6.1531L4.46982 6.08738L4.46927 6.26774L4.33911 6.19261L4.34096 5.5459L4.58465 5.68676C4.6345 5.71556 4.67733 5.74934 4.71407 5.78978C4.75099 5.83002 4.77905 5.87378 4.79843 5.92011C4.81874 5.96664 4.82871 6.01408 4.82853 6.06227C4.82853 6.11045 4.81819 6.14608 4.79788 6.16861C4.77757 6.19168 4.74914 6.20202 4.71148 6.19944ZM4.66551 6.05138C4.68582 6.04307 4.69616 6.02147 4.69616 5.98584C4.69637 5.94976 4.6859 5.91443 4.66607 5.8843C4.64576 5.85347 4.61622 5.82725 4.57726 5.80473L4.47093 5.74325L4.47019 5.96848L4.57653 6.02996C4.61567 6.05248 4.6452 6.0595 4.66551 6.05138ZM5.35653 6.13224L5.35616 6.25205L5.06114 6.08165L5.06077 6.22196L5.32182 6.37279L5.32145 6.4891L5.0604 6.33845L5.06003 6.48799L5.36594 6.66467L5.36557 6.78522L4.93007 6.53378L4.93191 5.88725L5.35653 6.13224ZM5.6748 6.30522C5.75027 6.34838 5.81657 6.40589 5.86994 6.47451L5.82988 6.56553C5.778 6.50128 5.72594 6.45476 5.67388 6.42448C5.6377 6.40362 5.61093 6.39494 5.59357 6.39808C5.57603 6.40233 5.56736 6.4147 5.56736 6.43722C5.56736 6.45882 5.57659 6.48079 5.5969 6.50331C5.6172 6.52584 5.64748 6.55427 5.68865 6.58879C5.73203 6.62553 5.76674 6.6571 5.79407 6.68479C5.82157 6.71211 5.84465 6.74387 5.86422 6.78005C5.8836 6.81698 5.89376 6.85704 5.89357 6.90005C5.89339 6.93679 5.88397 6.96541 5.8657 6.98571C5.84816 7.00565 5.82139 7.01433 5.7852 7.01156C5.74902 7.00824 5.70563 6.99236 5.65413 6.96282C5.60769 6.93576 5.56435 6.90369 5.5249 6.86719C5.48755 6.83385 5.45411 6.79638 5.4252 6.7555L5.46951 6.66799C5.49407 6.70307 5.52231 6.73501 5.55554 6.76676C5.58877 6.79833 5.622 6.82418 5.65523 6.84337C5.69216 6.86479 5.71967 6.87402 5.73702 6.87144C5.75511 6.86959 5.76379 6.85704 5.76397 6.83636C5.76352 6.81932 5.75799 6.8028 5.7481 6.78891C5.73681 6.77168 5.72348 6.75588 5.7084 6.74184C5.68691 6.72136 5.66474 6.70159 5.64194 6.68258C5.60549 6.65198 5.57027 6.61995 5.53634 6.58658C5.50839 6.55787 5.48482 6.52522 5.46637 6.48965C5.44701 6.45272 5.43718 6.41153 5.43776 6.36984C5.43776 6.33254 5.44662 6.30338 5.46416 6.2827C5.48225 6.26239 5.5092 6.25371 5.54465 6.25685C5.5801 6.2587 5.62348 6.27568 5.6748 6.30522ZM6.40256 6.7363L6.40219 6.85833L6.22219 6.75439L6.22071 7.27888L6.09037 7.20374L6.09185 6.67925L5.91185 6.57531L5.91222 6.4531L6.40256 6.7363ZM6.74963 6.93661L6.9996 7.72861L6.86299 7.64978L6.81351 7.48214L6.55228 7.33131L6.50207 7.44134L6.36896 7.36454L6.62096 6.86239L6.74963 6.93661ZM6.59456 7.24178L6.77253 7.34442L6.68428 7.04534L6.59456 7.24178ZM7.55271 7.40018L7.5516 7.76184C7.55142 7.85654 7.52871 7.91691 7.48385 7.94239C7.4388 7.96713 7.3764 7.95716 7.29628 7.91064C7.21616 7.86411 7.15302 7.80227 7.10834 7.72565C7.0634 7.64709 7.04044 7.55787 7.04188 7.46738L7.0428 7.1059L7.17296 7.18104L7.17203 7.53753C7.17167 7.6531 7.21339 7.73544 7.29739 7.78399C7.33782 7.80725 7.36902 7.81113 7.3908 7.79544C7.41185 7.77938 7.42274 7.74227 7.42293 7.68245L7.42403 7.32596L7.55271 7.40018ZM8.0521 8.12811L8.178 8.4091L8.0377 8.32787L7.9297 8.08491L7.92323 8.08122L7.81043 8.01605L7.80988 8.19642L7.67973 8.12128L7.68157 7.47458L7.92453 7.61488C7.97437 7.64368 8.01776 7.67802 8.05468 7.71827C8.0916 7.75888 8.11966 7.80245 8.13905 7.84861C8.15843 7.89476 8.16859 7.94221 8.1684 7.99039C8.16822 8.03858 8.15788 8.07439 8.13831 8.0971C8.118 8.12036 8.08902 8.13033 8.0521 8.12811ZM8.00594 7.98005C8.02625 7.97174 8.03659 7.95014 8.03677 7.91451C8.03693 7.87842 8.02639 7.84309 8.0065 7.81298C7.98619 7.78214 7.95665 7.75574 7.91696 7.73285L7.81136 7.67193L7.81062 7.89716L7.91622 7.95808C7.9561 7.98116 7.98563 7.98818 8.00594 7.98005ZM8.5777 7.99205L8.82693 8.78368L8.69031 8.70467L8.64139 8.53741L8.38016 8.38676L8.32994 8.49661L8.1961 8.41944L8.44902 7.91765L8.5777 7.99205ZM8.4217 8.29667L8.6004 8.39987L8.51216 8.10079L8.4217 8.29667ZM9.40385 8.46891L9.402 9.11562L9.29493 9.05378L9.01542 8.49864L9.01431 8.89187L8.88619 8.81802L8.88803 8.17113L8.99511 8.23298L9.27388 8.78682L9.27499 8.3947L9.40385 8.46891ZM9.96379 8.79218L9.96342 8.91439L9.78323 8.81045L9.78176 9.33476L9.6516 9.25981L9.65308 8.73531L9.47363 8.63156L9.474 8.50953L9.96379 8.79218Z" fill="white"/>
<path id="Vector_160" d="M13.9053 17.9009V21.0781L12.0406 22.1618L10.5785 21.3181V17.9009H13.9053Z" fill="#5F656F"/>
</g>
</g>
</svg>
