<svg width="32" height="32" viewBox="0 0 32 32" fill="none" xmlns="http://www.w3.org/2000/svg">
<g id="icon-transport">
<g id="car">
<path id="Vector" d="M8.43066 19.2983L10.3409 18.0935L8.53441 17.1107L8.43066 19.2983ZM18.9555 25.9089L20.8657 24.7041L19.0593 23.7213L18.9555 25.9089Z" fill="#322A50"/>
<path id="Vector_2" d="M27.4476 16.906L21.5315 12.5367L21.201 12.6061L16.8481 9.85738L16.1544 9.14193L13.8622 7.69617L11.3133 6.09085C11.1393 5.98111 10.9806 5.97451 10.8585 6.05101L10.8578 6.0504L3.59106 10.635L20.8971 25.3534L26.5241 23.0318C26.5402 23.0234 28.1506 20.7771 28.1654 20.766L28.1732 20.7611L28.1728 20.7609C28.3027 20.6592 28.3837 20.4537 28.3837 20.1692V18.9904C28.3837 18.2149 27.9779 17.3111 27.4476 16.906Z" fill="url(#paint0_linear_2227_26944)"/>
<path id="Vector_3" d="M9.84726 15.9266L13.5423 17.6443L14.2795 17.1117L21.5317 12.5367L21.2012 12.6061L16.8483 9.85747L16.1546 9.14197L8.90234 13.717L9.84726 15.9266Z" fill="url(#paint1_linear_2227_26944)"/>
<path id="Vector_4" d="M19.6427 12.1145C19.6426 11.9 19.5828 11.6905 19.4713 11.514L18.9309 11.1727C18.9125 11.1793 18.8947 11.188 18.8779 11.1986L12.5488 15.1911L13.1261 17.4509L13.5419 17.6442L14.2791 17.1115L19.6427 13.728V12.1145H19.6427Z" fill="url(#paint2_linear_2227_26944)"/>
<path id="Vector_5" d="M12.416 16.2129V15.451C12.416 15.2171 12.6478 15.0709 12.8332 15.1879C12.9806 15.2808 13.103 15.4145 13.188 15.5756C13.2731 15.7366 13.3179 15.9192 13.3179 16.1051V16.7818L12.416 16.2129Z" fill="url(#paint3_linear_2227_26944)"/>
<path id="Vector_6" d="M16.1286 9.26633C16.0351 9.20736 15.93 9.21541 15.8486 9.26772L9.51953 13.2602L10.2879 15.8075L16.6134 11.8172V10.1836C16.6134 9.99764 16.5686 9.815 16.4835 9.65399C16.3984 9.49298 16.276 9.35928 16.1286 9.26633Z" fill="url(#paint4_linear_2227_26944)"/>
<path id="Vector_7" d="M9.38574 14.282V13.5201C9.38574 13.2862 9.61752 13.14 9.80292 13.257C9.95031 13.3499 10.0727 13.4836 10.1578 13.6446C10.2429 13.8056 10.2877 13.9883 10.2877 14.1742V14.8509L9.38574 14.282Z" fill="url(#paint5_linear_2227_26944)"/>
<path id="Vector_8" d="M6.61011 12.2711L8.9023 13.7168L9.596 14.4323L13.9489 17.1811L14.2794 17.1115L20.1955 21.4809C20.7257 21.886 21.1316 22.7898 21.1316 23.5653V24.7441C21.1316 25.3022 20.821 25.5587 20.4379 25.3171L7.51318 17.1991C7.19675 16.9995 6.88439 16.6984 6.59939 16.3182L3.94633 13.7277C3.59045 13.2529 3.36426 12.5853 3.36426 12.0097V11.2412C3.36426 10.6806 3.67627 10.423 4.0611 10.6657L6.61011 12.2711Z" fill="url(#paint6_linear_2227_26944)"/>
<path id="Vector_9" d="M19.5376 24.503C19.5376 25.7614 18.8373 26.3397 17.9734 25.7949C17.1095 25.25 16.4092 23.7882 16.4092 22.5299C16.4092 21.2715 17.1095 20.6932 17.9734 21.238C18.8373 21.7829 19.5376 23.2447 19.5376 24.503Z" fill="url(#paint7_linear_2227_26944)"/>
<path id="Vector_10" d="M18.7412 24.0018C18.7412 24.6205 18.3969 24.9049 17.9722 24.637C17.5474 24.3691 17.2031 23.6503 17.2031 23.0317C17.2031 22.413 17.5474 22.1286 17.9722 22.3965C18.3969 22.6644 18.7412 23.3832 18.7412 24.0018Z" fill="url(#paint8_linear_2227_26944)"/>
<path id="Vector_11" d="M18.6321 23.9324C18.6321 24.4628 18.3369 24.7066 17.9728 24.477C17.6087 24.2473 17.3135 23.6311 17.3135 23.1008C17.3135 22.5704 17.6086 22.3266 17.9728 22.5563C18.3369 22.786 18.6321 23.4021 18.6321 23.9324Z" fill="url(#paint9_linear_2227_26944)"/>
<path id="Vector_12" d="M9.0132 17.8927C9.0132 19.1511 8.31291 19.7294 7.44898 19.1845C6.58511 18.6397 5.88477 17.1779 5.88477 15.9195C5.88477 14.6611 6.58506 14.0828 7.44898 14.6277C8.31286 15.1725 9.0132 16.6343 9.0132 17.8927Z" fill="url(#paint10_linear_2227_26944)"/>
<path id="Vector_13" d="M8.2178 17.3908C8.2178 18.0095 7.8735 18.2939 7.44875 18.026C7.024 17.7581 6.67969 17.0394 6.67969 16.4207C6.67969 15.802 7.024 15.5176 7.44875 15.7855C7.8735 16.0534 8.2178 16.7721 8.2178 17.3908Z" fill="url(#paint11_linear_2227_26944)"/>
<path id="Vector_14" d="M8.10667 17.3217C8.10667 17.8521 7.81152 18.0959 7.4474 17.8662C7.08329 17.6366 6.78809 17.0204 6.78809 16.49C6.78809 15.9597 7.08324 15.7159 7.4474 15.9456C7.81152 16.1752 8.10667 16.7913 8.10667 17.3217Z" fill="url(#paint12_linear_2227_26944)"/>
<path id="Vector_15" d="M12.9853 14.0735L14.2799 17.1115L18.0784 14.7152L21.5322 12.5365L20.1899 9.38654C20.0598 9.08124 19.7181 8.96346 19.4512 9.13184L13.2904 13.0177C12.9535 13.2301 12.8211 13.6884 12.9853 14.0735Z" fill="url(#paint13_linear_2227_26944)"/>
<path id="Vector_16" d="M19.4509 9.13184L16.1523 11.2123L18.89 14.2031L21.5318 12.5365L20.1895 9.38654C20.0594 9.08124 19.7178 8.96346 19.4509 9.13184Z" fill="url(#paint14_linear_2227_26944)"/>
<g id="Vector_17">
<path d="M13.4885 13.3926L19.6493 9.50679C19.6686 9.49435 19.6907 9.48778 19.7131 9.48776C19.7531 9.48776 19.805 9.50918 19.8306 9.56932L21.1973 12.7477L21.5321 12.5365L20.1898 9.38657C20.1002 9.1762 19.91 9.05481 19.7131 9.05481C19.6243 9.05481 19.5341 9.0795 19.4511 9.13181L13.2903 13.0176C12.9535 13.2301 12.8211 13.6884 12.9853 14.0735L14.2799 17.1115L14.6339 16.8882L13.3445 13.8908C13.3067 13.8032 13.3005 13.7033 13.3272 13.6109C13.3539 13.5185 13.4115 13.4406 13.4885 13.3926Z" fill="url(#paint15_linear_2227_26944)"/>
<path d="M13.4885 13.3926L19.6493 9.50679C19.6686 9.49435 19.6907 9.48778 19.7131 9.48776C19.7531 9.48776 19.805 9.50918 19.8306 9.56932L21.1973 12.7477L21.5321 12.5365L20.1898 9.38657C20.1002 9.1762 19.91 9.05481 19.7131 9.05481C19.6243 9.05481 19.5341 9.0795 19.4511 9.13181L13.2903 13.0176C12.9535 13.2301 12.8211 13.6884 12.9853 14.0735L14.2799 17.1115L14.6339 16.8882L13.3445 13.8908C13.3067 13.8032 13.3005 13.7033 13.3272 13.6109C13.3539 13.5185 13.4115 13.4406 13.4885 13.3926Z" fill="url(#paint16_linear_2227_26944)"/>
</g>
<g id="Group">
<path id="Vector_18" d="M22.1171 22.4147C21.9464 22.4786 21.7982 22.5993 21.6933 22.7598C21.5884 22.9202 21.5321 23.1125 21.5322 23.3097V24.4112L22.1881 24.1189C22.4661 23.9947 22.7418 23.8646 23.0152 23.7289V22.0581C22.7793 22.1627 22.4219 22.3006 22.1171 22.4147ZM26.7577 19.7341C25.9952 20.3652 25.1836 20.9224 24.3323 21.3993C23.7384 21.7319 23.3683 22.4036 23.3683 23.1327V23.5501C24.7519 22.8345 26.0684 21.9737 27.2995 20.9798V20.0269C27.2996 19.7219 26.9804 19.5499 26.7577 19.7341ZM27.8761 18.7228C27.8025 18.7957 27.7274 18.8666 27.6526 18.9381V20.6891C27.8514 20.5226 28.0477 20.3527 28.2415 20.1794V18.8996C28.2415 18.6925 28.0166 18.5836 27.8761 18.7228Z" fill="#322A50"/>
</g>
<path id="Vector_19" d="M21.1392 24.3233L20.7203 24.0591C20.454 23.8911 20.1211 24.1011 20.1211 24.437C20.1211 24.5932 20.1581 24.7466 20.2286 24.8825C20.2991 25.0183 20.4006 25.1318 20.5232 25.212C20.9352 25.4815 21.4206 25.5849 21.895 25.5041L22.7379 25.3607C24.8584 25 26.7751 23.7748 28.1018 21.9319L28.6574 21.1601C28.8791 20.8523 28.9996 20.4719 28.9995 20.0802C28.9995 19.6697 28.7456 19.3109 28.3819 19.2075L28.3245 19.89L28.1816 20.1154C27.5042 21.1838 26.6348 22.0903 25.6262 22.7797C24.6177 23.469 23.4912 23.9267 22.3155 24.125L21.1392 24.3233Z" fill="url(#paint17_linear_2227_26944)"/>
<path id="Vector_20" d="M3.91425 12.5377C3.91425 12.4927 3.89231 12.4512 3.85671 12.4287L3.51849 12.215C3.2883 12.069 3 12.2505 3 12.5412C3 12.8235 3.13788 13.0844 3.36168 13.2256L3.74158 13.4641C3.81842 13.5123 3.91425 13.4517 3.91425 13.3549V12.5377Z" fill="url(#paint18_linear_2227_26944)"/>
<path id="Vector_21" d="M21.585 23.457C21.585 23.823 21.7887 23.9912 22.0399 23.8328C22.2913 23.6743 22.4949 23.249 22.4949 22.883C22.4949 22.517 22.2913 22.3488 22.0399 22.5073C21.7887 22.6657 21.585 23.0909 21.585 23.457Z" fill="url(#paint19_linear_2227_26944)"/>
<path id="Vector_22" d="M27.6533 20.1482C27.673 20.14 27.6921 20.1301 27.7104 20.1187C27.9369 19.9758 28.1206 19.5924 28.1206 19.2624C28.1206 18.9324 27.937 18.7807 27.7104 18.9237C27.6906 18.9365 27.6715 18.9507 27.6533 18.9661V20.1482Z" fill="url(#paint20_linear_2227_26944)"/>
<path id="Vector_23" d="M22.495 21.0332L16.5195 16.7056L22.04 21.2831L22.495 21.0332Z" fill="url(#paint21_linear_2227_26944)"/>
<path id="Vector_24" d="M27.2264 18.2133L21.251 13.8857L26.7714 18.4633L27.2264 18.2133Z" fill="url(#paint22_linear_2227_26944)"/>
<path id="Vector_25" d="M14.6762 9.22546L10.2473 6.43701L10.1152 6.5204L14.4119 9.22557L8.84116 12.7392L4.54522 10.0345L4.41309 10.1179L8.84121 12.9058L14.6762 9.22546Z" fill="url(#paint23_linear_2227_26944)"/>
</g>
</g>
<defs>
<linearGradient id="paint0_linear_2227_26944" x1="21.3034" y1="24.5288" x2="19.9065" y2="22.3142" gradientUnits="userSpaceOnUse">
<stop stop-color="#FD7C34"/>
<stop offset="1" stop-color="#FFAF83"/>
</linearGradient>
<linearGradient id="paint1_linear_2227_26944" x1="15.2171" y1="18.4286" x2="15.2171" y2="7.60045" gradientUnits="userSpaceOnUse">
<stop offset="0.17" stop-color="#BA5C25"/>
<stop offset="0.825" stop-color="#CB8140"/>
<stop offset="1" stop-color="#DEA861"/>
</linearGradient>
<linearGradient id="paint2_linear_2227_26944" x1="12.5488" y1="14.4084" x2="19.6427" y2="14.4084" gradientUnits="userSpaceOnUse">
<stop stop-color="#DEA861"/>
<stop offset="0.993" stop-color="#EBCBA0"/>
</linearGradient>
<linearGradient id="paint3_linear_2227_26944" x1="12.867" y1="16.9886" x2="12.867" y2="15.0755" gradientUnits="userSpaceOnUse">
<stop stop-color="#BA5C25"/>
<stop offset="1" stop-color="#CB8140"/>
</linearGradient>
<linearGradient id="paint4_linear_2227_26944" x1="9.51953" y1="12.5164" x2="16.6134" y2="12.5164" gradientUnits="userSpaceOnUse">
<stop stop-color="#DEA861"/>
<stop offset="0.993" stop-color="#EBCBA0"/>
</linearGradient>
<linearGradient id="paint5_linear_2227_26944" x1="9.83675" y1="15.0577" x2="9.83675" y2="13.1445" gradientUnits="userSpaceOnUse">
<stop stop-color="#BA5C25"/>
<stop offset="1" stop-color="#CB8140"/>
</linearGradient>
<linearGradient id="paint6_linear_2227_26944" x1="12.248" y1="21.2938" x2="15.5975" y2="15.9835" gradientUnits="userSpaceOnUse">
<stop stop-color="#FD7C34"/>
<stop offset="1" stop-color="#FFA26F"/>
</linearGradient>
<linearGradient id="paint7_linear_2227_26944" x1="17.9734" y1="25.7968" x2="17.9734" y2="20.9899" gradientUnits="userSpaceOnUse">
<stop stop-color="#43386B"/>
<stop offset="1" stop-color="#594A8E"/>
</linearGradient>
<linearGradient id="paint8_linear_2227_26944" x1="17.9722" y1="24.9485" x2="17.9722" y2="22.4157" gradientUnits="userSpaceOnUse">
<stop stop-color="#A996EB"/>
<stop offset="1" stop-color="#D7D1EB"/>
</linearGradient>
<linearGradient id="paint9_linear_2227_26944" x1="17.9728" y1="24.4177" x2="17.9728" y2="22.8017" gradientUnits="userSpaceOnUse">
<stop stop-color="#C5BAEB"/>
<stop offset="1" stop-color="white"/>
</linearGradient>
<linearGradient id="paint10_linear_2227_26944" x1="7.44898" y1="19.1865" x2="7.44898" y2="14.3795" gradientUnits="userSpaceOnUse">
<stop stop-color="#43386B"/>
<stop offset="1" stop-color="#594A8E"/>
</linearGradient>
<linearGradient id="paint11_linear_2227_26944" x1="7.44875" y1="18.3375" x2="7.44875" y2="15.8048" gradientUnits="userSpaceOnUse">
<stop stop-color="#A996EB"/>
<stop offset="1" stop-color="#D7D1EB"/>
</linearGradient>
<linearGradient id="paint12_linear_2227_26944" x1="7.4474" y1="17.8069" x2="7.4474" y2="16.191" gradientUnits="userSpaceOnUse">
<stop stop-color="#C5BAEB"/>
<stop offset="1" stop-color="white"/>
</linearGradient>
<linearGradient id="paint13_linear_2227_26944" x1="17.4924" y1="13.7281" x2="14.0652" y2="8.36052" gradientUnits="userSpaceOnUse">
<stop stop-color="#D7D1EB"/>
<stop offset="1" stop-color="#F7F4FF"/>
</linearGradient>
<linearGradient id="paint14_linear_2227_26944" x1="16.1643" y1="14.7997" x2="19.9355" y2="11.3478" gradientUnits="userSpaceOnUse">
<stop stop-color="white"/>
<stop offset="1" stop-color="white" stop-opacity="0"/>
</linearGradient>
<linearGradient id="paint15_linear_2227_26944" x1="12.915" y1="13.0832" x2="21.5321" y2="13.0832" gradientUnits="userSpaceOnUse">
<stop stop-color="#FF4757"/>
<stop offset="1" stop-color="#FF7A85"/>
</linearGradient>
<linearGradient id="paint16_linear_2227_26944" x1="17.2236" y1="14.8769" x2="19.1235" y2="12.1872" gradientUnits="userSpaceOnUse">
<stop stop-color="#FD7C34"/>
<stop offset="1" stop-color="#FFA26F"/>
</linearGradient>
<linearGradient id="paint17_linear_2227_26944" x1="20.1211" y1="22.3692" x2="28.9996" y2="22.3692" gradientUnits="userSpaceOnUse">
<stop stop-color="#D7D1EB"/>
<stop offset="1" stop-color="#F7F4FF"/>
</linearGradient>
<linearGradient id="paint18_linear_2227_26944" x1="3" y1="12.8222" x2="3.91425" y2="12.8222" gradientUnits="userSpaceOnUse">
<stop stop-color="#D7D1EB"/>
<stop offset="1" stop-color="#F7F4FF"/>
</linearGradient>
<linearGradient id="paint19_linear_2227_26944" x1="22.04" y1="23.7918" x2="22.04" y2="22.6766" gradientUnits="userSpaceOnUse">
<stop stop-color="#C5BAEB"/>
<stop offset="1" stop-color="white"/>
</linearGradient>
<linearGradient id="paint20_linear_2227_26944" x1="27.887" y1="20.0593" x2="27.887" y2="19.0726" gradientUnits="userSpaceOnUse">
<stop stop-color="#C5BAEB"/>
<stop offset="1" stop-color="white"/>
</linearGradient>
<linearGradient id="paint21_linear_2227_26944" x1="19.5073" y1="20.0135" x2="20.5004" y2="18.2976" gradientUnits="userSpaceOnUse">
<stop stop-color="#FD7C34"/>
<stop offset="1" stop-color="#FFA26F"/>
</linearGradient>
<linearGradient id="paint22_linear_2227_26944" x1="24.2387" y1="17.1937" x2="25.2318" y2="15.4778" gradientUnits="userSpaceOnUse">
<stop stop-color="#FD7C34"/>
<stop offset="1" stop-color="#FFA26F"/>
</linearGradient>
<linearGradient id="paint23_linear_2227_26944" x1="9.54468" y1="11.1117" x2="10.8012" y2="8.47289" gradientUnits="userSpaceOnUse">
<stop stop-color="#FD7C34"/>
<stop offset="1" stop-color="#FFA26F"/>
</linearGradient>
</defs>
</svg>
