<svg width="24" height="24" viewBox="0 0 24 24" fill="none" xmlns="http://www.w3.org/2000/svg">
<g clip-path="url(#clip0_3239_37905)">
<path d="M20.3246 6.41524C20.1166 6.28502 19.879 6.24012 19.6278 6.27129C18.9286 6.35805 18.9713 1.74068 18.9713 1.74068L16.2 0.143273C15.8469 -0.0673831 15.385 -0.0540706 14.8777 0.238804C13.7711 0.877711 12.874 2.59174 12.874 4.06723V11.7338L11.9673 11.2069L11.9682 11.2106C11.5916 10.9891 11.1225 11.0378 10.6521 11.3094C10.1393 11.6055 9.62644 12.1624 9.23527 12.9099C8.45283 14.405 8.45283 16.0965 9.23527 16.6881C9.23527 16.6881 13.4959 19.9028 13.546 19.9287L16.2804 21.5079L23.049 7.98283L20.3246 6.41524Z" fill="url(#paint0_linear_3239_37905)"/>
<path d="M11.9814 18.2738L16.1474 21.4232C16.5232 21.7073 17.0328 21.6946 17.5643 21.3878C18.0957 21.081 18.6053 20.5052 18.9811 19.7873L23.1473 11.8271C23.9297 10.3321 23.9297 8.64053 23.1473 8.04892C22.3646 7.45745 21.0959 8.19001 20.3136 9.68495L19.6275 10.9958V3.3392C19.6275 1.86372 18.7304 1.18553 17.6237 1.82444C16.5171 2.46334 15.6201 4.17737 15.6201 5.65286V13.4681L14.815 12.8595C14.4238 12.5637 13.9111 12.599 13.3982 12.895C12.8854 13.1911 12.3725 13.7481 11.9814 14.4955C11.1989 15.9906 11.1989 17.6822 11.9814 18.2738Z" fill="url(#paint1_linear_3239_37905)"/>
<path d="M10.4829 4.08619L7.77506 2.52539L7.77717 2.53111C7.40958 2.29931 6.93183 2.32496 6.43345 2.61267C5.90203 2.91947 5.39241 3.49519 5.01661 4.21317L0.8505 12.1733C0.0680625 13.6684 0.0680625 15.3599 0.8505 15.9516C0.889172 15.9808 3.72839 17.6198 3.72839 17.6198L4.37025 17.7301V20.6613C4.37025 21.5068 4.66566 22.0887 5.1255 22.3128L7.7963 23.8566L10.4829 4.08619Z" fill="url(#paint2_linear_3239_37905)"/>
<path d="M14.7625 7.31072L10.5964 4.16123C10.2206 3.87717 9.71101 3.88992 9.17959 4.19671C8.64817 4.50356 8.13855 5.07923 7.76275 5.79721L3.59659 13.7573C2.81416 15.2524 2.81416 16.9439 3.59659 17.5356C4.37922 18.127 5.64798 17.3945 6.43028 15.8995L7.11639 14.5886V22.2453C7.11639 23.7208 8.01348 24.3989 9.12011 23.76C10.2267 23.1211 11.1238 21.4071 11.1238 19.9316V12.1163L11.9289 12.725C12.3201 13.0207 12.8329 12.9855 13.3457 12.6894C13.8585 12.3934 14.3714 11.8364 14.7625 11.0889C15.5449 9.59386 15.5449 7.90232 14.7625 7.31072Z" fill="url(#paint3_linear_3239_37905)"/>
</g>
<defs>
<linearGradient id="paint0_linear_3239_37905" x1="16.4424" y1="8.94668" x2="20.4377" y2="2.02666" gradientUnits="userSpaceOnUse">
<stop stop-color="#C62834"/>
<stop offset="0.195" stop-color="#C92A36"/>
<stop offset="0.355" stop-color="#D32F3C"/>
<stop offset="0.502" stop-color="#E53847"/>
<stop offset="0.641" stop-color="#FC4455"/>
<stop offset="0.653" stop-color="#FF4557"/>
<stop offset="0.842" stop-color="#FF7B86"/>
</linearGradient>
<linearGradient id="paint1_linear_3239_37905" x1="17.5643" y1="23.8586" x2="17.5643" y2="0.692779" gradientUnits="userSpaceOnUse">
<stop stop-color="#FF4557"/>
<stop offset="1" stop-color="#FF7B86"/>
</linearGradient>
<linearGradient id="paint2_linear_3239_37905" x1="3.62798" y1="18.8428" x2="12.4957" y2="3.48352" gradientUnits="userSpaceOnUse">
<stop offset="0.055" stop-color="#006568"/>
<stop offset="0.117" stop-color="#0F7A7A"/>
<stop offset="0.278" stop-color="#32ACA5"/>
<stop offset="0.42" stop-color="#4CD1C4"/>
<stop offset="0.534" stop-color="#5BE7D7"/>
<stop offset="0.607" stop-color="#61EFDE"/>
<stop offset="0.881" stop-color="#89F2E4"/>
<stop offset="0.882" stop-color="#86F2E4"/>
<stop offset="0.896" stop-color="#75F1E1"/>
<stop offset="0.912" stop-color="#6AF0DF"/>
<stop offset="0.935" stop-color="#63EFDE"/>
<stop offset="1" stop-color="#61EFDE"/>
</linearGradient>
<linearGradient id="paint3_linear_3239_37905" x1="9.17958" y1="23.7451" x2="-2.32102" y2="3.82606" gradientUnits="userSpaceOnUse">
<stop stop-color="#00DAAC"/>
<stop offset="1" stop-color="#61EFDE"/>
</linearGradient>
<clipPath id="clip0_3239_37905">
<rect width="24" height="24" fill="white"/>
</clipPath>
</defs>
</svg>
