<svg width="24" height="24" viewBox="0 0 24 24" fill="none" xmlns="http://www.w3.org/2000/svg">
<path d="M19.2714 6.59229L4.64258 7.82445L4.64819 19.6458C4.63745 20.547 5.21729 21.409 6.42651 22.0513C9.07158 23.4563 13.6919 23.2801 16.7462 21.6578C18.4476 20.7541 19.3014 19.5926 19.2693 18.4978L19.2714 6.59229Z" fill="url(#paint0_linear_2893_14338)"/>
<path d="M19.2678 16.8423C19.242 17.9046 18.3894 19.0192 16.7447 19.8929C13.6904 21.5152 9.07002 21.6914 6.42495 20.2864C5.21572 19.6442 4.63584 18.7821 4.64663 17.881V18.6187C4.63589 19.5199 5.21572 20.3819 6.42495 21.0242C9.07002 22.4292 13.6904 22.253 16.7447 20.6307C18.446 19.727 19.2999 18.5654 19.2677 17.4707L19.2678 16.8423Z" fill="url(#paint1_linear_2893_14338)"/>
<path d="M19.9106 3.57422L4.00195 4.91419L4.00806 6.70024C3.99634 7.68022 4.6269 8.61765 5.94194 9.31614C8.81841 10.844 13.843 10.6524 17.1644 8.88817C19.0146 7.90545 19.9431 6.64225 19.9082 5.45173L19.9106 3.57422Z" fill="url(#paint2_linear_2893_14338)"/>
<path d="M17.9701 1.03149C15.0936 -0.496399 10.0692 -0.304806 6.74769 1.45946C3.4262 3.22372 3.06541 5.89253 5.94192 7.42041C8.81844 8.9483 13.8429 8.75671 17.1644 6.99244C20.4859 5.22818 20.8467 2.55937 17.9701 1.03149Z" fill="url(#paint3_linear_2893_14338)"/>
<path d="M5.78833 18.6025C5.8022 18.6123 5.81611 18.622 5.83013 18.6317C6.15083 18.8542 6.61016 18.6418 6.61016 18.2722V11.4899C6.61008 11.3297 6.56813 11.172 6.48782 11.0299C6.40752 10.8878 6.29123 10.7656 6.14878 10.6735L6.13301 10.6633C5.80952 10.4533 5.36328 10.6648 5.36328 11.029V17.8104C5.36317 17.9636 5.40147 18.1148 5.47518 18.2522C5.5489 18.3895 5.65606 18.5094 5.78833 18.6025Z" fill="url(#paint4_linear_2893_14338)"/>
<path d="M17.2949 10.8075V17.488C17.2949 17.8411 17.7532 18.0219 18.0336 17.7808C18.0636 17.755 18.0929 17.7292 18.1218 17.7033C18.3945 17.4582 18.5418 17.1182 18.5418 16.7674V10.0899C18.5418 9.74783 18.1069 9.56042 17.8234 9.78171L17.8102 9.79204C17.4846 10.0447 17.2949 10.4157 17.2949 10.8075Z" fill="url(#paint5_linear_2893_14338)"/>
<path d="M8.90195 19.8255L8.91675 19.8279C9.26865 19.8854 9.59258 19.6388 9.59258 19.3101V12.2901C9.59258 11.9835 9.35054 11.7238 9.02188 11.6733L9.00933 11.6714C8.66162 11.6176 8.3457 11.8661 8.3457 12.1905V19.2102C8.3457 19.5118 8.57925 19.7723 8.90195 19.8255Z" fill="url(#paint6_linear_2893_14338)"/>
<path d="M14.9423 19.3841L14.9548 19.3802C15.1311 19.3252 15.2842 19.2208 15.3926 19.0817C15.5011 18.9425 15.5594 18.7756 15.5593 18.6043V11.6317C15.5593 11.3315 15.2395 11.121 14.9302 11.2167L14.9177 11.2205C14.5559 11.3319 14.3125 11.6441 14.3125 11.9952V18.9677C14.3125 19.2679 14.6332 19.48 14.9423 19.3841Z" fill="url(#paint7_linear_2893_14338)"/>
<path d="M12.0375 19.9378L12.05 19.9368C12.3464 19.9124 12.575 19.6862 12.575 19.4124V12.3807C12.575 12.0281 12.2479 11.7532 11.8656 11.7796L11.8532 11.7804C11.5563 11.8007 11.3281 12.0306 11.3281 12.3044V19.3361C11.3281 19.6888 11.6557 19.9689 12.0375 19.9378Z" fill="url(#paint8_linear_2893_14338)"/>
<path d="M13.4002 1.38954C13.3977 1.38811 13.3954 1.38636 13.3928 1.38496C13.3901 1.38353 13.3872 1.38258 13.3845 1.38119L13.3792 1.37836L13.3788 1.37858C13.327 1.35371 13.2692 1.34125 13.2108 1.34235C13.1523 1.34346 13.0952 1.3581 13.0445 1.38492L9.90068 3.0548C9.84775 3.08292 9.8038 3.12337 9.77324 3.17207C9.74267 3.22076 9.72658 3.276 9.72656 3.33224V5.27619L10.7215 5.80438L11.0201 3.98608L14.3906 1.91477L13.4002 1.38954Z" fill="url(#paint9_linear_2893_14338)"/>
<path d="M13.8641 4.13511L12.8691 3.60692V3.27459L13.9543 2.60498L13.8641 4.13511Z" fill="url(#paint10_linear_2893_14338)"/>
<path d="M11.4172 4.04537L13.8646 2.74542V4.13441L14.561 3.76447V2.19054C14.5611 2.1343 14.545 2.07903 14.5144 2.03032C14.4839 1.9816 14.4399 1.94115 14.387 1.91302C14.334 1.8849 14.2739 1.8701 14.2128 1.87012C14.1517 1.87013 14.0916 1.88496 14.0387 1.91311L10.8948 3.58299C10.8419 3.61111 10.7979 3.65156 10.7674 3.70025C10.7368 3.74895 10.7207 3.80419 10.7207 3.86043V5.80438L11.4171 5.43444V4.04537H11.4172Z" fill="url(#paint11_linear_2893_14338)"/>
<defs>
<linearGradient id="paint0_linear_2893_14338" x1="5.70923" y1="14.7961" x2="18.6093" y2="14.7961" gradientUnits="userSpaceOnUse">
<stop stop-color="#C9BAEC"/>
<stop offset="1" stop-color="#EAE5F6"/>
</linearGradient>
<linearGradient id="paint1_linear_2893_14338" x1="5.71265" y1="19.4075" x2="18.6068" y2="19.4075" gradientUnits="userSpaceOnUse">
<stop stop-color="#B096ED"/>
<stop offset="1" stop-color="#C9BAEC"/>
</linearGradient>
<linearGradient id="paint2_linear_2893_14338" x1="-1.74751" y1="6.96093" x2="18.0365" y2="6.96093" gradientUnits="userSpaceOnUse">
<stop stop-color="#C9BAEC"/>
<stop offset="1" stop-color="#EAE5F6"/>
</linearGradient>
<linearGradient id="paint3_linear_2893_14338" x1="3.99998" y1="4.22593" x2="19.9121" y2="4.22593" gradientUnits="userSpaceOnUse">
<stop stop-color="#EAE5F6"/>
<stop offset="1" stop-color="#F3EEFA"/>
</linearGradient>
<linearGradient id="paint4_linear_2893_14338" x1="5.98677" y1="19.7465" x2="5.98677" y2="8.02479" gradientUnits="userSpaceOnUse">
<stop stop-color="#B096ED"/>
<stop offset="1" stop-color="#C9BAEC"/>
</linearGradient>
<linearGradient id="paint5_linear_2893_14338" x1="17.9184" y1="19.5513" x2="17.9184" y2="7.95311" gradientUnits="userSpaceOnUse">
<stop stop-color="#B096ED"/>
<stop offset="1" stop-color="#C9BAEC"/>
</linearGradient>
<linearGradient id="paint6_linear_2893_14338" x1="8.96914" y1="20.2481" x2="8.96914" y2="7.64766" gradientUnits="userSpaceOnUse">
<stop stop-color="#B096ED"/>
<stop offset="1" stop-color="#C9BAEC"/>
</linearGradient>
<linearGradient id="paint7_linear_2893_14338" x1="14.9359" y1="20.1197" x2="14.9359" y2="7.7049" gradientUnits="userSpaceOnUse">
<stop stop-color="#B096ED"/>
<stop offset="1" stop-color="#C9BAEC"/>
</linearGradient>
<linearGradient id="paint8_linear_2893_14338" x1="11.9516" y1="20.3035" x2="11.9516" y2="7.57481" gradientUnits="userSpaceOnUse">
<stop stop-color="#B096ED"/>
<stop offset="1" stop-color="#C9BAEC"/>
</linearGradient>
<linearGradient id="paint9_linear_2893_14338" x1="10.9639" y1="4.32501" x2="11.4362" y2="3.43587" gradientUnits="userSpaceOnUse">
<stop stop-color="#D9D1EC"/>
<stop offset="1" stop-color="#F3EEFA"/>
</linearGradient>
<linearGradient id="paint10_linear_2893_14338" x1="13.4117" y1="2.80479" x2="13.4117" y2="4.40918" gradientUnits="userSpaceOnUse">
<stop stop-color="#D9D1EC"/>
<stop offset="1" stop-color="#F3EEFA"/>
</linearGradient>
<linearGradient id="paint11_linear_2893_14338" x1="12.6409" y1="5.80433" x2="12.6409" y2="1.87016" gradientUnits="userSpaceOnUse">
<stop stop-color="#C9BAEC"/>
<stop offset="1" stop-color="#EAE5F6"/>
</linearGradient>
</defs>
</svg>
