<svg width="24" height="24" viewBox="0 0 24 24" fill="none" xmlns="http://www.w3.org/2000/svg">
<path d="M19.9384 8.00612C19.9437 8.00851 19.9493 8.01038 19.9546 8.01296L19.141 7.59934C18.8206 7.41184 18.5165 7.60754 18.5165 7.60754L17.9398 7.89732V7.28368C17.9398 7.28368 17.9361 7.22705 17.9309 7.20198C17.8921 7.00801 17.719 6.88445 17.5138 6.82871L16.7643 6.50045C16.6659 6.45862 16.5572 6.43847 16.4478 6.44175C16.3384 6.44504 16.2316 6.47166 16.1368 6.51929L8.50195 10.3556L5.61374 11.8068C5.12846 12.0507 5.06883 12.4616 5.06883 12.6447V22.8004C5.05779 23.1304 5.23984 23.4646 5.61589 23.6526C6.07123 23.8802 6.58728 23.9997 7.11238 23.9992C7.63747 23.9987 8.15321 23.8781 8.60795 23.6496L19.4253 18.2142C19.4299 18.2116 19.4339 18.2081 19.437 18.2041C19.6803 18.0614 19.8795 17.8688 20.0173 17.6434C20.155 17.4179 20.2271 17.1665 20.2271 16.9112V8.41834C20.2271 8.23131 20.1052 8.08163 19.9384 8.00612Z" fill="url(#paint0_linear_3239_34946)"/>
<path d="M6.84235 13.116L7.75663 11.5957L6.41329 12.2707C6.10182 12.4272 6.10182 12.8184 6.41329 12.975C6.58468 13.0611 6.88193 13.123 6.84235 13.116Z" fill="#BA5C25"/>
<path d="M16.4029 4.6128C16.692 4.80307 16.6921 5.34719 16.4029 5.82808C16.1136 6.30897 15.6448 6.54461 15.3556 6.3543C15.0664 6.16404 15.0664 5.61991 15.3556 5.13902C15.6448 4.65813 16.1137 4.42254 16.4029 4.6128Z" fill="#06DAAE"/>
<path d="M20.5976 3.61997L15.4421 0.227954L15.0323 0.0287351C14.9062 -0.0541868 14.7019 0.0484694 14.5759 0.258048L6.84375 13.1156C7.18385 13.1757 7.53745 13.1255 7.83801 12.9745L18.5177 7.60833L20.5977 4.14956C20.7236 3.93999 20.7236 3.70289 20.5976 3.61997Z" fill="url(#paint1_linear_3239_34946)"/>
<path d="M20.597 3.61996L15.4414 0.227948C15.3154 0.145026 15.1111 0.247729 14.9851 0.45726L7.36914 13.1216C7.53393 13.0969 7.69243 13.0471 7.83735 12.9745L18.517 7.60832L20.597 4.14956C20.723 3.93998 20.723 3.70289 20.597 3.61996Z" fill="#06DAAE"/>
<path d="M16.9372 8.40252L19.2453 4.5643L15.2143 1.91211L8.875 12.4535L16.9372 8.40252Z" fill="#2F878A"/>
<path d="M15.1014 9.32455C15.2553 8.55434 15.0987 7.86659 14.6311 7.55891C13.9272 7.09578 12.7859 7.66925 12.082 8.83977C11.6144 9.61733 11.4581 10.4623 11.6118 11.078L15.1014 9.32455Z" fill="#06DAAE"/>
<path d="M20.8939 11.18L20.894 11.1798L20.4246 10.944L20.4246 10.9441C20.3748 10.9098 20.3054 10.9079 20.2285 10.9465L18.353 11.8891C18.2691 11.9313 18.1899 12.0156 18.1379 12.1181L17.4731 13.4291C17.3944 13.5842 17.3944 13.7473 17.4731 13.8234L18.1379 14.4661C18.147 14.4749 18.1572 14.4818 18.1679 14.4878L18.1671 14.4887L18.6786 14.7457L18.6786 14.7457C18.727 14.7668 18.7877 14.7618 18.8512 14.73L20.7266 13.7874C20.878 13.7113 21.0007 13.5072 21.0007 13.3315V11.3779C21.0007 11.2754 20.9588 11.2055 20.8939 11.18Z" fill="url(#paint2_linear_3239_34946)"/>
<path d="M18.851 14.7311L20.7265 13.7884C20.8779 13.7124 21.0007 13.5083 21.0007 13.3326V11.3789C21.0007 11.2032 20.8779 11.1225 20.7265 11.1986L18.851 12.1412C18.7672 12.1833 18.6879 12.2677 18.6359 12.3702L17.9711 13.6811C17.8924 13.8362 17.8924 13.9993 17.9711 14.0754L18.6359 14.7181C18.6879 14.7685 18.7671 14.7732 18.851 14.7311Z" fill="url(#paint3_linear_3239_34946)"/>
<path d="M20.1081 12.4553L20.1081 12.4552L19.8659 12.3342L19.8659 12.3344C19.7439 12.2745 19.5856 12.2806 19.4124 12.3676C19.0272 12.5612 18.7148 13.0806 18.7148 13.5277C18.7148 13.7719 18.8082 13.9438 18.9555 14.0182L18.9555 14.0183L19.2183 14.1487L19.2183 14.1486C19.3405 14.2093 19.4994 14.2035 19.6733 14.1161C20.0586 13.9225 20.3709 13.4031 20.3709 12.956C20.3708 12.6998 20.2682 12.5231 20.1081 12.4553Z" fill="url(#paint4_linear_3239_34946)"/>
<path d="M20.2358 13.5208C20.4676 13.0472 20.4061 12.5708 20.0982 12.4566C19.7904 12.3425 19.3529 12.6338 19.121 13.1074C18.8891 13.5809 18.9507 14.0574 19.2586 14.1716C19.5664 14.2857 20.0039 13.9944 20.2358 13.5208Z" fill="#5D3645"/>
<path d="M19.1417 7.5999C18.9816 7.50461 18.7639 7.48412 18.572 7.58054L7.83747 12.9743C7.6211 13.083 7.37566 13.1402 7.12582 13.1402C6.87598 13.1402 6.63054 13.083 6.41416 12.9743C6.10268 12.8178 6.10268 12.4265 6.41416 12.2701L7.75749 11.5951L8.50249 10.3562L5.61428 11.8074C4.88544 12.1737 4.88662 13.0896 5.61643 13.4544C6.07178 13.6819 6.58782 13.8015 7.11291 13.8009C7.63801 13.8004 8.15374 13.6799 8.60849 13.4514L19.4258 8.01601C19.6021 7.92747 19.8 7.93754 19.9551 8.01357L19.1417 7.5999Z" fill="#DEA861"/>
<path d="M12.7649 2.61815L12.7651 2.61763L11.7281 2.11152L11.728 2.11171C11.1988 1.82273 10.4976 1.83702 9.72817 2.22365C8.08015 3.05174 6.74414 5.27334 6.74414 7.18574C6.74414 8.19595 7.11712 8.9174 7.71174 9.25162L7.71164 9.25181L7.71406 9.25303C7.7572 9.27717 7.80169 9.29906 7.84715 9.31912L8.80576 9.78576L8.80603 9.78524C9.33898 10.0936 10.0534 10.0877 10.8393 9.69285C12.4873 8.86476 13.8233 6.64317 13.8233 4.73076C13.8233 3.67012 13.412 2.92818 12.7649 2.61815Z" fill="url(#paint5_linear_3239_34946)"/>
<path d="M13.2284 7.11824C14.2203 5.09257 13.9568 3.05457 12.64 2.56622C11.3232 2.07788 9.45172 3.32413 8.45991 5.34979C7.46809 7.37545 7.73153 9.41346 9.04833 9.9018C10.3651 10.3901 12.2366 9.1439 13.2284 7.11824Z" fill="#FFC538"/>
<path d="M8.57812 7.36693C8.57812 8.81663 9.59092 9.48296 10.8402 8.85521C12.0895 8.22746 13.1023 6.54338 13.1023 5.09368C13.1023 3.64397 12.0896 2.97765 10.8402 3.6054C9.59086 4.2331 8.57812 5.91722 8.57812 7.36693Z" fill="url(#paint6_linear_3239_34946)"/>
<path d="M11.9941 3.39258C12.3392 3.67997 12.5486 4.17609 12.5486 4.8345C12.5486 6.2842 11.5359 7.96828 10.2866 8.59603C9.86505 8.80781 9.47068 8.8718 9.13281 8.80856C9.54754 9.15389 10.1585 9.19753 10.8404 8.85492C12.0896 8.22717 13.1024 6.54309 13.1024 5.09339C13.1024 4.13283 12.6575 3.5167 11.9941 3.39258Z" fill="url(#paint7_linear_3239_34946)"/>
<defs>
<linearGradient id="paint0_linear_3239_34946" x1="6.40204" y1="15.217" x2="8.88091" y2="15.219" gradientUnits="userSpaceOnUse">
<stop stop-color="#BA5C25"/>
<stop offset="1" stop-color="#CC8241"/>
</linearGradient>
<linearGradient id="paint1_linear_3239_34946" x1="12.3321" y1="9.92067" x2="13.6337" y2="7.47887" gradientUnits="userSpaceOnUse">
<stop stop-color="#236568"/>
<stop offset="1" stop-color="#2F878A"/>
</linearGradient>
<linearGradient id="paint2_linear_3239_34946" x1="18.3337" y1="14.6564" x2="19.2797" y2="12.7737" gradientUnits="userSpaceOnUse">
<stop stop-color="#BA5C25"/>
<stop offset="0.343" stop-color="#CC8241"/>
<stop offset="1" stop-color="#DEA861"/>
</linearGradient>
<linearGradient id="paint3_linear_3239_34946" x1="17.9121" y1="12.9648" x2="21.0006" y2="12.9648" gradientUnits="userSpaceOnUse">
<stop stop-color="#BA5C25"/>
<stop offset="1" stop-color="#CC8241"/>
</linearGradient>
<linearGradient id="paint4_linear_3239_34946" x1="19.4089" y1="13.4437" x2="19.7811" y2="12.7031" gradientUnits="userSpaceOnUse">
<stop stop-color="#3E242E"/>
<stop offset="1" stop-color="#7C485C"/>
</linearGradient>
<linearGradient id="paint5_linear_3239_34946" x1="9.3449" y1="7.37343" x2="10.5639" y2="4.94739" gradientUnits="userSpaceOnUse">
<stop stop-color="#CC8241"/>
<stop offset="1" stop-color="#FFC538"/>
</linearGradient>
<linearGradient id="paint6_linear_3239_34946" x1="11.9301" y1="0.941342" x2="10.415" y2="10.6479" gradientUnits="userSpaceOnUse">
<stop stop-color="#CC8241"/>
<stop offset="1" stop-color="#FFC538"/>
</linearGradient>
<linearGradient id="paint7_linear_3239_34946" x1="11.4748" y1="6.32245" x2="10.6547" y2="9.22368" gradientUnits="userSpaceOnUse">
<stop stop-color="#CC8241"/>
<stop offset="1" stop-color="#FFC538"/>
</linearGradient>
</defs>
</svg>
